%TF.GenerationSoftware,Altium Limited,Altium Designer,20.1.14 (287)*%
G04 Layer_Physical_Order=4*
G04 Layer_Color=16711680*
%FSLAX26Y26*%
%MOIN*%
%TF.SameCoordinates,7E9A0AC4-0E20-4BBF-80A7-7FB1365180D4*%
%TF.FilePolarity,Positive*%
%TF.FileFunction,Copper,L4,Bot,Signal*%
%TF.Part,Single*%
G01*
G75*
%TA.AperFunction,SMDPad,CuDef*%
%ADD17R,0.053150X0.045276*%
%ADD18R,0.045276X0.053150*%
%ADD25R,0.051181X0.055118*%
%ADD26R,0.055118X0.051181*%
%TA.AperFunction,Conductor*%
%ADD27C,0.012000*%
%ADD28C,0.010000*%
%ADD29C,0.020000*%
%TA.AperFunction,ComponentPad*%
%ADD30C,0.035433*%
%ADD31C,0.060000*%
%TA.AperFunction,ViaPad*%
%ADD32C,0.035000*%
%ADD33C,0.019685*%
%ADD34C,0.030000*%
%ADD35C,0.050000*%
%TA.AperFunction,SMDPad,CuDef*%
%ADD36O,0.021654X0.086614*%
%ADD37O,0.023622X0.080709*%
D17*
X2625837Y3189449D02*
D03*
Y3120551D02*
D03*
X2330837Y3460551D02*
D03*
Y3529449D02*
D03*
X2250837Y3460551D02*
D03*
Y3529449D02*
D03*
X2170837Y3460551D02*
D03*
Y3529449D02*
D03*
D18*
X3595551Y2900000D02*
D03*
X3664449D02*
D03*
X3819449Y3310000D02*
D03*
X3750551D02*
D03*
X3839449Y2900000D02*
D03*
X3770551D02*
D03*
X3669449Y3310000D02*
D03*
X3600551D02*
D03*
D25*
X3278504Y2775000D02*
D03*
X3341496D02*
D03*
X3336496Y3345000D02*
D03*
X3273504D02*
D03*
X3341496Y2870000D02*
D03*
X3278504D02*
D03*
X2557333Y2895000D02*
D03*
X2494341D02*
D03*
D26*
X3515000Y3293504D02*
D03*
Y3356496D02*
D03*
X2555837Y3832992D02*
D03*
Y3770000D02*
D03*
X2875837Y3371496D02*
D03*
Y3308504D02*
D03*
X2785837Y3371496D02*
D03*
Y3308504D02*
D03*
X2275191Y2977449D02*
D03*
Y3040441D02*
D03*
X2190522Y2978504D02*
D03*
Y3041496D02*
D03*
X2185837Y3201496D02*
D03*
Y3138504D02*
D03*
X2275837Y3201496D02*
D03*
Y3138504D02*
D03*
D27*
X3865000Y3095000D02*
X3930000D01*
X2959472Y2565000D02*
X3780000D01*
X2949472Y2575000D02*
X2959472Y2565000D01*
X3780000D02*
X3835000Y2620000D01*
X3980000Y2650000D02*
Y3045000D01*
X3930000Y3095000D02*
X3980000Y3045000D01*
X3815000Y2485000D02*
X3980000Y2650000D01*
X3405000Y2485000D02*
X3815000D01*
X2295000Y2515000D02*
X3375000D01*
X3405000Y2485000D01*
X2440000Y2575000D02*
X2949472D01*
X2265000Y2545000D02*
Y2710000D01*
Y2545000D02*
X2295000Y2515000D01*
X3835000Y2620000D02*
X3860000D01*
X2760000Y2630000D02*
X3630000D01*
X3742347Y2742347D01*
D28*
X3336496Y3345000D02*
X3435000D01*
X3220000Y2870000D02*
X3278504D01*
X3341496Y2775000D02*
X3485000D01*
X3220000D02*
X3278504D01*
X3010000Y3390000D02*
Y3495000D01*
X3235000Y3050000D02*
Y3165000D01*
X3010000Y3390000D02*
X3235000Y3165000D01*
X3258504Y3330000D02*
X3273504Y3345000D01*
X3220000Y3330000D02*
X3258504D01*
X3341496Y2870000D02*
Y3340000D01*
X3336496Y3345000D02*
X3341496Y3340000D01*
D29*
X3289095Y3384095D02*
X3315000Y3410000D01*
X3289095Y3360591D02*
Y3384095D01*
X3315000Y3410000D02*
X3459528D01*
X4450769Y2640769D02*
X4750769D01*
X5055769D01*
X6835154Y2426385D02*
X6835769Y2427000D01*
Y2425769D02*
X7135769D01*
X3774492Y3266425D02*
X3780231D01*
X3750520Y3242454D02*
X3774492Y3266425D01*
X3750520Y3230710D02*
Y3242454D01*
X3790189Y3276384D02*
Y3289500D01*
X3780231Y3266425D02*
X3790189Y3276384D01*
X3750520Y3230710D02*
X3770316Y3210913D01*
Y3200316D02*
Y3210913D01*
X3790189Y3289500D02*
X3802886D01*
X3819449Y3306063D01*
X3742520Y3095000D02*
X3865000D01*
X3770000Y3200000D02*
X3770316Y3200316D01*
X4445769Y2835769D02*
X4745769D01*
X5045769D01*
X4440769Y3030769D02*
X4740769D01*
X5040769D01*
X4440769Y3235769D02*
X4735769D01*
X6240769Y2425769D02*
X6529538D01*
X5930769D02*
X5931385Y2426385D01*
X6240154D01*
X6240769Y2427000D01*
X6529538Y2425769D02*
X6530769Y2427000D01*
X6531385Y2426385D02*
X6835154D01*
X4075000Y3130000D02*
X4125000Y3080000D01*
Y2475000D02*
Y3080000D01*
X5035769Y2425769D02*
X5335769D01*
X5635769D01*
X5930769D01*
X4435769D02*
X4740769D01*
X5035769D01*
X3819449Y3306063D02*
Y3310000D01*
X5065000Y2385000D02*
X5130000Y2320000D01*
X5325000D01*
X4200000Y3185000D02*
X4207870Y3177130D01*
X4222870D01*
X4280000Y3120000D01*
Y3025000D02*
Y3120000D01*
X4265000Y3010000D02*
X4280000Y3025000D01*
X4265000Y2500000D02*
Y3010000D01*
X4195000Y3130000D02*
X4197870Y3127130D01*
X4245000Y3040000D02*
Y3110000D01*
X4227870Y3127130D02*
X4245000Y3110000D01*
X4197870Y3127130D02*
X4227870D01*
X4220000Y3015000D02*
X4245000Y3040000D01*
X4265000Y2500000D02*
X4380000Y2385000D01*
X5065000D01*
X4220000Y2495000D02*
Y3015000D01*
X4360000Y2355000D02*
X4770000D01*
X4220000Y2495000D02*
X4360000Y2355000D01*
X4170000Y2495000D02*
Y3100000D01*
X4345000Y2320000D02*
X4740000D01*
X4170000Y2495000D02*
X4345000Y2320000D01*
X4280000D02*
Y2320000D01*
X4125000Y2475000D02*
X4280000Y2320000D01*
X4805000Y2320000D02*
X5040000D01*
X4770000Y2355000D02*
X4805000Y2320000D01*
X4135000Y3135000D02*
X4170000Y3100000D01*
X4445769Y3435769D02*
X4745769D01*
X5040769D01*
X4750769Y3640769D02*
X5050769D01*
X4450769D02*
X4750769D01*
X2486193Y3529645D02*
X2582000Y3433838D01*
Y3339499D02*
Y3433838D01*
X2550837Y3308336D02*
X2582000Y3339499D01*
X3819689Y2830000D02*
X3831405Y2841716D01*
X3595551Y2808508D02*
Y2830000D01*
X3831405Y2841716D02*
Y2891956D01*
X3595551Y2830000D02*
X3819689D01*
X3595551D02*
Y2900000D01*
X3770000Y3011024D02*
X3848976D01*
X3890000Y2850000D02*
Y2970000D01*
X3848976Y3011024D02*
X3890000Y2970000D01*
X4440769Y3830144D02*
X4441082Y3830457D01*
X4735769Y3235769D02*
X5045769D01*
X4740769Y3830769D02*
X4741101Y3831101D01*
X4441082Y3830457D02*
X4740457D01*
X4740769Y3830769D01*
X4430769Y4220769D02*
X4730769D01*
X5020769D01*
X5320769D01*
X5630769D01*
X5935769D01*
X6225769D01*
X6530769D01*
X6835769D01*
X7135769D01*
X7425769D01*
X7725769D01*
X8020769D01*
X8325769D01*
X8630769D01*
X8330769Y4025769D02*
X8635769D01*
X8025769D02*
X8330769D01*
X7725769D02*
X8025769D01*
X7435769D02*
X7725769D01*
X7140769D02*
X7435769D01*
X6835769D02*
X7140769D01*
X6535769D02*
X6835769D01*
X6235769D02*
X6535769D01*
X5937682Y4027682D02*
X5938639Y4026726D01*
X6234813D01*
X6235769Y4025769D01*
X5630769D02*
X5631726Y4026726D01*
X5936726D01*
X5937682Y4027682D01*
X5335769Y4025769D02*
X5630769D01*
X5035769D02*
X5335769D01*
X4735769D02*
X5035769D01*
X4435769D02*
X4735769D01*
X5042351Y3831101D02*
X5042682Y3831432D01*
X4741101Y3831101D02*
X5042351D01*
X5340438D02*
X5340769Y3830769D01*
X5043014Y3831101D02*
X5340438D01*
X5042682Y3831432D02*
X5043014Y3831101D01*
X5340769Y3830769D02*
X5630769D01*
X5050769Y3640769D02*
X5350769D01*
X5645769D01*
X5630769Y3830769D02*
X5935769D01*
X5645769Y3640769D02*
X5935769D01*
Y3830769D02*
X6240769D01*
X6540769D01*
X6250769Y3640769D02*
X6540769D01*
X5935769D02*
X6250769D01*
X5935769Y3435769D02*
X6245769D01*
X6540769D01*
Y3830769D02*
X6840769D01*
X7140769D01*
X7440769D01*
X7140769Y3640769D02*
X7440769D01*
X6850769D02*
X7140769D01*
X6540769D02*
X6850769D01*
X6540769Y3435769D02*
X6845769D01*
X7145769D01*
X7445769D01*
X7140769Y3235769D02*
X7440769D01*
X6845769D02*
X7140769D01*
X6540769D02*
X6845769D01*
X7440769Y3830769D02*
X7740769D01*
X8040769D01*
X8340769D01*
X8045769Y3640769D02*
X8345769D01*
X7740769D02*
X8045769D01*
X7440769D02*
X7740769D01*
X7445769Y3435769D02*
X7745769D01*
X8040769D01*
X8343269D01*
X8045769Y3235769D02*
X8340769D01*
X7745769D02*
X8045769D01*
X7440769D02*
X7745769D01*
X8340769Y3830769D02*
X8640769D01*
X8345769Y3640769D02*
X8635769D01*
X8343269Y3435769D02*
X8645769D01*
X8340769Y3235769D02*
X8640769D01*
X8340769Y3030769D02*
X8640769D01*
X8335769Y2835769D02*
X8645769D01*
X8350769Y2640769D02*
X8650769D01*
X8335769Y2425769D02*
X8635769D01*
X8030769Y3030769D02*
X8340769D01*
X7735769D02*
X8030769D01*
X7440769D02*
X7735769D01*
X7445769Y2835769D02*
X7745769D01*
X8040769D01*
X8335769D01*
X8045769Y2640769D02*
X8350769D01*
X7745769D02*
X8045769D01*
X7445769D02*
X7745769D01*
X7435769Y2425769D02*
X7735769D01*
X8035769D01*
X8335769D01*
X7135769D02*
X7435769D01*
X7150769Y2640769D02*
X7445769D01*
X7135769Y2835769D02*
X7445769D01*
X7130769Y3030769D02*
X7440769D01*
X6835769D02*
X7130769D01*
X6535769D02*
X6835769D01*
X6230769D02*
X6535769D01*
X6240769Y2835769D02*
X6545769D01*
X6840769D01*
X7135769D01*
X6850769Y2640769D02*
X7150769D01*
X6550769D02*
X6850769D01*
X6245769D02*
X6550769D01*
X5335769Y3030769D02*
X5640769D01*
X5940769D01*
X6230769D01*
X5940769Y2835769D02*
X6240769D01*
X5645769D02*
X5940769D01*
X5345769D02*
X5645769D01*
X5345769Y2640769D02*
X5645769D01*
X5940769D01*
X6245769D01*
X5040769Y3030769D02*
X5335769D01*
X5045769Y2835769D02*
X5345769D01*
X5055769Y2640769D02*
X5345769D01*
X6245769Y3235769D02*
X6540769D01*
X5940769D02*
X6245769D01*
X5645769D02*
X5940769D01*
X5340769D02*
X5645769D01*
X5345769Y3435769D02*
X5640769D01*
X5935769D01*
X5040769D02*
X5345769D01*
X5045769Y3235769D02*
X5340769D01*
X3273504Y3345000D02*
X3289095Y3360591D01*
X3513032Y3356496D02*
X3515000D01*
X3459528Y3410000D02*
X3513032Y3356496D01*
X3435000Y3345000D02*
X3470905Y3309095D01*
X3499409D01*
X3465000Y2695000D02*
X3555000Y2785000D01*
X2355000Y2575000D02*
X2475000Y2695000D01*
X3465000D01*
X3460000Y2880000D02*
X3555000Y2785000D01*
X3460000Y2880000D02*
Y3055000D01*
X3620000Y3174937D02*
Y3200000D01*
X3619236Y3174173D02*
X3620000Y3174937D01*
X3579173Y3174173D02*
X3619236D01*
X3460000Y3055000D02*
X3579173Y3174173D01*
X3670000Y3167520D02*
Y3200000D01*
Y3167520D02*
X3742520Y3095000D01*
X3720000Y2905000D02*
Y3011024D01*
X3905000Y2770000D02*
Y2835000D01*
X3890000Y2850000D02*
X3905000Y2835000D01*
X3515000Y3356496D02*
X3611496D01*
X3613189Y3358189D01*
X3499409Y3309095D02*
X3515000Y3293504D01*
X3831405Y2891956D02*
X3839449Y2900000D01*
X3595551Y2808508D02*
X3620000Y2784059D01*
Y2780000D02*
Y2784059D01*
X3614236Y3020000D02*
X3620000Y3014236D01*
X3540000Y3020000D02*
X3614236D01*
X3620000Y3011024D02*
Y3014236D01*
X3815000Y3314449D02*
X3819449Y3310000D01*
X3815000Y3314449D02*
Y3355000D01*
X3630000Y3375000D02*
X3795000D01*
X3815000Y3355000D01*
X3600551Y3310000D02*
X3613189Y3322638D01*
Y3358189D01*
X3630000Y3375000D01*
X3750551Y3306063D02*
Y3310000D01*
X3720000Y3275512D02*
X3750551Y3306063D01*
X3720000Y3200000D02*
Y3275512D01*
X3669449Y3310000D02*
X3669724Y3309724D01*
Y3200276D02*
Y3309724D01*
Y3200276D02*
X3670000Y3200000D01*
X3664449Y2900000D02*
X3669684Y2905235D01*
Y3010707D01*
X3670000Y3011024D01*
X3770276Y2900276D02*
X3770551Y2900000D01*
X3770276Y2900276D02*
Y3010748D01*
X3770000Y3011024D02*
X3770276Y3010748D01*
X2625325Y3189961D02*
X2625837Y3189449D01*
X2551349Y3189961D02*
X2625325D01*
X2550837Y3190472D02*
X2551349Y3189961D01*
X2521388Y3120551D02*
X2625837D01*
X2501530Y3140409D02*
X2521388Y3120551D01*
X2501530Y3140409D02*
Y3189779D01*
X2500837Y3190472D02*
X2501530Y3189779D01*
X2494341Y2895000D02*
X2500144Y2900803D01*
Y2998834D01*
X2500837Y2999528D01*
X2494341Y2895000D02*
Y2896968D01*
X2478751Y2912559D02*
X2494341Y2896968D01*
X2459262Y2912559D02*
X2478751D01*
X2400837Y2970984D02*
X2459262Y2912559D01*
X2400837Y2970984D02*
Y2999528D01*
X2550837Y2970004D02*
X2557333Y2963508D01*
Y2895000D02*
Y2963508D01*
X2439121Y3120000D02*
X2450837Y3131716D01*
Y3190472D01*
X2347553Y3120000D02*
X2439121D01*
X2335837Y3131716D02*
X2347553Y3120000D01*
X2500837Y3190472D02*
Y3350000D01*
X2463337Y3387500D02*
X2500837Y3350000D01*
X2455837Y3395941D02*
Y3400000D01*
X2463337Y3387500D02*
Y3388441D01*
X2455837Y3395941D02*
X2463337Y3388441D01*
X2360837Y3462218D02*
X2428264Y3529645D01*
X2486193D01*
X2332504Y3462218D02*
X2360837D01*
X2330837Y3460551D02*
X2332504Y3462218D01*
X2186381Y3424456D02*
X2335837Y3275000D01*
X2173743Y3460551D02*
X2186381Y3447913D01*
Y3424456D02*
Y3447913D01*
X2170837Y3460551D02*
X2173743D01*
X2335837Y3131716D02*
Y3275000D01*
X2400837Y3190472D02*
Y3275551D01*
X2261389Y3415000D02*
Y3450000D01*
X2250837Y3460551D02*
X2261389Y3450000D01*
X2450837Y3190472D02*
Y3355000D01*
X2261389Y3415000D02*
X2356113Y3320276D01*
X2400837Y3275551D01*
X2356113Y3320276D02*
X2373611Y3337774D01*
X2400837Y3405000D02*
Y3430000D01*
Y3405000D02*
X2450837Y3355000D01*
X2370885Y3378072D02*
X2373611Y3375346D01*
Y3337774D02*
Y3375346D01*
X2370885Y3378072D02*
Y3379036D01*
Y3384952D01*
X2370837Y3385000D02*
X2370885Y3384952D01*
X2705837Y3310000D02*
X2706585Y3309252D01*
X2785089D01*
X2785837Y3308504D01*
X2875837D01*
X2785837Y3371496D02*
X2875837D01*
X2550837Y3190472D02*
Y3308336D01*
X2553337Y3767500D02*
X2555837Y3770000D01*
X2552333Y3980000D02*
X2554085Y3978248D01*
Y3834744D02*
Y3978248D01*
Y3834744D02*
X2555837Y3832992D01*
X2105837Y3045000D02*
X2107589Y3043248D01*
X2188770D01*
X2190522Y3041496D01*
X2274663Y3040968D02*
X2275191Y3040441D01*
X2191050Y3040968D02*
X2274663D01*
X2190522Y3041496D02*
X2191050Y3040968D01*
X2274663Y2977976D02*
X2275191Y2977449D01*
X2191050Y2977976D02*
X2274663D01*
X2190522Y2978504D02*
X2191050Y2977976D01*
X2175837Y2880000D02*
Y2888118D01*
X2190522Y2902803D01*
Y2978504D01*
X2188337Y3322500D02*
X2190837Y3325000D01*
X2188337Y3203996D02*
Y3322500D01*
X2185837Y3201496D02*
X2188337Y3203996D01*
X2188180Y3043838D02*
X2188770Y3043248D01*
X2188180Y3043838D02*
Y3136162D01*
X2185837Y3138504D02*
X2188180Y3136162D01*
X2185837Y3138504D02*
X2270837D01*
X2185837Y3201496D02*
X2270837D01*
X3720000Y3011024D02*
Y3043056D01*
X3620764Y2997165D02*
Y3010260D01*
X3620000Y3011024D02*
X3620764Y3010260D01*
X3619684Y3199684D02*
X3620000Y3200000D01*
X2470097Y3069575D02*
X2475837Y3075315D01*
X2442341Y3069575D02*
X2470097D01*
X2400837Y3028071D02*
X2442341Y3069575D01*
X2400837Y2999528D02*
Y3028071D01*
X2622967Y2982870D02*
X2625837Y2980000D01*
X2552510Y2982870D02*
X2622967D01*
X2550837Y2984543D02*
X2552510Y2982870D01*
X2550837Y2984543D02*
Y2999528D01*
Y2970004D02*
Y2984543D01*
X2350837Y3549449D02*
Y3660000D01*
X2347412Y3546024D02*
X2350837Y3549449D01*
X2347412Y3542087D02*
Y3546024D01*
X2334774Y3529449D02*
X2347412Y3542087D01*
X2330837Y3529449D02*
X2334774D01*
X2250837D02*
X2330837D01*
X2170837D02*
X2250837D01*
D30*
X1880837Y3180000D02*
D03*
Y3006772D02*
D03*
D31*
X2755837Y3765000D02*
D03*
Y3465000D02*
D03*
X2455837Y3765000D02*
D03*
Y3465000D02*
D03*
D32*
X2830000Y3405000D02*
D03*
X4085000Y3375000D02*
D03*
X3880000Y3285000D02*
D03*
Y3195000D02*
D03*
X3595000Y3420000D02*
D03*
X3720000Y2905000D02*
D03*
X3895000Y3330000D02*
D03*
X3905000Y2770000D02*
D03*
X3865000Y3095000D02*
D03*
X3295000Y3575000D02*
D03*
X4150000Y3475000D02*
D03*
X3900000Y3235000D02*
D03*
X4200000Y3185000D02*
D03*
X3500000Y3585000D02*
D03*
X4135000Y3135000D02*
D03*
X3905000Y3035000D02*
D03*
X3220000Y2870000D02*
D03*
X4140020Y3355020D02*
D03*
X4075000Y3130000D02*
D03*
X3695000Y2770000D02*
D03*
X3435000Y3345000D02*
D03*
X3860000Y2620000D02*
D03*
X3742347Y2742347D02*
D03*
X3485000Y2775000D02*
D03*
X3830000Y2794500D02*
D03*
X4200000Y3235000D02*
D03*
X4065000Y3415000D02*
D03*
X3220000Y2775000D02*
D03*
Y3330000D02*
D03*
X3810000Y3245000D02*
D03*
X4195000Y3130000D02*
D03*
X3620000Y2780000D02*
D03*
X3235000Y3050000D02*
D03*
X3490000Y3435000D02*
D03*
X3905000Y3160000D02*
D03*
X4115000Y3430000D02*
D03*
X4065000Y2965000D02*
D03*
X4210000Y3340000D02*
D03*
X3555000Y2785000D02*
D03*
X6835000Y2320000D02*
D03*
X7135000D02*
D03*
X4200000Y3290000D02*
D03*
X6225000Y2320000D02*
D03*
X5935000D02*
D03*
X5040000D02*
D03*
X5325000D02*
D03*
X4280000D02*
D03*
X4204500Y3070000D02*
D03*
X8625000Y2320000D02*
D03*
X8325000D02*
D03*
X8025000D02*
D03*
X7735000D02*
D03*
X7425000D02*
D03*
X6535000D02*
D03*
X5625000Y2325000D02*
D03*
X4740000Y2320000D02*
D03*
X2830409Y3128536D02*
D03*
X2625837Y2980000D02*
D03*
X2370885Y3379036D02*
D03*
X2620837Y2790000D02*
D03*
X2400837Y3430000D02*
D03*
X2455837Y3400000D02*
D03*
X2715837Y2885000D02*
D03*
X3450000Y2596500D02*
D03*
X3690000Y3680000D02*
D03*
X3370000Y3685000D02*
D03*
X2440000Y2575000D02*
D03*
X2265000Y2710000D02*
D03*
X2760000Y2630000D02*
D03*
X3815000Y2410000D02*
D03*
X3730000Y2415000D02*
D03*
X2355000Y2575000D02*
D03*
X3905000Y2430000D02*
D03*
X3965000Y2550000D02*
D03*
X3540000Y3020000D02*
D03*
X3495000Y2520000D02*
D03*
X3010000Y3495000D02*
D03*
X4175000Y3525000D02*
D03*
X2175837Y2880000D02*
D03*
X2475837Y3075315D02*
D03*
D33*
X1932530Y3608347D02*
D03*
Y3651654D02*
D03*
X1975837Y3608347D02*
D03*
Y3651654D02*
D03*
X2019144Y3608347D02*
D03*
Y3651654D02*
D03*
D34*
X4450769Y2640769D02*
D03*
X6835769Y2427000D02*
D03*
X7135769Y2425769D02*
D03*
X4445769Y2835769D02*
D03*
X4440769Y3030769D02*
D03*
Y3235769D02*
D03*
X6530769Y2427000D02*
D03*
X6240769D02*
D03*
X4435769Y2425769D02*
D03*
X5335769D02*
D03*
X5930769D02*
D03*
X4740769D02*
D03*
X5035769D02*
D03*
X5635769D02*
D03*
X4445769Y3435769D02*
D03*
X4450769Y3640769D02*
D03*
X4440769Y3830144D02*
D03*
X4430769Y4220769D02*
D03*
X4730769D02*
D03*
X5020769D02*
D03*
X5320769D02*
D03*
X5630769D02*
D03*
X5935769D02*
D03*
X6225769D02*
D03*
X6530769D02*
D03*
X6835769D02*
D03*
X7135769D02*
D03*
X7425769D02*
D03*
X7725769D02*
D03*
X8020769D02*
D03*
X8325769D02*
D03*
X8630769D02*
D03*
X4435769Y4025769D02*
D03*
X4735769D02*
D03*
X5035769D02*
D03*
X5335769D02*
D03*
X5630769D02*
D03*
X5937682Y4027682D02*
D03*
X6235769Y4025769D02*
D03*
X6535769D02*
D03*
X6835769D02*
D03*
X7140769D02*
D03*
X7435769D02*
D03*
X7725769D02*
D03*
X8025769D02*
D03*
X8330769D02*
D03*
X8635769D02*
D03*
X4740769Y3830769D02*
D03*
X5042682Y3831432D02*
D03*
X5340769Y3830769D02*
D03*
X5630769D02*
D03*
X5935769D02*
D03*
X6240769D02*
D03*
X6540769D02*
D03*
X6840769D02*
D03*
X7140769D02*
D03*
X7440769D02*
D03*
X7740769D02*
D03*
X8040769D02*
D03*
X8340769D02*
D03*
X8640769D02*
D03*
X4750769Y3640769D02*
D03*
X5050769D02*
D03*
X5350769D02*
D03*
X5645769D02*
D03*
X5935769D02*
D03*
X6250769D02*
D03*
X6540769D02*
D03*
X6850769D02*
D03*
X7140769D02*
D03*
X7440769D02*
D03*
X7740769D02*
D03*
X8045769D02*
D03*
X8345769D02*
D03*
X8635769D02*
D03*
X4745769Y3435769D02*
D03*
X5040769D02*
D03*
X5345769D02*
D03*
X5640769D02*
D03*
X5935769D02*
D03*
X6245769D02*
D03*
X6540769D02*
D03*
X6845769D02*
D03*
X7145769D02*
D03*
X7445769D02*
D03*
X7745769D02*
D03*
X8040769D02*
D03*
X8343269D02*
D03*
X8645769D02*
D03*
X4735769Y3235769D02*
D03*
X5045769D02*
D03*
X5340769D02*
D03*
X5645769D02*
D03*
X5940769D02*
D03*
X6245769D02*
D03*
X6540769D02*
D03*
X6845769D02*
D03*
X7140769D02*
D03*
X7440769D02*
D03*
X7745769D02*
D03*
X8045769D02*
D03*
X8340769D02*
D03*
X8640769D02*
D03*
X4740769Y3030769D02*
D03*
X5040769D02*
D03*
X5335769D02*
D03*
X5640769D02*
D03*
X5940769D02*
D03*
X6230769D02*
D03*
X6535769D02*
D03*
X6835769D02*
D03*
X7130769D02*
D03*
X7440769D02*
D03*
X7735769D02*
D03*
X8030769D02*
D03*
X8340769D02*
D03*
X8640769D02*
D03*
X5345769Y2835769D02*
D03*
X5645769D02*
D03*
X5940769D02*
D03*
X6240769D02*
D03*
X6545769D02*
D03*
X6840769D02*
D03*
X7135769D02*
D03*
X7445769D02*
D03*
X7745769D02*
D03*
X8040769D02*
D03*
X8335769D02*
D03*
X8645769D02*
D03*
X4750769Y2640769D02*
D03*
X5055769D02*
D03*
X5345769D02*
D03*
X5645769D02*
D03*
X5940769D02*
D03*
X6245769D02*
D03*
X6550769D02*
D03*
X6850769D02*
D03*
X7150769D02*
D03*
X7445769D02*
D03*
X7745769D02*
D03*
X8045769D02*
D03*
X8350769D02*
D03*
X8650769D02*
D03*
X7435769Y2425769D02*
D03*
X7735769D02*
D03*
X8035769D02*
D03*
X8335769D02*
D03*
X8635769D02*
D03*
X4745769Y2835769D02*
D03*
X5045769D02*
D03*
D35*
X2540000Y3400000D02*
D03*
X2705837Y3310000D02*
D03*
X1950837Y4065000D02*
D03*
X2330837Y3980000D02*
D03*
X2552333D02*
D03*
X2190837Y3325000D02*
D03*
X2050837Y2985000D02*
D03*
X2105837Y3045000D02*
D03*
X2400837Y4250000D02*
D03*
D36*
X3620000Y3200000D02*
D03*
X3670000D02*
D03*
X3720000D02*
D03*
X3770000D02*
D03*
X3620000Y3011024D02*
D03*
X3670000D02*
D03*
X3720000D02*
D03*
X3770000D02*
D03*
D37*
X2400837Y3190472D02*
D03*
X2450837D02*
D03*
X2500837D02*
D03*
X2550837D02*
D03*
X2400837Y2999528D02*
D03*
X2450837D02*
D03*
X2500837D02*
D03*
X2550837D02*
D03*
%TF.MD5,fa23ffc6484ebf4163b833e385c8cd63*%
M02*
