%TF.GenerationSoftware,Altium Limited,Altium Designer,20.1.14 (287)*%
G04 Layer_Color=0*
%FSLAX26Y26*%
%MOIN*%
%TF.SameCoordinates,7E9A0AC4-0E20-4BBF-80A7-7FB1365180D4*%
%TF.FilePolarity,Positive*%
%TF.FileFunction,Plated,1,4,PTH,Drill*%
%TF.Part,Single*%
G01*
G75*
%TA.AperFunction,ComponentDrill*%
%ADD73C,0.025000*%
%TA.AperFunction,ViaDrill,NotFilled*%
%ADD74C,0.020000*%
%ADD75C,0.007874*%
%ADD76C,0.015000*%
%ADD77C,0.025000*%
%ADD78C,0.028000*%
D73*
X2755837Y3765000D02*
D03*
Y3465000D02*
D03*
X2455837Y3765000D02*
D03*
Y3465000D02*
D03*
D74*
X2830000Y3405000D02*
D03*
X4085000Y3375000D02*
D03*
X3880000Y3285000D02*
D03*
Y3195000D02*
D03*
X3595000Y3420000D02*
D03*
X3720000Y2905000D02*
D03*
X3895000Y3330000D02*
D03*
X3905000Y2770000D02*
D03*
X3865000Y3095000D02*
D03*
X3295000Y3575000D02*
D03*
X4150000Y3475000D02*
D03*
X3900000Y3235000D02*
D03*
X4200000Y3185000D02*
D03*
X3500000Y3585000D02*
D03*
X4135000Y3135000D02*
D03*
X3905000Y3035000D02*
D03*
X3220000Y2870000D02*
D03*
X4140020Y3355020D02*
D03*
X4075000Y3130000D02*
D03*
X3695000Y2770000D02*
D03*
X3435000Y3345000D02*
D03*
X3860000Y2620000D02*
D03*
X3742347Y2742347D02*
D03*
X3485000Y2775000D02*
D03*
X3830000Y2794500D02*
D03*
X4200000Y3235000D02*
D03*
X4065000Y3415000D02*
D03*
X3220000Y2775000D02*
D03*
Y3330000D02*
D03*
X3810000Y3245000D02*
D03*
X4195000Y3130000D02*
D03*
X3620000Y2780000D02*
D03*
X3235000Y3050000D02*
D03*
X3490000Y3435000D02*
D03*
X3905000Y3160000D02*
D03*
X4115000Y3430000D02*
D03*
X4065000Y2965000D02*
D03*
X4210000Y3340000D02*
D03*
X3555000Y2785000D02*
D03*
X6835000Y2320000D02*
D03*
X7135000D02*
D03*
X4200000Y3290000D02*
D03*
X6225000Y2320000D02*
D03*
X5935000D02*
D03*
X5040000D02*
D03*
X5325000D02*
D03*
X4280000D02*
D03*
X4204500Y3070000D02*
D03*
X8625000Y2320000D02*
D03*
X8325000D02*
D03*
X8025000D02*
D03*
X7735000D02*
D03*
X7425000D02*
D03*
X6535000D02*
D03*
X5625000Y2325000D02*
D03*
X4740000Y2320000D02*
D03*
X2830409Y3128536D02*
D03*
X2625837Y2980000D02*
D03*
X2370885Y3379036D02*
D03*
X2620837Y2790000D02*
D03*
X2400837Y3430000D02*
D03*
X2455837Y3400000D02*
D03*
X2715837Y2885000D02*
D03*
X3450000Y2596500D02*
D03*
X3690000Y3680000D02*
D03*
X3370000Y3685000D02*
D03*
X2440000Y2575000D02*
D03*
X2265000Y2710000D02*
D03*
X2760000Y2630000D02*
D03*
X3815000Y2410000D02*
D03*
X3730000Y2415000D02*
D03*
X2355000Y2575000D02*
D03*
X3905000Y2430000D02*
D03*
X3965000Y2550000D02*
D03*
X3540000Y3020000D02*
D03*
X3495000Y2520000D02*
D03*
X3010000Y3495000D02*
D03*
X4175000Y3525000D02*
D03*
X2175837Y2880000D02*
D03*
X2475837Y3075315D02*
D03*
D75*
X1932530Y3608347D02*
D03*
Y3651654D02*
D03*
X1975837Y3608347D02*
D03*
Y3651654D02*
D03*
X2019144Y3608347D02*
D03*
Y3651654D02*
D03*
D76*
X4450769Y2640769D02*
D03*
X6835769Y2427000D02*
D03*
X7135769Y2425769D02*
D03*
X4445769Y2835769D02*
D03*
X4440769Y3030769D02*
D03*
Y3235769D02*
D03*
X6530769Y2427000D02*
D03*
X6240769D02*
D03*
X4435769Y2425769D02*
D03*
X5335769D02*
D03*
X5930769D02*
D03*
X4740769D02*
D03*
X5035769D02*
D03*
X5635769D02*
D03*
X4445769Y3435769D02*
D03*
X4450769Y3640769D02*
D03*
X4440769Y3830144D02*
D03*
X4430769Y4220769D02*
D03*
X4730769D02*
D03*
X5020769D02*
D03*
X5320769D02*
D03*
X5630769D02*
D03*
X5935769D02*
D03*
X6225769D02*
D03*
X6530769D02*
D03*
X6835769D02*
D03*
X7135769D02*
D03*
X7425769D02*
D03*
X7725769D02*
D03*
X8020769D02*
D03*
X8325769D02*
D03*
X8630769D02*
D03*
X4435769Y4025769D02*
D03*
X4735769D02*
D03*
X5035769D02*
D03*
X5335769D02*
D03*
X5630769D02*
D03*
X5937682Y4027682D02*
D03*
X6235769Y4025769D02*
D03*
X6535769D02*
D03*
X6835769D02*
D03*
X7140769D02*
D03*
X7435769D02*
D03*
X7725769D02*
D03*
X8025769D02*
D03*
X8330769D02*
D03*
X8635769D02*
D03*
X4740769Y3830769D02*
D03*
X5042682Y3831432D02*
D03*
X5340769Y3830769D02*
D03*
X5630769D02*
D03*
X5935769D02*
D03*
X6240769D02*
D03*
X6540769D02*
D03*
X6840769D02*
D03*
X7140769D02*
D03*
X7440769D02*
D03*
X7740769D02*
D03*
X8040769D02*
D03*
X8340769D02*
D03*
X8640769D02*
D03*
X4750769Y3640769D02*
D03*
X5050769D02*
D03*
X5350769D02*
D03*
X5645769D02*
D03*
X5935769D02*
D03*
X6250769D02*
D03*
X6540769D02*
D03*
X6850769D02*
D03*
X7140769D02*
D03*
X7440769D02*
D03*
X7740769D02*
D03*
X8045769D02*
D03*
X8345769D02*
D03*
X8635769D02*
D03*
X4745769Y3435769D02*
D03*
X5040769D02*
D03*
X5345769D02*
D03*
X5640769D02*
D03*
X5935769D02*
D03*
X6245769D02*
D03*
X6540769D02*
D03*
X6845769D02*
D03*
X7145769D02*
D03*
X7445769D02*
D03*
X7745769D02*
D03*
X8040769D02*
D03*
X8343269D02*
D03*
X8645769D02*
D03*
X4735769Y3235769D02*
D03*
X5045769D02*
D03*
X5340769D02*
D03*
X5645769D02*
D03*
X5940769D02*
D03*
X6245769D02*
D03*
X6540769D02*
D03*
X6845769D02*
D03*
X7140769D02*
D03*
X7440769D02*
D03*
X7745769D02*
D03*
X8045769D02*
D03*
X8340769D02*
D03*
X8640769D02*
D03*
X4740769Y3030769D02*
D03*
X5040769D02*
D03*
X5335769D02*
D03*
X5640769D02*
D03*
X5940769D02*
D03*
X6230769D02*
D03*
X6535769D02*
D03*
X6835769D02*
D03*
X7130769D02*
D03*
X7440769D02*
D03*
X7735769D02*
D03*
X8030769D02*
D03*
X8340769D02*
D03*
X8640769D02*
D03*
X5345769Y2835769D02*
D03*
X5645769D02*
D03*
X5940769D02*
D03*
X6240769D02*
D03*
X6545769D02*
D03*
X6840769D02*
D03*
X7135769D02*
D03*
X7445769D02*
D03*
X7745769D02*
D03*
X8040769D02*
D03*
X8335769D02*
D03*
X8645769D02*
D03*
X4750769Y2640769D02*
D03*
X5055769D02*
D03*
X5345769D02*
D03*
X5645769D02*
D03*
X5940769D02*
D03*
X6245769D02*
D03*
X6550769D02*
D03*
X6850769D02*
D03*
X7150769D02*
D03*
X7445769D02*
D03*
X7745769D02*
D03*
X8045769D02*
D03*
X8350769D02*
D03*
X8650769D02*
D03*
X7435769Y2425769D02*
D03*
X7735769D02*
D03*
X8035769D02*
D03*
X8335769D02*
D03*
X8635769D02*
D03*
X4745769Y2835769D02*
D03*
X5045769D02*
D03*
D77*
X2540000Y3400000D02*
D03*
X2705837Y3310000D02*
D03*
X2190837Y3325000D02*
D03*
X2105837Y3045000D02*
D03*
X2400837Y4250000D02*
D03*
D78*
X1950837Y4065000D02*
D03*
X2330837Y3980000D02*
D03*
X2552333D02*
D03*
X2050837Y2985000D02*
D03*
%TF.MD5,b9b4927a0ecaf92b8780e871bc1fa8bd*%
M02*
