%TF.GenerationSoftware,Altium Limited,Altium Designer,20.1.14 (287)*%
G04 Layer_Color=2752767*
%FSLAX26Y26*%
%MOIN*%
%TF.SameCoordinates,7E9A0AC4-0E20-4BBF-80A7-7FB1365180D4*%
%TF.FilePolarity,Positive*%
%TF.FileFunction,Drawing*%
%TF.Part,Single*%
G01*
G75*
%TA.AperFunction,NonConductor*%
%ADD80C,0.005000*%
%ADD81C,0.006667*%
D80*
X1860837Y3160000D02*
Y3200000D01*
X1900837D01*
Y3160000D01*
X1860837D01*
Y2986772D02*
Y3026772D01*
X1900837D01*
Y2986772D01*
X1860837D01*
X2830000Y3385000D02*
X2810000Y3425000D01*
X2850000D01*
X2830000Y3385000D01*
X1932530Y3588347D02*
X1942530Y3598347D01*
X1952530D01*
X1942530Y3608347D01*
X1952530Y3618347D01*
X1942530D01*
X1932530Y3628347D01*
X1922530Y3618347D01*
X1912530D01*
X1922530Y3608347D01*
X1912530Y3598347D01*
X1922530D01*
X1932530Y3588347D01*
Y3631654D02*
X1942530Y3641654D01*
X1952530D01*
X1942530Y3651654D01*
X1952530Y3661654D01*
X1942530D01*
X1932530Y3671654D01*
X1922530Y3661654D01*
X1912530D01*
X1922530Y3651654D01*
X1912530Y3641654D01*
X1922530D01*
X1932530Y3631654D01*
X1975837Y3588347D02*
X1985837Y3598347D01*
X1995837D01*
X1985837Y3608347D01*
X1995837Y3618347D01*
X1985837D01*
X1975837Y3628347D01*
X1965837Y3618347D01*
X1955837D01*
X1965837Y3608347D01*
X1955837Y3598347D01*
X1965837D01*
X1975837Y3588347D01*
Y3631654D02*
X1985837Y3641654D01*
X1995837D01*
X1985837Y3651654D01*
X1995837Y3661654D01*
X1985837D01*
X1975837Y3671654D01*
X1965837Y3661654D01*
X1955837D01*
X1965837Y3651654D01*
X1955837Y3641654D01*
X1965837D01*
X1975837Y3631654D01*
X2019144Y3588347D02*
X2029144Y3598347D01*
X2039144D01*
X2029144Y3608347D01*
X2039144Y3618347D01*
X2029144D01*
X2019144Y3628347D01*
X2009144Y3618347D01*
X1999144D01*
X2009144Y3608347D01*
X1999144Y3598347D01*
X2009144D01*
X2019144Y3588347D01*
Y3631654D02*
X2029144Y3641654D01*
X2039144D01*
X2029144Y3651654D01*
X2039144Y3661654D01*
X2029144D01*
X2019144Y3671654D01*
X2009144Y3661654D01*
X1999144D01*
X2009144Y3651654D01*
X1999144Y3641654D01*
X2009144D01*
X2019144Y3631654D01*
X4085000Y3355000D02*
X4065000Y3395000D01*
X4105000D01*
X4085000Y3355000D01*
X3880000Y3265000D02*
X3860000Y3305000D01*
X3900000D01*
X3880000Y3265000D01*
Y3175000D02*
X3860000Y3215000D01*
X3900000D01*
X3880000Y3175000D01*
X3595000Y3400000D02*
X3575000Y3440000D01*
X3615000D01*
X3595000Y3400000D01*
X3720000Y2885000D02*
X3700000Y2925000D01*
X3740000D01*
X3720000Y2885000D01*
X3895000Y3310000D02*
X3875000Y3350000D01*
X3915000D01*
X3895000Y3310000D01*
X3905000Y2750000D02*
X3885000Y2790000D01*
X3925000D01*
X3905000Y2750000D01*
X3865000Y3075000D02*
X3845000Y3115000D01*
X3885000D01*
X3865000Y3075000D01*
X3295000Y3555000D02*
X3275000Y3595000D01*
X3315000D01*
X3295000Y3555000D01*
X4150000Y3455000D02*
X4130000Y3495000D01*
X4170000D01*
X4150000Y3455000D01*
X3900000Y3215000D02*
X3880000Y3255000D01*
X3920000D01*
X3900000Y3215000D01*
X4200000Y3165000D02*
X4180000Y3205000D01*
X4220000D01*
X4200000Y3165000D01*
X3500000Y3565000D02*
X3480000Y3605000D01*
X3520000D01*
X3500000Y3565000D01*
X4135000Y3115000D02*
X4115000Y3155000D01*
X4155000D01*
X4135000Y3115000D01*
X3905000Y3015000D02*
X3885000Y3055000D01*
X3925000D01*
X3905000Y3015000D01*
X3220000Y2850000D02*
X3200000Y2890000D01*
X3240000D01*
X3220000Y2850000D01*
X4140020Y3335020D02*
X4120020Y3375020D01*
X4160020D01*
X4140020Y3335020D01*
X4075000Y3110000D02*
X4055000Y3150000D01*
X4095000D01*
X4075000Y3110000D01*
X3695000Y2750000D02*
X3675000Y2790000D01*
X3715000D01*
X3695000Y2750000D01*
X3435000Y3325000D02*
X3415000Y3365000D01*
X3455000D01*
X3435000Y3325000D01*
X3860000Y2600000D02*
X3840000Y2640000D01*
X3880000D01*
X3860000Y2600000D01*
X3742347Y2722347D02*
X3722347Y2762347D01*
X3762347D01*
X3742347Y2722347D01*
X3485000Y2755000D02*
X3465000Y2795000D01*
X3505000D01*
X3485000Y2755000D01*
X3830000Y2774500D02*
X3810000Y2814500D01*
X3850000D01*
X3830000Y2774500D01*
X4200000Y3215000D02*
X4180000Y3255000D01*
X4220000D01*
X4200000Y3215000D01*
X4065000Y3395000D02*
X4045000Y3435000D01*
X4085000D01*
X4065000Y3395000D01*
X3220000Y2755000D02*
X3200000Y2795000D01*
X3240000D01*
X3220000Y2755000D01*
Y3310000D02*
X3200000Y3350000D01*
X3240000D01*
X3220000Y3310000D01*
X3810000Y3225000D02*
X3790000Y3265000D01*
X3830000D01*
X3810000Y3225000D01*
X4195000Y3110000D02*
X4175000Y3150000D01*
X4215000D01*
X4195000Y3110000D01*
X3620000Y2760000D02*
X3600000Y2800000D01*
X3640000D01*
X3620000Y2760000D01*
X3235000Y3030000D02*
X3215000Y3070000D01*
X3255000D01*
X3235000Y3030000D01*
X3490000Y3415000D02*
X3470000Y3455000D01*
X3510000D01*
X3490000Y3415000D01*
X3905000Y3140000D02*
X3885000Y3180000D01*
X3925000D01*
X3905000Y3140000D01*
X4115000Y3410000D02*
X4095000Y3450000D01*
X4135000D01*
X4115000Y3410000D01*
X4065000Y2945000D02*
X4045000Y2985000D01*
X4085000D01*
X4065000Y2945000D01*
X4210000Y3320000D02*
X4190000Y3360000D01*
X4230000D01*
X4210000Y3320000D01*
X3555000Y2765000D02*
X3535000Y2805000D01*
X3575000D01*
X3555000Y2765000D01*
X4430769Y2620769D02*
X4440769Y2640769D01*
X4430769Y2660769D01*
X4450769Y2650769D01*
X4470769Y2660769D01*
X4460769Y2640769D01*
X4470769Y2620769D01*
X4450769Y2630769D01*
X4430769Y2620769D01*
X6815769Y2407000D02*
X6825769Y2427000D01*
X6815769Y2447000D01*
X6835769Y2437000D01*
X6855769Y2447000D01*
X6845769Y2427000D01*
X6855769Y2407000D01*
X6835769Y2417000D01*
X6815769Y2407000D01*
X6835000Y2300000D02*
X6815000Y2340000D01*
X6855000D01*
X6835000Y2300000D01*
X7115769Y2405769D02*
X7125769Y2425769D01*
X7115769Y2445769D01*
X7135769Y2435769D01*
X7155769Y2445769D01*
X7145769Y2425769D01*
X7155769Y2405769D01*
X7135769Y2415769D01*
X7115769Y2405769D01*
X4425769Y2815769D02*
X4435769Y2835769D01*
X4425769Y2855769D01*
X4445769Y2845769D01*
X4465769Y2855769D01*
X4455769Y2835769D01*
X4465769Y2815769D01*
X4445769Y2825769D01*
X4425769Y2815769D01*
X4420769Y3010769D02*
X4430769Y3030769D01*
X4420769Y3050769D01*
X4440769Y3040769D01*
X4460769Y3050769D01*
X4450769Y3030769D01*
X4460769Y3010769D01*
X4440769Y3020769D01*
X4420769Y3010769D01*
Y3215769D02*
X4430769Y3235769D01*
X4420769Y3255769D01*
X4440769Y3245769D01*
X4460769Y3255769D01*
X4450769Y3235769D01*
X4460769Y3215769D01*
X4440769Y3225769D01*
X4420769Y3215769D01*
X6510769Y2407000D02*
X6520769Y2427000D01*
X6510769Y2447000D01*
X6530769Y2437000D01*
X6550769Y2447000D01*
X6540769Y2427000D01*
X6550769Y2407000D01*
X6530769Y2417000D01*
X6510769Y2407000D01*
X6220769D02*
X6230769Y2427000D01*
X6220769Y2447000D01*
X6240769Y2437000D01*
X6260769Y2447000D01*
X6250769Y2427000D01*
X6260769Y2407000D01*
X6240769Y2417000D01*
X6220769Y2407000D01*
X7135000Y2300000D02*
X7115000Y2340000D01*
X7155000D01*
X7135000Y2300000D01*
X4415769Y2405769D02*
X4425769Y2425769D01*
X4415769Y2445769D01*
X4435769Y2435769D01*
X4455769Y2445769D01*
X4445769Y2425769D01*
X4455769Y2405769D01*
X4435769Y2415769D01*
X4415769Y2405769D01*
X4200000Y3270000D02*
X4180000Y3310000D01*
X4220000D01*
X4200000Y3270000D01*
X5315769Y2405769D02*
X5325769Y2425769D01*
X5315769Y2445769D01*
X5335769Y2435769D01*
X5355769Y2445769D01*
X5345769Y2425769D01*
X5355769Y2405769D01*
X5335769Y2415769D01*
X5315769Y2405769D01*
X5910769D02*
X5920769Y2425769D01*
X5910769Y2445769D01*
X5930769Y2435769D01*
X5950769Y2445769D01*
X5940769Y2425769D01*
X5950769Y2405769D01*
X5930769Y2415769D01*
X5910769Y2405769D01*
X4720769D02*
X4730769Y2425769D01*
X4720769Y2445769D01*
X4740769Y2435769D01*
X4760769Y2445769D01*
X4750769Y2425769D01*
X4760769Y2405769D01*
X4740769Y2415769D01*
X4720769Y2405769D01*
X5015769D02*
X5025769Y2425769D01*
X5015769Y2445769D01*
X5035769Y2435769D01*
X5055769Y2445769D01*
X5045769Y2425769D01*
X5055769Y2405769D01*
X5035769Y2415769D01*
X5015769Y2405769D01*
X5615769D02*
X5625769Y2425769D01*
X5615769Y2445769D01*
X5635769Y2435769D01*
X5655769Y2445769D01*
X5645769Y2425769D01*
X5655769Y2405769D01*
X5635769Y2415769D01*
X5615769Y2405769D01*
X6225000Y2300000D02*
X6205000Y2340000D01*
X6245000D01*
X6225000Y2300000D01*
X5935000D02*
X5915000Y2340000D01*
X5955000D01*
X5935000Y2300000D01*
X5040000D02*
X5020000Y2340000D01*
X5060000D01*
X5040000Y2300000D01*
X5325000D02*
X5305000Y2340000D01*
X5345000D01*
X5325000Y2300000D01*
X4280000D02*
X4260000Y2340000D01*
X4300000D01*
X4280000Y2300000D01*
X4204500Y3050000D02*
X4184500Y3090000D01*
X4224500D01*
X4204500Y3050000D01*
X8625000Y2300000D02*
X8605000Y2340000D01*
X8645000D01*
X8625000Y2300000D01*
X8325000D02*
X8305000Y2340000D01*
X8345000D01*
X8325000Y2300000D01*
X8025000D02*
X8005000Y2340000D01*
X8045000D01*
X8025000Y2300000D01*
X7735000D02*
X7715000Y2340000D01*
X7755000D01*
X7735000Y2300000D01*
X7425000D02*
X7405000Y2340000D01*
X7445000D01*
X7425000Y2300000D01*
X6535000D02*
X6515000Y2340000D01*
X6555000D01*
X6535000Y2300000D01*
X5625000Y2305000D02*
X5605000Y2345000D01*
X5645000D01*
X5625000Y2305000D01*
X4740000Y2300000D02*
X4720000Y2340000D01*
X4760000D01*
X4740000Y2300000D01*
X4425769Y3415769D02*
X4435769Y3435769D01*
X4425769Y3455769D01*
X4445769Y3445769D01*
X4465769Y3455769D01*
X4455769Y3435769D01*
X4465769Y3415769D01*
X4445769Y3425769D01*
X4425769Y3415769D01*
X4430769Y3620769D02*
X4440769Y3640769D01*
X4430769Y3660769D01*
X4450769Y3650769D01*
X4470769Y3660769D01*
X4460769Y3640769D01*
X4470769Y3620769D01*
X4450769Y3630769D01*
X4430769Y3620769D01*
X2830409Y3108536D02*
X2810409Y3148536D01*
X2850409D01*
X2830409Y3108536D01*
X2625837Y2960000D02*
X2605837Y3000000D01*
X2645837D01*
X2625837Y2960000D01*
X2370885Y3359036D02*
X2350885Y3399036D01*
X2390885D01*
X2370885Y3359036D01*
X2620837Y2770000D02*
X2600837Y2810000D01*
X2640837D01*
X2620837Y2770000D01*
X2400837Y3410000D02*
X2380837Y3450000D01*
X2420837D01*
X2400837Y3410000D01*
X2455837Y3380000D02*
X2435837Y3420000D01*
X2475837D01*
X2455837Y3380000D01*
X2715837Y2865000D02*
X2695837Y2905000D01*
X2735837D01*
X2715837Y2865000D01*
X3450000Y2576500D02*
X3430000Y2616500D01*
X3470000D01*
X3450000Y2576500D01*
X4420769Y3810144D02*
X4430769Y3830144D01*
X4420769Y3850144D01*
X4440769Y3840144D01*
X4460769Y3850144D01*
X4450769Y3830144D01*
X4460769Y3810144D01*
X4440769Y3820144D01*
X4420769Y3810144D01*
X4410769Y4200769D02*
X4420769Y4220769D01*
X4410769Y4240769D01*
X4430769Y4230769D01*
X4450769Y4240769D01*
X4440769Y4220769D01*
X4450769Y4200769D01*
X4430769Y4210769D01*
X4410769Y4200769D01*
X4710769D02*
X4720769Y4220769D01*
X4710769Y4240769D01*
X4730769Y4230769D01*
X4750769Y4240769D01*
X4740769Y4220769D01*
X4750769Y4200769D01*
X4730769Y4210769D01*
X4710769Y4200769D01*
X5000769D02*
X5010769Y4220769D01*
X5000769Y4240769D01*
X5020769Y4230769D01*
X5040769Y4240769D01*
X5030769Y4220769D01*
X5040769Y4200769D01*
X5020769Y4210769D01*
X5000769Y4200769D01*
X5300769D02*
X5310769Y4220769D01*
X5300769Y4240769D01*
X5320769Y4230769D01*
X5340769Y4240769D01*
X5330769Y4220769D01*
X5340769Y4200769D01*
X5320769Y4210769D01*
X5300769Y4200769D01*
X5610769D02*
X5620769Y4220769D01*
X5610769Y4240769D01*
X5630769Y4230769D01*
X5650769Y4240769D01*
X5640769Y4220769D01*
X5650769Y4200769D01*
X5630769Y4210769D01*
X5610769Y4200769D01*
X5915769D02*
X5925769Y4220769D01*
X5915769Y4240769D01*
X5935769Y4230769D01*
X5955769Y4240769D01*
X5945769Y4220769D01*
X5955769Y4200769D01*
X5935769Y4210769D01*
X5915769Y4200769D01*
X6205769D02*
X6215769Y4220769D01*
X6205769Y4240769D01*
X6225769Y4230769D01*
X6245769Y4240769D01*
X6235769Y4220769D01*
X6245769Y4200769D01*
X6225769Y4210769D01*
X6205769Y4200769D01*
X6510769D02*
X6520769Y4220769D01*
X6510769Y4240769D01*
X6530769Y4230769D01*
X6550769Y4240769D01*
X6540769Y4220769D01*
X6550769Y4200769D01*
X6530769Y4210769D01*
X6510769Y4200769D01*
X6815769D02*
X6825769Y4220769D01*
X6815769Y4240769D01*
X6835769Y4230769D01*
X6855769Y4240769D01*
X6845769Y4220769D01*
X6855769Y4200769D01*
X6835769Y4210769D01*
X6815769Y4200769D01*
X7115769D02*
X7125769Y4220769D01*
X7115769Y4240769D01*
X7135769Y4230769D01*
X7155769Y4240769D01*
X7145769Y4220769D01*
X7155769Y4200769D01*
X7135769Y4210769D01*
X7115769Y4200769D01*
X7405769D02*
X7415769Y4220769D01*
X7405769Y4240769D01*
X7425769Y4230769D01*
X7445769Y4240769D01*
X7435769Y4220769D01*
X7445769Y4200769D01*
X7425769Y4210769D01*
X7405769Y4200769D01*
X7705769D02*
X7715769Y4220769D01*
X7705769Y4240769D01*
X7725769Y4230769D01*
X7745769Y4240769D01*
X7735769Y4220769D01*
X7745769Y4200769D01*
X7725769Y4210769D01*
X7705769Y4200769D01*
X8000769D02*
X8010769Y4220769D01*
X8000769Y4240769D01*
X8020769Y4230769D01*
X8040769Y4240769D01*
X8030769Y4220769D01*
X8040769Y4200769D01*
X8020769Y4210769D01*
X8000769Y4200769D01*
X8305769D02*
X8315769Y4220769D01*
X8305769Y4240769D01*
X8325769Y4230769D01*
X8345769Y4240769D01*
X8335769Y4220769D01*
X8345769Y4200769D01*
X8325769Y4210769D01*
X8305769Y4200769D01*
X8610769D02*
X8620769Y4220769D01*
X8610769Y4240769D01*
X8630769Y4230769D01*
X8650769Y4240769D01*
X8640769Y4220769D01*
X8650769Y4200769D01*
X8630769Y4210769D01*
X8610769Y4200769D01*
X4415769Y4005769D02*
X4425769Y4025769D01*
X4415769Y4045769D01*
X4435769Y4035769D01*
X4455769Y4045769D01*
X4445769Y4025769D01*
X4455769Y4005769D01*
X4435769Y4015769D01*
X4415769Y4005769D01*
X4715769D02*
X4725769Y4025769D01*
X4715769Y4045769D01*
X4735769Y4035769D01*
X4755769Y4045769D01*
X4745769Y4025769D01*
X4755769Y4005769D01*
X4735769Y4015769D01*
X4715769Y4005769D01*
X5015769D02*
X5025769Y4025769D01*
X5015769Y4045769D01*
X5035769Y4035769D01*
X5055769Y4045769D01*
X5045769Y4025769D01*
X5055769Y4005769D01*
X5035769Y4015769D01*
X5015769Y4005769D01*
X5315769D02*
X5325769Y4025769D01*
X5315769Y4045769D01*
X5335769Y4035769D01*
X5355769Y4045769D01*
X5345769Y4025769D01*
X5355769Y4005769D01*
X5335769Y4015769D01*
X5315769Y4005769D01*
X5610769D02*
X5620769Y4025769D01*
X5610769Y4045769D01*
X5630769Y4035769D01*
X5650769Y4045769D01*
X5640769Y4025769D01*
X5650769Y4005769D01*
X5630769Y4015769D01*
X5610769Y4005769D01*
X5917682Y4007682D02*
X5927682Y4027682D01*
X5917682Y4047682D01*
X5937682Y4037682D01*
X5957682Y4047682D01*
X5947682Y4027682D01*
X5957682Y4007682D01*
X5937682Y4017682D01*
X5917682Y4007682D01*
X6215769Y4005769D02*
X6225769Y4025769D01*
X6215769Y4045769D01*
X6235769Y4035769D01*
X6255769Y4045769D01*
X6245769Y4025769D01*
X6255769Y4005769D01*
X6235769Y4015769D01*
X6215769Y4005769D01*
X6515769D02*
X6525769Y4025769D01*
X6515769Y4045769D01*
X6535769Y4035769D01*
X6555769Y4045769D01*
X6545769Y4025769D01*
X6555769Y4005769D01*
X6535769Y4015769D01*
X6515769Y4005769D01*
X6815769D02*
X6825769Y4025769D01*
X6815769Y4045769D01*
X6835769Y4035769D01*
X6855769Y4045769D01*
X6845769Y4025769D01*
X6855769Y4005769D01*
X6835769Y4015769D01*
X6815769Y4005769D01*
X7120769D02*
X7130769Y4025769D01*
X7120769Y4045769D01*
X7140769Y4035769D01*
X7160769Y4045769D01*
X7150769Y4025769D01*
X7160769Y4005769D01*
X7140769Y4015769D01*
X7120769Y4005769D01*
X7415769D02*
X7425769Y4025769D01*
X7415769Y4045769D01*
X7435769Y4035769D01*
X7455769Y4045769D01*
X7445769Y4025769D01*
X7455769Y4005769D01*
X7435769Y4015769D01*
X7415769Y4005769D01*
X7705769D02*
X7715769Y4025769D01*
X7705769Y4045769D01*
X7725769Y4035769D01*
X7745769Y4045769D01*
X7735769Y4025769D01*
X7745769Y4005769D01*
X7725769Y4015769D01*
X7705769Y4005769D01*
X8005769D02*
X8015769Y4025769D01*
X8005769Y4045769D01*
X8025769Y4035769D01*
X8045769Y4045769D01*
X8035769Y4025769D01*
X8045769Y4005769D01*
X8025769Y4015769D01*
X8005769Y4005769D01*
X8310769D02*
X8320769Y4025769D01*
X8310769Y4045769D01*
X8330769Y4035769D01*
X8350769Y4045769D01*
X8340769Y4025769D01*
X8350769Y4005769D01*
X8330769Y4015769D01*
X8310769Y4005769D01*
X8615769D02*
X8625769Y4025769D01*
X8615769Y4045769D01*
X8635769Y4035769D01*
X8655769Y4045769D01*
X8645769Y4025769D01*
X8655769Y4005769D01*
X8635769Y4015769D01*
X8615769Y4005769D01*
X4720769Y3810769D02*
X4730769Y3830769D01*
X4720769Y3850769D01*
X4740769Y3840769D01*
X4760769Y3850769D01*
X4750769Y3830769D01*
X4760769Y3810769D01*
X4740769Y3820769D01*
X4720769Y3810769D01*
X5022682Y3811432D02*
X5032682Y3831432D01*
X5022682Y3851432D01*
X5042682Y3841432D01*
X5062682Y3851432D01*
X5052682Y3831432D01*
X5062682Y3811432D01*
X5042682Y3821432D01*
X5022682Y3811432D01*
X5320769Y3810769D02*
X5330769Y3830769D01*
X5320769Y3850769D01*
X5340769Y3840769D01*
X5360769Y3850769D01*
X5350769Y3830769D01*
X5360769Y3810769D01*
X5340769Y3820769D01*
X5320769Y3810769D01*
X5610769D02*
X5620769Y3830769D01*
X5610769Y3850769D01*
X5630769Y3840769D01*
X5650769Y3850769D01*
X5640769Y3830769D01*
X5650769Y3810769D01*
X5630769Y3820769D01*
X5610769Y3810769D01*
X5915769D02*
X5925769Y3830769D01*
X5915769Y3850769D01*
X5935769Y3840769D01*
X5955769Y3850769D01*
X5945769Y3830769D01*
X5955769Y3810769D01*
X5935769Y3820769D01*
X5915769Y3810769D01*
X6220769D02*
X6230769Y3830769D01*
X6220769Y3850769D01*
X6240769Y3840769D01*
X6260769Y3850769D01*
X6250769Y3830769D01*
X6260769Y3810769D01*
X6240769Y3820769D01*
X6220769Y3810769D01*
X6520769D02*
X6530769Y3830769D01*
X6520769Y3850769D01*
X6540769Y3840769D01*
X6560769Y3850769D01*
X6550769Y3830769D01*
X6560769Y3810769D01*
X6540769Y3820769D01*
X6520769Y3810769D01*
X6820769D02*
X6830769Y3830769D01*
X6820769Y3850769D01*
X6840769Y3840769D01*
X6860769Y3850769D01*
X6850769Y3830769D01*
X6860769Y3810769D01*
X6840769Y3820769D01*
X6820769Y3810769D01*
X7120769D02*
X7130769Y3830769D01*
X7120769Y3850769D01*
X7140769Y3840769D01*
X7160769Y3850769D01*
X7150769Y3830769D01*
X7160769Y3810769D01*
X7140769Y3820769D01*
X7120769Y3810769D01*
X7420769D02*
X7430769Y3830769D01*
X7420769Y3850769D01*
X7440769Y3840769D01*
X7460769Y3850769D01*
X7450769Y3830769D01*
X7460769Y3810769D01*
X7440769Y3820769D01*
X7420769Y3810769D01*
X7720769D02*
X7730769Y3830769D01*
X7720769Y3850769D01*
X7740769Y3840769D01*
X7760769Y3850769D01*
X7750769Y3830769D01*
X7760769Y3810769D01*
X7740769Y3820769D01*
X7720769Y3810769D01*
X8020769D02*
X8030769Y3830769D01*
X8020769Y3850769D01*
X8040769Y3840769D01*
X8060769Y3850769D01*
X8050769Y3830769D01*
X8060769Y3810769D01*
X8040769Y3820769D01*
X8020769Y3810769D01*
X8320769D02*
X8330769Y3830769D01*
X8320769Y3850769D01*
X8340769Y3840769D01*
X8360769Y3850769D01*
X8350769Y3830769D01*
X8360769Y3810769D01*
X8340769Y3820769D01*
X8320769Y3810769D01*
X8620769D02*
X8630769Y3830769D01*
X8620769Y3850769D01*
X8640769Y3840769D01*
X8660769Y3850769D01*
X8650769Y3830769D01*
X8660769Y3810769D01*
X8640769Y3820769D01*
X8620769Y3810769D01*
X4730769Y3620769D02*
X4740769Y3640769D01*
X4730769Y3660769D01*
X4750769Y3650769D01*
X4770769Y3660769D01*
X4760769Y3640769D01*
X4770769Y3620769D01*
X4750769Y3630769D01*
X4730769Y3620769D01*
X5030769D02*
X5040769Y3640769D01*
X5030769Y3660769D01*
X5050769Y3650769D01*
X5070769Y3660769D01*
X5060769Y3640769D01*
X5070769Y3620769D01*
X5050769Y3630769D01*
X5030769Y3620769D01*
X5330769D02*
X5340769Y3640769D01*
X5330769Y3660769D01*
X5350769Y3650769D01*
X5370769Y3660769D01*
X5360769Y3640769D01*
X5370769Y3620769D01*
X5350769Y3630769D01*
X5330769Y3620769D01*
X5625769D02*
X5635769Y3640769D01*
X5625769Y3660769D01*
X5645769Y3650769D01*
X5665769Y3660769D01*
X5655769Y3640769D01*
X5665769Y3620769D01*
X5645769Y3630769D01*
X5625769Y3620769D01*
X5915769D02*
X5925769Y3640769D01*
X5915769Y3660769D01*
X5935769Y3650769D01*
X5955769Y3660769D01*
X5945769Y3640769D01*
X5955769Y3620769D01*
X5935769Y3630769D01*
X5915769Y3620769D01*
X6230769D02*
X6240769Y3640769D01*
X6230769Y3660769D01*
X6250769Y3650769D01*
X6270769Y3660769D01*
X6260769Y3640769D01*
X6270769Y3620769D01*
X6250769Y3630769D01*
X6230769Y3620769D01*
X6520769D02*
X6530769Y3640769D01*
X6520769Y3660769D01*
X6540769Y3650769D01*
X6560769Y3660769D01*
X6550769Y3640769D01*
X6560769Y3620769D01*
X6540769Y3630769D01*
X6520769Y3620769D01*
X6830769D02*
X6840769Y3640769D01*
X6830769Y3660769D01*
X6850769Y3650769D01*
X6870769Y3660769D01*
X6860769Y3640769D01*
X6870769Y3620769D01*
X6850769Y3630769D01*
X6830769Y3620769D01*
X7120769D02*
X7130769Y3640769D01*
X7120769Y3660769D01*
X7140769Y3650769D01*
X7160769Y3660769D01*
X7150769Y3640769D01*
X7160769Y3620769D01*
X7140769Y3630769D01*
X7120769Y3620769D01*
X7420769D02*
X7430769Y3640769D01*
X7420769Y3660769D01*
X7440769Y3650769D01*
X7460769Y3660769D01*
X7450769Y3640769D01*
X7460769Y3620769D01*
X7440769Y3630769D01*
X7420769Y3620769D01*
X7720769D02*
X7730769Y3640769D01*
X7720769Y3660769D01*
X7740769Y3650769D01*
X7760769Y3660769D01*
X7750769Y3640769D01*
X7760769Y3620769D01*
X7740769Y3630769D01*
X7720769Y3620769D01*
X8025769D02*
X8035769Y3640769D01*
X8025769Y3660769D01*
X8045769Y3650769D01*
X8065769Y3660769D01*
X8055769Y3640769D01*
X8065769Y3620769D01*
X8045769Y3630769D01*
X8025769Y3620769D01*
X8325769D02*
X8335769Y3640769D01*
X8325769Y3660769D01*
X8345769Y3650769D01*
X8365769Y3660769D01*
X8355769Y3640769D01*
X8365769Y3620769D01*
X8345769Y3630769D01*
X8325769Y3620769D01*
X8615769D02*
X8625769Y3640769D01*
X8615769Y3660769D01*
X8635769Y3650769D01*
X8655769Y3660769D01*
X8645769Y3640769D01*
X8655769Y3620769D01*
X8635769Y3630769D01*
X8615769Y3620769D01*
X4725769Y3415769D02*
X4735769Y3435769D01*
X4725769Y3455769D01*
X4745769Y3445769D01*
X4765769Y3455769D01*
X4755769Y3435769D01*
X4765769Y3415769D01*
X4745769Y3425769D01*
X4725769Y3415769D01*
X5020769D02*
X5030769Y3435769D01*
X5020769Y3455769D01*
X5040769Y3445769D01*
X5060769Y3455769D01*
X5050769Y3435769D01*
X5060769Y3415769D01*
X5040769Y3425769D01*
X5020769Y3415769D01*
X5325769D02*
X5335769Y3435769D01*
X5325769Y3455769D01*
X5345769Y3445769D01*
X5365769Y3455769D01*
X5355769Y3435769D01*
X5365769Y3415769D01*
X5345769Y3425769D01*
X5325769Y3415769D01*
X5620769D02*
X5630769Y3435769D01*
X5620769Y3455769D01*
X5640769Y3445769D01*
X5660769Y3455769D01*
X5650769Y3435769D01*
X5660769Y3415769D01*
X5640769Y3425769D01*
X5620769Y3415769D01*
X5915769D02*
X5925769Y3435769D01*
X5915769Y3455769D01*
X5935769Y3445769D01*
X5955769Y3455769D01*
X5945769Y3435769D01*
X5955769Y3415769D01*
X5935769Y3425769D01*
X5915769Y3415769D01*
X6225769D02*
X6235769Y3435769D01*
X6225769Y3455769D01*
X6245769Y3445769D01*
X6265769Y3455769D01*
X6255769Y3435769D01*
X6265769Y3415769D01*
X6245769Y3425769D01*
X6225769Y3415769D01*
X6520769D02*
X6530769Y3435769D01*
X6520769Y3455769D01*
X6540769Y3445769D01*
X6560769Y3455769D01*
X6550769Y3435769D01*
X6560769Y3415769D01*
X6540769Y3425769D01*
X6520769Y3415769D01*
X6825769D02*
X6835769Y3435769D01*
X6825769Y3455769D01*
X6845769Y3445769D01*
X6865769Y3455769D01*
X6855769Y3435769D01*
X6865769Y3415769D01*
X6845769Y3425769D01*
X6825769Y3415769D01*
X7125769D02*
X7135769Y3435769D01*
X7125769Y3455769D01*
X7145769Y3445769D01*
X7165769Y3455769D01*
X7155769Y3435769D01*
X7165769Y3415769D01*
X7145769Y3425769D01*
X7125769Y3415769D01*
X7425769D02*
X7435769Y3435769D01*
X7425769Y3455769D01*
X7445769Y3445769D01*
X7465769Y3455769D01*
X7455769Y3435769D01*
X7465769Y3415769D01*
X7445769Y3425769D01*
X7425769Y3415769D01*
X7725769D02*
X7735769Y3435769D01*
X7725769Y3455769D01*
X7745769Y3445769D01*
X7765769Y3455769D01*
X7755769Y3435769D01*
X7765769Y3415769D01*
X7745769Y3425769D01*
X7725769Y3415769D01*
X8020769D02*
X8030769Y3435769D01*
X8020769Y3455769D01*
X8040769Y3445769D01*
X8060769Y3455769D01*
X8050769Y3435769D01*
X8060769Y3415769D01*
X8040769Y3425769D01*
X8020769Y3415769D01*
X8323269D02*
X8333269Y3435769D01*
X8323269Y3455769D01*
X8343269Y3445769D01*
X8363269Y3455769D01*
X8353269Y3435769D01*
X8363269Y3415769D01*
X8343269Y3425769D01*
X8323269Y3415769D01*
X8625769D02*
X8635769Y3435769D01*
X8625769Y3455769D01*
X8645769Y3445769D01*
X8665769Y3455769D01*
X8655769Y3435769D01*
X8665769Y3415769D01*
X8645769Y3425769D01*
X8625769Y3415769D01*
X4715769Y3215769D02*
X4725769Y3235769D01*
X4715769Y3255769D01*
X4735769Y3245769D01*
X4755769Y3255769D01*
X4745769Y3235769D01*
X4755769Y3215769D01*
X4735769Y3225769D01*
X4715769Y3215769D01*
X5025769D02*
X5035769Y3235769D01*
X5025769Y3255769D01*
X5045769Y3245769D01*
X5065769Y3255769D01*
X5055769Y3235769D01*
X5065769Y3215769D01*
X5045769Y3225769D01*
X5025769Y3215769D01*
X5320769D02*
X5330769Y3235769D01*
X5320769Y3255769D01*
X5340769Y3245769D01*
X5360769Y3255769D01*
X5350769Y3235769D01*
X5360769Y3215769D01*
X5340769Y3225769D01*
X5320769Y3215769D01*
X5625769D02*
X5635769Y3235769D01*
X5625769Y3255769D01*
X5645769Y3245769D01*
X5665769Y3255769D01*
X5655769Y3235769D01*
X5665769Y3215769D01*
X5645769Y3225769D01*
X5625769Y3215769D01*
X5920769D02*
X5930769Y3235769D01*
X5920769Y3255769D01*
X5940769Y3245769D01*
X5960769Y3255769D01*
X5950769Y3235769D01*
X5960769Y3215769D01*
X5940769Y3225769D01*
X5920769Y3215769D01*
X6225769D02*
X6235769Y3235769D01*
X6225769Y3255769D01*
X6245769Y3245769D01*
X6265769Y3255769D01*
X6255769Y3235769D01*
X6265769Y3215769D01*
X6245769Y3225769D01*
X6225769Y3215769D01*
X6520769D02*
X6530769Y3235769D01*
X6520769Y3255769D01*
X6540769Y3245769D01*
X6560769Y3255769D01*
X6550769Y3235769D01*
X6560769Y3215769D01*
X6540769Y3225769D01*
X6520769Y3215769D01*
X6825769D02*
X6835769Y3235769D01*
X6825769Y3255769D01*
X6845769Y3245769D01*
X6865769Y3255769D01*
X6855769Y3235769D01*
X6865769Y3215769D01*
X6845769Y3225769D01*
X6825769Y3215769D01*
X7120769D02*
X7130769Y3235769D01*
X7120769Y3255769D01*
X7140769Y3245769D01*
X7160769Y3255769D01*
X7150769Y3235769D01*
X7160769Y3215769D01*
X7140769Y3225769D01*
X7120769Y3215769D01*
X7420769D02*
X7430769Y3235769D01*
X7420769Y3255769D01*
X7440769Y3245769D01*
X7460769Y3255769D01*
X7450769Y3235769D01*
X7460769Y3215769D01*
X7440769Y3225769D01*
X7420769Y3215769D01*
X7725769D02*
X7735769Y3235769D01*
X7725769Y3255769D01*
X7745769Y3245769D01*
X7765769Y3255769D01*
X7755769Y3235769D01*
X7765769Y3215769D01*
X7745769Y3225769D01*
X7725769Y3215769D01*
X8025769D02*
X8035769Y3235769D01*
X8025769Y3255769D01*
X8045769Y3245769D01*
X8065769Y3255769D01*
X8055769Y3235769D01*
X8065769Y3215769D01*
X8045769Y3225769D01*
X8025769Y3215769D01*
X8320769D02*
X8330769Y3235769D01*
X8320769Y3255769D01*
X8340769Y3245769D01*
X8360769Y3255769D01*
X8350769Y3235769D01*
X8360769Y3215769D01*
X8340769Y3225769D01*
X8320769Y3215769D01*
X8620769D02*
X8630769Y3235769D01*
X8620769Y3255769D01*
X8640769Y3245769D01*
X8660769Y3255769D01*
X8650769Y3235769D01*
X8660769Y3215769D01*
X8640769Y3225769D01*
X8620769Y3215769D01*
X4720769Y3010769D02*
X4730769Y3030769D01*
X4720769Y3050769D01*
X4740769Y3040769D01*
X4760769Y3050769D01*
X4750769Y3030769D01*
X4760769Y3010769D01*
X4740769Y3020769D01*
X4720769Y3010769D01*
X5020769D02*
X5030769Y3030769D01*
X5020769Y3050769D01*
X5040769Y3040769D01*
X5060769Y3050769D01*
X5050769Y3030769D01*
X5060769Y3010769D01*
X5040769Y3020769D01*
X5020769Y3010769D01*
X5315769D02*
X5325769Y3030769D01*
X5315769Y3050769D01*
X5335769Y3040769D01*
X5355769Y3050769D01*
X5345769Y3030769D01*
X5355769Y3010769D01*
X5335769Y3020769D01*
X5315769Y3010769D01*
X5620769D02*
X5630769Y3030769D01*
X5620769Y3050769D01*
X5640769Y3040769D01*
X5660769Y3050769D01*
X5650769Y3030769D01*
X5660769Y3010769D01*
X5640769Y3020769D01*
X5620769Y3010769D01*
X5920769D02*
X5930769Y3030769D01*
X5920769Y3050769D01*
X5940769Y3040769D01*
X5960769Y3050769D01*
X5950769Y3030769D01*
X5960769Y3010769D01*
X5940769Y3020769D01*
X5920769Y3010769D01*
X6210769D02*
X6220769Y3030769D01*
X6210769Y3050769D01*
X6230769Y3040769D01*
X6250769Y3050769D01*
X6240769Y3030769D01*
X6250769Y3010769D01*
X6230769Y3020769D01*
X6210769Y3010769D01*
X6515769D02*
X6525769Y3030769D01*
X6515769Y3050769D01*
X6535769Y3040769D01*
X6555769Y3050769D01*
X6545769Y3030769D01*
X6555769Y3010769D01*
X6535769Y3020769D01*
X6515769Y3010769D01*
X6815769D02*
X6825769Y3030769D01*
X6815769Y3050769D01*
X6835769Y3040769D01*
X6855769Y3050769D01*
X6845769Y3030769D01*
X6855769Y3010769D01*
X6835769Y3020769D01*
X6815769Y3010769D01*
X7110769D02*
X7120769Y3030769D01*
X7110769Y3050769D01*
X7130769Y3040769D01*
X7150769Y3050769D01*
X7140769Y3030769D01*
X7150769Y3010769D01*
X7130769Y3020769D01*
X7110769Y3010769D01*
X7420769D02*
X7430769Y3030769D01*
X7420769Y3050769D01*
X7440769Y3040769D01*
X7460769Y3050769D01*
X7450769Y3030769D01*
X7460769Y3010769D01*
X7440769Y3020769D01*
X7420769Y3010769D01*
X7715769D02*
X7725769Y3030769D01*
X7715769Y3050769D01*
X7735769Y3040769D01*
X7755769Y3050769D01*
X7745769Y3030769D01*
X7755769Y3010769D01*
X7735769Y3020769D01*
X7715769Y3010769D01*
X8010769D02*
X8020769Y3030769D01*
X8010769Y3050769D01*
X8030769Y3040769D01*
X8050769Y3050769D01*
X8040769Y3030769D01*
X8050769Y3010769D01*
X8030769Y3020769D01*
X8010769Y3010769D01*
X8320769D02*
X8330769Y3030769D01*
X8320769Y3050769D01*
X8340769Y3040769D01*
X8360769Y3050769D01*
X8350769Y3030769D01*
X8360769Y3010769D01*
X8340769Y3020769D01*
X8320769Y3010769D01*
X8620769D02*
X8630769Y3030769D01*
X8620769Y3050769D01*
X8640769Y3040769D01*
X8660769Y3050769D01*
X8650769Y3030769D01*
X8660769Y3010769D01*
X8640769Y3020769D01*
X8620769Y3010769D01*
X5325769Y2815769D02*
X5335769Y2835769D01*
X5325769Y2855769D01*
X5345769Y2845769D01*
X5365769Y2855769D01*
X5355769Y2835769D01*
X5365769Y2815769D01*
X5345769Y2825769D01*
X5325769Y2815769D01*
X5625769D02*
X5635769Y2835769D01*
X5625769Y2855769D01*
X5645769Y2845769D01*
X5665769Y2855769D01*
X5655769Y2835769D01*
X5665769Y2815769D01*
X5645769Y2825769D01*
X5625769Y2815769D01*
X5920769D02*
X5930769Y2835769D01*
X5920769Y2855769D01*
X5940769Y2845769D01*
X5960769Y2855769D01*
X5950769Y2835769D01*
X5960769Y2815769D01*
X5940769Y2825769D01*
X5920769Y2815769D01*
X6220769D02*
X6230769Y2835769D01*
X6220769Y2855769D01*
X6240769Y2845769D01*
X6260769Y2855769D01*
X6250769Y2835769D01*
X6260769Y2815769D01*
X6240769Y2825769D01*
X6220769Y2815769D01*
X6525769D02*
X6535769Y2835769D01*
X6525769Y2855769D01*
X6545769Y2845769D01*
X6565769Y2855769D01*
X6555769Y2835769D01*
X6565769Y2815769D01*
X6545769Y2825769D01*
X6525769Y2815769D01*
X6820769D02*
X6830769Y2835769D01*
X6820769Y2855769D01*
X6840769Y2845769D01*
X6860769Y2855769D01*
X6850769Y2835769D01*
X6860769Y2815769D01*
X6840769Y2825769D01*
X6820769Y2815769D01*
X7115769D02*
X7125769Y2835769D01*
X7115769Y2855769D01*
X7135769Y2845769D01*
X7155769Y2855769D01*
X7145769Y2835769D01*
X7155769Y2815769D01*
X7135769Y2825769D01*
X7115769Y2815769D01*
X7425769D02*
X7435769Y2835769D01*
X7425769Y2855769D01*
X7445769Y2845769D01*
X7465769Y2855769D01*
X7455769Y2835769D01*
X7465769Y2815769D01*
X7445769Y2825769D01*
X7425769Y2815769D01*
X7725769D02*
X7735769Y2835769D01*
X7725769Y2855769D01*
X7745769Y2845769D01*
X7765769Y2855769D01*
X7755769Y2835769D01*
X7765769Y2815769D01*
X7745769Y2825769D01*
X7725769Y2815769D01*
X8020769D02*
X8030769Y2835769D01*
X8020769Y2855769D01*
X8040769Y2845769D01*
X8060769Y2855769D01*
X8050769Y2835769D01*
X8060769Y2815769D01*
X8040769Y2825769D01*
X8020769Y2815769D01*
X8315769D02*
X8325769Y2835769D01*
X8315769Y2855769D01*
X8335769Y2845769D01*
X8355769Y2855769D01*
X8345769Y2835769D01*
X8355769Y2815769D01*
X8335769Y2825769D01*
X8315769Y2815769D01*
X8625769D02*
X8635769Y2835769D01*
X8625769Y2855769D01*
X8645769Y2845769D01*
X8665769Y2855769D01*
X8655769Y2835769D01*
X8665769Y2815769D01*
X8645769Y2825769D01*
X8625769Y2815769D01*
X4730769Y2620769D02*
X4740769Y2640769D01*
X4730769Y2660769D01*
X4750769Y2650769D01*
X4770769Y2660769D01*
X4760769Y2640769D01*
X4770769Y2620769D01*
X4750769Y2630769D01*
X4730769Y2620769D01*
X5035769D02*
X5045769Y2640769D01*
X5035769Y2660769D01*
X5055769Y2650769D01*
X5075769Y2660769D01*
X5065769Y2640769D01*
X5075769Y2620769D01*
X5055769Y2630769D01*
X5035769Y2620769D01*
X5325769D02*
X5335769Y2640769D01*
X5325769Y2660769D01*
X5345769Y2650769D01*
X5365769Y2660769D01*
X5355769Y2640769D01*
X5365769Y2620769D01*
X5345769Y2630769D01*
X5325769Y2620769D01*
X5625769D02*
X5635769Y2640769D01*
X5625769Y2660769D01*
X5645769Y2650769D01*
X5665769Y2660769D01*
X5655769Y2640769D01*
X5665769Y2620769D01*
X5645769Y2630769D01*
X5625769Y2620769D01*
X5920769D02*
X5930769Y2640769D01*
X5920769Y2660769D01*
X5940769Y2650769D01*
X5960769Y2660769D01*
X5950769Y2640769D01*
X5960769Y2620769D01*
X5940769Y2630769D01*
X5920769Y2620769D01*
X6225769D02*
X6235769Y2640769D01*
X6225769Y2660769D01*
X6245769Y2650769D01*
X6265769Y2660769D01*
X6255769Y2640769D01*
X6265769Y2620769D01*
X6245769Y2630769D01*
X6225769Y2620769D01*
X6530769D02*
X6540769Y2640769D01*
X6530769Y2660769D01*
X6550769Y2650769D01*
X6570769Y2660769D01*
X6560769Y2640769D01*
X6570769Y2620769D01*
X6550769Y2630769D01*
X6530769Y2620769D01*
X6830769D02*
X6840769Y2640769D01*
X6830769Y2660769D01*
X6850769Y2650769D01*
X6870769Y2660769D01*
X6860769Y2640769D01*
X6870769Y2620769D01*
X6850769Y2630769D01*
X6830769Y2620769D01*
X7130769D02*
X7140769Y2640769D01*
X7130769Y2660769D01*
X7150769Y2650769D01*
X7170769Y2660769D01*
X7160769Y2640769D01*
X7170769Y2620769D01*
X7150769Y2630769D01*
X7130769Y2620769D01*
X7425769D02*
X7435769Y2640769D01*
X7425769Y2660769D01*
X7445769Y2650769D01*
X7465769Y2660769D01*
X7455769Y2640769D01*
X7465769Y2620769D01*
X7445769Y2630769D01*
X7425769Y2620769D01*
X7725769D02*
X7735769Y2640769D01*
X7725769Y2660769D01*
X7745769Y2650769D01*
X7765769Y2660769D01*
X7755769Y2640769D01*
X7765769Y2620769D01*
X7745769Y2630769D01*
X7725769Y2620769D01*
X8025769D02*
X8035769Y2640769D01*
X8025769Y2660769D01*
X8045769Y2650769D01*
X8065769Y2660769D01*
X8055769Y2640769D01*
X8065769Y2620769D01*
X8045769Y2630769D01*
X8025769Y2620769D01*
X8330769D02*
X8340769Y2640769D01*
X8330769Y2660769D01*
X8350769Y2650769D01*
X8370769Y2660769D01*
X8360769Y2640769D01*
X8370769Y2620769D01*
X8350769Y2630769D01*
X8330769Y2620769D01*
X8630769D02*
X8640769Y2640769D01*
X8630769Y2660769D01*
X8650769Y2650769D01*
X8670769Y2660769D01*
X8660769Y2640769D01*
X8670769Y2620769D01*
X8650769Y2630769D01*
X8630769Y2620769D01*
X7415769Y2405769D02*
X7425769Y2425769D01*
X7415769Y2445769D01*
X7435769Y2435769D01*
X7455769Y2445769D01*
X7445769Y2425769D01*
X7455769Y2405769D01*
X7435769Y2415769D01*
X7415769Y2405769D01*
X7715769D02*
X7725769Y2425769D01*
X7715769Y2445769D01*
X7735769Y2435769D01*
X7755769Y2445769D01*
X7745769Y2425769D01*
X7755769Y2405769D01*
X7735769Y2415769D01*
X7715769Y2405769D01*
X8015769D02*
X8025769Y2425769D01*
X8015769Y2445769D01*
X8035769Y2435769D01*
X8055769Y2445769D01*
X8045769Y2425769D01*
X8055769Y2405769D01*
X8035769Y2415769D01*
X8015769Y2405769D01*
X8315769D02*
X8325769Y2425769D01*
X8315769Y2445769D01*
X8335769Y2435769D01*
X8355769Y2445769D01*
X8345769Y2425769D01*
X8355769Y2405769D01*
X8335769Y2415769D01*
X8315769Y2405769D01*
X8615769D02*
X8625769Y2425769D01*
X8615769Y2445769D01*
X8635769Y2435769D01*
X8655769Y2445769D01*
X8645769Y2425769D01*
X8655769Y2405769D01*
X8635769Y2415769D01*
X8615769Y2405769D01*
X4725769Y2815769D02*
X4735769Y2835769D01*
X4725769Y2855769D01*
X4745769Y2845769D01*
X4765769Y2855769D01*
X4755769Y2835769D01*
X4765769Y2815769D01*
X4745769Y2825769D01*
X4725769Y2815769D01*
X5025769D02*
X5035769Y2835769D01*
X5025769Y2855769D01*
X5045769Y2845769D01*
X5065769Y2855769D01*
X5055769Y2835769D01*
X5065769Y2815769D01*
X5045769Y2825769D01*
X5025769Y2815769D01*
X3690000Y3660000D02*
X3670000Y3700000D01*
X3710000D01*
X3690000Y3660000D01*
X3370000Y3665000D02*
X3350000Y3705000D01*
X3390000D01*
X3370000Y3665000D01*
X2440000Y2555000D02*
X2420000Y2595000D01*
X2460000D01*
X2440000Y2555000D01*
X2265000Y2690000D02*
X2245000Y2730000D01*
X2285000D01*
X2265000Y2690000D01*
X2760000Y2610000D02*
X2740000Y2650000D01*
X2780000D01*
X2760000Y2610000D01*
X3815000Y2390000D02*
X3795000Y2430000D01*
X3835000D01*
X3815000Y2390000D01*
X3730000Y2395000D02*
X3710000Y2435000D01*
X3750000D01*
X3730000Y2395000D01*
X2355000Y2555000D02*
X2335000Y2595000D01*
X2375000D01*
X2355000Y2555000D01*
X3905000Y2410000D02*
X3885000Y2450000D01*
X3925000D01*
X3905000Y2410000D01*
X3965000Y2530000D02*
X3945000Y2570000D01*
X3985000D01*
X3965000Y2530000D01*
X3540000Y3000000D02*
X3520000Y3040000D01*
X3560000D01*
X3540000Y3000000D01*
X3495000Y2500000D02*
X3475000Y2540000D01*
X3515000D01*
X3495000Y2500000D01*
X3010000Y3475000D02*
X2990000Y3515000D01*
X3030000D01*
X3010000Y3475000D01*
X4175000Y3505000D02*
X4155000Y3545000D01*
X4195000D01*
X4175000Y3505000D01*
X1940837Y4055000D02*
Y4045000D01*
X1960837D01*
Y4055000D01*
X1970837D01*
Y4075000D01*
X1960837D01*
Y4085000D01*
X1940837D01*
Y4075000D01*
X1930837D01*
Y4055000D01*
X1940837D01*
X2320837Y3970000D02*
Y3960000D01*
X2340837D01*
Y3970000D01*
X2350837D01*
Y3990000D01*
X2340837D01*
Y4000000D01*
X2320837D01*
Y3990000D01*
X2310837D01*
Y3970000D01*
X2320837D01*
X2542333D02*
Y3960000D01*
X2562333D01*
Y3970000D01*
X2572333D01*
Y3990000D01*
X2562333D01*
Y4000000D01*
X2542333D01*
Y3990000D01*
X2532333D01*
Y3970000D01*
X2542333D01*
X2040837Y2975000D02*
Y2965000D01*
X2060837D01*
Y2975000D01*
X2070837D01*
Y2995000D01*
X2060837D01*
Y3005000D01*
X2040837D01*
Y2995000D01*
X2030837D01*
Y2975000D01*
X2040837D01*
X2175837Y2860000D02*
X2155837Y2900000D01*
X2195837D01*
X2175837Y2860000D01*
X2475837Y3055315D02*
X2455837Y3095315D01*
X2495837D01*
X2475837Y3055315D01*
D81*
X2775837Y3765000D02*
G03*
X2775837Y3765000I-20000J0D01*
G01*
Y3465000D02*
G03*
X2775837Y3465000I-20000J0D01*
G01*
X2475837Y3765000D02*
G03*
X2475837Y3765000I-20000J0D01*
G01*
Y3465000D02*
G03*
X2475837Y3465000I-20000J0D01*
G01*
X2560000Y3400000D02*
G03*
X2560000Y3400000I-20000J0D01*
G01*
X2725837Y3310000D02*
G03*
X2725837Y3310000I-20000J0D01*
G01*
X2210837Y3325000D02*
G03*
X2210837Y3325000I-20000J0D01*
G01*
X2125837Y3045000D02*
G03*
X2125837Y3045000I-20000J0D01*
G01*
X2420837Y4250000D02*
G03*
X2420837Y4250000I-20000J0D01*
G01*
%TF.MD5,8040c9bea8e56bb81540206e37808287*%
M02*
