%TF.GenerationSoftware,Altium Limited,Altium Designer,20.1.14 (287)*%
G04 Layer_Color=128*
%FSLAX26Y26*%
%MOIN*%
%TF.SameCoordinates,7E9A0AC4-0E20-4BBF-80A7-7FB1365180D4*%
%TF.FilePolarity,Positive*%
%TF.FileFunction,Paste,Bot*%
%TF.Part,Single*%
G01*
G75*
%TA.AperFunction,SMDPad,CuDef*%
%ADD17R,0.053150X0.045276*%
%ADD18R,0.045276X0.053150*%
%ADD25R,0.051181X0.055118*%
%ADD26R,0.055118X0.051181*%
%ADD36O,0.021654X0.086614*%
%ADD37O,0.023622X0.080709*%
D17*
X2625837Y3189449D02*
D03*
Y3120551D02*
D03*
X2330837Y3460551D02*
D03*
Y3529449D02*
D03*
X2250837Y3460551D02*
D03*
Y3529449D02*
D03*
X2170837Y3460551D02*
D03*
Y3529449D02*
D03*
D18*
X3595551Y2900000D02*
D03*
X3664449D02*
D03*
X3819449Y3310000D02*
D03*
X3750551D02*
D03*
X3839449Y2900000D02*
D03*
X3770551D02*
D03*
X3669449Y3310000D02*
D03*
X3600551D02*
D03*
D25*
X3278504Y2775000D02*
D03*
X3341496D02*
D03*
X3336496Y3345000D02*
D03*
X3273504D02*
D03*
X3341496Y2870000D02*
D03*
X3278504D02*
D03*
X2557333Y2895000D02*
D03*
X2494341D02*
D03*
D26*
X3515000Y3293504D02*
D03*
Y3356496D02*
D03*
X2555837Y3832992D02*
D03*
Y3770000D02*
D03*
X2875837Y3371496D02*
D03*
Y3308504D02*
D03*
X2785837Y3371496D02*
D03*
Y3308504D02*
D03*
X2275191Y2977449D02*
D03*
Y3040441D02*
D03*
X2190522Y2978504D02*
D03*
Y3041496D02*
D03*
X2185837Y3201496D02*
D03*
Y3138504D02*
D03*
X2275837Y3201496D02*
D03*
Y3138504D02*
D03*
D36*
X3620000Y3200000D02*
D03*
X3670000D02*
D03*
X3720000D02*
D03*
X3770000D02*
D03*
X3620000Y3011024D02*
D03*
X3670000D02*
D03*
X3720000D02*
D03*
X3770000D02*
D03*
D37*
X2400837Y3190472D02*
D03*
X2450837D02*
D03*
X2500837D02*
D03*
X2550837D02*
D03*
X2400837Y2999528D02*
D03*
X2450837D02*
D03*
X2500837D02*
D03*
X2550837D02*
D03*
%TF.MD5,0b5ebba6594af319049b03fedb816eee*%
M02*
