%TF.GenerationSoftware,Altium Limited,Altium Designer,20.1.14 (287)*%
G04 Layer_Color=8388736*
%FSLAX26Y26*%
%MOIN*%
%TF.SameCoordinates,7E9A0AC4-0E20-4BBF-80A7-7FB1365180D4*%
%TF.FilePolarity,Negative*%
%TF.FileFunction,Soldermask,Top*%
%TF.Part,Single*%
G01*
G75*
%TA.AperFunction,SMDPad,CuDef*%
%ADD24R,0.023622X0.031496*%
%ADD46R,0.053276X0.061150*%
%ADD47R,0.061150X0.053276*%
%ADD48R,0.059181X0.063118*%
%ADD49R,0.063118X0.059181*%
%TA.AperFunction,ComponentPad*%
%ADD50C,0.043433*%
%ADD51C,0.068000*%
%TA.AperFunction,ViaPad*%
%ADD52C,0.043000*%
%ADD53C,0.027685*%
%ADD54C,0.038000*%
%ADD55C,0.058000*%
%TA.AperFunction,SMDPad,CuDef*%
%ADD59O,0.017843X0.063118*%
%ADD60O,0.063118X0.017843*%
%ADD61O,0.019811X0.090677*%
%ADD62O,0.090677X0.019811*%
%ADD63R,0.159969X0.115874*%
%ADD64O,0.021779X0.080835*%
%ADD65R,0.041465X0.045402*%
%TA.AperFunction,ConnectorPad*%
G04:AMPARAMS|DCode=66|XSize=145.795mil|YSize=88.709mil|CornerRadius=24.177mil|HoleSize=0mil|Usage=FLASHONLY|Rotation=180.000|XOffset=0mil|YOffset=0mil|HoleType=Round|Shape=RoundedRectangle|*
%AMROUNDEDRECTD66*
21,1,0.145795,0.040354,0,0,180.0*
21,1,0.097441,0.088709,0,0,180.0*
1,1,0.048354,-0.048721,0.020177*
1,1,0.048354,0.048721,0.020177*
1,1,0.048354,0.048721,-0.020177*
1,1,0.048354,-0.048721,-0.020177*
%
%ADD66ROUNDEDRECTD66*%
G04:AMPARAMS|DCode=67|XSize=165.48mil|YSize=88.709mil|CornerRadius=24.177mil|HoleSize=0mil|Usage=FLASHONLY|Rotation=180.000|XOffset=0mil|YOffset=0mil|HoleType=Round|Shape=RoundedRectangle|*
%AMROUNDEDRECTD67*
21,1,0.165480,0.040354,0,0,180.0*
21,1,0.117126,0.088709,0,0,180.0*
1,1,0.048354,-0.058563,0.020177*
1,1,0.048354,0.058563,0.020177*
1,1,0.048354,0.058563,-0.020177*
1,1,0.048354,-0.058563,-0.020177*
%
%ADD67ROUNDEDRECTD67*%
G04:AMPARAMS|DCode=68|XSize=145.795mil|YSize=88.709mil|CornerRadius=24.177mil|HoleSize=0mil|Usage=FLASHONLY|Rotation=180.000|XOffset=0mil|YOffset=0mil|HoleType=Round|Shape=RoundedRectangle|*
%AMROUNDEDRECTD68*
21,1,0.145795,0.040355,0,0,180.0*
21,1,0.097441,0.088709,0,0,180.0*
1,1,0.048354,-0.048721,0.020177*
1,1,0.048354,0.048721,0.020177*
1,1,0.048354,0.048721,-0.020177*
1,1,0.048354,-0.048721,-0.020177*
%
%ADD68ROUNDEDRECTD68*%
G04:AMPARAMS|DCode=69|XSize=118.236mil|YSize=27.685mil|CornerRadius=8.921mil|HoleSize=0mil|Usage=FLASHONLY|Rotation=180.000|XOffset=0mil|YOffset=0mil|HoleType=Round|Shape=RoundedRectangle|*
%AMROUNDEDRECTD69*
21,1,0.118236,0.009843,0,0,180.0*
21,1,0.100394,0.027685,0,0,180.0*
1,1,0.017842,-0.050197,0.004921*
1,1,0.017842,0.050197,0.004921*
1,1,0.017842,0.050197,-0.004921*
1,1,0.017842,-0.050197,-0.004921*
%
%ADD69ROUNDEDRECTD69*%
%TA.AperFunction,SMDPad,CuDef*%
%ADD70P,0.078127X4X180.0*%
D24*
X4123465Y3525000D02*
D03*
X4056535D02*
D03*
D46*
X2960286Y3420000D02*
D03*
X2891388D02*
D03*
X2960286Y3340000D02*
D03*
X2891388D02*
D03*
X2960286Y3260000D02*
D03*
X2891388D02*
D03*
X2960286Y3180000D02*
D03*
X2891388D02*
D03*
X2960286Y3100000D02*
D03*
X2891388D02*
D03*
X2960286Y3020000D02*
D03*
X2891388D02*
D03*
X2960286Y2940000D02*
D03*
X2891388D02*
D03*
X2960286Y2860000D02*
D03*
X2891388D02*
D03*
X1884735Y4020000D02*
D03*
X1815837D02*
D03*
X2191388Y3980000D02*
D03*
X2260286D02*
D03*
D47*
X3815837Y2555000D02*
D03*
Y2486102D02*
D03*
X3730837Y2554449D02*
D03*
Y2485551D02*
D03*
X2190837Y3264449D02*
D03*
Y3195551D02*
D03*
X2170837Y3044449D02*
D03*
Y2975551D02*
D03*
X2695837Y2630315D02*
D03*
Y2699213D02*
D03*
X2610837Y2630315D02*
D03*
Y2699213D02*
D03*
X2525837Y2630315D02*
D03*
Y2699213D02*
D03*
X2440837Y2630866D02*
D03*
Y2699764D02*
D03*
X2355837Y2630866D02*
D03*
Y2699764D02*
D03*
X2265837Y2776102D02*
D03*
Y2845000D02*
D03*
X1815837Y4095551D02*
D03*
Y4164449D02*
D03*
X2155837Y3579449D02*
D03*
Y3510551D02*
D03*
X1795837Y3579449D02*
D03*
Y3510551D02*
D03*
X2275837Y3830551D02*
D03*
Y3899449D02*
D03*
X2105837Y4018898D02*
D03*
Y3950000D02*
D03*
X2190837Y3830551D02*
D03*
Y3899449D02*
D03*
D48*
X3121496Y2675000D02*
D03*
X3058504D02*
D03*
X4126496Y3275000D02*
D03*
X4063504D02*
D03*
X4136496Y3070000D02*
D03*
X4073504D02*
D03*
X1819341Y3840000D02*
D03*
X1882333D02*
D03*
X1882333Y3935000D02*
D03*
X1819341D02*
D03*
X2015837Y3835000D02*
D03*
X2078829D02*
D03*
X2410837Y4180000D02*
D03*
X2473829D02*
D03*
Y3940000D02*
D03*
X2410837D02*
D03*
X2473829Y4100000D02*
D03*
X2410837D02*
D03*
X2473829Y4020000D02*
D03*
X2410837D02*
D03*
D49*
X3625000Y3618504D02*
D03*
Y3681496D02*
D03*
X3430000Y3681496D02*
D03*
Y3618504D02*
D03*
X3390000Y2488504D02*
D03*
Y2551496D02*
D03*
X3605000Y2493504D02*
D03*
Y2556496D02*
D03*
X3905000Y2488504D02*
D03*
Y2551496D02*
D03*
X2245837Y3576496D02*
D03*
Y3513504D02*
D03*
X2025837Y4016496D02*
D03*
Y3953504D02*
D03*
X2325837Y4212992D02*
D03*
Y4150000D02*
D03*
X2240837Y4148504D02*
D03*
Y4211496D02*
D03*
X2155837Y4150000D02*
D03*
Y4212992D02*
D03*
X2070837Y4148504D02*
D03*
Y4211496D02*
D03*
X1985837Y4148504D02*
D03*
Y4211496D02*
D03*
X1900837Y4148504D02*
D03*
Y4211496D02*
D03*
D50*
X1880837Y3180000D02*
D03*
Y3006772D02*
D03*
D51*
X2755837Y3765000D02*
D03*
Y3465000D02*
D03*
X2455837Y3765000D02*
D03*
Y3465000D02*
D03*
D52*
X2830000Y3405000D02*
D03*
X4085000Y3375000D02*
D03*
X3880000Y3285000D02*
D03*
Y3195000D02*
D03*
X3595000Y3420000D02*
D03*
X3720000Y2905000D02*
D03*
X3895000Y3330000D02*
D03*
X3905000Y2770000D02*
D03*
X3865000Y3095000D02*
D03*
X3295000Y3575000D02*
D03*
X4150000Y3475000D02*
D03*
X3900000Y3235000D02*
D03*
X4200000Y3185000D02*
D03*
X3500000Y3585000D02*
D03*
X4135000Y3135000D02*
D03*
X3905000Y3035000D02*
D03*
X3220000Y2870000D02*
D03*
X4140020Y3355020D02*
D03*
X4075000Y3130000D02*
D03*
X3695000Y2770000D02*
D03*
X3435000Y3345000D02*
D03*
X3860000Y2620000D02*
D03*
X3742347Y2742347D02*
D03*
X3485000Y2775000D02*
D03*
X3830000Y2794500D02*
D03*
X4200000Y3235000D02*
D03*
X4065000Y3415000D02*
D03*
X3220000Y2775000D02*
D03*
Y3330000D02*
D03*
X3810000Y3245000D02*
D03*
X4195000Y3130000D02*
D03*
X3620000Y2780000D02*
D03*
X3235000Y3050000D02*
D03*
X3490000Y3435000D02*
D03*
X3905000Y3160000D02*
D03*
X4115000Y3430000D02*
D03*
X4065000Y2965000D02*
D03*
X4210000Y3340000D02*
D03*
X3555000Y2785000D02*
D03*
X6835000Y2320000D02*
D03*
X7135000D02*
D03*
X4200000Y3290000D02*
D03*
X6225000Y2320000D02*
D03*
X5935000D02*
D03*
X5040000D02*
D03*
X5325000D02*
D03*
X4280000D02*
D03*
X4204500Y3070000D02*
D03*
X8625000Y2320000D02*
D03*
X8325000D02*
D03*
X8025000D02*
D03*
X7735000D02*
D03*
X7425000D02*
D03*
X6535000D02*
D03*
X5625000Y2325000D02*
D03*
X4740000Y2320000D02*
D03*
X2830409Y3128536D02*
D03*
X2625837Y2980000D02*
D03*
X2370885Y3379036D02*
D03*
X2620837Y2790000D02*
D03*
X2400837Y3430000D02*
D03*
X2455837Y3400000D02*
D03*
X2715837Y2885000D02*
D03*
X3450000Y2596500D02*
D03*
X3690000Y3680000D02*
D03*
X3370000Y3685000D02*
D03*
X2440000Y2575000D02*
D03*
X2265000Y2710000D02*
D03*
X2760000Y2630000D02*
D03*
X3815000Y2410000D02*
D03*
X3730000Y2415000D02*
D03*
X2355000Y2575000D02*
D03*
X3905000Y2430000D02*
D03*
X3965000Y2550000D02*
D03*
X3540000Y3020000D02*
D03*
X3495000Y2520000D02*
D03*
X3010000Y3495000D02*
D03*
X4175000Y3525000D02*
D03*
X2175837Y2880000D02*
D03*
X2475837Y3075315D02*
D03*
D53*
X1932530Y3608347D02*
D03*
Y3651654D02*
D03*
X1975837Y3608347D02*
D03*
Y3651654D02*
D03*
X2019144Y3608347D02*
D03*
Y3651654D02*
D03*
D54*
X4450769Y2640769D02*
D03*
X6835769Y2427000D02*
D03*
X7135769Y2425769D02*
D03*
X4445769Y2835769D02*
D03*
X4440769Y3030769D02*
D03*
Y3235769D02*
D03*
X6530769Y2427000D02*
D03*
X6240769D02*
D03*
X4435769Y2425769D02*
D03*
X5335769D02*
D03*
X5930769D02*
D03*
X4740769D02*
D03*
X5035769D02*
D03*
X5635769D02*
D03*
X4445769Y3435769D02*
D03*
X4450769Y3640769D02*
D03*
X4440769Y3830144D02*
D03*
X4430769Y4220769D02*
D03*
X4730769D02*
D03*
X5020769D02*
D03*
X5320769D02*
D03*
X5630769D02*
D03*
X5935769D02*
D03*
X6225769D02*
D03*
X6530769D02*
D03*
X6835769D02*
D03*
X7135769D02*
D03*
X7425769D02*
D03*
X7725769D02*
D03*
X8020769D02*
D03*
X8325769D02*
D03*
X8630769D02*
D03*
X4435769Y4025769D02*
D03*
X4735769D02*
D03*
X5035769D02*
D03*
X5335769D02*
D03*
X5630769D02*
D03*
X5937682Y4027682D02*
D03*
X6235769Y4025769D02*
D03*
X6535769D02*
D03*
X6835769D02*
D03*
X7140769D02*
D03*
X7435769D02*
D03*
X7725769D02*
D03*
X8025769D02*
D03*
X8330769D02*
D03*
X8635769D02*
D03*
X4740769Y3830769D02*
D03*
X5042682Y3831432D02*
D03*
X5340769Y3830769D02*
D03*
X5630769D02*
D03*
X5935769D02*
D03*
X6240769D02*
D03*
X6540769D02*
D03*
X6840769D02*
D03*
X7140769D02*
D03*
X7440769D02*
D03*
X7740769D02*
D03*
X8040769D02*
D03*
X8340769D02*
D03*
X8640769D02*
D03*
X4750769Y3640769D02*
D03*
X5050769D02*
D03*
X5350769D02*
D03*
X5645769D02*
D03*
X5935769D02*
D03*
X6250769D02*
D03*
X6540769D02*
D03*
X6850769D02*
D03*
X7140769D02*
D03*
X7440769D02*
D03*
X7740769D02*
D03*
X8045769D02*
D03*
X8345769D02*
D03*
X8635769D02*
D03*
X4745769Y3435769D02*
D03*
X5040769D02*
D03*
X5345769D02*
D03*
X5640769D02*
D03*
X5935769D02*
D03*
X6245769D02*
D03*
X6540769D02*
D03*
X6845769D02*
D03*
X7145769D02*
D03*
X7445769D02*
D03*
X7745769D02*
D03*
X8040769D02*
D03*
X8343269D02*
D03*
X8645769D02*
D03*
X4735769Y3235769D02*
D03*
X5045769D02*
D03*
X5340769D02*
D03*
X5645769D02*
D03*
X5940769D02*
D03*
X6245769D02*
D03*
X6540769D02*
D03*
X6845769D02*
D03*
X7140769D02*
D03*
X7440769D02*
D03*
X7745769D02*
D03*
X8045769D02*
D03*
X8340769D02*
D03*
X8640769D02*
D03*
X4740769Y3030769D02*
D03*
X5040769D02*
D03*
X5335769D02*
D03*
X5640769D02*
D03*
X5940769D02*
D03*
X6230769D02*
D03*
X6535769D02*
D03*
X6835769D02*
D03*
X7130769D02*
D03*
X7440769D02*
D03*
X7735769D02*
D03*
X8030769D02*
D03*
X8340769D02*
D03*
X8640769D02*
D03*
X5345769Y2835769D02*
D03*
X5645769D02*
D03*
X5940769D02*
D03*
X6240769D02*
D03*
X6545769D02*
D03*
X6840769D02*
D03*
X7135769D02*
D03*
X7445769D02*
D03*
X7745769D02*
D03*
X8040769D02*
D03*
X8335769D02*
D03*
X8645769D02*
D03*
X4750769Y2640769D02*
D03*
X5055769D02*
D03*
X5345769D02*
D03*
X5645769D02*
D03*
X5940769D02*
D03*
X6245769D02*
D03*
X6550769D02*
D03*
X6850769D02*
D03*
X7150769D02*
D03*
X7445769D02*
D03*
X7745769D02*
D03*
X8045769D02*
D03*
X8350769D02*
D03*
X8650769D02*
D03*
X7435769Y2425769D02*
D03*
X7735769D02*
D03*
X8035769D02*
D03*
X8335769D02*
D03*
X8635769D02*
D03*
X4745769Y2835769D02*
D03*
X5045769D02*
D03*
D55*
X2540000Y3400000D02*
D03*
X2705837Y3310000D02*
D03*
X1950837Y4065000D02*
D03*
X2330837Y3980000D02*
D03*
X2552333D02*
D03*
X2190837Y3325000D02*
D03*
X2050837Y2985000D02*
D03*
X2105837Y3045000D02*
D03*
X2400837Y4250000D02*
D03*
D59*
X3213780Y3515000D02*
D03*
X3233465D02*
D03*
X3253150D02*
D03*
X3272835D02*
D03*
X3292520D02*
D03*
X3312205D02*
D03*
X3331890D02*
D03*
X3351575D02*
D03*
X3371260D02*
D03*
X3390945D02*
D03*
X3410630D02*
D03*
X3430315D02*
D03*
X3450000D02*
D03*
X3469685D02*
D03*
X3489370D02*
D03*
X3509055D02*
D03*
X3528740D02*
D03*
X3548425D02*
D03*
X3568110D02*
D03*
X3587795D02*
D03*
X3607480D02*
D03*
X3627165D02*
D03*
X3646850D02*
D03*
X3666535D02*
D03*
X3686220D02*
D03*
X3705905D02*
D03*
X3725591D02*
D03*
X3745276D02*
D03*
X3764961D02*
D03*
X3784646D02*
D03*
X3804331D02*
D03*
X3824016D02*
D03*
X3843701D02*
D03*
X3863386D02*
D03*
X3883071D02*
D03*
X3902756D02*
D03*
Y2680354D02*
D03*
X3883071D02*
D03*
X3863386D02*
D03*
X3843701D02*
D03*
X3824016D02*
D03*
X3804331D02*
D03*
X3784646D02*
D03*
X3764961D02*
D03*
X3745276D02*
D03*
X3725591D02*
D03*
X3705905D02*
D03*
X3686220D02*
D03*
X3666535D02*
D03*
X3646850D02*
D03*
X3627165D02*
D03*
X3607480D02*
D03*
X3587795D02*
D03*
X3568110D02*
D03*
X3548425D02*
D03*
X3528740D02*
D03*
X3509055D02*
D03*
X3489370D02*
D03*
X3469685D02*
D03*
X3450000D02*
D03*
X3430315D02*
D03*
X3410630D02*
D03*
X3390945D02*
D03*
X3371260D02*
D03*
X3351575D02*
D03*
X3331890D02*
D03*
X3312205D02*
D03*
X3292520D02*
D03*
X3272835D02*
D03*
X3253150D02*
D03*
X3233465D02*
D03*
X3213780D02*
D03*
D60*
X3975591Y3442165D02*
D03*
Y3422480D02*
D03*
Y3402795D02*
D03*
Y3383110D02*
D03*
Y3363425D02*
D03*
Y3343740D02*
D03*
Y3324055D02*
D03*
Y3304370D02*
D03*
Y3284685D02*
D03*
Y3265000D02*
D03*
Y3245315D02*
D03*
Y3225630D02*
D03*
Y3205945D02*
D03*
Y3186260D02*
D03*
Y3166575D02*
D03*
Y3146890D02*
D03*
Y3127205D02*
D03*
Y3107520D02*
D03*
Y3087835D02*
D03*
Y3068150D02*
D03*
Y3048465D02*
D03*
Y3028780D02*
D03*
Y3009095D02*
D03*
Y2989409D02*
D03*
Y2969724D02*
D03*
Y2950039D02*
D03*
Y2930354D02*
D03*
Y2910669D02*
D03*
Y2890984D02*
D03*
Y2871299D02*
D03*
Y2851614D02*
D03*
Y2831929D02*
D03*
Y2812244D02*
D03*
Y2792559D02*
D03*
Y2772874D02*
D03*
Y2753189D02*
D03*
X3140945D02*
D03*
Y2772874D02*
D03*
Y2792559D02*
D03*
Y2812244D02*
D03*
Y2831929D02*
D03*
Y2851614D02*
D03*
Y2871299D02*
D03*
Y2890984D02*
D03*
Y2910669D02*
D03*
Y2930354D02*
D03*
Y2950039D02*
D03*
Y2969724D02*
D03*
Y2989409D02*
D03*
Y3009095D02*
D03*
Y3028780D02*
D03*
Y3048465D02*
D03*
Y3068150D02*
D03*
Y3087835D02*
D03*
Y3107520D02*
D03*
Y3127205D02*
D03*
Y3146890D02*
D03*
Y3166575D02*
D03*
Y3186260D02*
D03*
Y3205945D02*
D03*
Y3225630D02*
D03*
Y3245315D02*
D03*
Y3265000D02*
D03*
Y3284685D02*
D03*
Y3304370D02*
D03*
Y3324055D02*
D03*
Y3343740D02*
D03*
Y3363425D02*
D03*
Y3383110D02*
D03*
Y3402795D02*
D03*
Y3422480D02*
D03*
Y3442165D02*
D03*
D61*
X2368199Y3310472D02*
D03*
X2387885D02*
D03*
X2407570D02*
D03*
X2427255D02*
D03*
X2446940D02*
D03*
X2466625D02*
D03*
X2486310D02*
D03*
X2505995D02*
D03*
X2525680D02*
D03*
X2545365D02*
D03*
X2565050D02*
D03*
X2584735D02*
D03*
X2604420D02*
D03*
X2624105D02*
D03*
X2643790D02*
D03*
X2663475D02*
D03*
Y2869528D02*
D03*
X2643790D02*
D03*
X2624105D02*
D03*
X2604420D02*
D03*
X2584735D02*
D03*
X2565050D02*
D03*
X2545365D02*
D03*
X2525680D02*
D03*
X2505995D02*
D03*
X2486310D02*
D03*
X2466625D02*
D03*
X2446940D02*
D03*
X2427255D02*
D03*
X2407570D02*
D03*
X2387885D02*
D03*
X2368199D02*
D03*
D62*
X2736310Y3237638D02*
D03*
Y3217953D02*
D03*
Y3198268D02*
D03*
Y3178583D02*
D03*
Y3158898D02*
D03*
Y3139213D02*
D03*
Y3119528D02*
D03*
Y3099843D02*
D03*
Y3080157D02*
D03*
Y3060472D02*
D03*
Y3040787D02*
D03*
Y3021102D02*
D03*
Y3001417D02*
D03*
Y2981732D02*
D03*
Y2962047D02*
D03*
Y2942362D02*
D03*
X2295365D02*
D03*
Y2962047D02*
D03*
Y2981732D02*
D03*
Y3001417D02*
D03*
Y3021102D02*
D03*
Y3040787D02*
D03*
Y3060472D02*
D03*
Y3080157D02*
D03*
Y3099843D02*
D03*
Y3119528D02*
D03*
Y3139213D02*
D03*
Y3158898D02*
D03*
Y3178583D02*
D03*
Y3198268D02*
D03*
Y3217953D02*
D03*
Y3237638D02*
D03*
D63*
X1975837Y3630000D02*
D03*
D64*
X1860680Y3514843D02*
D03*
X1886270D02*
D03*
X1911861D02*
D03*
X1937451D02*
D03*
X1963042D02*
D03*
X1988632D02*
D03*
X2014223D02*
D03*
X2039814D02*
D03*
X2065404D02*
D03*
X2090995D02*
D03*
X1860680Y3745157D02*
D03*
X1886270D02*
D03*
X1911861D02*
D03*
X1937451D02*
D03*
X1963042D02*
D03*
X1988632D02*
D03*
X2014223D02*
D03*
X2039814D02*
D03*
X2065404D02*
D03*
X2090995D02*
D03*
D65*
X8751360Y2320769D02*
D03*
X8700179D02*
D03*
X8451360D02*
D03*
X8400179D02*
D03*
X8151360D02*
D03*
X8100179D02*
D03*
X7851360D02*
D03*
X7800179D02*
D03*
X7546360D02*
D03*
X7495179D02*
D03*
X7251360D02*
D03*
X7200179D02*
D03*
X6951360D02*
D03*
X6900179D02*
D03*
X6651360D02*
D03*
X6600179D02*
D03*
X6351360D02*
D03*
X6300179D02*
D03*
X6051360D02*
D03*
X6000179D02*
D03*
X5746360D02*
D03*
X5695179D02*
D03*
X5451360D02*
D03*
X5400179D02*
D03*
X5151360D02*
D03*
X5100179D02*
D03*
X4851360D02*
D03*
X4800179D02*
D03*
X4551360D02*
D03*
X4500179D02*
D03*
D66*
X1973357Y3287284D02*
D03*
D67*
X1806033D02*
D03*
Y2899488D02*
D03*
D68*
X1973357D02*
D03*
D69*
X1972371Y3124882D02*
D03*
Y3156378D02*
D03*
Y3061890D02*
D03*
Y3030394D02*
D03*
Y3093386D02*
D03*
D70*
X8750000Y4340000D02*
D03*
X8691538Y4281538D02*
D03*
X8450000Y4340000D02*
D03*
X8391538Y4281538D02*
D03*
X8150000Y4340000D02*
D03*
X8091538Y4281538D02*
D03*
X7850000Y4340000D02*
D03*
X7791538Y4281538D02*
D03*
X7550000Y4340000D02*
D03*
X7491538Y4281538D02*
D03*
X7250000Y4340000D02*
D03*
X7191538Y4281538D02*
D03*
X6950000Y4340000D02*
D03*
X6891538Y4281538D02*
D03*
X6650000Y4340000D02*
D03*
X6591538Y4281538D02*
D03*
X6350000Y4340000D02*
D03*
X6291538Y4281538D02*
D03*
X6050000Y4340000D02*
D03*
X5991538Y4281538D02*
D03*
X5750000Y4340000D02*
D03*
X5691538Y4281538D02*
D03*
X5450000Y4340000D02*
D03*
X5391538Y4281538D02*
D03*
X5150000Y4340000D02*
D03*
X5091538Y4281538D02*
D03*
X4850000Y4340000D02*
D03*
X4791538Y4281538D02*
D03*
X4550000Y4340000D02*
D03*
X4491538Y4281538D02*
D03*
X8750000Y4140000D02*
D03*
X8691538Y4081538D02*
D03*
X8450000Y4140000D02*
D03*
X8391538Y4081538D02*
D03*
X8150000Y4140000D02*
D03*
X8091538Y4081538D02*
D03*
X7850000Y4140000D02*
D03*
X7791538Y4081538D02*
D03*
X7550000Y4140000D02*
D03*
X7491538Y4081538D02*
D03*
X7250000Y4140000D02*
D03*
X7191538Y4081538D02*
D03*
X6950000Y4140000D02*
D03*
X6891538Y4081538D02*
D03*
X6650000Y4140000D02*
D03*
X6591538Y4081538D02*
D03*
X6350000Y4140000D02*
D03*
X6291538Y4081538D02*
D03*
X6050000Y4140000D02*
D03*
X5991538Y4081538D02*
D03*
X5750000Y4140000D02*
D03*
X5691538Y4081538D02*
D03*
X5450000Y4140000D02*
D03*
X5391538Y4081538D02*
D03*
X5150000Y4140000D02*
D03*
X5091538Y4081538D02*
D03*
X4850000Y4140000D02*
D03*
X4791538Y4081538D02*
D03*
X4550000Y4140000D02*
D03*
X4491538Y4081538D02*
D03*
X8750000Y3940000D02*
D03*
X8691538Y3881538D02*
D03*
X8450000Y3940000D02*
D03*
X8391538Y3881538D02*
D03*
X8150000Y3940000D02*
D03*
X8091538Y3881538D02*
D03*
X7850000Y3940000D02*
D03*
X7791538Y3881538D02*
D03*
X7550000Y3940000D02*
D03*
X7491538Y3881538D02*
D03*
X7250000Y3940000D02*
D03*
X7191538Y3881538D02*
D03*
X6950000Y3940000D02*
D03*
X6891538Y3881538D02*
D03*
X6650000Y3940000D02*
D03*
X6591538Y3881538D02*
D03*
X6350000Y3940000D02*
D03*
X6291538Y3881538D02*
D03*
X6050000Y3940000D02*
D03*
X5991538Y3881538D02*
D03*
X5750000Y3940000D02*
D03*
X5691538Y3881538D02*
D03*
X5450000Y3940000D02*
D03*
X5391538Y3881538D02*
D03*
X5150000Y3940000D02*
D03*
X5091538Y3881538D02*
D03*
X4850000Y3940000D02*
D03*
X4791538Y3881538D02*
D03*
X4550000Y3940000D02*
D03*
X4491538Y3881538D02*
D03*
X8750000Y3740000D02*
D03*
X8691538Y3681538D02*
D03*
X8450000Y3740000D02*
D03*
X8391538Y3681538D02*
D03*
X8150000Y3740000D02*
D03*
X8091538Y3681538D02*
D03*
X7850000Y3740000D02*
D03*
X7791538Y3681538D02*
D03*
X7550000Y3740000D02*
D03*
X7491538Y3681538D02*
D03*
X7250000Y3740000D02*
D03*
X7191538Y3681538D02*
D03*
X6950000Y3740000D02*
D03*
X6891538Y3681538D02*
D03*
X6650000Y3740000D02*
D03*
X6591538Y3681538D02*
D03*
X6350000Y3740000D02*
D03*
X6291538Y3681538D02*
D03*
X6050000Y3740000D02*
D03*
X5991538Y3681538D02*
D03*
X5750000Y3740000D02*
D03*
X5691538Y3681538D02*
D03*
X5450000Y3740000D02*
D03*
X5391538Y3681538D02*
D03*
X5150000Y3740000D02*
D03*
X5091538Y3681538D02*
D03*
X4850000Y3740000D02*
D03*
X4791538Y3681538D02*
D03*
X4550000Y3740000D02*
D03*
X4491538Y3681538D02*
D03*
X8750000Y3540000D02*
D03*
X8691538Y3481538D02*
D03*
X8450000Y3540000D02*
D03*
X8391538Y3481538D02*
D03*
X8150000Y3540000D02*
D03*
X8091538Y3481538D02*
D03*
X7850000Y3540000D02*
D03*
X7791538Y3481538D02*
D03*
X7550000Y3540000D02*
D03*
X7491538Y3481538D02*
D03*
X7250000Y3540000D02*
D03*
X7191538Y3481538D02*
D03*
X6950000Y3540000D02*
D03*
X6891538Y3481538D02*
D03*
X6650000Y3540000D02*
D03*
X6591538Y3481538D02*
D03*
X6350000Y3540000D02*
D03*
X6291538Y3481538D02*
D03*
X6050000Y3540000D02*
D03*
X5991538Y3481538D02*
D03*
X5750000Y3540000D02*
D03*
X5691538Y3481538D02*
D03*
X5450000Y3540000D02*
D03*
X5391538Y3481538D02*
D03*
X5150000Y3540000D02*
D03*
X5091538Y3481538D02*
D03*
X4850000Y3540000D02*
D03*
X4791538Y3481538D02*
D03*
X4550000Y3540000D02*
D03*
X4491538Y3481538D02*
D03*
X8750000Y3340000D02*
D03*
X8691538Y3281538D02*
D03*
X8450000Y3340000D02*
D03*
X8391538Y3281538D02*
D03*
X8150000Y3340000D02*
D03*
X8091538Y3281538D02*
D03*
X7850000Y3340000D02*
D03*
X7791538Y3281538D02*
D03*
X7550000Y3340000D02*
D03*
X7491538Y3281538D02*
D03*
X7250000Y3340000D02*
D03*
X7191538Y3281538D02*
D03*
X6950000Y3340000D02*
D03*
X6891538Y3281538D02*
D03*
X6650000Y3340000D02*
D03*
X6591538Y3281538D02*
D03*
X6350000Y3340000D02*
D03*
X6291538Y3281538D02*
D03*
X6050000Y3340000D02*
D03*
X5991538Y3281538D02*
D03*
X5750000Y3340000D02*
D03*
X5691538Y3281538D02*
D03*
X5450000Y3340000D02*
D03*
X5391538Y3281538D02*
D03*
X5150000Y3340000D02*
D03*
X5091538Y3281538D02*
D03*
X4850000Y3340000D02*
D03*
X4791538Y3281538D02*
D03*
X4550000Y3340000D02*
D03*
X4491538Y3281538D02*
D03*
X8750000Y3140000D02*
D03*
X8691538Y3081538D02*
D03*
X8450000Y3140000D02*
D03*
X8391538Y3081538D02*
D03*
X8150000Y3140000D02*
D03*
X8091538Y3081538D02*
D03*
X7850000Y3140000D02*
D03*
X7791538Y3081538D02*
D03*
X7550000Y3140000D02*
D03*
X7491538Y3081538D02*
D03*
X7250000Y3140000D02*
D03*
X7191538Y3081538D02*
D03*
X6950000Y3140000D02*
D03*
X6891538Y3081538D02*
D03*
X6650000Y3140000D02*
D03*
X6591538Y3081538D02*
D03*
X6350000Y3140000D02*
D03*
X6291538Y3081538D02*
D03*
X6050000Y3140000D02*
D03*
X5991538Y3081538D02*
D03*
X5750000Y3140000D02*
D03*
X5691538Y3081538D02*
D03*
X5450000Y3140000D02*
D03*
X5391538Y3081538D02*
D03*
X5150000Y3140000D02*
D03*
X5091538Y3081538D02*
D03*
X4850000Y3140000D02*
D03*
X4791538Y3081538D02*
D03*
X4550000Y3140000D02*
D03*
X4491538Y3081538D02*
D03*
X8750000Y2940000D02*
D03*
X8691538Y2881538D02*
D03*
X8450000Y2940000D02*
D03*
X8391538Y2881538D02*
D03*
X8150000Y2940000D02*
D03*
X8091538Y2881538D02*
D03*
X7850000Y2940000D02*
D03*
X7791538Y2881538D02*
D03*
X7550000Y2940000D02*
D03*
X7491538Y2881538D02*
D03*
X7250000Y2940000D02*
D03*
X7191538Y2881538D02*
D03*
X6950000Y2940000D02*
D03*
X6891538Y2881538D02*
D03*
X6650000Y2940000D02*
D03*
X6591538Y2881538D02*
D03*
X6350000Y2940000D02*
D03*
X6291538Y2881538D02*
D03*
X6050000Y2940000D02*
D03*
X5991538Y2881538D02*
D03*
X5750000Y2940000D02*
D03*
X5691538Y2881538D02*
D03*
X5450000Y2940000D02*
D03*
X5391538Y2881538D02*
D03*
X5150000Y2940000D02*
D03*
X5091538Y2881538D02*
D03*
X4850000Y2940000D02*
D03*
X4791538Y2881538D02*
D03*
X4550000Y2940000D02*
D03*
X4491538Y2881538D02*
D03*
X8750000Y2740000D02*
D03*
X8691538Y2681538D02*
D03*
X8450000Y2740000D02*
D03*
X8391538Y2681538D02*
D03*
X8150000Y2740000D02*
D03*
X8091538Y2681538D02*
D03*
X7850000Y2740000D02*
D03*
X7791538Y2681538D02*
D03*
X7550000Y2740000D02*
D03*
X7491538Y2681538D02*
D03*
X7250000Y2740000D02*
D03*
X7191538Y2681538D02*
D03*
X6950000Y2740000D02*
D03*
X6891538Y2681538D02*
D03*
X6650000Y2740000D02*
D03*
X6591538Y2681538D02*
D03*
X6350000Y2740000D02*
D03*
X6291538Y2681538D02*
D03*
X6050000Y2740000D02*
D03*
X5991538Y2681538D02*
D03*
X5750000Y2740000D02*
D03*
X5691538Y2681538D02*
D03*
X5450000Y2740000D02*
D03*
X5391538Y2681538D02*
D03*
X5150000Y2740000D02*
D03*
X5091538Y2681538D02*
D03*
X4850000Y2740000D02*
D03*
X4791538Y2681538D02*
D03*
X4550000Y2740000D02*
D03*
X4491538Y2681538D02*
D03*
X8750000Y2540000D02*
D03*
X8691538Y2481538D02*
D03*
X8450000Y2540000D02*
D03*
X8391538Y2481538D02*
D03*
X8150000Y2540000D02*
D03*
X8091538Y2481538D02*
D03*
X7850000Y2540000D02*
D03*
X7791538Y2481538D02*
D03*
X7550000Y2540000D02*
D03*
X7491538Y2481538D02*
D03*
X7250000Y2540000D02*
D03*
X7191538Y2481538D02*
D03*
X6950000Y2540000D02*
D03*
X6891538Y2481538D02*
D03*
X6650000Y2540000D02*
D03*
X6591538Y2481538D02*
D03*
X6350000Y2540000D02*
D03*
X6291538Y2481538D02*
D03*
X6050000Y2540000D02*
D03*
X5991538Y2481538D02*
D03*
X5750000Y2540000D02*
D03*
X5691538Y2481538D02*
D03*
X5450000Y2540000D02*
D03*
X5391538Y2481538D02*
D03*
X5150000Y2540000D02*
D03*
X5091538Y2481538D02*
D03*
X4850000Y2540000D02*
D03*
X4791538Y2481538D02*
D03*
X4550000Y2540000D02*
D03*
X4491538Y2481538D02*
D03*
%TF.MD5,b0b05347b9802634706423e6e2aedb29*%
M02*
