%TF.GenerationSoftware,Altium Limited,Altium Designer,20.1.14 (287)*%
G04 Layer_Color=128*
%FSLAX26Y26*%
%MOIN*%
%TF.SameCoordinates,7E9A0AC4-0E20-4BBF-80A7-7FB1365180D4*%
%TF.FilePolarity,Positive*%
%TF.FileFunction,Drillmap*%
%TF.Part,Single*%
G01*
G75*
%TA.AperFunction,NonConductor*%
%ADD80C,0.005000*%
D80*
X1863121Y3180000D02*
X1898554D01*
X1880837Y3162284D02*
Y3197716D01*
X1863121Y3006772D02*
X1898554D01*
X1880837Y2989055D02*
Y3024488D01*
X2743337Y3765000D02*
X2768337D01*
X2755837Y3752500D02*
Y3777500D01*
X2743337Y3465000D02*
X2768337D01*
X2755837Y3452500D02*
Y3477500D01*
X2443337Y3765000D02*
X2468337D01*
X2455837Y3752500D02*
Y3777500D01*
X2443337Y3465000D02*
X2468337D01*
X2455837Y3452500D02*
Y3477500D01*
X2820000Y3405000D02*
X2840000D01*
X2830000Y3395000D02*
Y3415000D01*
X1928593Y3608347D02*
X1936467D01*
X1932530Y3604410D02*
Y3612284D01*
X1928593Y3651654D02*
X1936467D01*
X1932530Y3647717D02*
Y3655591D01*
X1971900Y3608347D02*
X1979774D01*
X1975837Y3604410D02*
Y3612284D01*
X1971900Y3651654D02*
X1979774D01*
X1975837Y3647717D02*
Y3655591D01*
X2015207Y3608347D02*
X2023081D01*
X2019144Y3604410D02*
Y3612284D01*
X2015207Y3651654D02*
X2023081D01*
X2019144Y3647717D02*
Y3655591D01*
X4075000Y3375000D02*
X4095000D01*
X4085000Y3365000D02*
Y3385000D01*
X3870000Y3285000D02*
X3890000D01*
X3880000Y3275000D02*
Y3295000D01*
X3870000Y3195000D02*
X3890000D01*
X3880000Y3185000D02*
Y3205000D01*
X3585000Y3420000D02*
X3605000D01*
X3595000Y3410000D02*
Y3430000D01*
X3710000Y2905000D02*
X3730000D01*
X3720000Y2895000D02*
Y2915000D01*
X3885000Y3330000D02*
X3905000D01*
X3895000Y3320000D02*
Y3340000D01*
Y2770000D02*
X3915000D01*
X3905000Y2760000D02*
Y2780000D01*
X3855000Y3095000D02*
X3875000D01*
X3865000Y3085000D02*
Y3105000D01*
X3285000Y3575000D02*
X3305000D01*
X3295000Y3565000D02*
Y3585000D01*
X4140000Y3475000D02*
X4160000D01*
X4150000Y3465000D02*
Y3485000D01*
X3890000Y3235000D02*
X3910000D01*
X3900000Y3225000D02*
Y3245000D01*
X4190000Y3185000D02*
X4210000D01*
X4200000Y3175000D02*
Y3195000D01*
X3490000Y3585000D02*
X3510000D01*
X3500000Y3575000D02*
Y3595000D01*
X4125000Y3135000D02*
X4145000D01*
X4135000Y3125000D02*
Y3145000D01*
X3895000Y3035000D02*
X3915000D01*
X3905000Y3025000D02*
Y3045000D01*
X3210000Y2870000D02*
X3230000D01*
X3220000Y2860000D02*
Y2880000D01*
X4130020Y3355020D02*
X4150020D01*
X4140020Y3345020D02*
Y3365020D01*
X4065000Y3130000D02*
X4085000D01*
X4075000Y3120000D02*
Y3140000D01*
X3685000Y2770000D02*
X3705000D01*
X3695000Y2760000D02*
Y2780000D01*
X3425000Y3345000D02*
X3445000D01*
X3435000Y3335000D02*
Y3355000D01*
X3850000Y2620000D02*
X3870000D01*
X3860000Y2610000D02*
Y2630000D01*
X3732347Y2742347D02*
X3752347D01*
X3742347Y2732347D02*
Y2752347D01*
X3475000Y2775000D02*
X3495000D01*
X3485000Y2765000D02*
Y2785000D01*
X3820000Y2794500D02*
X3840000D01*
X3830000Y2784500D02*
Y2804500D01*
X4190000Y3235000D02*
X4210000D01*
X4200000Y3225000D02*
Y3245000D01*
X4055000Y3415000D02*
X4075000D01*
X4065000Y3405000D02*
Y3425000D01*
X3210000Y2775000D02*
X3230000D01*
X3220000Y2765000D02*
Y2785000D01*
X3210000Y3330000D02*
X3230000D01*
X3220000Y3320000D02*
Y3340000D01*
X3800000Y3245000D02*
X3820000D01*
X3810000Y3235000D02*
Y3255000D01*
X4185000Y3130000D02*
X4205000D01*
X4195000Y3120000D02*
Y3140000D01*
X3610000Y2780000D02*
X3630000D01*
X3620000Y2770000D02*
Y2790000D01*
X3225000Y3050000D02*
X3245000D01*
X3235000Y3040000D02*
Y3060000D01*
X3480000Y3435000D02*
X3500000D01*
X3490000Y3425000D02*
Y3445000D01*
X3895000Y3160000D02*
X3915000D01*
X3905000Y3150000D02*
Y3170000D01*
X4105000Y3430000D02*
X4125000D01*
X4115000Y3420000D02*
Y3440000D01*
X4055000Y2965000D02*
X4075000D01*
X4065000Y2955000D02*
Y2975000D01*
X4200000Y3340000D02*
X4220000D01*
X4210000Y3330000D02*
Y3350000D01*
X3545000Y2785000D02*
X3565000D01*
X3555000Y2775000D02*
Y2795000D01*
X4443269Y2640769D02*
X4458269D01*
X4450769Y2633269D02*
Y2648269D01*
X6828269Y2427000D02*
X6843269D01*
X6835769Y2419500D02*
Y2434500D01*
X6825000Y2320000D02*
X6845000D01*
X6835000Y2310000D02*
Y2330000D01*
X7128269Y2425769D02*
X7143269D01*
X7135769Y2418269D02*
Y2433269D01*
X4438269Y2835769D02*
X4453269D01*
X4445769Y2828269D02*
Y2843269D01*
X4433269Y3030769D02*
X4448269D01*
X4440769Y3023269D02*
Y3038269D01*
X4433269Y3235769D02*
X4448269D01*
X4440769Y3228269D02*
Y3243269D01*
X6523269Y2427000D02*
X6538269D01*
X6530769Y2419500D02*
Y2434500D01*
X6233269Y2427000D02*
X6248269D01*
X6240769Y2419500D02*
Y2434500D01*
X7125000Y2320000D02*
X7145000D01*
X7135000Y2310000D02*
Y2330000D01*
X4428269Y2425769D02*
X4443269D01*
X4435769Y2418269D02*
Y2433269D01*
X4190000Y3290000D02*
X4210000D01*
X4200000Y3280000D02*
Y3300000D01*
X5328269Y2425769D02*
X5343269D01*
X5335769Y2418269D02*
Y2433269D01*
X5923269Y2425769D02*
X5938269D01*
X5930769Y2418269D02*
Y2433269D01*
X4733269Y2425769D02*
X4748269D01*
X4740769Y2418269D02*
Y2433269D01*
X5028269Y2425769D02*
X5043269D01*
X5035769Y2418269D02*
Y2433269D01*
X5628269Y2425769D02*
X5643269D01*
X5635769Y2418269D02*
Y2433269D01*
X6215000Y2320000D02*
X6235000D01*
X6225000Y2310000D02*
Y2330000D01*
X5925000Y2320000D02*
X5945000D01*
X5935000Y2310000D02*
Y2330000D01*
X5030000Y2320000D02*
X5050000D01*
X5040000Y2310000D02*
Y2330000D01*
X5315000Y2320000D02*
X5335000D01*
X5325000Y2310000D02*
Y2330000D01*
X4270000Y2320000D02*
X4290000D01*
X4280000Y2310000D02*
Y2330000D01*
X4194500Y3070000D02*
X4214500D01*
X4204500Y3060000D02*
Y3080000D01*
X8615000Y2320000D02*
X8635000D01*
X8625000Y2310000D02*
Y2330000D01*
X8315000Y2320000D02*
X8335000D01*
X8325000Y2310000D02*
Y2330000D01*
X8015000Y2320000D02*
X8035000D01*
X8025000Y2310000D02*
Y2330000D01*
X7725000Y2320000D02*
X7745000D01*
X7735000Y2310000D02*
Y2330000D01*
X7415000Y2320000D02*
X7435000D01*
X7425000Y2310000D02*
Y2330000D01*
X6525000Y2320000D02*
X6545000D01*
X6535000Y2310000D02*
Y2330000D01*
X5615000Y2325000D02*
X5635000D01*
X5625000Y2315000D02*
Y2335000D01*
X4730000Y2320000D02*
X4750000D01*
X4740000Y2310000D02*
Y2330000D01*
X4438269Y3435769D02*
X4453269D01*
X4445769Y3428269D02*
Y3443269D01*
X4443269Y3640769D02*
X4458269D01*
X4450769Y3633269D02*
Y3648269D01*
X2820409Y3128536D02*
X2840409D01*
X2830409Y3118536D02*
Y3138536D01*
X2527500Y3400000D02*
X2552500D01*
X2540000Y3387500D02*
Y3412500D01*
X2615837Y2980000D02*
X2635837D01*
X2625837Y2970000D02*
Y2990000D01*
X2360885Y3379036D02*
X2380885D01*
X2370885Y3369036D02*
Y3389036D01*
X2610837Y2790000D02*
X2630837D01*
X2620837Y2780000D02*
Y2800000D01*
X2390837Y3430000D02*
X2410837D01*
X2400837Y3420000D02*
Y3440000D01*
X2445837Y3400000D02*
X2465837D01*
X2455837Y3390000D02*
Y3410000D01*
X2705837Y2885000D02*
X2725837D01*
X2715837Y2875000D02*
Y2895000D01*
X2693337Y3310000D02*
X2718337D01*
X2705837Y3297500D02*
Y3322500D01*
X3440000Y2596500D02*
X3460000D01*
X3450000Y2586500D02*
Y2606500D01*
X4433269Y3830144D02*
X4448269D01*
X4440769Y3822644D02*
Y3837644D01*
X4423269Y4220769D02*
X4438269D01*
X4430769Y4213269D02*
Y4228269D01*
X4723269Y4220769D02*
X4738269D01*
X4730769Y4213269D02*
Y4228269D01*
X5013269Y4220769D02*
X5028269D01*
X5020769Y4213269D02*
Y4228269D01*
X5313269Y4220769D02*
X5328269D01*
X5320769Y4213269D02*
Y4228269D01*
X5623269Y4220769D02*
X5638269D01*
X5630769Y4213269D02*
Y4228269D01*
X5928269Y4220769D02*
X5943269D01*
X5935769Y4213269D02*
Y4228269D01*
X6218269Y4220769D02*
X6233269D01*
X6225769Y4213269D02*
Y4228269D01*
X6523269Y4220769D02*
X6538269D01*
X6530769Y4213269D02*
Y4228269D01*
X6828269Y4220769D02*
X6843269D01*
X6835769Y4213269D02*
Y4228269D01*
X7128269Y4220769D02*
X7143269D01*
X7135769Y4213269D02*
Y4228269D01*
X7418269Y4220769D02*
X7433269D01*
X7425769Y4213269D02*
Y4228269D01*
X7718269Y4220769D02*
X7733269D01*
X7725769Y4213269D02*
Y4228269D01*
X8013269Y4220769D02*
X8028269D01*
X8020769Y4213269D02*
Y4228269D01*
X8318269Y4220769D02*
X8333269D01*
X8325769Y4213269D02*
Y4228269D01*
X8623269Y4220769D02*
X8638269D01*
X8630769Y4213269D02*
Y4228269D01*
X4428269Y4025769D02*
X4443269D01*
X4435769Y4018269D02*
Y4033269D01*
X4728269Y4025769D02*
X4743269D01*
X4735769Y4018269D02*
Y4033269D01*
X5028269Y4025769D02*
X5043269D01*
X5035769Y4018269D02*
Y4033269D01*
X5328269Y4025769D02*
X5343269D01*
X5335769Y4018269D02*
Y4033269D01*
X5623269Y4025769D02*
X5638269D01*
X5630769Y4018269D02*
Y4033269D01*
X5930182Y4027682D02*
X5945182D01*
X5937682Y4020182D02*
Y4035182D01*
X6228269Y4025769D02*
X6243269D01*
X6235769Y4018269D02*
Y4033269D01*
X6528269Y4025769D02*
X6543269D01*
X6535769Y4018269D02*
Y4033269D01*
X6828269Y4025769D02*
X6843269D01*
X6835769Y4018269D02*
Y4033269D01*
X7133269Y4025769D02*
X7148269D01*
X7140769Y4018269D02*
Y4033269D01*
X7428269Y4025769D02*
X7443269D01*
X7435769Y4018269D02*
Y4033269D01*
X7718269Y4025769D02*
X7733269D01*
X7725769Y4018269D02*
Y4033269D01*
X8018269Y4025769D02*
X8033269D01*
X8025769Y4018269D02*
Y4033269D01*
X8323269Y4025769D02*
X8338269D01*
X8330769Y4018269D02*
Y4033269D01*
X8628269Y4025769D02*
X8643269D01*
X8635769Y4018269D02*
Y4033269D01*
X4733269Y3830769D02*
X4748269D01*
X4740769Y3823269D02*
Y3838269D01*
X5035182Y3831432D02*
X5050182D01*
X5042682Y3823932D02*
Y3838932D01*
X5333269Y3830769D02*
X5348269D01*
X5340769Y3823269D02*
Y3838269D01*
X5623269Y3830769D02*
X5638269D01*
X5630769Y3823269D02*
Y3838269D01*
X5928269Y3830769D02*
X5943269D01*
X5935769Y3823269D02*
Y3838269D01*
X6233269Y3830769D02*
X6248269D01*
X6240769Y3823269D02*
Y3838269D01*
X6533269Y3830769D02*
X6548269D01*
X6540769Y3823269D02*
Y3838269D01*
X6833269Y3830769D02*
X6848269D01*
X6840769Y3823269D02*
Y3838269D01*
X7133269Y3830769D02*
X7148269D01*
X7140769Y3823269D02*
Y3838269D01*
X7433269Y3830769D02*
X7448269D01*
X7440769Y3823269D02*
Y3838269D01*
X7733269Y3830769D02*
X7748269D01*
X7740769Y3823269D02*
Y3838269D01*
X8033269Y3830769D02*
X8048269D01*
X8040769Y3823269D02*
Y3838269D01*
X8333269Y3830769D02*
X8348269D01*
X8340769Y3823269D02*
Y3838269D01*
X8633269Y3830769D02*
X8648269D01*
X8640769Y3823269D02*
Y3838269D01*
X4743269Y3640769D02*
X4758269D01*
X4750769Y3633269D02*
Y3648269D01*
X5043269Y3640769D02*
X5058269D01*
X5050769Y3633269D02*
Y3648269D01*
X5343269Y3640769D02*
X5358269D01*
X5350769Y3633269D02*
Y3648269D01*
X5638269Y3640769D02*
X5653269D01*
X5645769Y3633269D02*
Y3648269D01*
X5928269Y3640769D02*
X5943269D01*
X5935769Y3633269D02*
Y3648269D01*
X6243269Y3640769D02*
X6258269D01*
X6250769Y3633269D02*
Y3648269D01*
X6533269Y3640769D02*
X6548269D01*
X6540769Y3633269D02*
Y3648269D01*
X6843269Y3640769D02*
X6858269D01*
X6850769Y3633269D02*
Y3648269D01*
X7133269Y3640769D02*
X7148269D01*
X7140769Y3633269D02*
Y3648269D01*
X7433269Y3640769D02*
X7448269D01*
X7440769Y3633269D02*
Y3648269D01*
X7733269Y3640769D02*
X7748269D01*
X7740769Y3633269D02*
Y3648269D01*
X8038269Y3640769D02*
X8053269D01*
X8045769Y3633269D02*
Y3648269D01*
X8338269Y3640769D02*
X8353269D01*
X8345769Y3633269D02*
Y3648269D01*
X8628269Y3640769D02*
X8643269D01*
X8635769Y3633269D02*
Y3648269D01*
X4738269Y3435769D02*
X4753269D01*
X4745769Y3428269D02*
Y3443269D01*
X5033269Y3435769D02*
X5048269D01*
X5040769Y3428269D02*
Y3443269D01*
X5338269Y3435769D02*
X5353269D01*
X5345769Y3428269D02*
Y3443269D01*
X5633269Y3435769D02*
X5648269D01*
X5640769Y3428269D02*
Y3443269D01*
X5928269Y3435769D02*
X5943269D01*
X5935769Y3428269D02*
Y3443269D01*
X6238269Y3435769D02*
X6253269D01*
X6245769Y3428269D02*
Y3443269D01*
X6533269Y3435769D02*
X6548269D01*
X6540769Y3428269D02*
Y3443269D01*
X6838269Y3435769D02*
X6853269D01*
X6845769Y3428269D02*
Y3443269D01*
X7138269Y3435769D02*
X7153269D01*
X7145769Y3428269D02*
Y3443269D01*
X7438269Y3435769D02*
X7453269D01*
X7445769Y3428269D02*
Y3443269D01*
X7738269Y3435769D02*
X7753269D01*
X7745769Y3428269D02*
Y3443269D01*
X8033269Y3435769D02*
X8048269D01*
X8040769Y3428269D02*
Y3443269D01*
X8335769Y3435769D02*
X8350769D01*
X8343269Y3428269D02*
Y3443269D01*
X8638269Y3435769D02*
X8653269D01*
X8645769Y3428269D02*
Y3443269D01*
X4728269Y3235769D02*
X4743269D01*
X4735769Y3228269D02*
Y3243269D01*
X5038269Y3235769D02*
X5053269D01*
X5045769Y3228269D02*
Y3243269D01*
X5333269Y3235769D02*
X5348269D01*
X5340769Y3228269D02*
Y3243269D01*
X5638269Y3235769D02*
X5653269D01*
X5645769Y3228269D02*
Y3243269D01*
X5933269Y3235769D02*
X5948269D01*
X5940769Y3228269D02*
Y3243269D01*
X6238269Y3235769D02*
X6253269D01*
X6245769Y3228269D02*
Y3243269D01*
X6533269Y3235769D02*
X6548269D01*
X6540769Y3228269D02*
Y3243269D01*
X6838269Y3235769D02*
X6853269D01*
X6845769Y3228269D02*
Y3243269D01*
X7133269Y3235769D02*
X7148269D01*
X7140769Y3228269D02*
Y3243269D01*
X7433269Y3235769D02*
X7448269D01*
X7440769Y3228269D02*
Y3243269D01*
X7738269Y3235769D02*
X7753269D01*
X7745769Y3228269D02*
Y3243269D01*
X8038269Y3235769D02*
X8053269D01*
X8045769Y3228269D02*
Y3243269D01*
X8333269Y3235769D02*
X8348269D01*
X8340769Y3228269D02*
Y3243269D01*
X8633269Y3235769D02*
X8648269D01*
X8640769Y3228269D02*
Y3243269D01*
X4733269Y3030769D02*
X4748269D01*
X4740769Y3023269D02*
Y3038269D01*
X5033269Y3030769D02*
X5048269D01*
X5040769Y3023269D02*
Y3038269D01*
X5328269Y3030769D02*
X5343269D01*
X5335769Y3023269D02*
Y3038269D01*
X5633269Y3030769D02*
X5648269D01*
X5640769Y3023269D02*
Y3038269D01*
X5933269Y3030769D02*
X5948269D01*
X5940769Y3023269D02*
Y3038269D01*
X6223269Y3030769D02*
X6238269D01*
X6230769Y3023269D02*
Y3038269D01*
X6528269Y3030769D02*
X6543269D01*
X6535769Y3023269D02*
Y3038269D01*
X6828269Y3030769D02*
X6843269D01*
X6835769Y3023269D02*
Y3038269D01*
X7123269Y3030769D02*
X7138269D01*
X7130769Y3023269D02*
Y3038269D01*
X7433269Y3030769D02*
X7448269D01*
X7440769Y3023269D02*
Y3038269D01*
X7728269Y3030769D02*
X7743269D01*
X7735769Y3023269D02*
Y3038269D01*
X8023269Y3030769D02*
X8038269D01*
X8030769Y3023269D02*
Y3038269D01*
X8333269Y3030769D02*
X8348269D01*
X8340769Y3023269D02*
Y3038269D01*
X8633269Y3030769D02*
X8648269D01*
X8640769Y3023269D02*
Y3038269D01*
X5338269Y2835769D02*
X5353269D01*
X5345769Y2828269D02*
Y2843269D01*
X5638269Y2835769D02*
X5653269D01*
X5645769Y2828269D02*
Y2843269D01*
X5933269Y2835769D02*
X5948269D01*
X5940769Y2828269D02*
Y2843269D01*
X6233269Y2835769D02*
X6248269D01*
X6240769Y2828269D02*
Y2843269D01*
X6538269Y2835769D02*
X6553269D01*
X6545769Y2828269D02*
Y2843269D01*
X6833269Y2835769D02*
X6848269D01*
X6840769Y2828269D02*
Y2843269D01*
X7128269Y2835769D02*
X7143269D01*
X7135769Y2828269D02*
Y2843269D01*
X7438269Y2835769D02*
X7453269D01*
X7445769Y2828269D02*
Y2843269D01*
X7738269Y2835769D02*
X7753269D01*
X7745769Y2828269D02*
Y2843269D01*
X8033269Y2835769D02*
X8048269D01*
X8040769Y2828269D02*
Y2843269D01*
X8328269Y2835769D02*
X8343269D01*
X8335769Y2828269D02*
Y2843269D01*
X8638269Y2835769D02*
X8653269D01*
X8645769Y2828269D02*
Y2843269D01*
X4743269Y2640769D02*
X4758269D01*
X4750769Y2633269D02*
Y2648269D01*
X5048269Y2640769D02*
X5063269D01*
X5055769Y2633269D02*
Y2648269D01*
X5338269Y2640769D02*
X5353269D01*
X5345769Y2633269D02*
Y2648269D01*
X5638269Y2640769D02*
X5653269D01*
X5645769Y2633269D02*
Y2648269D01*
X5933269Y2640769D02*
X5948269D01*
X5940769Y2633269D02*
Y2648269D01*
X6238269Y2640769D02*
X6253269D01*
X6245769Y2633269D02*
Y2648269D01*
X6543269Y2640769D02*
X6558269D01*
X6550769Y2633269D02*
Y2648269D01*
X6843269Y2640769D02*
X6858269D01*
X6850769Y2633269D02*
Y2648269D01*
X7143269Y2640769D02*
X7158269D01*
X7150769Y2633269D02*
Y2648269D01*
X7438269Y2640769D02*
X7453269D01*
X7445769Y2633269D02*
Y2648269D01*
X7738269Y2640769D02*
X7753269D01*
X7745769Y2633269D02*
Y2648269D01*
X8038269Y2640769D02*
X8053269D01*
X8045769Y2633269D02*
Y2648269D01*
X8343269Y2640769D02*
X8358269D01*
X8350769Y2633269D02*
Y2648269D01*
X8643269Y2640769D02*
X8658269D01*
X8650769Y2633269D02*
Y2648269D01*
X7428269Y2425769D02*
X7443269D01*
X7435769Y2418269D02*
Y2433269D01*
X7728269Y2425769D02*
X7743269D01*
X7735769Y2418269D02*
Y2433269D01*
X8028269Y2425769D02*
X8043269D01*
X8035769Y2418269D02*
Y2433269D01*
X8328269Y2425769D02*
X8343269D01*
X8335769Y2418269D02*
Y2433269D01*
X8628269Y2425769D02*
X8643269D01*
X8635769Y2418269D02*
Y2433269D01*
X4738269Y2835769D02*
X4753269D01*
X4745769Y2828269D02*
Y2843269D01*
X5038269Y2835769D02*
X5053269D01*
X5045769Y2828269D02*
Y2843269D01*
X3680000Y3680000D02*
X3700000D01*
X3690000Y3670000D02*
Y3690000D01*
X3360000Y3685000D02*
X3380000D01*
X3370000Y3675000D02*
Y3695000D01*
X2430000Y2575000D02*
X2450000D01*
X2440000Y2565000D02*
Y2585000D01*
X2255000Y2710000D02*
X2275000D01*
X2265000Y2700000D02*
Y2720000D01*
X2750000Y2630000D02*
X2770000D01*
X2760000Y2620000D02*
Y2640000D01*
X3805000Y2410000D02*
X3825000D01*
X3815000Y2400000D02*
Y2420000D01*
X3720000Y2415000D02*
X3740000D01*
X3730000Y2405000D02*
Y2425000D01*
X2345000Y2575000D02*
X2365000D01*
X2355000Y2565000D02*
Y2585000D01*
X3895000Y2430000D02*
X3915000D01*
X3905000Y2420000D02*
Y2440000D01*
X3955000Y2550000D02*
X3975000D01*
X3965000Y2540000D02*
Y2560000D01*
X3530000Y3020000D02*
X3550000D01*
X3540000Y3010000D02*
Y3030000D01*
X3485000Y2520000D02*
X3505000D01*
X3495000Y2510000D02*
Y2530000D01*
X3000000Y3495000D02*
X3020000D01*
X3010000Y3485000D02*
Y3505000D01*
X4165000Y3525000D02*
X4185000D01*
X4175000Y3515000D02*
Y3535000D01*
X1936837Y4065000D02*
X1964837D01*
X1950837Y4051000D02*
Y4079000D01*
X2316837Y3980000D02*
X2344837D01*
X2330837Y3966000D02*
Y3994000D01*
X2538333Y3980000D02*
X2566333D01*
X2552333Y3966000D02*
Y3994000D01*
X2178337Y3325000D02*
X2203337D01*
X2190837Y3312500D02*
Y3337500D01*
X2036837Y2985000D02*
X2064837D01*
X2050837Y2971000D02*
Y2999000D01*
X2093337Y3045000D02*
X2118337D01*
X2105837Y3032500D02*
Y3057500D01*
X2165837Y2880000D02*
X2185837D01*
X2175837Y2870000D02*
Y2890000D01*
X2388337Y4250000D02*
X2413337D01*
X2400837Y4237500D02*
Y4262500D01*
X2465837Y3075315D02*
X2485837D01*
X2475837Y3065315D02*
Y3085315D01*
%TF.MD5,f5f6a9f488cc26dd30f489b50698b9c5*%
M02*
