M48
;Layer_Color=9474304
;FILE_FORMAT=2:5
INCH,LZ
;TYPE=PLATED
T1F00S00C0.00787
T2F00S00C0.01500
T3F00S00C0.02000
T4F00S00C0.02500
T5F00S00C0.02800
;TYPE=NON_PLATED
T6F00S00C0.03543
%
T01
X0193253Y0360835
Y0365165
X0197584
Y0360835
X0201914
Y0365165
T02
X0803577Y0242577
X0804577Y0264077
X0804077Y0283577
X0803077Y0303077
X0834077
X0833577Y0283577
X0835077Y0264077
X0833577Y0242577
X0863577
X0865077Y0264077
X0864577Y0283577
X0864077Y0303077
X0773577
X0774577Y0283577
Y0264077
X0773577Y0242577
X0743577
X0744577Y0264077
Y0283577
X0744077Y0303077
X0713077
X0713577Y0283577
X0715077Y0264077
X0713577Y0242577
X0683577Y02427
X0685077Y0264077
X0684077Y0283577
X0683577Y0303077
X0653577
X0654577Y0283577
X0655077Y0264077
X0653077Y02427
X0624077
X0624577Y0264077
X0624077Y0283577
X0623077Y0303077
X0594077
Y0283577
Y0264077
X0593077Y0242577
X0563577
X0564577Y0264077
Y0283577
X0564077Y0303077
X0533577
X0534577Y0283577
Y0264077
X0533577Y0242577
X0503577
X0505577Y0264077
X0504577Y0283577
X0504077Y0303077
X0474077
X0474577Y0283577
X0475077Y0264077
X0474077Y0242577
X0443577
X0445077Y0264077
X0444577Y0283577
X0444077Y0303077
Y0323577
X0444577Y0343577
X0445077Y0364077
X0444077Y0383014
X0443577Y0402577
X0443077Y0422077
X0473077
X0473577Y0402577
X0474077Y0383077
X0475077Y0364077
X0474577Y0343577
X0473577Y0323577
X0504577
X0504077Y0343577
X0505077Y0364077
X0504268Y0383143
X0503577Y0402577
X0502077Y0422077
X0532077
X0533577Y0402577
X0534077Y0383077
X0535077Y0364077
X0534577Y0343577
X0534077Y0323577
X0564577
X0564077Y0343577
X0564577Y0364077
X0563077Y0383077
Y0402577
Y0422077
X0593577
X0593768Y0402768
X0593577Y0383077
Y0364077
Y0343577
X0594077Y0323577
X0624577
Y0343577
X0624077Y0383077
X0623577Y0402577
X0622577Y0422077
X0653077
X0653577Y0402577
X0654077Y0383077
Y0364077
Y0343577
Y0323577
X0684577
Y0343577
X0685077Y0364077
X0684077Y0383077
X0683577Y0402577
Y0422077
X0713577
X0714077Y0402577
Y0383077
Y0364077
X0714577Y0343577
X0714077Y0323577
X0744077
X0744577Y0343577
X0744077Y0364077
Y0383077
X0743577Y0402577
X0742577Y0422077
X0772577
Y0402577
X0774077Y0383077
Y0364077
X0774577Y0343577
Y0323577
X0625077Y0364077
X0804577
X0804077Y0383077
X0802577Y0402577
X0802077Y0422077
X0832577
X0833077Y0402577
X0834077Y0383077
X0834577Y0364077
X0834327Y0343577
X0834077Y0323577
X0804577
X0804077Y0343577
X0864577
X0864077Y0323577
X0863577Y0364077
X0864077Y0383077
X0863577Y0402577
X0863077Y0422077
T03
X08025Y0232
X08325
X08625
X07735
X07425
X07135
X06835
X06535
X06225
X05935
X05625Y02325
X05325Y0232
X0504
X0474
X0428
X03905Y0243
X03815Y0241
X0373Y02415
X0386Y0262
X03965Y0255
X03905Y0277
X0383Y027945
X0374235Y0274235
X03695Y0277
X0362Y0278
X03555Y02785
X03485Y02775
X0345Y025965
X03495Y0252
X0322Y02775
Y0287
X03235Y0305
X0354Y0302
X0372Y02905
X03905Y03035
X03865Y03095
X04065Y02965
X042045Y0307
X0262584Y0298
X0271584Y02885
X0262084Y0279
X0276Y0263
X0244Y02575
X02355
X02265Y0271
X0217584Y0288
X0247584Y0307531
X0245584Y034
X0240084Y0343
X0237088Y0337904
X0283Y03405
X0301Y03495
X0283041Y0312854
X0322Y0333
X03435Y03345
X0349Y03435
X03595Y0342
X035Y03585
X03295Y03575
X0337Y03685
X0369Y0368
X03895Y0333
X0388Y03285
X039Y03235
X0388Y03195
X03905Y0316
X0381Y03245
X04075Y0313
X04135Y03135
X04195Y0313
X042Y03185
Y03235
Y0329
X0421Y0334
X0414002Y0335502
X04085Y03375
X04065Y03415
X04115Y0343
X0415Y03475
X04175Y03525
T04
X0210584Y03045
X0219084Y03325
X0245584Y03465
X0254Y034
X0270584Y0331
X0275584Y03465
Y03765
X0245584
X0240084Y0425
T05
X0205084Y02985
X0195084Y04065
X0233084Y0398
X0255233
T06
X0188084Y0300677
Y0318
M30
