%TF.GenerationSoftware,Altium Limited,Altium Designer,20.1.14 (287)*%
G04 Layer_Physical_Order=3*
G04 Layer_Color=16440176*
%FSLAX26Y26*%
%MOIN*%
%TF.SameCoordinates,7E9A0AC4-0E20-4BBF-80A7-7FB1365180D4*%
%TF.FilePolarity,Positive*%
%TF.FileFunction,Copper,L3,Inr,Signal*%
%TF.Part,Single*%
G01*
G75*
%TA.AperFunction,Conductor*%
%ADD29C,0.020000*%
%TA.AperFunction,ComponentPad*%
%ADD30C,0.035433*%
%ADD31C,0.060000*%
%TA.AperFunction,ViaPad*%
%ADD32C,0.035000*%
%ADD33C,0.019685*%
%ADD34C,0.030000*%
%ADD35C,0.050000*%
G36*
X8830000Y2245000D02*
X2298391Y2245000D01*
X1678393Y2864998D01*
X1676467Y4406462D01*
X1680000Y4410000D01*
X2685000Y4410000D01*
X2685000Y4060000D01*
X2930000Y3815000D01*
X3925000Y3815000D01*
Y3820000D01*
X4515000Y4410000D01*
X8830000Y4410000D01*
X8830000Y2245000D01*
D02*
G37*
%LPC*%
G36*
X2400837Y4282276D02*
X2392483Y4281176D01*
X2384699Y4277952D01*
X2378015Y4272823D01*
X2372885Y4266138D01*
X2369661Y4258354D01*
X2368561Y4250000D01*
X2369661Y4241646D01*
X2372885Y4233862D01*
X2378015Y4227177D01*
X2384699Y4222048D01*
X2392483Y4218824D01*
X2400837Y4217724D01*
X2409191Y4218824D01*
X2416975Y4222048D01*
X2423660Y4227177D01*
X2428789Y4233862D01*
X2432014Y4241646D01*
X2433113Y4250000D01*
X2432014Y4258354D01*
X2428789Y4266138D01*
X2423660Y4272823D01*
X2416975Y4277952D01*
X2409191Y4281176D01*
X2400837Y4282276D01*
D02*
G37*
G36*
X8630769Y4243200D02*
X8622185Y4241493D01*
X8614908Y4236630D01*
X8610046Y4229353D01*
X8608338Y4220769D01*
X8610046Y4212185D01*
X8614908Y4204908D01*
X8622185Y4200046D01*
X8630769Y4198338D01*
X8639353Y4200046D01*
X8646630Y4204908D01*
X8651493Y4212185D01*
X8653200Y4220769D01*
X8651493Y4229353D01*
X8646630Y4236630D01*
X8639353Y4241493D01*
X8630769Y4243200D01*
D02*
G37*
G36*
X8325769D02*
X8317185Y4241493D01*
X8309908Y4236630D01*
X8305046Y4229353D01*
X8303338Y4220769D01*
X8305046Y4212185D01*
X8309908Y4204908D01*
X8317185Y4200046D01*
X8325769Y4198338D01*
X8334353Y4200046D01*
X8341630Y4204908D01*
X8346493Y4212185D01*
X8348200Y4220769D01*
X8346493Y4229353D01*
X8341630Y4236630D01*
X8334353Y4241493D01*
X8325769Y4243200D01*
D02*
G37*
G36*
X8020769D02*
X8012185Y4241493D01*
X8004908Y4236630D01*
X8000046Y4229353D01*
X7998338Y4220769D01*
X8000046Y4212185D01*
X8004908Y4204908D01*
X8012185Y4200046D01*
X8020769Y4198338D01*
X8029353Y4200046D01*
X8036630Y4204908D01*
X8041493Y4212185D01*
X8043200Y4220769D01*
X8041493Y4229353D01*
X8036630Y4236630D01*
X8029353Y4241493D01*
X8020769Y4243200D01*
D02*
G37*
G36*
X7725769D02*
X7717185Y4241493D01*
X7709908Y4236630D01*
X7705046Y4229353D01*
X7703338Y4220769D01*
X7705046Y4212185D01*
X7709908Y4204908D01*
X7717185Y4200046D01*
X7725769Y4198338D01*
X7734353Y4200046D01*
X7741630Y4204908D01*
X7746493Y4212185D01*
X7748200Y4220769D01*
X7746493Y4229353D01*
X7741630Y4236630D01*
X7734353Y4241493D01*
X7725769Y4243200D01*
D02*
G37*
G36*
X7425769D02*
X7417185Y4241493D01*
X7409908Y4236630D01*
X7405046Y4229353D01*
X7403338Y4220769D01*
X7405046Y4212185D01*
X7409908Y4204908D01*
X7417185Y4200046D01*
X7425769Y4198338D01*
X7434353Y4200046D01*
X7441630Y4204908D01*
X7446493Y4212185D01*
X7448200Y4220769D01*
X7446493Y4229353D01*
X7441630Y4236630D01*
X7434353Y4241493D01*
X7425769Y4243200D01*
D02*
G37*
G36*
X7135769D02*
X7127185Y4241493D01*
X7119908Y4236630D01*
X7115046Y4229353D01*
X7113338Y4220769D01*
X7115046Y4212185D01*
X7119908Y4204908D01*
X7127185Y4200046D01*
X7135769Y4198338D01*
X7144353Y4200046D01*
X7151630Y4204908D01*
X7156493Y4212185D01*
X7158200Y4220769D01*
X7156493Y4229353D01*
X7151630Y4236630D01*
X7144353Y4241493D01*
X7135769Y4243200D01*
D02*
G37*
G36*
X6835769D02*
X6827185Y4241493D01*
X6819908Y4236630D01*
X6815046Y4229353D01*
X6813338Y4220769D01*
X6815046Y4212185D01*
X6819908Y4204908D01*
X6827185Y4200046D01*
X6835769Y4198338D01*
X6844353Y4200046D01*
X6851630Y4204908D01*
X6856493Y4212185D01*
X6858200Y4220769D01*
X6856493Y4229353D01*
X6851630Y4236630D01*
X6844353Y4241493D01*
X6835769Y4243200D01*
D02*
G37*
G36*
X6530769D02*
X6522185Y4241493D01*
X6514908Y4236630D01*
X6510046Y4229353D01*
X6508338Y4220769D01*
X6510046Y4212185D01*
X6514908Y4204908D01*
X6522185Y4200046D01*
X6530769Y4198338D01*
X6539353Y4200046D01*
X6546630Y4204908D01*
X6551493Y4212185D01*
X6553200Y4220769D01*
X6551493Y4229353D01*
X6546630Y4236630D01*
X6539353Y4241493D01*
X6530769Y4243200D01*
D02*
G37*
G36*
X6225769D02*
X6217185Y4241493D01*
X6209908Y4236630D01*
X6205046Y4229353D01*
X6203338Y4220769D01*
X6205046Y4212185D01*
X6209908Y4204908D01*
X6217185Y4200046D01*
X6225769Y4198338D01*
X6234353Y4200046D01*
X6241630Y4204908D01*
X6246493Y4212185D01*
X6248200Y4220769D01*
X6246493Y4229353D01*
X6241630Y4236630D01*
X6234353Y4241493D01*
X6225769Y4243200D01*
D02*
G37*
G36*
X5935769D02*
X5927185Y4241493D01*
X5919908Y4236630D01*
X5915046Y4229353D01*
X5913338Y4220769D01*
X5915046Y4212185D01*
X5919908Y4204908D01*
X5927185Y4200046D01*
X5935769Y4198338D01*
X5944353Y4200046D01*
X5951630Y4204908D01*
X5956493Y4212185D01*
X5958200Y4220769D01*
X5956493Y4229353D01*
X5951630Y4236630D01*
X5944353Y4241493D01*
X5935769Y4243200D01*
D02*
G37*
G36*
X5630769D02*
X5622185Y4241493D01*
X5614908Y4236630D01*
X5610046Y4229353D01*
X5608338Y4220769D01*
X5610046Y4212185D01*
X5614908Y4204908D01*
X5622185Y4200046D01*
X5630769Y4198338D01*
X5639353Y4200046D01*
X5646630Y4204908D01*
X5651493Y4212185D01*
X5653200Y4220769D01*
X5651493Y4229353D01*
X5646630Y4236630D01*
X5639353Y4241493D01*
X5630769Y4243200D01*
D02*
G37*
G36*
X5320769D02*
X5312185Y4241493D01*
X5304908Y4236630D01*
X5300046Y4229353D01*
X5298338Y4220769D01*
X5300046Y4212185D01*
X5304908Y4204908D01*
X5312185Y4200046D01*
X5320769Y4198338D01*
X5329353Y4200046D01*
X5336630Y4204908D01*
X5341493Y4212185D01*
X5343200Y4220769D01*
X5341493Y4229353D01*
X5336630Y4236630D01*
X5329353Y4241493D01*
X5320769Y4243200D01*
D02*
G37*
G36*
X5020769D02*
X5012185Y4241493D01*
X5004908Y4236630D01*
X5000046Y4229353D01*
X4998338Y4220769D01*
X5000046Y4212185D01*
X5004908Y4204908D01*
X5012185Y4200046D01*
X5020769Y4198338D01*
X5029353Y4200046D01*
X5036630Y4204908D01*
X5041493Y4212185D01*
X5043200Y4220769D01*
X5041493Y4229353D01*
X5036630Y4236630D01*
X5029353Y4241493D01*
X5020769Y4243200D01*
D02*
G37*
G36*
X4730769D02*
X4722185Y4241493D01*
X4714908Y4236630D01*
X4710046Y4229353D01*
X4708338Y4220769D01*
X4710046Y4212185D01*
X4714908Y4204908D01*
X4722185Y4200046D01*
X4730769Y4198338D01*
X4739353Y4200046D01*
X4746630Y4204908D01*
X4751493Y4212185D01*
X4753200Y4220769D01*
X4751493Y4229353D01*
X4746630Y4236630D01*
X4739353Y4241493D01*
X4730769Y4243200D01*
D02*
G37*
G36*
X4430769D02*
X4422185Y4241493D01*
X4414908Y4236630D01*
X4410046Y4229353D01*
X4408338Y4220769D01*
X4410046Y4212185D01*
X4414908Y4204908D01*
X4422185Y4200046D01*
X4430769Y4198338D01*
X4439353Y4200046D01*
X4446630Y4204908D01*
X4451493Y4212185D01*
X4453200Y4220769D01*
X4451493Y4229353D01*
X4446630Y4236630D01*
X4439353Y4241493D01*
X4430769Y4243200D01*
D02*
G37*
G36*
X1950837Y4097276D02*
X1942484Y4096176D01*
X1934699Y4092952D01*
X1928015Y4087823D01*
X1922885Y4081138D01*
X1919661Y4073354D01*
X1918561Y4065000D01*
X1919661Y4056646D01*
X1922885Y4048862D01*
X1928015Y4042177D01*
X1934699Y4037048D01*
X1942484Y4033824D01*
X1950837Y4032724D01*
X1959191Y4033824D01*
X1966975Y4037048D01*
X1973660Y4042177D01*
X1978789Y4048862D01*
X1982014Y4056646D01*
X1983113Y4065000D01*
X1982014Y4073354D01*
X1978789Y4081138D01*
X1973660Y4087823D01*
X1966975Y4092952D01*
X1959191Y4096176D01*
X1950837Y4097276D01*
D02*
G37*
G36*
X5937682Y4050113D02*
X5929099Y4048406D01*
X5921821Y4043544D01*
X5916959Y4036267D01*
X5915252Y4027682D01*
X5916959Y4019099D01*
X5921821Y4011821D01*
X5929099Y4006959D01*
X5937682Y4005251D01*
X5946266Y4006959D01*
X5953544Y4011821D01*
X5958406Y4019099D01*
X5960114Y4027682D01*
X5958406Y4036267D01*
X5953544Y4043544D01*
X5946266Y4048406D01*
X5937682Y4050113D01*
D02*
G37*
G36*
X8635769Y4048200D02*
X8627185Y4046493D01*
X8619908Y4041630D01*
X8615046Y4034353D01*
X8613338Y4025769D01*
X8615046Y4017185D01*
X8619908Y4009908D01*
X8627185Y4005046D01*
X8635769Y4003338D01*
X8644353Y4005046D01*
X8651630Y4009908D01*
X8656493Y4017185D01*
X8658200Y4025769D01*
X8656493Y4034353D01*
X8651630Y4041630D01*
X8644353Y4046493D01*
X8635769Y4048200D01*
D02*
G37*
G36*
X8330769D02*
X8322185Y4046493D01*
X8314908Y4041630D01*
X8310046Y4034353D01*
X8308338Y4025769D01*
X8310046Y4017185D01*
X8314908Y4009908D01*
X8322185Y4005046D01*
X8330769Y4003338D01*
X8339353Y4005046D01*
X8346630Y4009908D01*
X8351493Y4017185D01*
X8353200Y4025769D01*
X8351493Y4034353D01*
X8346630Y4041630D01*
X8339353Y4046493D01*
X8330769Y4048200D01*
D02*
G37*
G36*
X8025769D02*
X8017185Y4046493D01*
X8009908Y4041630D01*
X8005046Y4034353D01*
X8003338Y4025769D01*
X8005046Y4017185D01*
X8009908Y4009908D01*
X8017185Y4005046D01*
X8025769Y4003338D01*
X8034353Y4005046D01*
X8041630Y4009908D01*
X8046493Y4017185D01*
X8048200Y4025769D01*
X8046493Y4034353D01*
X8041630Y4041630D01*
X8034353Y4046493D01*
X8025769Y4048200D01*
D02*
G37*
G36*
X7725769D02*
X7717185Y4046493D01*
X7709908Y4041630D01*
X7705046Y4034353D01*
X7703338Y4025769D01*
X7705046Y4017185D01*
X7709908Y4009908D01*
X7717185Y4005046D01*
X7725769Y4003338D01*
X7734353Y4005046D01*
X7741630Y4009908D01*
X7746493Y4017185D01*
X7748200Y4025769D01*
X7746493Y4034353D01*
X7741630Y4041630D01*
X7734353Y4046493D01*
X7725769Y4048200D01*
D02*
G37*
G36*
X7435769D02*
X7427185Y4046493D01*
X7419908Y4041630D01*
X7415046Y4034353D01*
X7413338Y4025769D01*
X7415046Y4017185D01*
X7419908Y4009908D01*
X7427185Y4005046D01*
X7435769Y4003338D01*
X7444353Y4005046D01*
X7451630Y4009908D01*
X7456493Y4017185D01*
X7458200Y4025769D01*
X7456493Y4034353D01*
X7451630Y4041630D01*
X7444353Y4046493D01*
X7435769Y4048200D01*
D02*
G37*
G36*
X7140769D02*
X7132185Y4046493D01*
X7124908Y4041630D01*
X7120046Y4034353D01*
X7118338Y4025769D01*
X7120046Y4017185D01*
X7124908Y4009908D01*
X7132185Y4005046D01*
X7140769Y4003338D01*
X7149353Y4005046D01*
X7156630Y4009908D01*
X7161493Y4017185D01*
X7163200Y4025769D01*
X7161493Y4034353D01*
X7156630Y4041630D01*
X7149353Y4046493D01*
X7140769Y4048200D01*
D02*
G37*
G36*
X6835769D02*
X6827185Y4046493D01*
X6819908Y4041630D01*
X6815046Y4034353D01*
X6813338Y4025769D01*
X6815046Y4017185D01*
X6819908Y4009908D01*
X6827185Y4005046D01*
X6835769Y4003338D01*
X6844353Y4005046D01*
X6851630Y4009908D01*
X6856493Y4017185D01*
X6858200Y4025769D01*
X6856493Y4034353D01*
X6851630Y4041630D01*
X6844353Y4046493D01*
X6835769Y4048200D01*
D02*
G37*
G36*
X6535769D02*
X6527185Y4046493D01*
X6519908Y4041630D01*
X6515046Y4034353D01*
X6513338Y4025769D01*
X6515046Y4017185D01*
X6519908Y4009908D01*
X6527185Y4005046D01*
X6535769Y4003338D01*
X6544353Y4005046D01*
X6551630Y4009908D01*
X6556493Y4017185D01*
X6558200Y4025769D01*
X6556493Y4034353D01*
X6551630Y4041630D01*
X6544353Y4046493D01*
X6535769Y4048200D01*
D02*
G37*
G36*
X6235769D02*
X6227185Y4046493D01*
X6219908Y4041630D01*
X6215046Y4034353D01*
X6213338Y4025769D01*
X6215046Y4017185D01*
X6219908Y4009908D01*
X6227185Y4005046D01*
X6235769Y4003338D01*
X6244353Y4005046D01*
X6251630Y4009908D01*
X6256493Y4017185D01*
X6258200Y4025769D01*
X6256493Y4034353D01*
X6251630Y4041630D01*
X6244353Y4046493D01*
X6235769Y4048200D01*
D02*
G37*
G36*
X5630769D02*
X5622185Y4046493D01*
X5614908Y4041630D01*
X5610046Y4034353D01*
X5608338Y4025769D01*
X5610046Y4017185D01*
X5614908Y4009908D01*
X5622185Y4005046D01*
X5630769Y4003338D01*
X5639353Y4005046D01*
X5646630Y4009908D01*
X5651493Y4017185D01*
X5653200Y4025769D01*
X5651493Y4034353D01*
X5646630Y4041630D01*
X5639353Y4046493D01*
X5630769Y4048200D01*
D02*
G37*
G36*
X5335769D02*
X5327185Y4046493D01*
X5319908Y4041630D01*
X5315046Y4034353D01*
X5313338Y4025769D01*
X5315046Y4017185D01*
X5319908Y4009908D01*
X5327185Y4005046D01*
X5335769Y4003338D01*
X5344353Y4005046D01*
X5351630Y4009908D01*
X5356493Y4017185D01*
X5358200Y4025769D01*
X5356493Y4034353D01*
X5351630Y4041630D01*
X5344353Y4046493D01*
X5335769Y4048200D01*
D02*
G37*
G36*
X5035769D02*
X5027185Y4046493D01*
X5019908Y4041630D01*
X5015046Y4034353D01*
X5013338Y4025769D01*
X5015046Y4017185D01*
X5019908Y4009908D01*
X5027185Y4005046D01*
X5035769Y4003338D01*
X5044353Y4005046D01*
X5051630Y4009908D01*
X5056493Y4017185D01*
X5058200Y4025769D01*
X5056493Y4034353D01*
X5051630Y4041630D01*
X5044353Y4046493D01*
X5035769Y4048200D01*
D02*
G37*
G36*
X4735769D02*
X4727185Y4046493D01*
X4719908Y4041630D01*
X4715046Y4034353D01*
X4713338Y4025769D01*
X4715046Y4017185D01*
X4719908Y4009908D01*
X4727185Y4005046D01*
X4735769Y4003338D01*
X4744353Y4005046D01*
X4751630Y4009908D01*
X4756493Y4017185D01*
X4758200Y4025769D01*
X4756493Y4034353D01*
X4751630Y4041630D01*
X4744353Y4046493D01*
X4735769Y4048200D01*
D02*
G37*
G36*
X4435769D02*
X4427185Y4046493D01*
X4419908Y4041630D01*
X4415046Y4034353D01*
X4413338Y4025769D01*
X4415046Y4017185D01*
X4419908Y4009908D01*
X4427185Y4005046D01*
X4435769Y4003338D01*
X4444353Y4005046D01*
X4451630Y4009908D01*
X4456493Y4017185D01*
X4458200Y4025769D01*
X4456493Y4034353D01*
X4451630Y4041630D01*
X4444353Y4046493D01*
X4435769Y4048200D01*
D02*
G37*
G36*
X2335837Y4014644D02*
Y3985000D01*
X2365481D01*
X2364936Y3989137D01*
X2361410Y3997651D01*
X2355800Y4004962D01*
X2348488Y4010572D01*
X2339974Y4014099D01*
X2335837Y4014644D01*
D02*
G37*
G36*
X2325837D02*
X2321700Y4014099D01*
X2313186Y4010572D01*
X2305875Y4004962D01*
X2300265Y3997651D01*
X2296738Y3989137D01*
X2296193Y3985000D01*
X2325837D01*
Y4014644D01*
D02*
G37*
G36*
X2552333Y4012276D02*
X2543979Y4011176D01*
X2536195Y4007952D01*
X2529511Y4002823D01*
X2524381Y3996138D01*
X2521157Y3988354D01*
X2520057Y3980000D01*
X2521157Y3971646D01*
X2524381Y3963862D01*
X2529511Y3957177D01*
X2536195Y3952048D01*
X2543979Y3948824D01*
X2552333Y3947724D01*
X2560687Y3948824D01*
X2568471Y3952048D01*
X2575156Y3957177D01*
X2580285Y3963862D01*
X2583510Y3971646D01*
X2584609Y3980000D01*
X2583510Y3988354D01*
X2580285Y3996138D01*
X2575156Y4002823D01*
X2568471Y4007952D01*
X2560687Y4011176D01*
X2552333Y4012276D01*
D02*
G37*
G36*
X2365481Y3975000D02*
X2335837D01*
Y3945356D01*
X2339974Y3945901D01*
X2348488Y3949428D01*
X2355800Y3955038D01*
X2361410Y3962349D01*
X2364936Y3970863D01*
X2365481Y3975000D01*
D02*
G37*
G36*
X2325837D02*
X2296193D01*
X2296738Y3970863D01*
X2300265Y3962349D01*
X2305875Y3955038D01*
X2313186Y3949428D01*
X2321700Y3945901D01*
X2325837Y3945356D01*
Y3975000D01*
D02*
G37*
G36*
X5042682Y3853863D02*
X5034099Y3852156D01*
X5026821Y3847294D01*
X5021959Y3840017D01*
X5020252Y3831432D01*
X5021959Y3822849D01*
X5026821Y3815571D01*
X5034099Y3810709D01*
X5042682Y3809001D01*
X5051266Y3810709D01*
X5058544Y3815571D01*
X5063406Y3822849D01*
X5065114Y3831432D01*
X5063406Y3840017D01*
X5058544Y3847294D01*
X5051266Y3852156D01*
X5042682Y3853863D01*
D02*
G37*
G36*
X8640769Y3853200D02*
X8632185Y3851493D01*
X8624908Y3846630D01*
X8620046Y3839353D01*
X8618338Y3830769D01*
X8620046Y3822185D01*
X8624908Y3814908D01*
X8632185Y3810046D01*
X8640769Y3808338D01*
X8649353Y3810046D01*
X8656630Y3814908D01*
X8661493Y3822185D01*
X8663200Y3830769D01*
X8661493Y3839353D01*
X8656630Y3846630D01*
X8649353Y3851493D01*
X8640769Y3853200D01*
D02*
G37*
G36*
X8340769D02*
X8332185Y3851493D01*
X8324908Y3846630D01*
X8320046Y3839353D01*
X8318338Y3830769D01*
X8320046Y3822185D01*
X8324908Y3814908D01*
X8332185Y3810046D01*
X8340769Y3808338D01*
X8349353Y3810046D01*
X8356630Y3814908D01*
X8361493Y3822185D01*
X8363200Y3830769D01*
X8361493Y3839353D01*
X8356630Y3846630D01*
X8349353Y3851493D01*
X8340769Y3853200D01*
D02*
G37*
G36*
X8040769D02*
X8032185Y3851493D01*
X8024908Y3846630D01*
X8020046Y3839353D01*
X8018338Y3830769D01*
X8020046Y3822185D01*
X8024908Y3814908D01*
X8032185Y3810046D01*
X8040769Y3808338D01*
X8049353Y3810046D01*
X8056630Y3814908D01*
X8061493Y3822185D01*
X8063200Y3830769D01*
X8061493Y3839353D01*
X8056630Y3846630D01*
X8049353Y3851493D01*
X8040769Y3853200D01*
D02*
G37*
G36*
X7740769D02*
X7732185Y3851493D01*
X7724908Y3846630D01*
X7720046Y3839353D01*
X7718338Y3830769D01*
X7720046Y3822185D01*
X7724908Y3814908D01*
X7732185Y3810046D01*
X7740769Y3808338D01*
X7749353Y3810046D01*
X7756630Y3814908D01*
X7761493Y3822185D01*
X7763200Y3830769D01*
X7761493Y3839353D01*
X7756630Y3846630D01*
X7749353Y3851493D01*
X7740769Y3853200D01*
D02*
G37*
G36*
X7440769D02*
X7432185Y3851493D01*
X7424908Y3846630D01*
X7420046Y3839353D01*
X7418338Y3830769D01*
X7420046Y3822185D01*
X7424908Y3814908D01*
X7432185Y3810046D01*
X7440769Y3808338D01*
X7449353Y3810046D01*
X7456630Y3814908D01*
X7461493Y3822185D01*
X7463200Y3830769D01*
X7461493Y3839353D01*
X7456630Y3846630D01*
X7449353Y3851493D01*
X7440769Y3853200D01*
D02*
G37*
G36*
X7140769D02*
X7132185Y3851493D01*
X7124908Y3846630D01*
X7120046Y3839353D01*
X7118338Y3830769D01*
X7120046Y3822185D01*
X7124908Y3814908D01*
X7132185Y3810046D01*
X7140769Y3808338D01*
X7149353Y3810046D01*
X7156630Y3814908D01*
X7161493Y3822185D01*
X7163200Y3830769D01*
X7161493Y3839353D01*
X7156630Y3846630D01*
X7149353Y3851493D01*
X7140769Y3853200D01*
D02*
G37*
G36*
X6840769D02*
X6832185Y3851493D01*
X6824908Y3846630D01*
X6820046Y3839353D01*
X6818338Y3830769D01*
X6820046Y3822185D01*
X6824908Y3814908D01*
X6832185Y3810046D01*
X6840769Y3808338D01*
X6849353Y3810046D01*
X6856630Y3814908D01*
X6861493Y3822185D01*
X6863200Y3830769D01*
X6861493Y3839353D01*
X6856630Y3846630D01*
X6849353Y3851493D01*
X6840769Y3853200D01*
D02*
G37*
G36*
X6540769D02*
X6532185Y3851493D01*
X6524908Y3846630D01*
X6520046Y3839353D01*
X6518338Y3830769D01*
X6520046Y3822185D01*
X6524908Y3814908D01*
X6532185Y3810046D01*
X6540769Y3808338D01*
X6549353Y3810046D01*
X6556630Y3814908D01*
X6561493Y3822185D01*
X6563200Y3830769D01*
X6561493Y3839353D01*
X6556630Y3846630D01*
X6549353Y3851493D01*
X6540769Y3853200D01*
D02*
G37*
G36*
X6240769D02*
X6232185Y3851493D01*
X6224908Y3846630D01*
X6220046Y3839353D01*
X6218338Y3830769D01*
X6220046Y3822185D01*
X6224908Y3814908D01*
X6232185Y3810046D01*
X6240769Y3808338D01*
X6249353Y3810046D01*
X6256630Y3814908D01*
X6261493Y3822185D01*
X6263200Y3830769D01*
X6261493Y3839353D01*
X6256630Y3846630D01*
X6249353Y3851493D01*
X6240769Y3853200D01*
D02*
G37*
G36*
X5935769D02*
X5927185Y3851493D01*
X5919908Y3846630D01*
X5915046Y3839353D01*
X5913338Y3830769D01*
X5915046Y3822185D01*
X5919908Y3814908D01*
X5927185Y3810046D01*
X5935769Y3808338D01*
X5944353Y3810046D01*
X5951630Y3814908D01*
X5956493Y3822185D01*
X5958200Y3830769D01*
X5956493Y3839353D01*
X5951630Y3846630D01*
X5944353Y3851493D01*
X5935769Y3853200D01*
D02*
G37*
G36*
X5630769D02*
X5622185Y3851493D01*
X5614908Y3846630D01*
X5610046Y3839353D01*
X5608338Y3830769D01*
X5610046Y3822185D01*
X5614908Y3814908D01*
X5622185Y3810046D01*
X5630769Y3808338D01*
X5639353Y3810046D01*
X5646630Y3814908D01*
X5651493Y3822185D01*
X5653200Y3830769D01*
X5651493Y3839353D01*
X5646630Y3846630D01*
X5639353Y3851493D01*
X5630769Y3853200D01*
D02*
G37*
G36*
X5340769D02*
X5332185Y3851493D01*
X5324908Y3846630D01*
X5320046Y3839353D01*
X5318338Y3830769D01*
X5320046Y3822185D01*
X5324908Y3814908D01*
X5332185Y3810046D01*
X5340769Y3808338D01*
X5349353Y3810046D01*
X5356630Y3814908D01*
X5361493Y3822185D01*
X5363200Y3830769D01*
X5361493Y3839353D01*
X5356630Y3846630D01*
X5349353Y3851493D01*
X5340769Y3853200D01*
D02*
G37*
G36*
X4740769D02*
X4732185Y3851493D01*
X4724908Y3846630D01*
X4720046Y3839353D01*
X4718338Y3830769D01*
X4720046Y3822185D01*
X4724908Y3814908D01*
X4732185Y3810046D01*
X4740769Y3808338D01*
X4749353Y3810046D01*
X4756630Y3814908D01*
X4761493Y3822185D01*
X4763200Y3830769D01*
X4761493Y3839353D01*
X4756630Y3846630D01*
X4749353Y3851493D01*
X4740769Y3853200D01*
D02*
G37*
G36*
X4440769Y3852575D02*
X4432185Y3850868D01*
X4424908Y3846005D01*
X4420046Y3838728D01*
X4418338Y3830144D01*
X4420046Y3821560D01*
X4424908Y3814283D01*
X4432185Y3809421D01*
X4440769Y3807713D01*
X4449353Y3809421D01*
X4456630Y3814283D01*
X4461493Y3821560D01*
X4463200Y3830144D01*
X4461493Y3838728D01*
X4456630Y3846005D01*
X4449353Y3850868D01*
X4440769Y3852575D01*
D02*
G37*
G36*
X2755837Y3802319D02*
X2746178Y3801048D01*
X2737178Y3797320D01*
X2729448Y3791389D01*
X2723518Y3783660D01*
X2719789Y3774659D01*
X2718518Y3765000D01*
X2719789Y3755341D01*
X2723518Y3746340D01*
X2729448Y3738611D01*
X2737178Y3732680D01*
X2746178Y3728952D01*
X2755837Y3727681D01*
X2765496Y3728952D01*
X2774497Y3732680D01*
X2782226Y3738611D01*
X2788157Y3746340D01*
X2791885Y3755341D01*
X2793157Y3765000D01*
X2791885Y3774659D01*
X2788157Y3783660D01*
X2782226Y3791389D01*
X2774497Y3797320D01*
X2765496Y3801048D01*
X2755837Y3802319D01*
D02*
G37*
G36*
X2455837D02*
X2446178Y3801048D01*
X2437178Y3797320D01*
X2429448Y3791389D01*
X2423518Y3783660D01*
X2419789Y3774659D01*
X2418518Y3765000D01*
X2419789Y3755341D01*
X2423518Y3746340D01*
X2429448Y3738611D01*
X2437178Y3732680D01*
X2446178Y3728952D01*
X2455837Y3727681D01*
X2465496Y3728952D01*
X2474497Y3732680D01*
X2482226Y3738611D01*
X2488157Y3746340D01*
X2491885Y3755341D01*
X2493157Y3765000D01*
X2491885Y3774659D01*
X2488157Y3783660D01*
X2482226Y3791389D01*
X2474497Y3797320D01*
X2465496Y3801048D01*
X2455837Y3802319D01*
D02*
G37*
G36*
X3370000Y3709980D02*
X3360441Y3708079D01*
X3352336Y3702664D01*
X3346921Y3694559D01*
X3345020Y3685000D01*
X3346921Y3675441D01*
X3352336Y3667336D01*
X3360441Y3661921D01*
X3370000Y3660020D01*
X3379559Y3661921D01*
X3387664Y3667336D01*
X3393079Y3675441D01*
X3394980Y3685000D01*
X3393079Y3694559D01*
X3387664Y3702664D01*
X3379559Y3708079D01*
X3370000Y3709980D01*
D02*
G37*
G36*
X3690000Y3704980D02*
X3680441Y3703079D01*
X3672336Y3697664D01*
X3666921Y3689559D01*
X3665020Y3680000D01*
X3666921Y3670441D01*
X3672336Y3662336D01*
X3680441Y3656921D01*
X3690000Y3655020D01*
X3699559Y3656921D01*
X3707664Y3662336D01*
X3713079Y3670441D01*
X3714980Y3680000D01*
X3713079Y3689559D01*
X3707664Y3697664D01*
X3699559Y3703079D01*
X3690000Y3704980D01*
D02*
G37*
G36*
X2019144Y3668826D02*
X2012573Y3667519D01*
X2007002Y3663796D01*
X2003279Y3658225D01*
X2001972Y3651654D01*
X2003279Y3645082D01*
X2007002Y3639511D01*
X2012573Y3635788D01*
X2019144Y3634481D01*
X2025716Y3635788D01*
X2031287Y3639511D01*
X2035010Y3645082D01*
X2036317Y3651654D01*
X2035010Y3658225D01*
X2031287Y3663796D01*
X2025716Y3667519D01*
X2019144Y3668826D01*
D02*
G37*
G36*
X1975837D02*
X1969266Y3667519D01*
X1963694Y3663796D01*
X1959972Y3658225D01*
X1958665Y3651654D01*
X1959972Y3645082D01*
X1963694Y3639511D01*
X1969266Y3635788D01*
X1975837Y3634481D01*
X1982409Y3635788D01*
X1987980Y3639511D01*
X1991703Y3645082D01*
X1993010Y3651654D01*
X1991703Y3658225D01*
X1987980Y3663796D01*
X1982409Y3667519D01*
X1975837Y3668826D01*
D02*
G37*
G36*
X1932530D02*
X1925958Y3667519D01*
X1920387Y3663796D01*
X1916665Y3658225D01*
X1915358Y3651654D01*
X1916665Y3645082D01*
X1920387Y3639511D01*
X1925958Y3635788D01*
X1932530Y3634481D01*
X1939102Y3635788D01*
X1944673Y3639511D01*
X1948395Y3645082D01*
X1949703Y3651654D01*
X1948395Y3658225D01*
X1944673Y3663796D01*
X1939102Y3667519D01*
X1932530Y3668826D01*
D02*
G37*
G36*
X8635769Y3663200D02*
X8627185Y3661493D01*
X8619908Y3656630D01*
X8615046Y3649353D01*
X8613338Y3640769D01*
X8615046Y3632185D01*
X8619908Y3624908D01*
X8627185Y3620046D01*
X8635769Y3618338D01*
X8644353Y3620046D01*
X8651630Y3624908D01*
X8656493Y3632185D01*
X8658200Y3640769D01*
X8656493Y3649353D01*
X8651630Y3656630D01*
X8644353Y3661493D01*
X8635769Y3663200D01*
D02*
G37*
G36*
X8345769D02*
X8337185Y3661493D01*
X8329908Y3656630D01*
X8325046Y3649353D01*
X8323338Y3640769D01*
X8325046Y3632185D01*
X8329908Y3624908D01*
X8337185Y3620046D01*
X8345769Y3618338D01*
X8354353Y3620046D01*
X8361630Y3624908D01*
X8366493Y3632185D01*
X8368200Y3640769D01*
X8366493Y3649353D01*
X8361630Y3656630D01*
X8354353Y3661493D01*
X8345769Y3663200D01*
D02*
G37*
G36*
X8045769D02*
X8037185Y3661493D01*
X8029908Y3656630D01*
X8025046Y3649353D01*
X8023338Y3640769D01*
X8025046Y3632185D01*
X8029908Y3624908D01*
X8037185Y3620046D01*
X8045769Y3618338D01*
X8054353Y3620046D01*
X8061630Y3624908D01*
X8066493Y3632185D01*
X8068200Y3640769D01*
X8066493Y3649353D01*
X8061630Y3656630D01*
X8054353Y3661493D01*
X8045769Y3663200D01*
D02*
G37*
G36*
X7740769D02*
X7732185Y3661493D01*
X7724908Y3656630D01*
X7720046Y3649353D01*
X7718338Y3640769D01*
X7720046Y3632185D01*
X7724908Y3624908D01*
X7732185Y3620046D01*
X7740769Y3618338D01*
X7749353Y3620046D01*
X7756630Y3624908D01*
X7761493Y3632185D01*
X7763200Y3640769D01*
X7761493Y3649353D01*
X7756630Y3656630D01*
X7749353Y3661493D01*
X7740769Y3663200D01*
D02*
G37*
G36*
X7440769D02*
X7432185Y3661493D01*
X7424908Y3656630D01*
X7420046Y3649353D01*
X7418338Y3640769D01*
X7420046Y3632185D01*
X7424908Y3624908D01*
X7432185Y3620046D01*
X7440769Y3618338D01*
X7449353Y3620046D01*
X7456630Y3624908D01*
X7461493Y3632185D01*
X7463200Y3640769D01*
X7461493Y3649353D01*
X7456630Y3656630D01*
X7449353Y3661493D01*
X7440769Y3663200D01*
D02*
G37*
G36*
X7140769D02*
X7132185Y3661493D01*
X7124908Y3656630D01*
X7120046Y3649353D01*
X7118338Y3640769D01*
X7120046Y3632185D01*
X7124908Y3624908D01*
X7132185Y3620046D01*
X7140769Y3618338D01*
X7149353Y3620046D01*
X7156630Y3624908D01*
X7161493Y3632185D01*
X7163200Y3640769D01*
X7161493Y3649353D01*
X7156630Y3656630D01*
X7149353Y3661493D01*
X7140769Y3663200D01*
D02*
G37*
G36*
X6850769D02*
X6842185Y3661493D01*
X6834908Y3656630D01*
X6830046Y3649353D01*
X6828338Y3640769D01*
X6830046Y3632185D01*
X6834908Y3624908D01*
X6842185Y3620046D01*
X6850769Y3618338D01*
X6859353Y3620046D01*
X6866630Y3624908D01*
X6871493Y3632185D01*
X6873200Y3640769D01*
X6871493Y3649353D01*
X6866630Y3656630D01*
X6859353Y3661493D01*
X6850769Y3663200D01*
D02*
G37*
G36*
X6540769D02*
X6532185Y3661493D01*
X6524908Y3656630D01*
X6520046Y3649353D01*
X6518338Y3640769D01*
X6520046Y3632185D01*
X6524908Y3624908D01*
X6532185Y3620046D01*
X6540769Y3618338D01*
X6549353Y3620046D01*
X6556630Y3624908D01*
X6561493Y3632185D01*
X6563200Y3640769D01*
X6561493Y3649353D01*
X6556630Y3656630D01*
X6549353Y3661493D01*
X6540769Y3663200D01*
D02*
G37*
G36*
X6250769D02*
X6242185Y3661493D01*
X6234908Y3656630D01*
X6230046Y3649353D01*
X6228338Y3640769D01*
X6230046Y3632185D01*
X6234908Y3624908D01*
X6242185Y3620046D01*
X6250769Y3618338D01*
X6259353Y3620046D01*
X6266630Y3624908D01*
X6271493Y3632185D01*
X6273200Y3640769D01*
X6271493Y3649353D01*
X6266630Y3656630D01*
X6259353Y3661493D01*
X6250769Y3663200D01*
D02*
G37*
G36*
X5935769D02*
X5927185Y3661493D01*
X5919908Y3656630D01*
X5915046Y3649353D01*
X5913338Y3640769D01*
X5915046Y3632185D01*
X5919908Y3624908D01*
X5927185Y3620046D01*
X5935769Y3618338D01*
X5944353Y3620046D01*
X5951630Y3624908D01*
X5956493Y3632185D01*
X5958200Y3640769D01*
X5956493Y3649353D01*
X5951630Y3656630D01*
X5944353Y3661493D01*
X5935769Y3663200D01*
D02*
G37*
G36*
X5645769D02*
X5637185Y3661493D01*
X5629908Y3656630D01*
X5625046Y3649353D01*
X5623338Y3640769D01*
X5625046Y3632185D01*
X5629908Y3624908D01*
X5637185Y3620046D01*
X5645769Y3618338D01*
X5654353Y3620046D01*
X5661630Y3624908D01*
X5666493Y3632185D01*
X5668200Y3640769D01*
X5666493Y3649353D01*
X5661630Y3656630D01*
X5654353Y3661493D01*
X5645769Y3663200D01*
D02*
G37*
G36*
X5350769D02*
X5342185Y3661493D01*
X5334908Y3656630D01*
X5330046Y3649353D01*
X5328338Y3640769D01*
X5330046Y3632185D01*
X5334908Y3624908D01*
X5342185Y3620046D01*
X5350769Y3618338D01*
X5359353Y3620046D01*
X5366630Y3624908D01*
X5371493Y3632185D01*
X5373200Y3640769D01*
X5371493Y3649353D01*
X5366630Y3656630D01*
X5359353Y3661493D01*
X5350769Y3663200D01*
D02*
G37*
G36*
X5050769D02*
X5042185Y3661493D01*
X5034908Y3656630D01*
X5030046Y3649353D01*
X5028338Y3640769D01*
X5030046Y3632185D01*
X5034908Y3624908D01*
X5042185Y3620046D01*
X5050769Y3618338D01*
X5059353Y3620046D01*
X5066630Y3624908D01*
X5071493Y3632185D01*
X5073200Y3640769D01*
X5071493Y3649353D01*
X5066630Y3656630D01*
X5059353Y3661493D01*
X5050769Y3663200D01*
D02*
G37*
G36*
X4750769D02*
X4742185Y3661493D01*
X4734908Y3656630D01*
X4730046Y3649353D01*
X4728338Y3640769D01*
X4730046Y3632185D01*
X4734908Y3624908D01*
X4742185Y3620046D01*
X4750769Y3618338D01*
X4759353Y3620046D01*
X4766630Y3624908D01*
X4771493Y3632185D01*
X4773200Y3640769D01*
X4771493Y3649353D01*
X4766630Y3656630D01*
X4759353Y3661493D01*
X4750769Y3663200D01*
D02*
G37*
G36*
X4450769D02*
X4442185Y3661493D01*
X4434908Y3656630D01*
X4430046Y3649353D01*
X4428338Y3640769D01*
X4430046Y3632185D01*
X4434908Y3624908D01*
X4442185Y3620046D01*
X4450769Y3618338D01*
X4459353Y3620046D01*
X4466630Y3624908D01*
X4471493Y3632185D01*
X4473200Y3640769D01*
X4471493Y3649353D01*
X4466630Y3656630D01*
X4459353Y3661493D01*
X4450769Y3663200D01*
D02*
G37*
G36*
X2019144Y3625519D02*
X2012573Y3624212D01*
X2007002Y3620489D01*
X2003279Y3614918D01*
X2001972Y3608347D01*
X2003279Y3601775D01*
X2007002Y3596204D01*
X2012573Y3592481D01*
X2019144Y3591174D01*
X2025716Y3592481D01*
X2031287Y3596204D01*
X2035010Y3601775D01*
X2036317Y3608347D01*
X2035010Y3614918D01*
X2031287Y3620489D01*
X2025716Y3624212D01*
X2019144Y3625519D01*
D02*
G37*
G36*
X1975837D02*
X1969266Y3624212D01*
X1963694Y3620489D01*
X1959972Y3614918D01*
X1958665Y3608347D01*
X1959972Y3601775D01*
X1963694Y3596204D01*
X1969266Y3592481D01*
X1975837Y3591174D01*
X1982409Y3592481D01*
X1987980Y3596204D01*
X1991703Y3601775D01*
X1993010Y3608347D01*
X1991703Y3614918D01*
X1987980Y3620489D01*
X1982409Y3624212D01*
X1975837Y3625519D01*
D02*
G37*
G36*
X1932530D02*
X1925958Y3624212D01*
X1920387Y3620489D01*
X1916665Y3614918D01*
X1915358Y3608347D01*
X1916665Y3601775D01*
X1920387Y3596204D01*
X1925958Y3592481D01*
X1932530Y3591174D01*
X1939102Y3592481D01*
X1944673Y3596204D01*
X1948395Y3601775D01*
X1949703Y3608347D01*
X1948395Y3614918D01*
X1944673Y3620489D01*
X1939102Y3624212D01*
X1932530Y3625519D01*
D02*
G37*
G36*
X3500000Y3609980D02*
X3490441Y3608079D01*
X3482336Y3602664D01*
X3476921Y3594559D01*
X3475020Y3585000D01*
X3476921Y3575441D01*
X3482336Y3567336D01*
X3490441Y3561921D01*
X3500000Y3560020D01*
X3509559Y3561921D01*
X3517664Y3567336D01*
X3523079Y3575441D01*
X3524980Y3585000D01*
X3523079Y3594559D01*
X3517664Y3602664D01*
X3509559Y3608079D01*
X3500000Y3609980D01*
D02*
G37*
G36*
X3295000Y3599980D02*
X3285441Y3598079D01*
X3277336Y3592664D01*
X3271921Y3584559D01*
X3270020Y3575000D01*
X3271921Y3565441D01*
X3277336Y3557336D01*
X3285441Y3551921D01*
X3295000Y3550020D01*
X3304559Y3551921D01*
X3312664Y3557336D01*
X3318079Y3565441D01*
X3319980Y3575000D01*
X3318079Y3584559D01*
X3312664Y3592664D01*
X3304559Y3598079D01*
X3295000Y3599980D01*
D02*
G37*
G36*
X4180000Y3552079D02*
Y3530000D01*
X4202079D01*
X4201792Y3532179D01*
X4199021Y3538869D01*
X4194613Y3544613D01*
X4188869Y3549021D01*
X4182179Y3551792D01*
X4180000Y3552079D01*
D02*
G37*
G36*
X4170000D02*
X4167821Y3551792D01*
X4161131Y3549021D01*
X4155387Y3544613D01*
X4150979Y3538869D01*
X4148208Y3532179D01*
X4147921Y3530000D01*
X4170000D01*
Y3552079D01*
D02*
G37*
G36*
X4202079Y3520000D02*
X4147921D01*
X4148208Y3517821D01*
X4150979Y3511131D01*
X4155387Y3505387D01*
X4157815Y3503523D01*
X4155696Y3498847D01*
X4150000Y3499980D01*
X4140441Y3498079D01*
X4132337Y3492664D01*
X4126922Y3484559D01*
X4125020Y3475000D01*
X4126922Y3465441D01*
X4132337Y3457336D01*
X4140441Y3451921D01*
X4150000Y3450020D01*
X4159559Y3451921D01*
X4167663Y3457336D01*
X4167884Y3457667D01*
X4207820D01*
X4245396Y3420092D01*
X4242933Y3415484D01*
X4239439Y3416179D01*
X4157393D01*
X4139088Y3434483D01*
X4138078Y3439559D01*
X4132663Y3447664D01*
X4124559Y3453079D01*
X4115000Y3454980D01*
X4105441Y3453079D01*
X4097337Y3447664D01*
X4091921Y3439559D01*
X4090120Y3430504D01*
X4088615Y3429707D01*
X4085125Y3428980D01*
X4082664Y3432664D01*
X4074559Y3438079D01*
X4065000Y3439980D01*
X4055441Y3438079D01*
X4047336Y3432664D01*
X4041921Y3424559D01*
X4040020Y3415000D01*
X4040927Y3410440D01*
X3987744Y3357256D01*
X3983986Y3351633D01*
X3982667Y3345000D01*
Y3231700D01*
X3977667Y3230184D01*
X3976756Y3231547D01*
X3976756Y3231547D01*
X3911047Y3297256D01*
X3907155Y3299857D01*
X3907335Y3305343D01*
X3908869Y3305979D01*
X3914613Y3310387D01*
X3919021Y3316131D01*
X3921792Y3322821D01*
X3922079Y3325000D01*
X3867921D01*
X3868208Y3322821D01*
X3870979Y3316131D01*
X3872875Y3313661D01*
X3870801Y3308150D01*
X3870441Y3308079D01*
X3862336Y3302664D01*
X3856921Y3294559D01*
X3855020Y3285000D01*
X3856921Y3275441D01*
X3862336Y3267336D01*
X3870441Y3261921D01*
X3880000Y3260020D01*
X3886189Y3261251D01*
X3888140Y3256541D01*
X3882336Y3252664D01*
X3882116Y3252333D01*
X3860000D01*
X3853367Y3251014D01*
X3847744Y3247256D01*
X3838735Y3238247D01*
X3834127Y3240711D01*
X3834980Y3245000D01*
X3833079Y3254559D01*
X3827664Y3262664D01*
X3819559Y3268079D01*
X3810000Y3269980D01*
X3800441Y3268079D01*
X3792336Y3262664D01*
X3786921Y3254559D01*
X3785020Y3245000D01*
X3786921Y3235441D01*
X3792336Y3227336D01*
X3800441Y3221921D01*
X3810000Y3220020D01*
X3814557Y3220926D01*
X3814918Y3220616D01*
X3817323Y3216379D01*
X3814486Y3212133D01*
X3813167Y3205500D01*
Y2899500D01*
X3814486Y2892867D01*
X3818244Y2887244D01*
X3905995Y2799492D01*
X3903696Y2794721D01*
X3895441Y2793079D01*
X3887336Y2787664D01*
X3881921Y2779559D01*
X3880020Y2770000D01*
X3881921Y2760441D01*
X3887336Y2752336D01*
X3895441Y2746921D01*
X3905000Y2745020D01*
X3914559Y2746921D01*
X3922664Y2752336D01*
X3928079Y2760441D01*
X3929721Y2768696D01*
X3934492Y2770995D01*
X3952667Y2752820D01*
Y2725000D01*
X3953986Y2718367D01*
X3957744Y2712744D01*
X4322743Y2347744D01*
X4322744Y2347744D01*
X4328367Y2343986D01*
X4335000Y2342667D01*
X4335001Y2342667D01*
X4721212D01*
X4722664Y2337882D01*
X4722337Y2337664D01*
X4716922Y2329559D01*
X4715020Y2320000D01*
X4716922Y2310441D01*
X4722337Y2302336D01*
X4730441Y2296921D01*
X4740000Y2295020D01*
X4749559Y2296921D01*
X4757663Y2302336D01*
X4763078Y2310441D01*
X4764980Y2320000D01*
X4763078Y2329559D01*
X4757663Y2337664D01*
X4757336Y2337882D01*
X4758788Y2342667D01*
X5021212D01*
X5022664Y2337882D01*
X5022337Y2337664D01*
X5016922Y2329559D01*
X5015020Y2320000D01*
X5016922Y2310441D01*
X5022337Y2302336D01*
X5030441Y2296921D01*
X5040000Y2295020D01*
X5049559Y2296921D01*
X5057663Y2302336D01*
X5063078Y2310441D01*
X5064980Y2320000D01*
X5063078Y2329559D01*
X5057663Y2337664D01*
X5057336Y2337882D01*
X5058788Y2342667D01*
X5306212D01*
X5307664Y2337882D01*
X5307337Y2337664D01*
X5301922Y2329559D01*
X5300020Y2320000D01*
X5301922Y2310441D01*
X5307337Y2302336D01*
X5315441Y2296921D01*
X5325000Y2295020D01*
X5334559Y2296921D01*
X5342663Y2302336D01*
X5348078Y2310441D01*
X5349980Y2320000D01*
X5348078Y2329559D01*
X5342663Y2337664D01*
X5342336Y2337882D01*
X5343788Y2342667D01*
X5601325D01*
X5603998Y2337667D01*
X5601922Y2334559D01*
X5600020Y2325000D01*
X5601922Y2315441D01*
X5607337Y2307336D01*
X5615441Y2301921D01*
X5625000Y2300020D01*
X5634559Y2301921D01*
X5642663Y2307336D01*
X5648078Y2315441D01*
X5649980Y2325000D01*
X5648078Y2334559D01*
X5646002Y2337667D01*
X5648675Y2342667D01*
X5916212D01*
X5917664Y2337882D01*
X5917337Y2337664D01*
X5911922Y2329559D01*
X5910020Y2320000D01*
X5911922Y2310441D01*
X5917337Y2302336D01*
X5925441Y2296921D01*
X5935000Y2295020D01*
X5944559Y2296921D01*
X5952663Y2302336D01*
X5958078Y2310441D01*
X5959980Y2320000D01*
X5958078Y2329559D01*
X5952663Y2337664D01*
X5952336Y2337882D01*
X5953788Y2342667D01*
X6206212D01*
X6207664Y2337882D01*
X6207337Y2337664D01*
X6201922Y2329559D01*
X6200020Y2320000D01*
X6201922Y2310441D01*
X6207337Y2302336D01*
X6215441Y2296921D01*
X6225000Y2295020D01*
X6234559Y2296921D01*
X6242663Y2302336D01*
X6248078Y2310441D01*
X6249980Y2320000D01*
X6248078Y2329559D01*
X6242663Y2337664D01*
X6242336Y2337882D01*
X6243788Y2342667D01*
X6487820D01*
X6510097Y2320390D01*
X6510020Y2320000D01*
X6511922Y2310441D01*
X6517337Y2302336D01*
X6525441Y2296921D01*
X6535000Y2295020D01*
X6544559Y2296921D01*
X6552663Y2302336D01*
X6558078Y2310441D01*
X6559980Y2320000D01*
X6558078Y2329559D01*
X6552663Y2337664D01*
X6544559Y2343079D01*
X6535000Y2344980D01*
X6534610Y2344903D01*
X6511846Y2367667D01*
X6513917Y2372667D01*
X6527820D01*
X6592743Y2307744D01*
X6592744Y2307744D01*
X6598367Y2303986D01*
X6605000Y2302667D01*
X6817116D01*
X6817337Y2302336D01*
X6825441Y2296921D01*
X6835000Y2295020D01*
X6844559Y2296921D01*
X6852663Y2302336D01*
X6858078Y2310441D01*
X6859980Y2320000D01*
X6858078Y2329559D01*
X6853998Y2335667D01*
X6856483Y2340667D01*
X7113517D01*
X7116002Y2335667D01*
X7111922Y2329559D01*
X7110020Y2320000D01*
X7111922Y2310441D01*
X7117337Y2302336D01*
X7125441Y2296921D01*
X7135000Y2295020D01*
X7144559Y2296921D01*
X7152663Y2302336D01*
X7158078Y2310441D01*
X7159980Y2320000D01*
X7158078Y2329559D01*
X7153998Y2335667D01*
X7156483Y2340667D01*
X7403517D01*
X7406002Y2335667D01*
X7401922Y2329559D01*
X7400020Y2320000D01*
X7401922Y2310441D01*
X7407337Y2302336D01*
X7415441Y2296921D01*
X7425000Y2295020D01*
X7434559Y2296921D01*
X7442663Y2302336D01*
X7448078Y2310441D01*
X7449980Y2320000D01*
X7448078Y2329559D01*
X7443998Y2335667D01*
X7446483Y2340667D01*
X7713517D01*
X7716002Y2335667D01*
X7711922Y2329559D01*
X7710020Y2320000D01*
X7711922Y2310441D01*
X7717337Y2302336D01*
X7725441Y2296921D01*
X7735000Y2295020D01*
X7744559Y2296921D01*
X7752663Y2302336D01*
X7758078Y2310441D01*
X7759721Y2318696D01*
X7764492Y2320995D01*
X7777744Y2307744D01*
X7783367Y2303986D01*
X7790000Y2302667D01*
X8007116D01*
X8007337Y2302336D01*
X8015441Y2296921D01*
X8025000Y2295020D01*
X8034559Y2296921D01*
X8042663Y2302336D01*
X8048078Y2310441D01*
X8049980Y2320000D01*
X8048078Y2329559D01*
X8042663Y2337664D01*
X8034559Y2343079D01*
X8025000Y2344980D01*
X8015441Y2343079D01*
X8007337Y2337664D01*
X8007116Y2337333D01*
X7797180D01*
X7771465Y2363048D01*
X7773378Y2367667D01*
X8037820D01*
X8097744Y2307744D01*
X8103367Y2303986D01*
X8110000Y2302667D01*
X8307116D01*
X8307336Y2302336D01*
X8315441Y2296921D01*
X8325000Y2295020D01*
X8334559Y2296921D01*
X8342664Y2302336D01*
X8348078Y2310441D01*
X8349980Y2320000D01*
X8348078Y2329559D01*
X8346511Y2331905D01*
X8350395Y2335093D01*
X8377744Y2307744D01*
X8383367Y2303986D01*
X8390000Y2302667D01*
X8607116D01*
X8607336Y2302336D01*
X8615441Y2296921D01*
X8625000Y2295020D01*
X8634559Y2296921D01*
X8642664Y2302336D01*
X8648078Y2310441D01*
X8649980Y2320000D01*
X8648078Y2329559D01*
X8642664Y2337664D01*
X8634559Y2343079D01*
X8625000Y2344980D01*
X8615441Y2343079D01*
X8607336Y2337664D01*
X8607116Y2337333D01*
X8397180D01*
X8357256Y2377256D01*
X8351633Y2381014D01*
X8345000Y2382333D01*
X8152180D01*
X8057256Y2477256D01*
X8051633Y2481014D01*
X8045000Y2482333D01*
X6652180D01*
X6587256Y2547256D01*
X6581633Y2551014D01*
X6575000Y2552333D01*
X4452180D01*
X4312333Y2692180D01*
Y3395000D01*
X4311014Y3401633D01*
X4307256Y3407256D01*
X4227256Y3487256D01*
X4221633Y3491014D01*
X4215000Y3492333D01*
X4179149D01*
X4178743Y3492712D01*
X4180429Y3497977D01*
X4182179Y3498208D01*
X4188869Y3500979D01*
X4194613Y3505387D01*
X4199021Y3511131D01*
X4201792Y3517821D01*
X4202079Y3520000D01*
D02*
G37*
G36*
X3010000Y3519980D02*
X3000441Y3518079D01*
X2992336Y3512664D01*
X2986921Y3504559D01*
X2985020Y3495000D01*
X2986921Y3485441D01*
X2992336Y3477336D01*
X3000441Y3471921D01*
X3010000Y3470020D01*
X3019559Y3471921D01*
X3027664Y3477336D01*
X3033079Y3485441D01*
X3034980Y3495000D01*
X3033079Y3504559D01*
X3027664Y3512664D01*
X3019559Y3518079D01*
X3010000Y3519980D01*
D02*
G37*
G36*
X2460837Y3504687D02*
Y3470000D01*
X2495524D01*
X2494808Y3475442D01*
X2490777Y3485173D01*
X2484366Y3493528D01*
X2476010Y3499940D01*
X2466279Y3503970D01*
X2460837Y3504687D01*
D02*
G37*
G36*
X2450837D02*
X2445395Y3503970D01*
X2435665Y3499940D01*
X2427309Y3493528D01*
X2420897Y3485173D01*
X2416867Y3475442D01*
X2416150Y3470000D01*
X2450837D01*
Y3504687D01*
D02*
G37*
G36*
X2495524Y3460000D02*
X2455837D01*
X2416150D01*
X2416836Y3454789D01*
X2416314Y3454156D01*
X2412707Y3451535D01*
X2410397Y3453079D01*
X2400837Y3454980D01*
X2391278Y3453079D01*
X2383174Y3447664D01*
X2377759Y3439559D01*
X2375857Y3430000D01*
X2377759Y3420441D01*
X2383174Y3412336D01*
X2391278Y3406921D01*
X2400837Y3405020D01*
X2410397Y3406921D01*
X2418501Y3412336D01*
X2423916Y3420441D01*
X2425817Y3430000D01*
X2425509Y3431550D01*
X2430046Y3434372D01*
X2435665Y3430060D01*
X2443111Y3426976D01*
X2443781Y3421410D01*
X2438174Y3417664D01*
X2432759Y3409559D01*
X2430857Y3400000D01*
X2432759Y3390441D01*
X2438174Y3382336D01*
X2446278Y3376921D01*
X2455837Y3375020D01*
X2465397Y3376921D01*
X2473501Y3382336D01*
X2478916Y3390441D01*
X2480817Y3400000D01*
X2478916Y3409559D01*
X2473501Y3417664D01*
X2467894Y3421410D01*
X2468564Y3426976D01*
X2476010Y3430060D01*
X2484366Y3436472D01*
X2490777Y3444827D01*
X2494808Y3454558D01*
X2495524Y3460000D01*
D02*
G37*
G36*
X3495000Y3462079D02*
Y3440000D01*
X3517079D01*
X3516792Y3442179D01*
X3514021Y3448869D01*
X3509613Y3454613D01*
X3503869Y3459021D01*
X3497179Y3461792D01*
X3495000Y3462079D01*
D02*
G37*
G36*
X3485000D02*
X3482821Y3461792D01*
X3476131Y3459021D01*
X3470387Y3454613D01*
X3465979Y3448869D01*
X3463208Y3442179D01*
X3462921Y3440000D01*
X3485000D01*
Y3462079D01*
D02*
G37*
G36*
X2755837Y3502319D02*
X2746178Y3501048D01*
X2737178Y3497320D01*
X2729448Y3491389D01*
X2723518Y3483660D01*
X2719789Y3474659D01*
X2718518Y3465000D01*
X2719789Y3455341D01*
X2723518Y3446340D01*
X2729448Y3438611D01*
X2737178Y3432680D01*
X2746178Y3428952D01*
X2755837Y3427681D01*
X2765496Y3428952D01*
X2774497Y3432680D01*
X2782226Y3438611D01*
X2788157Y3446340D01*
X2791885Y3455341D01*
X2793157Y3465000D01*
X2791885Y3474659D01*
X2788157Y3483660D01*
X2782226Y3491389D01*
X2774497Y3497320D01*
X2765496Y3501048D01*
X2755837Y3502319D01*
D02*
G37*
G36*
X3600000Y3447079D02*
Y3425000D01*
X3622079D01*
X3621792Y3427179D01*
X3619021Y3433869D01*
X3614613Y3439613D01*
X3608869Y3444021D01*
X3602179Y3446792D01*
X3600000Y3447079D01*
D02*
G37*
G36*
X3590000D02*
X3587821Y3446792D01*
X3581131Y3444021D01*
X3575387Y3439613D01*
X3570979Y3433869D01*
X3568208Y3427179D01*
X3567921Y3425000D01*
X3590000D01*
Y3447079D01*
D02*
G37*
G36*
X8645769Y3458200D02*
X8637185Y3456493D01*
X8629908Y3451630D01*
X8625046Y3444353D01*
X8623338Y3435769D01*
X8625046Y3427185D01*
X8629908Y3419908D01*
X8637185Y3415046D01*
X8645769Y3413338D01*
X8654353Y3415046D01*
X8661630Y3419908D01*
X8666493Y3427185D01*
X8668200Y3435769D01*
X8666493Y3444353D01*
X8661630Y3451630D01*
X8654353Y3456493D01*
X8645769Y3458200D01*
D02*
G37*
G36*
X8343269D02*
X8334685Y3456493D01*
X8327408Y3451630D01*
X8322546Y3444353D01*
X8320838Y3435769D01*
X8322546Y3427185D01*
X8327408Y3419908D01*
X8334685Y3415046D01*
X8343269Y3413338D01*
X8351853Y3415046D01*
X8359130Y3419908D01*
X8363993Y3427185D01*
X8365700Y3435769D01*
X8363993Y3444353D01*
X8359130Y3451630D01*
X8351853Y3456493D01*
X8343269Y3458200D01*
D02*
G37*
G36*
X8040769D02*
X8032185Y3456493D01*
X8024908Y3451630D01*
X8020046Y3444353D01*
X8018338Y3435769D01*
X8020046Y3427185D01*
X8024908Y3419908D01*
X8032185Y3415046D01*
X8040769Y3413338D01*
X8049353Y3415046D01*
X8056630Y3419908D01*
X8061493Y3427185D01*
X8063200Y3435769D01*
X8061493Y3444353D01*
X8056630Y3451630D01*
X8049353Y3456493D01*
X8040769Y3458200D01*
D02*
G37*
G36*
X7745769D02*
X7737185Y3456493D01*
X7729908Y3451630D01*
X7725046Y3444353D01*
X7723338Y3435769D01*
X7725046Y3427185D01*
X7729908Y3419908D01*
X7737185Y3415046D01*
X7745769Y3413338D01*
X7754353Y3415046D01*
X7761630Y3419908D01*
X7766493Y3427185D01*
X7768200Y3435769D01*
X7766493Y3444353D01*
X7761630Y3451630D01*
X7754353Y3456493D01*
X7745769Y3458200D01*
D02*
G37*
G36*
X7445769D02*
X7437185Y3456493D01*
X7429908Y3451630D01*
X7425046Y3444353D01*
X7423338Y3435769D01*
X7425046Y3427185D01*
X7429908Y3419908D01*
X7437185Y3415046D01*
X7445769Y3413338D01*
X7454353Y3415046D01*
X7461630Y3419908D01*
X7466493Y3427185D01*
X7468200Y3435769D01*
X7466493Y3444353D01*
X7461630Y3451630D01*
X7454353Y3456493D01*
X7445769Y3458200D01*
D02*
G37*
G36*
X7145769D02*
X7137185Y3456493D01*
X7129908Y3451630D01*
X7125046Y3444353D01*
X7123338Y3435769D01*
X7125046Y3427185D01*
X7129908Y3419908D01*
X7137185Y3415046D01*
X7145769Y3413338D01*
X7154353Y3415046D01*
X7161630Y3419908D01*
X7166493Y3427185D01*
X7168200Y3435769D01*
X7166493Y3444353D01*
X7161630Y3451630D01*
X7154353Y3456493D01*
X7145769Y3458200D01*
D02*
G37*
G36*
X6845769D02*
X6837185Y3456493D01*
X6829908Y3451630D01*
X6825046Y3444353D01*
X6823338Y3435769D01*
X6825046Y3427185D01*
X6829908Y3419908D01*
X6837185Y3415046D01*
X6845769Y3413338D01*
X6854353Y3415046D01*
X6861630Y3419908D01*
X6866493Y3427185D01*
X6868200Y3435769D01*
X6866493Y3444353D01*
X6861630Y3451630D01*
X6854353Y3456493D01*
X6845769Y3458200D01*
D02*
G37*
G36*
X6540769D02*
X6532185Y3456493D01*
X6524908Y3451630D01*
X6520046Y3444353D01*
X6518338Y3435769D01*
X6520046Y3427185D01*
X6524908Y3419908D01*
X6532185Y3415046D01*
X6540769Y3413338D01*
X6549353Y3415046D01*
X6556630Y3419908D01*
X6561493Y3427185D01*
X6563200Y3435769D01*
X6561493Y3444353D01*
X6556630Y3451630D01*
X6549353Y3456493D01*
X6540769Y3458200D01*
D02*
G37*
G36*
X6245769D02*
X6237185Y3456493D01*
X6229908Y3451630D01*
X6225046Y3444353D01*
X6223338Y3435769D01*
X6225046Y3427185D01*
X6229908Y3419908D01*
X6237185Y3415046D01*
X6245769Y3413338D01*
X6254353Y3415046D01*
X6261630Y3419908D01*
X6266493Y3427185D01*
X6268200Y3435769D01*
X6266493Y3444353D01*
X6261630Y3451630D01*
X6254353Y3456493D01*
X6245769Y3458200D01*
D02*
G37*
G36*
X5935769D02*
X5927185Y3456493D01*
X5919908Y3451630D01*
X5915046Y3444353D01*
X5913338Y3435769D01*
X5915046Y3427185D01*
X5919908Y3419908D01*
X5927185Y3415046D01*
X5935769Y3413338D01*
X5944353Y3415046D01*
X5951630Y3419908D01*
X5956493Y3427185D01*
X5958200Y3435769D01*
X5956493Y3444353D01*
X5951630Y3451630D01*
X5944353Y3456493D01*
X5935769Y3458200D01*
D02*
G37*
G36*
X5640769D02*
X5632185Y3456493D01*
X5624908Y3451630D01*
X5620046Y3444353D01*
X5618338Y3435769D01*
X5620046Y3427185D01*
X5624908Y3419908D01*
X5632185Y3415046D01*
X5640769Y3413338D01*
X5649353Y3415046D01*
X5656630Y3419908D01*
X5661493Y3427185D01*
X5663200Y3435769D01*
X5661493Y3444353D01*
X5656630Y3451630D01*
X5649353Y3456493D01*
X5640769Y3458200D01*
D02*
G37*
G36*
X5345769D02*
X5337185Y3456493D01*
X5329908Y3451630D01*
X5325046Y3444353D01*
X5323338Y3435769D01*
X5325046Y3427185D01*
X5329908Y3419908D01*
X5337185Y3415046D01*
X5345769Y3413338D01*
X5354353Y3415046D01*
X5361630Y3419908D01*
X5366493Y3427185D01*
X5368200Y3435769D01*
X5366493Y3444353D01*
X5361630Y3451630D01*
X5354353Y3456493D01*
X5345769Y3458200D01*
D02*
G37*
G36*
X5040769D02*
X5032185Y3456493D01*
X5024908Y3451630D01*
X5020046Y3444353D01*
X5018338Y3435769D01*
X5020046Y3427185D01*
X5024908Y3419908D01*
X5032185Y3415046D01*
X5040769Y3413338D01*
X5049353Y3415046D01*
X5056630Y3419908D01*
X5061493Y3427185D01*
X5063200Y3435769D01*
X5061493Y3444353D01*
X5056630Y3451630D01*
X5049353Y3456493D01*
X5040769Y3458200D01*
D02*
G37*
G36*
X4745769D02*
X4737185Y3456493D01*
X4729908Y3451630D01*
X4725046Y3444353D01*
X4723338Y3435769D01*
X4725046Y3427185D01*
X4729908Y3419908D01*
X4737185Y3415046D01*
X4745769Y3413338D01*
X4754353Y3415046D01*
X4761630Y3419908D01*
X4766493Y3427185D01*
X4768200Y3435769D01*
X4766493Y3444353D01*
X4761630Y3451630D01*
X4754353Y3456493D01*
X4745769Y3458200D01*
D02*
G37*
G36*
X4445769D02*
X4437185Y3456493D01*
X4429908Y3451630D01*
X4425046Y3444353D01*
X4423338Y3435769D01*
X4425046Y3427185D01*
X4429908Y3419908D01*
X4437185Y3415046D01*
X4445769Y3413338D01*
X4454353Y3415046D01*
X4461630Y3419908D01*
X4466493Y3427185D01*
X4468200Y3435769D01*
X4466493Y3444353D01*
X4461630Y3451630D01*
X4454353Y3456493D01*
X4445769Y3458200D01*
D02*
G37*
G36*
X3517079Y3430000D02*
X3495000D01*
Y3407921D01*
X3497179Y3408208D01*
X3503869Y3410979D01*
X3509613Y3415387D01*
X3514021Y3421131D01*
X3516792Y3427821D01*
X3517079Y3430000D01*
D02*
G37*
G36*
X3485000D02*
X3462921D01*
X3463208Y3427821D01*
X3465979Y3421131D01*
X3470387Y3415387D01*
X3476131Y3410979D01*
X3482821Y3408208D01*
X3485000Y3407921D01*
Y3430000D01*
D02*
G37*
G36*
X2545000Y3434644D02*
Y3405000D01*
X2574644D01*
X2574099Y3409137D01*
X2570572Y3417651D01*
X2564962Y3424962D01*
X2557651Y3430572D01*
X2549137Y3434099D01*
X2545000Y3434644D01*
D02*
G37*
G36*
X2535000D02*
X2530863Y3434099D01*
X2522349Y3430572D01*
X2515038Y3424962D01*
X2509428Y3417651D01*
X2505901Y3409137D01*
X2505356Y3405000D01*
X2535000D01*
Y3434644D01*
D02*
G37*
G36*
X3622079Y3415000D02*
X3600000D01*
Y3392921D01*
X3602179Y3393208D01*
X3608869Y3395979D01*
X3614613Y3400387D01*
X3619021Y3406131D01*
X3621792Y3412821D01*
X3622079Y3415000D01*
D02*
G37*
G36*
X3590000D02*
X3567921D01*
X3568208Y3412821D01*
X3570979Y3406131D01*
X3575387Y3400387D01*
X3581131Y3395979D01*
X3587821Y3393208D01*
X3590000Y3392921D01*
Y3415000D01*
D02*
G37*
G36*
X2830000Y3429980D02*
X2820441Y3428079D01*
X2812336Y3422664D01*
X2806921Y3414559D01*
X2805020Y3405000D01*
X2806921Y3395441D01*
X2812336Y3387336D01*
X2820441Y3381921D01*
X2830000Y3380020D01*
X2839559Y3381921D01*
X2847664Y3387336D01*
X2853079Y3395441D01*
X2854980Y3405000D01*
X2853079Y3414559D01*
X2847664Y3422664D01*
X2839559Y3428079D01*
X2830000Y3429980D01*
D02*
G37*
G36*
X2574644Y3395000D02*
X2545000D01*
Y3365356D01*
X2549137Y3365901D01*
X2557651Y3369428D01*
X2564962Y3375038D01*
X2570572Y3382349D01*
X2574099Y3390863D01*
X2574644Y3395000D01*
D02*
G37*
G36*
X2535000D02*
X2505356D01*
X2505901Y3390863D01*
X2509428Y3382349D01*
X2515038Y3375038D01*
X2522349Y3369428D01*
X2530863Y3365901D01*
X2535000Y3365356D01*
Y3395000D01*
D02*
G37*
G36*
X2370885Y3404016D02*
X2361325Y3402114D01*
X2353221Y3396699D01*
X2347806Y3388595D01*
X2345905Y3379036D01*
X2347806Y3369477D01*
X2353221Y3361372D01*
X2361325Y3355957D01*
X2370885Y3354056D01*
X2380444Y3355957D01*
X2388548Y3361372D01*
X2393963Y3369477D01*
X2395865Y3379036D01*
X2393963Y3388595D01*
X2388548Y3396699D01*
X2380444Y3402114D01*
X2370885Y3404016D01*
D02*
G37*
G36*
X3900000Y3357079D02*
Y3335000D01*
X3922079D01*
X3921792Y3337179D01*
X3919021Y3343869D01*
X3914613Y3349613D01*
X3908869Y3354021D01*
X3902179Y3356792D01*
X3900000Y3357079D01*
D02*
G37*
G36*
X3890000D02*
X3887821Y3356792D01*
X3881131Y3354021D01*
X3875387Y3349613D01*
X3870979Y3343869D01*
X3868208Y3337179D01*
X3867921Y3335000D01*
X3890000D01*
Y3357079D01*
D02*
G37*
G36*
X3225000D02*
Y3335000D01*
X3247079D01*
X3246792Y3337179D01*
X3244021Y3343869D01*
X3239613Y3349613D01*
X3233869Y3354021D01*
X3227179Y3356792D01*
X3225000Y3357079D01*
D02*
G37*
G36*
X3215000D02*
X3212821Y3356792D01*
X3206131Y3354021D01*
X3200387Y3349613D01*
X3195979Y3343869D01*
X3193208Y3337179D01*
X3192921Y3335000D01*
X3215000D01*
Y3357079D01*
D02*
G37*
G36*
X3435000Y3369980D02*
X3425441Y3368079D01*
X3417336Y3362664D01*
X3411921Y3354559D01*
X3410020Y3345000D01*
X3411921Y3335441D01*
X3417336Y3327336D01*
X3425441Y3321921D01*
X3435000Y3320020D01*
X3444559Y3321921D01*
X3452664Y3327336D01*
X3458079Y3335441D01*
X3459980Y3345000D01*
X3458079Y3354559D01*
X3452664Y3362664D01*
X3444559Y3368079D01*
X3435000Y3369980D01*
D02*
G37*
G36*
X3247079Y3325000D02*
X3225000D01*
Y3302921D01*
X3227179Y3303208D01*
X3233869Y3305979D01*
X3239613Y3310387D01*
X3244021Y3316131D01*
X3246792Y3322821D01*
X3247079Y3325000D01*
D02*
G37*
G36*
X3215000D02*
X3192921D01*
X3193208Y3322821D01*
X3195979Y3316131D01*
X3200387Y3310387D01*
X3206131Y3305979D01*
X3212821Y3303208D01*
X3215000Y3302921D01*
Y3325000D01*
D02*
G37*
G36*
X2190837Y3357276D02*
X2182483Y3356176D01*
X2174699Y3352952D01*
X2168015Y3347823D01*
X2162885Y3341138D01*
X2159661Y3333354D01*
X2158561Y3325000D01*
X2159661Y3316646D01*
X2162885Y3308862D01*
X2168015Y3302177D01*
X2174699Y3297048D01*
X2182483Y3293824D01*
X2190837Y3292724D01*
X2199191Y3293824D01*
X2206975Y3297048D01*
X2213660Y3302177D01*
X2218789Y3308862D01*
X2222014Y3316646D01*
X2223113Y3325000D01*
X2222014Y3333354D01*
X2218789Y3341138D01*
X2213660Y3347823D01*
X2206975Y3352952D01*
X2199191Y3356176D01*
X2190837Y3357276D01*
D02*
G37*
G36*
X2705837Y3342276D02*
X2697483Y3341176D01*
X2689699Y3337952D01*
X2683015Y3332823D01*
X2677885Y3326138D01*
X2674661Y3318354D01*
X2673561Y3310000D01*
X2674661Y3301646D01*
X2677885Y3293862D01*
X2683015Y3287177D01*
X2689699Y3282048D01*
X2697483Y3278824D01*
X2705837Y3277724D01*
X2714191Y3278824D01*
X2721975Y3282048D01*
X2728660Y3287177D01*
X2733789Y3293862D01*
X2737014Y3301646D01*
X2738113Y3310000D01*
X2737014Y3318354D01*
X2733789Y3326138D01*
X2728660Y3332823D01*
X2721975Y3337952D01*
X2714191Y3341176D01*
X2705837Y3342276D01*
D02*
G37*
G36*
X8640769Y3258200D02*
X8632185Y3256493D01*
X8624908Y3251630D01*
X8620046Y3244353D01*
X8618338Y3235769D01*
X8620046Y3227185D01*
X8624908Y3219908D01*
X8632185Y3215046D01*
X8640769Y3213338D01*
X8649353Y3215046D01*
X8656630Y3219908D01*
X8661493Y3227185D01*
X8663200Y3235769D01*
X8661493Y3244353D01*
X8656630Y3251630D01*
X8649353Y3256493D01*
X8640769Y3258200D01*
D02*
G37*
G36*
X8340769D02*
X8332185Y3256493D01*
X8324908Y3251630D01*
X8320046Y3244353D01*
X8318338Y3235769D01*
X8320046Y3227185D01*
X8324908Y3219908D01*
X8332185Y3215046D01*
X8340769Y3213338D01*
X8349353Y3215046D01*
X8356630Y3219908D01*
X8361493Y3227185D01*
X8363200Y3235769D01*
X8361493Y3244353D01*
X8356630Y3251630D01*
X8349353Y3256493D01*
X8340769Y3258200D01*
D02*
G37*
G36*
X8045769D02*
X8037185Y3256493D01*
X8029908Y3251630D01*
X8025046Y3244353D01*
X8023338Y3235769D01*
X8025046Y3227185D01*
X8029908Y3219908D01*
X8037185Y3215046D01*
X8045769Y3213338D01*
X8054353Y3215046D01*
X8061630Y3219908D01*
X8066493Y3227185D01*
X8068200Y3235769D01*
X8066493Y3244353D01*
X8061630Y3251630D01*
X8054353Y3256493D01*
X8045769Y3258200D01*
D02*
G37*
G36*
X7745769D02*
X7737185Y3256493D01*
X7729908Y3251630D01*
X7725046Y3244353D01*
X7723338Y3235769D01*
X7725046Y3227185D01*
X7729908Y3219908D01*
X7737185Y3215046D01*
X7745769Y3213338D01*
X7754353Y3215046D01*
X7761630Y3219908D01*
X7766493Y3227185D01*
X7768200Y3235769D01*
X7766493Y3244353D01*
X7761630Y3251630D01*
X7754353Y3256493D01*
X7745769Y3258200D01*
D02*
G37*
G36*
X7440769D02*
X7432185Y3256493D01*
X7424908Y3251630D01*
X7420046Y3244353D01*
X7418338Y3235769D01*
X7420046Y3227185D01*
X7424908Y3219908D01*
X7432185Y3215046D01*
X7440769Y3213338D01*
X7449353Y3215046D01*
X7456630Y3219908D01*
X7461493Y3227185D01*
X7463200Y3235769D01*
X7461493Y3244353D01*
X7456630Y3251630D01*
X7449353Y3256493D01*
X7440769Y3258200D01*
D02*
G37*
G36*
X7140769D02*
X7132185Y3256493D01*
X7124908Y3251630D01*
X7120046Y3244353D01*
X7118338Y3235769D01*
X7120046Y3227185D01*
X7124908Y3219908D01*
X7132185Y3215046D01*
X7140769Y3213338D01*
X7149353Y3215046D01*
X7156630Y3219908D01*
X7161493Y3227185D01*
X7163200Y3235769D01*
X7161493Y3244353D01*
X7156630Y3251630D01*
X7149353Y3256493D01*
X7140769Y3258200D01*
D02*
G37*
G36*
X6845769D02*
X6837185Y3256493D01*
X6829908Y3251630D01*
X6825046Y3244353D01*
X6823338Y3235769D01*
X6825046Y3227185D01*
X6829908Y3219908D01*
X6837185Y3215046D01*
X6845769Y3213338D01*
X6854353Y3215046D01*
X6861630Y3219908D01*
X6866493Y3227185D01*
X6868200Y3235769D01*
X6866493Y3244353D01*
X6861630Y3251630D01*
X6854353Y3256493D01*
X6845769Y3258200D01*
D02*
G37*
G36*
X6540769D02*
X6532185Y3256493D01*
X6524908Y3251630D01*
X6520046Y3244353D01*
X6518338Y3235769D01*
X6520046Y3227185D01*
X6524908Y3219908D01*
X6532185Y3215046D01*
X6540769Y3213338D01*
X6549353Y3215046D01*
X6556630Y3219908D01*
X6561493Y3227185D01*
X6563200Y3235769D01*
X6561493Y3244353D01*
X6556630Y3251630D01*
X6549353Y3256493D01*
X6540769Y3258200D01*
D02*
G37*
G36*
X6245769D02*
X6237185Y3256493D01*
X6229908Y3251630D01*
X6225046Y3244353D01*
X6223338Y3235769D01*
X6225046Y3227185D01*
X6229908Y3219908D01*
X6237185Y3215046D01*
X6245769Y3213338D01*
X6254353Y3215046D01*
X6261630Y3219908D01*
X6266493Y3227185D01*
X6268200Y3235769D01*
X6266493Y3244353D01*
X6261630Y3251630D01*
X6254353Y3256493D01*
X6245769Y3258200D01*
D02*
G37*
G36*
X5940769D02*
X5932185Y3256493D01*
X5924908Y3251630D01*
X5920046Y3244353D01*
X5918338Y3235769D01*
X5920046Y3227185D01*
X5924908Y3219908D01*
X5932185Y3215046D01*
X5940769Y3213338D01*
X5949353Y3215046D01*
X5956630Y3219908D01*
X5961493Y3227185D01*
X5963200Y3235769D01*
X5961493Y3244353D01*
X5956630Y3251630D01*
X5949353Y3256493D01*
X5940769Y3258200D01*
D02*
G37*
G36*
X5645769D02*
X5637185Y3256493D01*
X5629908Y3251630D01*
X5625046Y3244353D01*
X5623338Y3235769D01*
X5625046Y3227185D01*
X5629908Y3219908D01*
X5637185Y3215046D01*
X5645769Y3213338D01*
X5654353Y3215046D01*
X5661630Y3219908D01*
X5666493Y3227185D01*
X5668200Y3235769D01*
X5666493Y3244353D01*
X5661630Y3251630D01*
X5654353Y3256493D01*
X5645769Y3258200D01*
D02*
G37*
G36*
X5340769D02*
X5332185Y3256493D01*
X5324908Y3251630D01*
X5320046Y3244353D01*
X5318338Y3235769D01*
X5320046Y3227185D01*
X5324908Y3219908D01*
X5332185Y3215046D01*
X5340769Y3213338D01*
X5349353Y3215046D01*
X5356630Y3219908D01*
X5361493Y3227185D01*
X5363200Y3235769D01*
X5361493Y3244353D01*
X5356630Y3251630D01*
X5349353Y3256493D01*
X5340769Y3258200D01*
D02*
G37*
G36*
X5045769D02*
X5037185Y3256493D01*
X5029908Y3251630D01*
X5025046Y3244353D01*
X5023338Y3235769D01*
X5025046Y3227185D01*
X5029908Y3219908D01*
X5037185Y3215046D01*
X5045769Y3213338D01*
X5054353Y3215046D01*
X5061630Y3219908D01*
X5066493Y3227185D01*
X5068200Y3235769D01*
X5066493Y3244353D01*
X5061630Y3251630D01*
X5054353Y3256493D01*
X5045769Y3258200D01*
D02*
G37*
G36*
X4735769D02*
X4727185Y3256493D01*
X4719908Y3251630D01*
X4715046Y3244353D01*
X4713338Y3235769D01*
X4715046Y3227185D01*
X4719908Y3219908D01*
X4727185Y3215046D01*
X4735769Y3213338D01*
X4744353Y3215046D01*
X4751630Y3219908D01*
X4756493Y3227185D01*
X4758200Y3235769D01*
X4756493Y3244353D01*
X4751630Y3251630D01*
X4744353Y3256493D01*
X4735769Y3258200D01*
D02*
G37*
G36*
X4440769D02*
X4432185Y3256493D01*
X4424908Y3251630D01*
X4420046Y3244353D01*
X4418338Y3235769D01*
X4420046Y3227185D01*
X4424908Y3219908D01*
X4432185Y3215046D01*
X4440769Y3213338D01*
X4449353Y3215046D01*
X4456630Y3219908D01*
X4461493Y3227185D01*
X4463200Y3235769D01*
X4461493Y3244353D01*
X4456630Y3251630D01*
X4449353Y3256493D01*
X4440769Y3258200D01*
D02*
G37*
G36*
X1880837Y3205201D02*
X1871193Y3203282D01*
X1863018Y3197820D01*
X1857555Y3189644D01*
X1855637Y3180000D01*
X1857555Y3170356D01*
X1863018Y3162180D01*
X1871193Y3156718D01*
X1880837Y3154799D01*
X1890481Y3156718D01*
X1898657Y3162180D01*
X1904120Y3170356D01*
X1906038Y3180000D01*
X1904120Y3189644D01*
X1898657Y3197820D01*
X1890481Y3203282D01*
X1880837Y3205201D01*
D02*
G37*
G36*
X2835409Y3155615D02*
Y3133536D01*
X2857488D01*
X2857202Y3135715D01*
X2854431Y3142405D01*
X2850023Y3148149D01*
X2844278Y3152557D01*
X2837588Y3155328D01*
X2835409Y3155615D01*
D02*
G37*
G36*
X2825409D02*
X2823231Y3155328D01*
X2816541Y3152557D01*
X2810796Y3148149D01*
X2806388Y3142405D01*
X2803617Y3135715D01*
X2803330Y3133536D01*
X2825409D01*
Y3155615D01*
D02*
G37*
G36*
X2857488Y3123536D02*
X2835409D01*
Y3101457D01*
X2837588Y3101744D01*
X2844278Y3104515D01*
X2850023Y3108923D01*
X2854431Y3114667D01*
X2857202Y3121357D01*
X2857488Y3123536D01*
D02*
G37*
G36*
X2825409D02*
X2803330D01*
X2803617Y3121357D01*
X2806388Y3114667D01*
X2810796Y3108923D01*
X2816541Y3104515D01*
X2823231Y3101744D01*
X2825409Y3101457D01*
Y3123536D01*
D02*
G37*
G36*
X2480837Y3102394D02*
Y3080315D01*
X2502916D01*
X2502629Y3082494D01*
X2499858Y3089184D01*
X2495450Y3094928D01*
X2489706Y3099336D01*
X2483016Y3102107D01*
X2480837Y3102394D01*
D02*
G37*
G36*
X2470837D02*
X2468658Y3102107D01*
X2461969Y3099336D01*
X2456224Y3094928D01*
X2451816Y3089184D01*
X2449045Y3082494D01*
X2448758Y3080315D01*
X2470837D01*
Y3102394D01*
D02*
G37*
G36*
X2110837Y3079644D02*
Y3050000D01*
X2140481D01*
X2139936Y3054137D01*
X2136410Y3062651D01*
X2130800Y3069962D01*
X2123488Y3075572D01*
X2114974Y3079099D01*
X2110837Y3079644D01*
D02*
G37*
G36*
X2100837D02*
X2096700Y3079099D01*
X2088186Y3075572D01*
X2080875Y3069962D01*
X2075265Y3062651D01*
X2071738Y3054137D01*
X2071193Y3050000D01*
X2100837D01*
Y3079644D01*
D02*
G37*
G36*
X2502916Y3070315D02*
X2480837D01*
Y3048236D01*
X2483016Y3048523D01*
X2489706Y3051294D01*
X2495450Y3055702D01*
X2499858Y3061446D01*
X2502629Y3068136D01*
X2502916Y3070315D01*
D02*
G37*
G36*
X2470837D02*
X2448758D01*
X2449045Y3068136D01*
X2451816Y3061446D01*
X2456224Y3055702D01*
X2461969Y3051294D01*
X2468658Y3048523D01*
X2470837Y3048236D01*
Y3070315D01*
D02*
G37*
G36*
X3235000Y3074980D02*
X3225441Y3073079D01*
X3217336Y3067664D01*
X3211921Y3059559D01*
X3210020Y3050000D01*
X3211921Y3040441D01*
X3217336Y3032336D01*
X3225441Y3026921D01*
X3235000Y3025020D01*
X3244559Y3026921D01*
X3252664Y3032336D01*
X3258079Y3040441D01*
X3259980Y3050000D01*
X3258079Y3059559D01*
X3252664Y3067664D01*
X3244559Y3073079D01*
X3235000Y3074980D01*
D02*
G37*
G36*
X2140481Y3040000D02*
X2110837D01*
Y3010356D01*
X2114974Y3010901D01*
X2123488Y3014428D01*
X2130800Y3020038D01*
X2136410Y3027349D01*
X2139936Y3035863D01*
X2140481Y3040000D01*
D02*
G37*
G36*
X2100837D02*
X2071193D01*
X2071738Y3035863D01*
X2075265Y3027349D01*
X2080875Y3020038D01*
X2088186Y3014428D01*
X2096700Y3010901D01*
X2100837Y3010356D01*
Y3040000D01*
D02*
G37*
G36*
X8640769Y3053200D02*
X8632185Y3051493D01*
X8624908Y3046630D01*
X8620046Y3039353D01*
X8618338Y3030769D01*
X8620046Y3022185D01*
X8624908Y3014908D01*
X8632185Y3010046D01*
X8640769Y3008338D01*
X8649353Y3010046D01*
X8656630Y3014908D01*
X8661493Y3022185D01*
X8663200Y3030769D01*
X8661493Y3039353D01*
X8656630Y3046630D01*
X8649353Y3051493D01*
X8640769Y3053200D01*
D02*
G37*
G36*
X8340769D02*
X8332185Y3051493D01*
X8324908Y3046630D01*
X8320046Y3039353D01*
X8318338Y3030769D01*
X8320046Y3022185D01*
X8324908Y3014908D01*
X8332185Y3010046D01*
X8340769Y3008338D01*
X8349353Y3010046D01*
X8356630Y3014908D01*
X8361493Y3022185D01*
X8363200Y3030769D01*
X8361493Y3039353D01*
X8356630Y3046630D01*
X8349353Y3051493D01*
X8340769Y3053200D01*
D02*
G37*
G36*
X8030769D02*
X8022185Y3051493D01*
X8014908Y3046630D01*
X8010046Y3039353D01*
X8008338Y3030769D01*
X8010046Y3022185D01*
X8014908Y3014908D01*
X8022185Y3010046D01*
X8030769Y3008338D01*
X8039353Y3010046D01*
X8046630Y3014908D01*
X8051493Y3022185D01*
X8053200Y3030769D01*
X8051493Y3039353D01*
X8046630Y3046630D01*
X8039353Y3051493D01*
X8030769Y3053200D01*
D02*
G37*
G36*
X7735769D02*
X7727185Y3051493D01*
X7719908Y3046630D01*
X7715046Y3039353D01*
X7713338Y3030769D01*
X7715046Y3022185D01*
X7719908Y3014908D01*
X7727185Y3010046D01*
X7735769Y3008338D01*
X7744353Y3010046D01*
X7751630Y3014908D01*
X7756493Y3022185D01*
X7758200Y3030769D01*
X7756493Y3039353D01*
X7751630Y3046630D01*
X7744353Y3051493D01*
X7735769Y3053200D01*
D02*
G37*
G36*
X7440769D02*
X7432185Y3051493D01*
X7424908Y3046630D01*
X7420046Y3039353D01*
X7418338Y3030769D01*
X7420046Y3022185D01*
X7424908Y3014908D01*
X7432185Y3010046D01*
X7440769Y3008338D01*
X7449353Y3010046D01*
X7456630Y3014908D01*
X7461493Y3022185D01*
X7463200Y3030769D01*
X7461493Y3039353D01*
X7456630Y3046630D01*
X7449353Y3051493D01*
X7440769Y3053200D01*
D02*
G37*
G36*
X7130769D02*
X7122185Y3051493D01*
X7114908Y3046630D01*
X7110046Y3039353D01*
X7108338Y3030769D01*
X7110046Y3022185D01*
X7114908Y3014908D01*
X7122185Y3010046D01*
X7130769Y3008338D01*
X7139353Y3010046D01*
X7146630Y3014908D01*
X7151493Y3022185D01*
X7153200Y3030769D01*
X7151493Y3039353D01*
X7146630Y3046630D01*
X7139353Y3051493D01*
X7130769Y3053200D01*
D02*
G37*
G36*
X6835769D02*
X6827185Y3051493D01*
X6819908Y3046630D01*
X6815046Y3039353D01*
X6813338Y3030769D01*
X6815046Y3022185D01*
X6819908Y3014908D01*
X6827185Y3010046D01*
X6835769Y3008338D01*
X6844353Y3010046D01*
X6851630Y3014908D01*
X6856493Y3022185D01*
X6858200Y3030769D01*
X6856493Y3039353D01*
X6851630Y3046630D01*
X6844353Y3051493D01*
X6835769Y3053200D01*
D02*
G37*
G36*
X6535769D02*
X6527185Y3051493D01*
X6519908Y3046630D01*
X6515046Y3039353D01*
X6513338Y3030769D01*
X6515046Y3022185D01*
X6519908Y3014908D01*
X6527185Y3010046D01*
X6535769Y3008338D01*
X6544353Y3010046D01*
X6551630Y3014908D01*
X6556493Y3022185D01*
X6558200Y3030769D01*
X6556493Y3039353D01*
X6551630Y3046630D01*
X6544353Y3051493D01*
X6535769Y3053200D01*
D02*
G37*
G36*
X6230769D02*
X6222185Y3051493D01*
X6214908Y3046630D01*
X6210046Y3039353D01*
X6208338Y3030769D01*
X6210046Y3022185D01*
X6214908Y3014908D01*
X6222185Y3010046D01*
X6230769Y3008338D01*
X6239353Y3010046D01*
X6246630Y3014908D01*
X6251493Y3022185D01*
X6253200Y3030769D01*
X6251493Y3039353D01*
X6246630Y3046630D01*
X6239353Y3051493D01*
X6230769Y3053200D01*
D02*
G37*
G36*
X5940769D02*
X5932185Y3051493D01*
X5924908Y3046630D01*
X5920046Y3039353D01*
X5918338Y3030769D01*
X5920046Y3022185D01*
X5924908Y3014908D01*
X5932185Y3010046D01*
X5940769Y3008338D01*
X5949353Y3010046D01*
X5956630Y3014908D01*
X5961493Y3022185D01*
X5963200Y3030769D01*
X5961493Y3039353D01*
X5956630Y3046630D01*
X5949353Y3051493D01*
X5940769Y3053200D01*
D02*
G37*
G36*
X5640769D02*
X5632185Y3051493D01*
X5624908Y3046630D01*
X5620046Y3039353D01*
X5618338Y3030769D01*
X5620046Y3022185D01*
X5624908Y3014908D01*
X5632185Y3010046D01*
X5640769Y3008338D01*
X5649353Y3010046D01*
X5656630Y3014908D01*
X5661493Y3022185D01*
X5663200Y3030769D01*
X5661493Y3039353D01*
X5656630Y3046630D01*
X5649353Y3051493D01*
X5640769Y3053200D01*
D02*
G37*
G36*
X5335769D02*
X5327185Y3051493D01*
X5319908Y3046630D01*
X5315046Y3039353D01*
X5313338Y3030769D01*
X5315046Y3022185D01*
X5319908Y3014908D01*
X5327185Y3010046D01*
X5335769Y3008338D01*
X5344353Y3010046D01*
X5351630Y3014908D01*
X5356493Y3022185D01*
X5358200Y3030769D01*
X5356493Y3039353D01*
X5351630Y3046630D01*
X5344353Y3051493D01*
X5335769Y3053200D01*
D02*
G37*
G36*
X5040769D02*
X5032185Y3051493D01*
X5024908Y3046630D01*
X5020046Y3039353D01*
X5018338Y3030769D01*
X5020046Y3022185D01*
X5024908Y3014908D01*
X5032185Y3010046D01*
X5040769Y3008338D01*
X5049353Y3010046D01*
X5056630Y3014908D01*
X5061493Y3022185D01*
X5063200Y3030769D01*
X5061493Y3039353D01*
X5056630Y3046630D01*
X5049353Y3051493D01*
X5040769Y3053200D01*
D02*
G37*
G36*
X4740769D02*
X4732185Y3051493D01*
X4724908Y3046630D01*
X4720046Y3039353D01*
X4718338Y3030769D01*
X4720046Y3022185D01*
X4724908Y3014908D01*
X4732185Y3010046D01*
X4740769Y3008338D01*
X4749353Y3010046D01*
X4756630Y3014908D01*
X4761493Y3022185D01*
X4763200Y3030769D01*
X4761493Y3039353D01*
X4756630Y3046630D01*
X4749353Y3051493D01*
X4740769Y3053200D01*
D02*
G37*
G36*
X4440769D02*
X4432185Y3051493D01*
X4424908Y3046630D01*
X4420046Y3039353D01*
X4418338Y3030769D01*
X4420046Y3022185D01*
X4424908Y3014908D01*
X4432185Y3010046D01*
X4440769Y3008338D01*
X4449353Y3010046D01*
X4456630Y3014908D01*
X4461493Y3022185D01*
X4463200Y3030769D01*
X4461493Y3039353D01*
X4456630Y3046630D01*
X4449353Y3051493D01*
X4440769Y3053200D01*
D02*
G37*
G36*
X3540000Y3044980D02*
X3530441Y3043079D01*
X3522336Y3037664D01*
X3516921Y3029559D01*
X3515020Y3020000D01*
X3516921Y3010441D01*
X3522336Y3002336D01*
X3530441Y2996921D01*
X3540000Y2995020D01*
X3549559Y2996921D01*
X3557664Y3002336D01*
X3563079Y3010441D01*
X3564980Y3020000D01*
X3563079Y3029559D01*
X3557664Y3037664D01*
X3549559Y3043079D01*
X3540000Y3044980D01*
D02*
G37*
G36*
X1880837Y3031973D02*
X1871193Y3030054D01*
X1863018Y3024592D01*
X1857555Y3016416D01*
X1855637Y3006772D01*
X1857555Y2997128D01*
X1863018Y2988952D01*
X1871193Y2983490D01*
X1880837Y2981571D01*
X1890481Y2983490D01*
X1898657Y2988952D01*
X1904120Y2997128D01*
X1906038Y3006772D01*
X1904120Y3016416D01*
X1898657Y3024592D01*
X1890481Y3030054D01*
X1880837Y3031973D01*
D02*
G37*
G36*
X2625837Y3004980D02*
X2616278Y3003079D01*
X2608174Y2997664D01*
X2602759Y2989559D01*
X2600857Y2980000D01*
X2602759Y2970441D01*
X2608174Y2962336D01*
X2616278Y2956921D01*
X2625837Y2955020D01*
X2635397Y2956921D01*
X2643501Y2962336D01*
X2648916Y2970441D01*
X2650817Y2980000D01*
X2648916Y2989559D01*
X2643501Y2997664D01*
X2635397Y3003079D01*
X2625837Y3004980D01*
D02*
G37*
G36*
X2050837Y3017276D02*
X2042484Y3016176D01*
X2034699Y3012952D01*
X2028015Y3007823D01*
X2022885Y3001138D01*
X2019661Y2993354D01*
X2018561Y2985000D01*
X2019661Y2976646D01*
X2022885Y2968862D01*
X2028015Y2962177D01*
X2034699Y2957048D01*
X2042484Y2953824D01*
X2050837Y2952724D01*
X2059191Y2953824D01*
X2066975Y2957048D01*
X2073660Y2962177D01*
X2078789Y2968862D01*
X2082014Y2976646D01*
X2083113Y2985000D01*
X2082014Y2993354D01*
X2078789Y3001138D01*
X2073660Y3007823D01*
X2066975Y3012952D01*
X2059191Y3016176D01*
X2050837Y3017276D01*
D02*
G37*
G36*
X2720837Y2912079D02*
Y2890000D01*
X2742916D01*
X2742629Y2892179D01*
X2739858Y2898869D01*
X2735450Y2904613D01*
X2729706Y2909021D01*
X2723016Y2911792D01*
X2720837Y2912079D01*
D02*
G37*
G36*
X2710837D02*
X2708658Y2911792D01*
X2701969Y2909021D01*
X2696224Y2904613D01*
X2691816Y2898869D01*
X2689045Y2892179D01*
X2688758Y2890000D01*
X2710837D01*
Y2912079D01*
D02*
G37*
G36*
X3720000Y2929980D02*
X3710441Y2928079D01*
X3702336Y2922664D01*
X3696921Y2914559D01*
X3695020Y2905000D01*
X3696921Y2895441D01*
X3702336Y2887336D01*
X3710441Y2881921D01*
X3720000Y2880020D01*
X3729559Y2881921D01*
X3737664Y2887336D01*
X3743079Y2895441D01*
X3744980Y2905000D01*
X3743079Y2914559D01*
X3737664Y2922664D01*
X3729559Y2928079D01*
X3720000Y2929980D01*
D02*
G37*
G36*
X3225000Y2897079D02*
Y2875000D01*
X3247079D01*
X3246792Y2877179D01*
X3244021Y2883869D01*
X3239613Y2889613D01*
X3233869Y2894021D01*
X3227179Y2896792D01*
X3225000Y2897079D01*
D02*
G37*
G36*
X3215000D02*
X3212821Y2896792D01*
X3206131Y2894021D01*
X3200387Y2889613D01*
X3195979Y2883869D01*
X3193208Y2877179D01*
X3192921Y2875000D01*
X3215000D01*
Y2897079D01*
D02*
G37*
G36*
X2742916Y2880000D02*
X2720837D01*
Y2857921D01*
X2723016Y2858208D01*
X2729706Y2860979D01*
X2735450Y2865387D01*
X2739858Y2871131D01*
X2742629Y2877821D01*
X2742916Y2880000D01*
D02*
G37*
G36*
X2710837D02*
X2688758D01*
X2689045Y2877821D01*
X2691816Y2871131D01*
X2696224Y2865387D01*
X2701969Y2860979D01*
X2708658Y2858208D01*
X2710837Y2857921D01*
Y2880000D01*
D02*
G37*
G36*
X2175837Y2904980D02*
X2166278Y2903079D01*
X2158174Y2897664D01*
X2152759Y2889559D01*
X2150857Y2880000D01*
X2152759Y2870441D01*
X2158174Y2862336D01*
X2166278Y2856921D01*
X2175837Y2855020D01*
X2185397Y2856921D01*
X2193501Y2862336D01*
X2198916Y2870441D01*
X2200817Y2880000D01*
X2198916Y2889559D01*
X2193501Y2897664D01*
X2185397Y2903079D01*
X2175837Y2904980D01*
D02*
G37*
G36*
X3247079Y2865000D02*
X3225000D01*
Y2842921D01*
X3227179Y2843208D01*
X3233869Y2845979D01*
X3239613Y2850387D01*
X3244021Y2856131D01*
X3246792Y2862821D01*
X3247079Y2865000D01*
D02*
G37*
G36*
X3215000D02*
X3192921D01*
X3193208Y2862821D01*
X3195979Y2856131D01*
X3200387Y2850387D01*
X3206131Y2845979D01*
X3212821Y2843208D01*
X3215000Y2842921D01*
Y2865000D01*
D02*
G37*
G36*
X8645769Y2858200D02*
X8637185Y2856493D01*
X8629908Y2851630D01*
X8625046Y2844353D01*
X8623338Y2835769D01*
X8625046Y2827185D01*
X8629908Y2819908D01*
X8637185Y2815046D01*
X8645769Y2813338D01*
X8654353Y2815046D01*
X8661630Y2819908D01*
X8666493Y2827185D01*
X8668200Y2835769D01*
X8666493Y2844353D01*
X8661630Y2851630D01*
X8654353Y2856493D01*
X8645769Y2858200D01*
D02*
G37*
G36*
X8335769D02*
X8327185Y2856493D01*
X8319908Y2851630D01*
X8315046Y2844353D01*
X8313338Y2835769D01*
X8315046Y2827185D01*
X8319908Y2819908D01*
X8327185Y2815046D01*
X8335769Y2813338D01*
X8344353Y2815046D01*
X8351630Y2819908D01*
X8356493Y2827185D01*
X8358200Y2835769D01*
X8356493Y2844353D01*
X8351630Y2851630D01*
X8344353Y2856493D01*
X8335769Y2858200D01*
D02*
G37*
G36*
X8040769D02*
X8032185Y2856493D01*
X8024908Y2851630D01*
X8020046Y2844353D01*
X8018338Y2835769D01*
X8020046Y2827185D01*
X8024908Y2819908D01*
X8032185Y2815046D01*
X8040769Y2813338D01*
X8049353Y2815046D01*
X8056630Y2819908D01*
X8061493Y2827185D01*
X8063200Y2835769D01*
X8061493Y2844353D01*
X8056630Y2851630D01*
X8049353Y2856493D01*
X8040769Y2858200D01*
D02*
G37*
G36*
X7745769D02*
X7737185Y2856493D01*
X7729908Y2851630D01*
X7725046Y2844353D01*
X7723338Y2835769D01*
X7725046Y2827185D01*
X7729908Y2819908D01*
X7737185Y2815046D01*
X7745769Y2813338D01*
X7754353Y2815046D01*
X7761630Y2819908D01*
X7766493Y2827185D01*
X7768200Y2835769D01*
X7766493Y2844353D01*
X7761630Y2851630D01*
X7754353Y2856493D01*
X7745769Y2858200D01*
D02*
G37*
G36*
X7445769D02*
X7437185Y2856493D01*
X7429908Y2851630D01*
X7425046Y2844353D01*
X7423338Y2835769D01*
X7425046Y2827185D01*
X7429908Y2819908D01*
X7437185Y2815046D01*
X7445769Y2813338D01*
X7454353Y2815046D01*
X7461630Y2819908D01*
X7466493Y2827185D01*
X7468200Y2835769D01*
X7466493Y2844353D01*
X7461630Y2851630D01*
X7454353Y2856493D01*
X7445769Y2858200D01*
D02*
G37*
G36*
X7135769D02*
X7127185Y2856493D01*
X7119908Y2851630D01*
X7115046Y2844353D01*
X7113338Y2835769D01*
X7115046Y2827185D01*
X7119908Y2819908D01*
X7127185Y2815046D01*
X7135769Y2813338D01*
X7144353Y2815046D01*
X7151630Y2819908D01*
X7156493Y2827185D01*
X7158200Y2835769D01*
X7156493Y2844353D01*
X7151630Y2851630D01*
X7144353Y2856493D01*
X7135769Y2858200D01*
D02*
G37*
G36*
X6840769D02*
X6832185Y2856493D01*
X6824908Y2851630D01*
X6820046Y2844353D01*
X6818338Y2835769D01*
X6820046Y2827185D01*
X6824908Y2819908D01*
X6832185Y2815046D01*
X6840769Y2813338D01*
X6849353Y2815046D01*
X6856630Y2819908D01*
X6861493Y2827185D01*
X6863200Y2835769D01*
X6861493Y2844353D01*
X6856630Y2851630D01*
X6849353Y2856493D01*
X6840769Y2858200D01*
D02*
G37*
G36*
X6545769D02*
X6537185Y2856493D01*
X6529908Y2851630D01*
X6525046Y2844353D01*
X6523338Y2835769D01*
X6525046Y2827185D01*
X6529908Y2819908D01*
X6537185Y2815046D01*
X6545769Y2813338D01*
X6554353Y2815046D01*
X6561630Y2819908D01*
X6566493Y2827185D01*
X6568200Y2835769D01*
X6566493Y2844353D01*
X6561630Y2851630D01*
X6554353Y2856493D01*
X6545769Y2858200D01*
D02*
G37*
G36*
X6240769D02*
X6232185Y2856493D01*
X6224908Y2851630D01*
X6220046Y2844353D01*
X6218338Y2835769D01*
X6220046Y2827185D01*
X6224908Y2819908D01*
X6232185Y2815046D01*
X6240769Y2813338D01*
X6249353Y2815046D01*
X6256630Y2819908D01*
X6261493Y2827185D01*
X6263200Y2835769D01*
X6261493Y2844353D01*
X6256630Y2851630D01*
X6249353Y2856493D01*
X6240769Y2858200D01*
D02*
G37*
G36*
X5940769D02*
X5932185Y2856493D01*
X5924908Y2851630D01*
X5920046Y2844353D01*
X5918338Y2835769D01*
X5920046Y2827185D01*
X5924908Y2819908D01*
X5932185Y2815046D01*
X5940769Y2813338D01*
X5949353Y2815046D01*
X5956630Y2819908D01*
X5961493Y2827185D01*
X5963200Y2835769D01*
X5961493Y2844353D01*
X5956630Y2851630D01*
X5949353Y2856493D01*
X5940769Y2858200D01*
D02*
G37*
G36*
X5645769D02*
X5637185Y2856493D01*
X5629908Y2851630D01*
X5625046Y2844353D01*
X5623338Y2835769D01*
X5625046Y2827185D01*
X5629908Y2819908D01*
X5637185Y2815046D01*
X5645769Y2813338D01*
X5654353Y2815046D01*
X5661630Y2819908D01*
X5666493Y2827185D01*
X5668200Y2835769D01*
X5666493Y2844353D01*
X5661630Y2851630D01*
X5654353Y2856493D01*
X5645769Y2858200D01*
D02*
G37*
G36*
X5345769D02*
X5337185Y2856493D01*
X5329908Y2851630D01*
X5325046Y2844353D01*
X5323338Y2835769D01*
X5325046Y2827185D01*
X5329908Y2819908D01*
X5337185Y2815046D01*
X5345769Y2813338D01*
X5354353Y2815046D01*
X5361630Y2819908D01*
X5366493Y2827185D01*
X5368200Y2835769D01*
X5366493Y2844353D01*
X5361630Y2851630D01*
X5354353Y2856493D01*
X5345769Y2858200D01*
D02*
G37*
G36*
X5045769D02*
X5037185Y2856493D01*
X5029908Y2851630D01*
X5025046Y2844353D01*
X5023338Y2835769D01*
X5025046Y2827185D01*
X5029908Y2819908D01*
X5037185Y2815046D01*
X5045769Y2813338D01*
X5054353Y2815046D01*
X5061630Y2819908D01*
X5066493Y2827185D01*
X5068200Y2835769D01*
X5066493Y2844353D01*
X5061630Y2851630D01*
X5054353Y2856493D01*
X5045769Y2858200D01*
D02*
G37*
G36*
X4745769D02*
X4737185Y2856493D01*
X4729908Y2851630D01*
X4725046Y2844353D01*
X4723338Y2835769D01*
X4725046Y2827185D01*
X4729908Y2819908D01*
X4737185Y2815046D01*
X4745769Y2813338D01*
X4754353Y2815046D01*
X4761630Y2819908D01*
X4766493Y2827185D01*
X4768200Y2835769D01*
X4766493Y2844353D01*
X4761630Y2851630D01*
X4754353Y2856493D01*
X4745769Y2858200D01*
D02*
G37*
G36*
X4445769D02*
X4437185Y2856493D01*
X4429908Y2851630D01*
X4425046Y2844353D01*
X4423338Y2835769D01*
X4425046Y2827185D01*
X4429908Y2819908D01*
X4437185Y2815046D01*
X4445769Y2813338D01*
X4454353Y2815046D01*
X4461630Y2819908D01*
X4466493Y2827185D01*
X4468200Y2835769D01*
X4466493Y2844353D01*
X4461630Y2851630D01*
X4454353Y2856493D01*
X4445769Y2858200D01*
D02*
G37*
G36*
X3625000Y2807079D02*
Y2785000D01*
X3647079D01*
X3646792Y2787179D01*
X3644021Y2793869D01*
X3639613Y2799613D01*
X3633869Y2804021D01*
X3627179Y2806792D01*
X3625000Y2807079D01*
D02*
G37*
G36*
X3615000D02*
X3612821Y2806792D01*
X3606131Y2804021D01*
X3600387Y2799613D01*
X3595979Y2793869D01*
X3593208Y2787179D01*
X3592921Y2785000D01*
X3615000D01*
Y2807079D01*
D02*
G37*
G36*
X3830000Y2819480D02*
X3820441Y2817579D01*
X3812336Y2812164D01*
X3806921Y2804059D01*
X3805020Y2794500D01*
X3806921Y2784941D01*
X3812336Y2776836D01*
X3820441Y2771421D01*
X3830000Y2769520D01*
X3839559Y2771421D01*
X3847664Y2776836D01*
X3853079Y2784941D01*
X3854980Y2794500D01*
X3853079Y2804059D01*
X3847664Y2812164D01*
X3839559Y2817579D01*
X3830000Y2819480D01*
D02*
G37*
G36*
X2620837Y2814980D02*
X2611278Y2813079D01*
X2603174Y2807664D01*
X2597759Y2799559D01*
X2595857Y2790000D01*
X2597759Y2780441D01*
X2603174Y2772336D01*
X2611278Y2766921D01*
X2620837Y2765020D01*
X2630397Y2766921D01*
X2638501Y2772336D01*
X2643916Y2780441D01*
X2645817Y2790000D01*
X2643916Y2799559D01*
X2638501Y2807664D01*
X2630397Y2813079D01*
X2620837Y2814980D01*
D02*
G37*
G36*
X3555000Y2809980D02*
X3545441Y2808079D01*
X3537336Y2802664D01*
X3531921Y2794559D01*
X3530020Y2785000D01*
X3531921Y2775441D01*
X3537336Y2767336D01*
X3545441Y2761921D01*
X3555000Y2760020D01*
X3564559Y2761921D01*
X3572664Y2767336D01*
X3578079Y2775441D01*
X3579980Y2785000D01*
X3578079Y2794559D01*
X3572664Y2802664D01*
X3564559Y2808079D01*
X3555000Y2809980D01*
D02*
G37*
G36*
X3647079Y2775000D02*
X3625000D01*
Y2752921D01*
X3627179Y2753208D01*
X3633869Y2755979D01*
X3639613Y2760387D01*
X3644021Y2766131D01*
X3646792Y2772821D01*
X3647079Y2775000D01*
D02*
G37*
G36*
X3615000D02*
X3592921D01*
X3593208Y2772821D01*
X3595979Y2766131D01*
X3600387Y2760387D01*
X3606131Y2755979D01*
X3612821Y2753208D01*
X3615000Y2752921D01*
Y2775000D01*
D02*
G37*
G36*
X3485000Y2799980D02*
X3475441Y2798079D01*
X3467336Y2792664D01*
X3461921Y2784559D01*
X3460020Y2775000D01*
X3461921Y2765441D01*
X3467336Y2757336D01*
X3475441Y2751921D01*
X3485000Y2750020D01*
X3494559Y2751921D01*
X3502664Y2757336D01*
X3508079Y2765441D01*
X3509980Y2775000D01*
X3508079Y2784559D01*
X3502664Y2792664D01*
X3494559Y2798079D01*
X3485000Y2799980D01*
D02*
G37*
G36*
X3220000D02*
X3210441Y2798079D01*
X3202336Y2792664D01*
X3196921Y2784559D01*
X3195020Y2775000D01*
X3196921Y2765441D01*
X3202336Y2757336D01*
X3210441Y2751921D01*
X3220000Y2750020D01*
X3229559Y2751921D01*
X3237664Y2757336D01*
X3243079Y2765441D01*
X3244980Y2775000D01*
X3243079Y2784559D01*
X3237664Y2792664D01*
X3229559Y2798079D01*
X3220000Y2799980D01*
D02*
G37*
G36*
X3695000Y2794980D02*
X3685441Y2793079D01*
X3677336Y2787664D01*
X3671921Y2779559D01*
X3670020Y2770000D01*
X3671921Y2760441D01*
X3677336Y2752336D01*
X3685441Y2746921D01*
X3695000Y2745020D01*
X3704559Y2746921D01*
X3712664Y2752336D01*
X3718079Y2760441D01*
X3719980Y2770000D01*
X3718079Y2779559D01*
X3712664Y2787664D01*
X3704559Y2793079D01*
X3695000Y2794980D01*
D02*
G37*
G36*
X3742347Y2767327D02*
X3732788Y2765426D01*
X3724684Y2760011D01*
X3719269Y2751907D01*
X3717367Y2742347D01*
X3719269Y2732788D01*
X3724684Y2724684D01*
X3732788Y2719269D01*
X3742347Y2717367D01*
X3751907Y2719269D01*
X3760011Y2724684D01*
X3765426Y2732788D01*
X3767327Y2742347D01*
X3765426Y2751907D01*
X3760011Y2760011D01*
X3751907Y2765426D01*
X3742347Y2767327D01*
D02*
G37*
G36*
X2265000Y2734980D02*
X2255441Y2733079D01*
X2247336Y2727664D01*
X2241921Y2719559D01*
X2240020Y2710000D01*
X2241921Y2700441D01*
X2247336Y2692336D01*
X2255441Y2686921D01*
X2265000Y2685020D01*
X2274559Y2686921D01*
X2282664Y2692336D01*
X2288079Y2700441D01*
X2289980Y2710000D01*
X2288079Y2719559D01*
X2282664Y2727664D01*
X2274559Y2733079D01*
X2265000Y2734980D01*
D02*
G37*
G36*
X8650769Y2663200D02*
X8642185Y2661493D01*
X8634908Y2656630D01*
X8630046Y2649353D01*
X8628338Y2640769D01*
X8630046Y2632185D01*
X8634908Y2624908D01*
X8642185Y2620046D01*
X8650769Y2618338D01*
X8659353Y2620046D01*
X8666630Y2624908D01*
X8671493Y2632185D01*
X8673200Y2640769D01*
X8671493Y2649353D01*
X8666630Y2656630D01*
X8659353Y2661493D01*
X8650769Y2663200D01*
D02*
G37*
G36*
X8350769D02*
X8342185Y2661493D01*
X8334908Y2656630D01*
X8330046Y2649353D01*
X8328338Y2640769D01*
X8330046Y2632185D01*
X8334908Y2624908D01*
X8342185Y2620046D01*
X8350769Y2618338D01*
X8359353Y2620046D01*
X8366630Y2624908D01*
X8371493Y2632185D01*
X8373200Y2640769D01*
X8371493Y2649353D01*
X8366630Y2656630D01*
X8359353Y2661493D01*
X8350769Y2663200D01*
D02*
G37*
G36*
X8045769D02*
X8037185Y2661493D01*
X8029908Y2656630D01*
X8025046Y2649353D01*
X8023338Y2640769D01*
X8025046Y2632185D01*
X8029908Y2624908D01*
X8037185Y2620046D01*
X8045769Y2618338D01*
X8054353Y2620046D01*
X8061630Y2624908D01*
X8066493Y2632185D01*
X8068200Y2640769D01*
X8066493Y2649353D01*
X8061630Y2656630D01*
X8054353Y2661493D01*
X8045769Y2663200D01*
D02*
G37*
G36*
X7745769D02*
X7737185Y2661493D01*
X7729908Y2656630D01*
X7725046Y2649353D01*
X7723338Y2640769D01*
X7725046Y2632185D01*
X7729908Y2624908D01*
X7737185Y2620046D01*
X7745769Y2618338D01*
X7754353Y2620046D01*
X7761630Y2624908D01*
X7766493Y2632185D01*
X7768200Y2640769D01*
X7766493Y2649353D01*
X7761630Y2656630D01*
X7754353Y2661493D01*
X7745769Y2663200D01*
D02*
G37*
G36*
X7445769D02*
X7437185Y2661493D01*
X7429908Y2656630D01*
X7425046Y2649353D01*
X7423338Y2640769D01*
X7425046Y2632185D01*
X7429908Y2624908D01*
X7437185Y2620046D01*
X7445769Y2618338D01*
X7454353Y2620046D01*
X7461630Y2624908D01*
X7466493Y2632185D01*
X7468200Y2640769D01*
X7466493Y2649353D01*
X7461630Y2656630D01*
X7454353Y2661493D01*
X7445769Y2663200D01*
D02*
G37*
G36*
X7150769D02*
X7142185Y2661493D01*
X7134908Y2656630D01*
X7130046Y2649353D01*
X7128338Y2640769D01*
X7130046Y2632185D01*
X7134908Y2624908D01*
X7142185Y2620046D01*
X7150769Y2618338D01*
X7159353Y2620046D01*
X7166630Y2624908D01*
X7171493Y2632185D01*
X7173200Y2640769D01*
X7171493Y2649353D01*
X7166630Y2656630D01*
X7159353Y2661493D01*
X7150769Y2663200D01*
D02*
G37*
G36*
X6850769D02*
X6842185Y2661493D01*
X6834908Y2656630D01*
X6830046Y2649353D01*
X6828338Y2640769D01*
X6830046Y2632185D01*
X6834908Y2624908D01*
X6842185Y2620046D01*
X6850769Y2618338D01*
X6859353Y2620046D01*
X6866630Y2624908D01*
X6871493Y2632185D01*
X6873200Y2640769D01*
X6871493Y2649353D01*
X6866630Y2656630D01*
X6859353Y2661493D01*
X6850769Y2663200D01*
D02*
G37*
G36*
X6550769D02*
X6542185Y2661493D01*
X6534908Y2656630D01*
X6530046Y2649353D01*
X6528338Y2640769D01*
X6530046Y2632185D01*
X6534908Y2624908D01*
X6542185Y2620046D01*
X6550769Y2618338D01*
X6559353Y2620046D01*
X6566630Y2624908D01*
X6571493Y2632185D01*
X6573200Y2640769D01*
X6571493Y2649353D01*
X6566630Y2656630D01*
X6559353Y2661493D01*
X6550769Y2663200D01*
D02*
G37*
G36*
X6245769D02*
X6237185Y2661493D01*
X6229908Y2656630D01*
X6225046Y2649353D01*
X6223338Y2640769D01*
X6225046Y2632185D01*
X6229908Y2624908D01*
X6237185Y2620046D01*
X6245769Y2618338D01*
X6254353Y2620046D01*
X6261630Y2624908D01*
X6266493Y2632185D01*
X6268200Y2640769D01*
X6266493Y2649353D01*
X6261630Y2656630D01*
X6254353Y2661493D01*
X6245769Y2663200D01*
D02*
G37*
G36*
X5940769D02*
X5932185Y2661493D01*
X5924908Y2656630D01*
X5920046Y2649353D01*
X5918338Y2640769D01*
X5920046Y2632185D01*
X5924908Y2624908D01*
X5932185Y2620046D01*
X5940769Y2618338D01*
X5949353Y2620046D01*
X5956630Y2624908D01*
X5961493Y2632185D01*
X5963200Y2640769D01*
X5961493Y2649353D01*
X5956630Y2656630D01*
X5949353Y2661493D01*
X5940769Y2663200D01*
D02*
G37*
G36*
X5645769D02*
X5637185Y2661493D01*
X5629908Y2656630D01*
X5625046Y2649353D01*
X5623338Y2640769D01*
X5625046Y2632185D01*
X5629908Y2624908D01*
X5637185Y2620046D01*
X5645769Y2618338D01*
X5654353Y2620046D01*
X5661630Y2624908D01*
X5666493Y2632185D01*
X5668200Y2640769D01*
X5666493Y2649353D01*
X5661630Y2656630D01*
X5654353Y2661493D01*
X5645769Y2663200D01*
D02*
G37*
G36*
X5345769D02*
X5337185Y2661493D01*
X5329908Y2656630D01*
X5325046Y2649353D01*
X5323338Y2640769D01*
X5325046Y2632185D01*
X5329908Y2624908D01*
X5337185Y2620046D01*
X5345769Y2618338D01*
X5354353Y2620046D01*
X5361630Y2624908D01*
X5366493Y2632185D01*
X5368200Y2640769D01*
X5366493Y2649353D01*
X5361630Y2656630D01*
X5354353Y2661493D01*
X5345769Y2663200D01*
D02*
G37*
G36*
X5055769D02*
X5047185Y2661493D01*
X5039908Y2656630D01*
X5035046Y2649353D01*
X5033338Y2640769D01*
X5035046Y2632185D01*
X5039908Y2624908D01*
X5047185Y2620046D01*
X5055769Y2618338D01*
X5064353Y2620046D01*
X5071630Y2624908D01*
X5076493Y2632185D01*
X5078200Y2640769D01*
X5076493Y2649353D01*
X5071630Y2656630D01*
X5064353Y2661493D01*
X5055769Y2663200D01*
D02*
G37*
G36*
X4750769D02*
X4742185Y2661493D01*
X4734908Y2656630D01*
X4730046Y2649353D01*
X4728338Y2640769D01*
X4730046Y2632185D01*
X4734908Y2624908D01*
X4742185Y2620046D01*
X4750769Y2618338D01*
X4759353Y2620046D01*
X4766630Y2624908D01*
X4771493Y2632185D01*
X4773200Y2640769D01*
X4771493Y2649353D01*
X4766630Y2656630D01*
X4759353Y2661493D01*
X4750769Y2663200D01*
D02*
G37*
G36*
X4450769D02*
X4442185Y2661493D01*
X4434908Y2656630D01*
X4430046Y2649353D01*
X4428338Y2640769D01*
X4430046Y2632185D01*
X4434908Y2624908D01*
X4442185Y2620046D01*
X4450769Y2618338D01*
X4459353Y2620046D01*
X4466630Y2624908D01*
X4471493Y2632185D01*
X4473200Y2640769D01*
X4471493Y2649353D01*
X4466630Y2656630D01*
X4459353Y2661493D01*
X4450769Y2663200D01*
D02*
G37*
G36*
X2760000Y2654980D02*
X2750441Y2653079D01*
X2742336Y2647664D01*
X2736921Y2639559D01*
X2735020Y2630000D01*
X2736921Y2620441D01*
X2742336Y2612336D01*
X2750441Y2606921D01*
X2760000Y2605020D01*
X2769559Y2606921D01*
X2777664Y2612336D01*
X2783079Y2620441D01*
X2784980Y2630000D01*
X2783079Y2639559D01*
X2777664Y2647664D01*
X2769559Y2653079D01*
X2760000Y2654980D01*
D02*
G37*
G36*
X3455000Y2623579D02*
Y2601500D01*
X3477079D01*
X3476792Y2603679D01*
X3474021Y2610369D01*
X3469613Y2616113D01*
X3463869Y2620521D01*
X3457179Y2623292D01*
X3455000Y2623579D01*
D02*
G37*
G36*
X3445000D02*
X3442821Y2623292D01*
X3436131Y2620521D01*
X3430387Y2616113D01*
X3425979Y2610369D01*
X3423208Y2603679D01*
X3422921Y2601500D01*
X3445000D01*
Y2623579D01*
D02*
G37*
G36*
X3860000Y2644980D02*
X3850441Y2643079D01*
X3842336Y2637664D01*
X3836921Y2629559D01*
X3835020Y2620000D01*
X3836921Y2610441D01*
X3842336Y2602336D01*
X3850441Y2596921D01*
X3860000Y2595020D01*
X3869559Y2596921D01*
X3877664Y2602336D01*
X3883079Y2610441D01*
X3884980Y2620000D01*
X3883079Y2629559D01*
X3877664Y2637664D01*
X3869559Y2643079D01*
X3860000Y2644980D01*
D02*
G37*
G36*
X3477079Y2591500D02*
X3455000D01*
Y2569421D01*
X3457179Y2569708D01*
X3463869Y2572479D01*
X3469613Y2576887D01*
X3474021Y2582631D01*
X3476792Y2589321D01*
X3477079Y2591500D01*
D02*
G37*
G36*
X3445000D02*
X3422921D01*
X3423208Y2589321D01*
X3425979Y2582631D01*
X3430387Y2576887D01*
X3436131Y2572479D01*
X3442821Y2569708D01*
X3445000Y2569421D01*
Y2591500D01*
D02*
G37*
G36*
X3970000Y2577079D02*
Y2555000D01*
X3992079D01*
X3991792Y2557179D01*
X3989021Y2563869D01*
X3984613Y2569613D01*
X3978869Y2574021D01*
X3972179Y2576792D01*
X3970000Y2577079D01*
D02*
G37*
G36*
X3960000D02*
X3957821Y2576792D01*
X3951131Y2574021D01*
X3945387Y2569613D01*
X3940979Y2563869D01*
X3938208Y2557179D01*
X3937921Y2555000D01*
X3960000D01*
Y2577079D01*
D02*
G37*
G36*
X2440000Y2599980D02*
X2430441Y2598079D01*
X2422336Y2592664D01*
X2416921Y2584559D01*
X2415020Y2575000D01*
X2416921Y2565441D01*
X2422336Y2557336D01*
X2430441Y2551921D01*
X2440000Y2550020D01*
X2449559Y2551921D01*
X2457664Y2557336D01*
X2463079Y2565441D01*
X2464980Y2575000D01*
X2463079Y2584559D01*
X2457664Y2592664D01*
X2449559Y2598079D01*
X2440000Y2599980D01*
D02*
G37*
G36*
X2355000D02*
X2345441Y2598079D01*
X2337336Y2592664D01*
X2331921Y2584559D01*
X2330020Y2575000D01*
X2331921Y2565441D01*
X2337336Y2557336D01*
X2345441Y2551921D01*
X2355000Y2550020D01*
X2364559Y2551921D01*
X2372664Y2557336D01*
X2378079Y2565441D01*
X2379980Y2575000D01*
X2378079Y2584559D01*
X2372664Y2592664D01*
X2364559Y2598079D01*
X2355000Y2599980D01*
D02*
G37*
G36*
X3992079Y2545000D02*
X3970000D01*
Y2522921D01*
X3972179Y2523208D01*
X3978869Y2525979D01*
X3984613Y2530387D01*
X3989021Y2536131D01*
X3991792Y2542821D01*
X3992079Y2545000D01*
D02*
G37*
G36*
X3960000D02*
X3937921D01*
X3938208Y2542821D01*
X3940979Y2536131D01*
X3945387Y2530387D01*
X3951131Y2525979D01*
X3957821Y2523208D01*
X3960000Y2522921D01*
Y2545000D01*
D02*
G37*
G36*
X3495000Y2544980D02*
X3485441Y2543079D01*
X3477336Y2537664D01*
X3471921Y2529559D01*
X3470020Y2520000D01*
X3471921Y2510441D01*
X3477336Y2502336D01*
X3485441Y2496921D01*
X3495000Y2495020D01*
X3504559Y2496921D01*
X3512664Y2502336D01*
X3518079Y2510441D01*
X3519980Y2520000D01*
X3518079Y2529559D01*
X3512664Y2537664D01*
X3504559Y2543079D01*
X3495000Y2544980D01*
D02*
G37*
G36*
X3735000Y2442079D02*
Y2420000D01*
X3757079D01*
X3756792Y2422179D01*
X3754021Y2428869D01*
X3749613Y2434613D01*
X3743869Y2439021D01*
X3737179Y2441792D01*
X3735000Y2442079D01*
D02*
G37*
G36*
X3725000D02*
X3722821Y2441792D01*
X3716131Y2439021D01*
X3710387Y2434613D01*
X3705979Y2428869D01*
X3703208Y2422179D01*
X3702921Y2420000D01*
X3725000D01*
Y2442079D01*
D02*
G37*
G36*
X3820000Y2437079D02*
Y2415000D01*
X3842079D01*
X3841792Y2417179D01*
X3839021Y2423869D01*
X3834613Y2429613D01*
X3828869Y2434021D01*
X3822179Y2436792D01*
X3820000Y2437079D01*
D02*
G37*
G36*
X3810000D02*
X3807821Y2436792D01*
X3801131Y2434021D01*
X3795387Y2429613D01*
X3790979Y2423869D01*
X3788208Y2417179D01*
X3787921Y2415000D01*
X3810000D01*
Y2437079D01*
D02*
G37*
G36*
X3905000Y2454980D02*
X3895441Y2453079D01*
X3887336Y2447664D01*
X3881921Y2439559D01*
X3880020Y2430000D01*
X3881921Y2420441D01*
X3887336Y2412336D01*
X3895441Y2406921D01*
X3905000Y2405020D01*
X3914559Y2406921D01*
X3922664Y2412336D01*
X3928079Y2420441D01*
X3929980Y2430000D01*
X3928079Y2439559D01*
X3922664Y2447664D01*
X3914559Y2453079D01*
X3905000Y2454980D01*
D02*
G37*
G36*
X8635769Y2448200D02*
X8627185Y2446493D01*
X8619908Y2441630D01*
X8615046Y2434353D01*
X8613338Y2425769D01*
X8615046Y2417185D01*
X8619908Y2409908D01*
X8627185Y2405046D01*
X8635769Y2403338D01*
X8644353Y2405046D01*
X8651630Y2409908D01*
X8656493Y2417185D01*
X8658200Y2425769D01*
X8656493Y2434353D01*
X8651630Y2441630D01*
X8644353Y2446493D01*
X8635769Y2448200D01*
D02*
G37*
G36*
X8335769D02*
X8327185Y2446493D01*
X8319908Y2441630D01*
X8315046Y2434353D01*
X8313338Y2425769D01*
X8315046Y2417185D01*
X8319908Y2409908D01*
X8327185Y2405046D01*
X8335769Y2403338D01*
X8344353Y2405046D01*
X8351630Y2409908D01*
X8356493Y2417185D01*
X8358200Y2425769D01*
X8356493Y2434353D01*
X8351630Y2441630D01*
X8344353Y2446493D01*
X8335769Y2448200D01*
D02*
G37*
G36*
X3757079Y2410000D02*
X3735000D01*
Y2387921D01*
X3737179Y2388208D01*
X3743869Y2390979D01*
X3749613Y2395387D01*
X3754021Y2401131D01*
X3756792Y2407821D01*
X3757079Y2410000D01*
D02*
G37*
G36*
X3725000D02*
X3702921D01*
X3703208Y2407821D01*
X3705979Y2401131D01*
X3710387Y2395387D01*
X3716131Y2390979D01*
X3722821Y2388208D01*
X3725000Y2387921D01*
Y2410000D01*
D02*
G37*
G36*
X3842079Y2405000D02*
X3820000D01*
Y2382921D01*
X3822179Y2383208D01*
X3828869Y2385979D01*
X3834613Y2390387D01*
X3839021Y2396131D01*
X3841792Y2402821D01*
X3842079Y2405000D01*
D02*
G37*
G36*
X3810000D02*
X3787921D01*
X3788208Y2402821D01*
X3790979Y2396131D01*
X3795387Y2390387D01*
X3801131Y2385979D01*
X3807821Y2383208D01*
X3810000Y2382921D01*
Y2405000D01*
D02*
G37*
G36*
X4280000Y2344980D02*
X4270441Y2343079D01*
X4262337Y2337664D01*
X4256922Y2329559D01*
X4255020Y2320000D01*
X4256922Y2310441D01*
X4262337Y2302336D01*
X4270441Y2296921D01*
X4280000Y2295020D01*
X4289559Y2296921D01*
X4297663Y2302336D01*
X4303078Y2310441D01*
X4304980Y2320000D01*
X4303078Y2329559D01*
X4297663Y2337664D01*
X4289559Y2343079D01*
X4280000Y2344980D01*
D02*
G37*
%LPD*%
G36*
X4097337Y3412336D02*
X4105441Y3406921D01*
X4115000Y3405020D01*
X4118775Y3405771D01*
X4137957Y3386589D01*
X4140598Y3384825D01*
X4140351Y3382769D01*
X4139094Y3379816D01*
X4130461Y3378099D01*
X4122356Y3372684D01*
X4116941Y3364579D01*
X4115040Y3355020D01*
X4116941Y3345461D01*
X4122356Y3337356D01*
X4130461Y3331941D01*
X4140020Y3330040D01*
X4149579Y3331941D01*
X4157684Y3337356D01*
X4163099Y3345461D01*
X4165000Y3355020D01*
X4163099Y3364579D01*
X4157684Y3372684D01*
X4151953Y3376513D01*
X4153470Y3381513D01*
X4232259D01*
X4242667Y3371105D01*
Y2675000D01*
X4243986Y2668367D01*
X4247744Y2662744D01*
X4418154Y2492333D01*
X4416083Y2487333D01*
X4382180D01*
X4017333Y2852180D01*
Y3337820D01*
X4055508Y3375995D01*
X4060279Y3373696D01*
X4061921Y3365441D01*
X4067336Y3357336D01*
X4075441Y3351921D01*
X4085000Y3350020D01*
X4094559Y3351921D01*
X4102663Y3357336D01*
X4108078Y3365441D01*
X4109980Y3375000D01*
X4108078Y3384559D01*
X4102663Y3392664D01*
X4094559Y3398079D01*
X4089805Y3399024D01*
X4087503Y3404580D01*
X4088079Y3405441D01*
X4089880Y3414496D01*
X4091385Y3415293D01*
X4094875Y3416020D01*
X4097337Y3412336D01*
D02*
G37*
G36*
X3947167Y3212111D02*
Y2830500D01*
X3948486Y2823867D01*
X3952244Y2818244D01*
X4145167Y2625320D01*
Y2592500D01*
X4146486Y2585867D01*
X4150244Y2580244D01*
X4347188Y2383300D01*
X4345329Y2378503D01*
X4341464Y2378049D01*
X3987333Y2732180D01*
Y2760000D01*
X3986014Y2766633D01*
X3982256Y2772256D01*
X3847833Y2906680D01*
Y3071701D01*
X3852243Y3074058D01*
X3855441Y3071921D01*
X3865000Y3070020D01*
X3874559Y3071921D01*
X3882664Y3077336D01*
X3888079Y3085441D01*
X3889980Y3095000D01*
X3888079Y3104559D01*
X3882664Y3112664D01*
X3874559Y3118079D01*
X3865000Y3119980D01*
X3855441Y3118079D01*
X3852243Y3115942D01*
X3847833Y3118299D01*
Y3198320D01*
X3851265Y3201753D01*
X3855873Y3199289D01*
X3855020Y3195000D01*
X3856921Y3185441D01*
X3862336Y3177336D01*
X3870441Y3171921D01*
X3877406Y3170536D01*
X3880010Y3169973D01*
X3881040Y3165129D01*
X3880020Y3160000D01*
X3881921Y3150441D01*
X3887336Y3142336D01*
X3895441Y3136921D01*
X3905000Y3135020D01*
X3914559Y3136921D01*
X3922664Y3142336D01*
X3928079Y3150441D01*
X3929980Y3160000D01*
X3928079Y3169559D01*
X3922664Y3177664D01*
X3914559Y3183079D01*
X3907594Y3184464D01*
X3904990Y3185027D01*
X3903960Y3189871D01*
X3904980Y3195000D01*
X3903079Y3204559D01*
X3902503Y3205420D01*
X3904805Y3210976D01*
X3909559Y3211921D01*
X3917664Y3217336D01*
X3923079Y3225441D01*
X3923829Y3229213D01*
X3928614Y3230664D01*
X3947167Y3212111D01*
D02*
G37*
G36*
X6522185Y2447724D02*
X6514908Y2442861D01*
X6510046Y2435584D01*
X6508338Y2427000D01*
X6510046Y2418416D01*
X6514110Y2412333D01*
X6512289Y2407333D01*
X6259249D01*
X6257428Y2412333D01*
X6261493Y2418416D01*
X6263200Y2427000D01*
X6261493Y2435584D01*
X6256630Y2442861D01*
X6249353Y2447724D01*
X6250130Y2452667D01*
X6521409D01*
X6522185Y2447724D01*
D02*
G37*
G36*
X6232185D02*
X6224908Y2442861D01*
X6220046Y2435584D01*
X6218338Y2427000D01*
X6220046Y2418416D01*
X6224110Y2412333D01*
X6222289Y2407333D01*
X5950923D01*
X5948251Y2412333D01*
X5951493Y2417185D01*
X5953200Y2425769D01*
X5951493Y2434353D01*
X5946630Y2441630D01*
X5939353Y2446493D01*
X5933450Y2447667D01*
X5933942Y2452667D01*
X6231409D01*
X6232185Y2447724D01*
D02*
G37*
G36*
X5928089Y2447667D02*
X5922185Y2446493D01*
X5914908Y2441630D01*
X5910046Y2434353D01*
X5908338Y2425769D01*
X5910046Y2417185D01*
X5913288Y2412333D01*
X5910615Y2407333D01*
X5655923D01*
X5653251Y2412333D01*
X5656493Y2417185D01*
X5658200Y2425769D01*
X5656493Y2434353D01*
X5651630Y2441630D01*
X5644353Y2446493D01*
X5638450Y2447667D01*
X5638942Y2452667D01*
X5927596D01*
X5928089Y2447667D01*
D02*
G37*
G36*
X5633089D02*
X5627185Y2446493D01*
X5619908Y2441630D01*
X5615046Y2434353D01*
X5613338Y2425769D01*
X5615046Y2417185D01*
X5618288Y2412333D01*
X5615615Y2407333D01*
X5355923D01*
X5353251Y2412333D01*
X5356493Y2417185D01*
X5358200Y2425769D01*
X5356493Y2434353D01*
X5351630Y2441630D01*
X5344353Y2446493D01*
X5338450Y2447667D01*
X5338942Y2452667D01*
X5632596D01*
X5633089Y2447667D01*
D02*
G37*
G36*
X5333089D02*
X5327185Y2446493D01*
X5319908Y2441630D01*
X5315046Y2434353D01*
X5313338Y2425769D01*
X5315046Y2417185D01*
X5318288Y2412333D01*
X5315615Y2407333D01*
X5055923D01*
X5053251Y2412333D01*
X5056493Y2417185D01*
X5058200Y2425769D01*
X5056493Y2434353D01*
X5051630Y2441630D01*
X5044353Y2446493D01*
X5038450Y2447667D01*
X5038942Y2452667D01*
X5332596D01*
X5333089Y2447667D01*
D02*
G37*
G36*
X5033089D02*
X5027185Y2446493D01*
X5019908Y2441630D01*
X5015046Y2434353D01*
X5013338Y2425769D01*
X5015046Y2417185D01*
X5018288Y2412333D01*
X5015615Y2407333D01*
X4760923D01*
X4758251Y2412333D01*
X4761493Y2417185D01*
X4763200Y2425769D01*
X4761493Y2434353D01*
X4756630Y2441630D01*
X4749353Y2446493D01*
X4743450Y2447667D01*
X4743942Y2452667D01*
X5032596D01*
X5033089Y2447667D01*
D02*
G37*
G36*
X4738089D02*
X4732185Y2446493D01*
X4724908Y2441630D01*
X4720046Y2434353D01*
X4718338Y2425769D01*
X4720046Y2417185D01*
X4723288Y2412333D01*
X4720615Y2407333D01*
X4455923D01*
X4453251Y2412333D01*
X4456493Y2417185D01*
X4458200Y2425769D01*
X4456493Y2434353D01*
X4451630Y2441630D01*
X4444353Y2446493D01*
X4438450Y2447667D01*
X4438942Y2452667D01*
X4737596D01*
X4738089Y2447667D01*
D02*
G37*
G36*
X4362744Y2457744D02*
X4368367Y2453986D01*
X4375000Y2452667D01*
X4432596D01*
X4433089Y2447667D01*
X4427185Y2446493D01*
X4419908Y2441630D01*
X4415046Y2434353D01*
X4413338Y2425769D01*
X4415046Y2417185D01*
X4418288Y2412333D01*
X4415615Y2407333D01*
X4372180D01*
X4179833Y2599680D01*
Y2632500D01*
X4179564Y2633852D01*
X4184172Y2636315D01*
X4362744Y2457744D01*
D02*
G37*
G36*
X8021460Y2442667D02*
X8019908Y2441630D01*
X8015046Y2434353D01*
X8013338Y2425769D01*
X8015046Y2417185D01*
X8019908Y2409908D01*
X8023762Y2407333D01*
X8022245Y2402333D01*
X7749293D01*
X7747776Y2407333D01*
X7751630Y2409908D01*
X7756493Y2417185D01*
X7758200Y2425769D01*
X7756493Y2434353D01*
X7751630Y2441630D01*
X7750079Y2442667D01*
X7751596Y2447667D01*
X8019943D01*
X8021460Y2442667D01*
D02*
G37*
G36*
X7721460D02*
X7719908Y2441630D01*
X7715046Y2434353D01*
X7713338Y2425769D01*
X7715046Y2417185D01*
X7719908Y2409908D01*
X7723762Y2407333D01*
X7722245Y2402333D01*
X7449293D01*
X7447776Y2407333D01*
X7451630Y2409908D01*
X7456493Y2417185D01*
X7458200Y2425769D01*
X7456493Y2434353D01*
X7451630Y2441630D01*
X7450079Y2442667D01*
X7451596Y2447667D01*
X7719943D01*
X7721460Y2442667D01*
D02*
G37*
G36*
X7421460D02*
X7419908Y2441630D01*
X7415046Y2434353D01*
X7413338Y2425769D01*
X7415046Y2417185D01*
X7419908Y2409908D01*
X7423762Y2407333D01*
X7422245Y2402333D01*
X7149293D01*
X7147776Y2407333D01*
X7151630Y2409908D01*
X7156493Y2417185D01*
X7158200Y2425769D01*
X7156493Y2434353D01*
X7151630Y2441630D01*
X7150079Y2442667D01*
X7151596Y2447667D01*
X7419943D01*
X7421460Y2442667D01*
D02*
G37*
G36*
X7121460D02*
X7119908Y2441630D01*
X7115046Y2434353D01*
X7113338Y2425769D01*
X7115046Y2417185D01*
X7119908Y2409908D01*
X7123762Y2407333D01*
X7122245Y2402333D01*
X6847451D01*
X6845934Y2407333D01*
X6851630Y2411139D01*
X6856493Y2418416D01*
X6858200Y2427000D01*
X6856493Y2435584D01*
X6851760Y2442667D01*
X6852189Y2444829D01*
X6853050Y2447667D01*
X7119943D01*
X7121460Y2442667D01*
D02*
G37*
G36*
X6645000Y2447667D02*
X6818488D01*
X6819349Y2444829D01*
X6819778Y2442667D01*
X6815046Y2435584D01*
X6813338Y2427000D01*
X6815046Y2418416D01*
X6819908Y2411139D01*
X6825604Y2407333D01*
X6824087Y2402333D01*
X6682180D01*
X6641185Y2443328D01*
X6643648Y2447936D01*
X6645000Y2447667D01*
D02*
G37*
G36*
X8132744Y2352744D02*
X8138367Y2348986D01*
X8145000Y2347667D01*
X8145001Y2347667D01*
X8310924D01*
X8311780Y2346646D01*
X8310828Y2339997D01*
X8307336Y2337664D01*
X8307116Y2337333D01*
X8117180D01*
X8057256Y2397256D01*
X8051633Y2401014D01*
X8048308Y2401675D01*
X8047252Y2406983D01*
X8051630Y2409908D01*
X8056493Y2417185D01*
X8057279Y2421137D01*
X8062704Y2422783D01*
X8132744Y2352744D01*
D02*
G37*
G36*
X6639744Y2345744D02*
X6640871Y2344990D01*
X6641997Y2338224D01*
X6641317Y2337333D01*
X6612180D01*
X6547256Y2402256D01*
X6544796Y2403900D01*
Y2409914D01*
X6546630Y2411139D01*
X6551493Y2418416D01*
X6552904Y2425512D01*
X6557767Y2427721D01*
X6639744Y2345744D01*
D02*
G37*
%LPC*%
G36*
X4210000Y3364980D02*
X4200441Y3363079D01*
X4192337Y3357664D01*
X4186922Y3349559D01*
X4185020Y3340000D01*
X4186922Y3330441D01*
X4192337Y3322336D01*
X4196699Y3319421D01*
X4195643Y3314113D01*
X4190441Y3313079D01*
X4182337Y3307664D01*
X4176922Y3299559D01*
X4175020Y3290000D01*
X4176922Y3280441D01*
X4182337Y3272336D01*
X4190441Y3266921D01*
X4200000Y3265020D01*
X4209559Y3266921D01*
X4217663Y3272336D01*
X4223078Y3280441D01*
X4224980Y3290000D01*
X4223078Y3299559D01*
X4217663Y3307664D01*
X4213301Y3310579D01*
X4214357Y3315887D01*
X4219559Y3316921D01*
X4227663Y3322336D01*
X4233078Y3330441D01*
X4234980Y3340000D01*
X4233078Y3349559D01*
X4227663Y3357664D01*
X4219559Y3363079D01*
X4210000Y3364980D01*
D02*
G37*
G36*
X4200000Y3259980D02*
X4190441Y3258079D01*
X4182337Y3252664D01*
X4176922Y3244559D01*
X4175020Y3235000D01*
X4176922Y3225441D01*
X4182337Y3217336D01*
X4189159Y3212778D01*
X4189441Y3211744D01*
Y3208256D01*
X4189159Y3207222D01*
X4182337Y3202664D01*
X4176922Y3194559D01*
X4175020Y3185000D01*
X4176922Y3175441D01*
X4182337Y3167336D01*
X4190441Y3161921D01*
X4200000Y3160020D01*
X4209559Y3161921D01*
X4217663Y3167336D01*
X4223078Y3175441D01*
X4224980Y3185000D01*
X4223078Y3194559D01*
X4217663Y3202664D01*
X4210841Y3207222D01*
X4210559Y3208256D01*
Y3211744D01*
X4210841Y3212778D01*
X4217663Y3217336D01*
X4223078Y3225441D01*
X4224980Y3235000D01*
X4223078Y3244559D01*
X4217663Y3252664D01*
X4209559Y3258079D01*
X4200000Y3259980D01*
D02*
G37*
G36*
X4135000Y3159980D02*
X4125441Y3158079D01*
X4117337Y3152664D01*
X4111922Y3144559D01*
X4110020Y3135000D01*
X4111922Y3125441D01*
X4117337Y3117336D01*
X4125441Y3111921D01*
X4135000Y3110020D01*
X4144559Y3111921D01*
X4152663Y3117336D01*
X4158078Y3125441D01*
X4159980Y3135000D01*
X4158078Y3144559D01*
X4152663Y3152664D01*
X4144559Y3158079D01*
X4135000Y3159980D01*
D02*
G37*
G36*
X4195000Y3154980D02*
X4185441Y3153079D01*
X4177337Y3147664D01*
X4171922Y3139559D01*
X4170020Y3130000D01*
X4171922Y3120441D01*
X4177337Y3112336D01*
X4185441Y3106921D01*
X4195000Y3105020D01*
X4204559Y3106921D01*
X4212663Y3112336D01*
X4218078Y3120441D01*
X4219980Y3130000D01*
X4218078Y3139559D01*
X4212663Y3147664D01*
X4204559Y3153079D01*
X4195000Y3154980D01*
D02*
G37*
G36*
X4075000D02*
X4065441Y3153079D01*
X4057336Y3147664D01*
X4051921Y3139559D01*
X4050020Y3130000D01*
X4051921Y3120441D01*
X4057336Y3112336D01*
X4065441Y3106921D01*
X4075000Y3105020D01*
X4084559Y3106921D01*
X4092664Y3112336D01*
X4098078Y3120441D01*
X4099980Y3130000D01*
X4098078Y3139559D01*
X4092664Y3147664D01*
X4084559Y3153079D01*
X4075000Y3154980D01*
D02*
G37*
G36*
X4204500Y3094980D02*
X4194941Y3093079D01*
X4186837Y3087664D01*
X4181422Y3079559D01*
X4179520Y3070000D01*
X4181422Y3060441D01*
X4186837Y3052336D01*
X4194941Y3046921D01*
X4204500Y3045020D01*
X4214059Y3046921D01*
X4222163Y3052336D01*
X4227578Y3060441D01*
X4229480Y3070000D01*
X4227578Y3079559D01*
X4222163Y3087664D01*
X4214059Y3093079D01*
X4204500Y3094980D01*
D02*
G37*
G36*
X4065000Y2989980D02*
X4055441Y2988079D01*
X4047336Y2982664D01*
X4041921Y2974559D01*
X4040020Y2965000D01*
X4041921Y2955441D01*
X4047336Y2947336D01*
X4055441Y2941921D01*
X4065000Y2940020D01*
X4074559Y2941921D01*
X4082664Y2947336D01*
X4088079Y2955441D01*
X4089980Y2965000D01*
X4088079Y2974559D01*
X4082664Y2982664D01*
X4074559Y2988079D01*
X4065000Y2989980D01*
D02*
G37*
G36*
X3910000Y3062079D02*
Y3040000D01*
X3932079D01*
X3931792Y3042179D01*
X3929021Y3048869D01*
X3924613Y3054613D01*
X3918869Y3059021D01*
X3912179Y3061792D01*
X3910000Y3062079D01*
D02*
G37*
G36*
X3900000D02*
X3897821Y3061792D01*
X3891131Y3059021D01*
X3885387Y3054613D01*
X3880979Y3048869D01*
X3878208Y3042179D01*
X3877921Y3040000D01*
X3900000D01*
Y3062079D01*
D02*
G37*
G36*
X3932079Y3030000D02*
X3910000D01*
Y3007921D01*
X3912179Y3008208D01*
X3918869Y3010979D01*
X3924613Y3015387D01*
X3929021Y3021131D01*
X3931792Y3027821D01*
X3932079Y3030000D01*
D02*
G37*
G36*
X3900000D02*
X3877921D01*
X3878208Y3027821D01*
X3880979Y3021131D01*
X3885387Y3015387D01*
X3891131Y3010979D01*
X3897821Y3008208D01*
X3900000Y3007921D01*
Y3030000D01*
D02*
G37*
%LPD*%
D29*
X4119059Y3430000D02*
X4150213Y3398846D01*
X4115000Y3430000D02*
X4119059D01*
X4065000Y3410000D02*
Y3415000D01*
X4150000Y3475000D02*
X4215000D01*
X4295000Y3395000D01*
Y2685000D02*
Y3395000D01*
X4445000Y2535000D02*
X6575000D01*
X4295000Y2685000D02*
X4445000Y2535000D01*
X4260000Y2675000D02*
X4435000Y2500000D01*
X4239439Y3398846D02*
X4260000Y3378284D01*
X4150213Y3398846D02*
X4239439D01*
X4260000Y2675000D02*
Y3378284D01*
X6575000Y2535000D02*
X6645000Y2465000D01*
X8045000D01*
X8145000Y2365000D01*
X8345000D01*
X8390000Y2320000D02*
X8625000D01*
X8345000Y2365000D02*
X8390000Y2320000D01*
X4435000Y2500000D02*
X6560000D01*
X6540000Y2470000D02*
X6652000Y2358000D01*
X4375000Y2470000D02*
X6540000D01*
X6560000Y2500000D02*
X6675000Y2385000D01*
X7752000Y2358000D02*
X7790000Y2320000D01*
X6652000Y2358000D02*
X7752000D01*
X6675000Y2385000D02*
X8045000D01*
X8110000Y2320000D01*
X8325000D01*
X4000000Y3345000D02*
X4065000Y3410000D01*
X4000000Y2845000D02*
Y3345000D01*
Y2845000D02*
X4375000Y2470000D01*
X6605000Y2320000D02*
X6835000D01*
X7790000D02*
X8025000D01*
X3830500Y3205500D02*
X3860000Y3235000D01*
X3830500Y2899500D02*
Y3205500D01*
X3860000Y3235000D02*
X3900000D01*
X3880000Y3285000D02*
X3898790D01*
X3964500Y3219290D01*
Y2830500D02*
Y3219290D01*
Y2830500D02*
X4162500Y2632500D01*
X3830500Y2899500D02*
X3970000Y2760000D01*
X6535000Y2390000D02*
X6605000Y2320000D01*
X4162500Y2592500D02*
X4365000Y2390000D01*
X4162500Y2592500D02*
Y2632500D01*
X3970000Y2725000D02*
Y2760000D01*
Y2725000D02*
X4335000Y2360000D01*
X4365000Y2390000D02*
X6535000D01*
X4335000Y2360000D02*
X6495000D01*
X6535000Y2320000D01*
D30*
X1880837Y3180000D02*
D03*
Y3006772D02*
D03*
D31*
X2755837Y3765000D02*
D03*
Y3465000D02*
D03*
X2455837Y3765000D02*
D03*
Y3465000D02*
D03*
D32*
X2830000Y3405000D02*
D03*
X4085000Y3375000D02*
D03*
X3880000Y3285000D02*
D03*
Y3195000D02*
D03*
X3595000Y3420000D02*
D03*
X3720000Y2905000D02*
D03*
X3895000Y3330000D02*
D03*
X3905000Y2770000D02*
D03*
X3865000Y3095000D02*
D03*
X3295000Y3575000D02*
D03*
X4150000Y3475000D02*
D03*
X3900000Y3235000D02*
D03*
X4200000Y3185000D02*
D03*
X3500000Y3585000D02*
D03*
X4135000Y3135000D02*
D03*
X3905000Y3035000D02*
D03*
X3220000Y2870000D02*
D03*
X4140020Y3355020D02*
D03*
X4075000Y3130000D02*
D03*
X3695000Y2770000D02*
D03*
X3435000Y3345000D02*
D03*
X3860000Y2620000D02*
D03*
X3742347Y2742347D02*
D03*
X3485000Y2775000D02*
D03*
X3830000Y2794500D02*
D03*
X4200000Y3235000D02*
D03*
X4065000Y3415000D02*
D03*
X3220000Y2775000D02*
D03*
Y3330000D02*
D03*
X3810000Y3245000D02*
D03*
X4195000Y3130000D02*
D03*
X3620000Y2780000D02*
D03*
X3235000Y3050000D02*
D03*
X3490000Y3435000D02*
D03*
X3905000Y3160000D02*
D03*
X4115000Y3430000D02*
D03*
X4065000Y2965000D02*
D03*
X4210000Y3340000D02*
D03*
X3555000Y2785000D02*
D03*
X6835000Y2320000D02*
D03*
X7135000D02*
D03*
X4200000Y3290000D02*
D03*
X6225000Y2320000D02*
D03*
X5935000D02*
D03*
X5040000D02*
D03*
X5325000D02*
D03*
X4280000D02*
D03*
X4204500Y3070000D02*
D03*
X8625000Y2320000D02*
D03*
X8325000D02*
D03*
X8025000D02*
D03*
X7735000D02*
D03*
X7425000D02*
D03*
X6535000D02*
D03*
X5625000Y2325000D02*
D03*
X4740000Y2320000D02*
D03*
X2830409Y3128536D02*
D03*
X2625837Y2980000D02*
D03*
X2370885Y3379036D02*
D03*
X2620837Y2790000D02*
D03*
X2400837Y3430000D02*
D03*
X2455837Y3400000D02*
D03*
X2715837Y2885000D02*
D03*
X3450000Y2596500D02*
D03*
X3690000Y3680000D02*
D03*
X3370000Y3685000D02*
D03*
X2440000Y2575000D02*
D03*
X2265000Y2710000D02*
D03*
X2760000Y2630000D02*
D03*
X3815000Y2410000D02*
D03*
X3730000Y2415000D02*
D03*
X2355000Y2575000D02*
D03*
X3905000Y2430000D02*
D03*
X3965000Y2550000D02*
D03*
X3540000Y3020000D02*
D03*
X3495000Y2520000D02*
D03*
X3010000Y3495000D02*
D03*
X4175000Y3525000D02*
D03*
X2175837Y2880000D02*
D03*
X2475837Y3075315D02*
D03*
D33*
X1932530Y3608347D02*
D03*
Y3651654D02*
D03*
X1975837Y3608347D02*
D03*
Y3651654D02*
D03*
X2019144Y3608347D02*
D03*
Y3651654D02*
D03*
D34*
X4450769Y2640769D02*
D03*
X6835769Y2427000D02*
D03*
X7135769Y2425769D02*
D03*
X4445769Y2835769D02*
D03*
X4440769Y3030769D02*
D03*
Y3235769D02*
D03*
X6530769Y2427000D02*
D03*
X6240769D02*
D03*
X4435769Y2425769D02*
D03*
X5335769D02*
D03*
X5930769D02*
D03*
X4740769D02*
D03*
X5035769D02*
D03*
X5635769D02*
D03*
X4445769Y3435769D02*
D03*
X4450769Y3640769D02*
D03*
X4440769Y3830144D02*
D03*
X4430769Y4220769D02*
D03*
X4730769D02*
D03*
X5020769D02*
D03*
X5320769D02*
D03*
X5630769D02*
D03*
X5935769D02*
D03*
X6225769D02*
D03*
X6530769D02*
D03*
X6835769D02*
D03*
X7135769D02*
D03*
X7425769D02*
D03*
X7725769D02*
D03*
X8020769D02*
D03*
X8325769D02*
D03*
X8630769D02*
D03*
X4435769Y4025769D02*
D03*
X4735769D02*
D03*
X5035769D02*
D03*
X5335769D02*
D03*
X5630769D02*
D03*
X5937682Y4027682D02*
D03*
X6235769Y4025769D02*
D03*
X6535769D02*
D03*
X6835769D02*
D03*
X7140769D02*
D03*
X7435769D02*
D03*
X7725769D02*
D03*
X8025769D02*
D03*
X8330769D02*
D03*
X8635769D02*
D03*
X4740769Y3830769D02*
D03*
X5042682Y3831432D02*
D03*
X5340769Y3830769D02*
D03*
X5630769D02*
D03*
X5935769D02*
D03*
X6240769D02*
D03*
X6540769D02*
D03*
X6840769D02*
D03*
X7140769D02*
D03*
X7440769D02*
D03*
X7740769D02*
D03*
X8040769D02*
D03*
X8340769D02*
D03*
X8640769D02*
D03*
X4750769Y3640769D02*
D03*
X5050769D02*
D03*
X5350769D02*
D03*
X5645769D02*
D03*
X5935769D02*
D03*
X6250769D02*
D03*
X6540769D02*
D03*
X6850769D02*
D03*
X7140769D02*
D03*
X7440769D02*
D03*
X7740769D02*
D03*
X8045769D02*
D03*
X8345769D02*
D03*
X8635769D02*
D03*
X4745769Y3435769D02*
D03*
X5040769D02*
D03*
X5345769D02*
D03*
X5640769D02*
D03*
X5935769D02*
D03*
X6245769D02*
D03*
X6540769D02*
D03*
X6845769D02*
D03*
X7145769D02*
D03*
X7445769D02*
D03*
X7745769D02*
D03*
X8040769D02*
D03*
X8343269D02*
D03*
X8645769D02*
D03*
X4735769Y3235769D02*
D03*
X5045769D02*
D03*
X5340769D02*
D03*
X5645769D02*
D03*
X5940769D02*
D03*
X6245769D02*
D03*
X6540769D02*
D03*
X6845769D02*
D03*
X7140769D02*
D03*
X7440769D02*
D03*
X7745769D02*
D03*
X8045769D02*
D03*
X8340769D02*
D03*
X8640769D02*
D03*
X4740769Y3030769D02*
D03*
X5040769D02*
D03*
X5335769D02*
D03*
X5640769D02*
D03*
X5940769D02*
D03*
X6230769D02*
D03*
X6535769D02*
D03*
X6835769D02*
D03*
X7130769D02*
D03*
X7440769D02*
D03*
X7735769D02*
D03*
X8030769D02*
D03*
X8340769D02*
D03*
X8640769D02*
D03*
X5345769Y2835769D02*
D03*
X5645769D02*
D03*
X5940769D02*
D03*
X6240769D02*
D03*
X6545769D02*
D03*
X6840769D02*
D03*
X7135769D02*
D03*
X7445769D02*
D03*
X7745769D02*
D03*
X8040769D02*
D03*
X8335769D02*
D03*
X8645769D02*
D03*
X4750769Y2640769D02*
D03*
X5055769D02*
D03*
X5345769D02*
D03*
X5645769D02*
D03*
X5940769D02*
D03*
X6245769D02*
D03*
X6550769D02*
D03*
X6850769D02*
D03*
X7150769D02*
D03*
X7445769D02*
D03*
X7745769D02*
D03*
X8045769D02*
D03*
X8350769D02*
D03*
X8650769D02*
D03*
X7435769Y2425769D02*
D03*
X7735769D02*
D03*
X8035769D02*
D03*
X8335769D02*
D03*
X8635769D02*
D03*
X4745769Y2835769D02*
D03*
X5045769D02*
D03*
D35*
X2540000Y3400000D02*
D03*
X2705837Y3310000D02*
D03*
X1950837Y4065000D02*
D03*
X2330837Y3980000D02*
D03*
X2552333D02*
D03*
X2190837Y3325000D02*
D03*
X2050837Y2985000D02*
D03*
X2105837Y3045000D02*
D03*
X2400837Y4250000D02*
D03*
%TF.MD5,64327dcbc47491d1e8de42889c6149ef*%
M02*
