%TF.GenerationSoftware,Altium Limited,Altium Designer,20.1.14 (287)*%
G04 Layer_Physical_Order=1*
G04 Layer_Color=255*
%FSLAX26Y26*%
%MOIN*%
%TF.SameCoordinates,7E9A0AC4-0E20-4BBF-80A7-7FB1365180D4*%
%TF.FilePolarity,Positive*%
%TF.FileFunction,Copper,L1,Top,Signal*%
%TF.Part,Single*%
G01*
G75*
%TA.AperFunction,SMDPad,CuDef*%
%ADD10O,0.009842X0.055118*%
%ADD11O,0.055118X0.009842*%
%ADD12O,0.011811X0.082677*%
%ADD13O,0.082677X0.011811*%
%ADD14R,0.151969X0.107874*%
%ADD15O,0.013780X0.072835*%
%ADD16R,0.033465X0.037402*%
%ADD17R,0.053150X0.045276*%
%ADD18R,0.045276X0.053150*%
%TA.AperFunction,ConnectorPad*%
G04:AMPARAMS|DCode=19|XSize=137.795mil|YSize=80.709mil|CornerRadius=20.177mil|HoleSize=0mil|Usage=FLASHONLY|Rotation=180.000|XOffset=0mil|YOffset=0mil|HoleType=Round|Shape=RoundedRectangle|*
%AMROUNDEDRECTD19*
21,1,0.137795,0.040354,0,0,180.0*
21,1,0.097441,0.080709,0,0,180.0*
1,1,0.040354,-0.048721,0.020177*
1,1,0.040354,0.048721,0.020177*
1,1,0.040354,0.048721,-0.020177*
1,1,0.040354,-0.048721,-0.020177*
%
%ADD19ROUNDEDRECTD19*%
G04:AMPARAMS|DCode=20|XSize=157.48mil|YSize=80.709mil|CornerRadius=20.177mil|HoleSize=0mil|Usage=FLASHONLY|Rotation=180.000|XOffset=0mil|YOffset=0mil|HoleType=Round|Shape=RoundedRectangle|*
%AMROUNDEDRECTD20*
21,1,0.157480,0.040354,0,0,180.0*
21,1,0.117126,0.080709,0,0,180.0*
1,1,0.040354,-0.058563,0.020177*
1,1,0.040354,0.058563,0.020177*
1,1,0.040354,0.058563,-0.020177*
1,1,0.040354,-0.058563,-0.020177*
%
%ADD20ROUNDEDRECTD20*%
G04:AMPARAMS|DCode=21|XSize=137.795mil|YSize=80.709mil|CornerRadius=20.177mil|HoleSize=0mil|Usage=FLASHONLY|Rotation=180.000|XOffset=0mil|YOffset=0mil|HoleType=Round|Shape=RoundedRectangle|*
%AMROUNDEDRECTD21*
21,1,0.137795,0.040355,0,0,180.0*
21,1,0.097441,0.080709,0,0,180.0*
1,1,0.040354,-0.048721,0.020177*
1,1,0.040354,0.048721,0.020177*
1,1,0.040354,0.048721,-0.020177*
1,1,0.040354,-0.048721,-0.020177*
%
%ADD21ROUNDEDRECTD21*%
G04:AMPARAMS|DCode=22|XSize=110.236mil|YSize=19.685mil|CornerRadius=4.921mil|HoleSize=0mil|Usage=FLASHONLY|Rotation=180.000|XOffset=0mil|YOffset=0mil|HoleType=Round|Shape=RoundedRectangle|*
%AMROUNDEDRECTD22*
21,1,0.110236,0.009843,0,0,180.0*
21,1,0.100394,0.019685,0,0,180.0*
1,1,0.009842,-0.050197,0.004921*
1,1,0.009842,0.050197,0.004921*
1,1,0.009842,0.050197,-0.004921*
1,1,0.009842,-0.050197,-0.004921*
%
%ADD22ROUNDEDRECTD22*%
%TA.AperFunction,SMDPad,CuDef*%
%ADD23P,0.066813X4X180.0*%
%ADD24R,0.023622X0.031496*%
%ADD25R,0.051181X0.055118*%
%ADD26R,0.055118X0.051181*%
%TA.AperFunction,Conductor*%
%ADD27C,0.012000*%
%ADD28C,0.010000*%
%ADD29C,0.020000*%
%TA.AperFunction,ComponentPad*%
%ADD30C,0.035433*%
%ADD31C,0.060000*%
%TA.AperFunction,ViaPad*%
%ADD32C,0.035000*%
%ADD33C,0.019685*%
%ADD34C,0.030000*%
%ADD35C,0.050000*%
D10*
X3213780Y3515000D02*
D03*
X3233465D02*
D03*
X3253150D02*
D03*
X3272835D02*
D03*
X3292520D02*
D03*
X3312205D02*
D03*
X3331890D02*
D03*
X3351575D02*
D03*
X3371260D02*
D03*
X3390945D02*
D03*
X3410630D02*
D03*
X3430315D02*
D03*
X3450000D02*
D03*
X3469685D02*
D03*
X3489370D02*
D03*
X3509055D02*
D03*
X3528740D02*
D03*
X3548425D02*
D03*
X3568110D02*
D03*
X3587795D02*
D03*
X3607480D02*
D03*
X3627165D02*
D03*
X3646850D02*
D03*
X3666535D02*
D03*
X3686220D02*
D03*
X3705905D02*
D03*
X3725591D02*
D03*
X3745276D02*
D03*
X3764961D02*
D03*
X3784646D02*
D03*
X3804331D02*
D03*
X3824016D02*
D03*
X3843701D02*
D03*
X3863386D02*
D03*
X3883071D02*
D03*
X3902756D02*
D03*
Y2680354D02*
D03*
X3883071D02*
D03*
X3863386D02*
D03*
X3843701D02*
D03*
X3824016D02*
D03*
X3804331D02*
D03*
X3784646D02*
D03*
X3764961D02*
D03*
X3745276D02*
D03*
X3725591D02*
D03*
X3705905D02*
D03*
X3686220D02*
D03*
X3666535D02*
D03*
X3646850D02*
D03*
X3627165D02*
D03*
X3607480D02*
D03*
X3587795D02*
D03*
X3568110D02*
D03*
X3548425D02*
D03*
X3528740D02*
D03*
X3509055D02*
D03*
X3489370D02*
D03*
X3469685D02*
D03*
X3450000D02*
D03*
X3430315D02*
D03*
X3410630D02*
D03*
X3390945D02*
D03*
X3371260D02*
D03*
X3351575D02*
D03*
X3331890D02*
D03*
X3312205D02*
D03*
X3292520D02*
D03*
X3272835D02*
D03*
X3253150D02*
D03*
X3233465D02*
D03*
X3213780D02*
D03*
D11*
X3975591Y3442165D02*
D03*
Y3422480D02*
D03*
Y3402795D02*
D03*
Y3383110D02*
D03*
Y3363425D02*
D03*
Y3343740D02*
D03*
Y3324055D02*
D03*
Y3304370D02*
D03*
Y3284685D02*
D03*
Y3265000D02*
D03*
Y3245315D02*
D03*
Y3225630D02*
D03*
Y3205945D02*
D03*
Y3186260D02*
D03*
Y3166575D02*
D03*
Y3146890D02*
D03*
Y3127205D02*
D03*
Y3107520D02*
D03*
Y3087835D02*
D03*
Y3068150D02*
D03*
Y3048465D02*
D03*
Y3028780D02*
D03*
Y3009095D02*
D03*
Y2989409D02*
D03*
Y2969724D02*
D03*
Y2950039D02*
D03*
Y2930354D02*
D03*
Y2910669D02*
D03*
Y2890984D02*
D03*
Y2871299D02*
D03*
Y2851614D02*
D03*
Y2831929D02*
D03*
Y2812244D02*
D03*
Y2792559D02*
D03*
Y2772874D02*
D03*
Y2753189D02*
D03*
X3140945D02*
D03*
Y2772874D02*
D03*
Y2792559D02*
D03*
Y2812244D02*
D03*
Y2831929D02*
D03*
Y2851614D02*
D03*
Y2871299D02*
D03*
Y2890984D02*
D03*
Y2910669D02*
D03*
Y2930354D02*
D03*
Y2950039D02*
D03*
Y2969724D02*
D03*
Y2989409D02*
D03*
Y3009095D02*
D03*
Y3028780D02*
D03*
Y3048465D02*
D03*
Y3068150D02*
D03*
Y3087835D02*
D03*
Y3107520D02*
D03*
Y3127205D02*
D03*
Y3146890D02*
D03*
Y3166575D02*
D03*
Y3186260D02*
D03*
Y3205945D02*
D03*
Y3225630D02*
D03*
Y3245315D02*
D03*
Y3265000D02*
D03*
Y3284685D02*
D03*
Y3304370D02*
D03*
Y3324055D02*
D03*
Y3343740D02*
D03*
Y3363425D02*
D03*
Y3383110D02*
D03*
Y3402795D02*
D03*
Y3422480D02*
D03*
Y3442165D02*
D03*
D12*
X2368199Y3310472D02*
D03*
X2387885D02*
D03*
X2407570D02*
D03*
X2427255D02*
D03*
X2446940D02*
D03*
X2466625D02*
D03*
X2486310D02*
D03*
X2505995D02*
D03*
X2525680D02*
D03*
X2545365D02*
D03*
X2565050D02*
D03*
X2584735D02*
D03*
X2604420D02*
D03*
X2624105D02*
D03*
X2643790D02*
D03*
X2663475D02*
D03*
Y2869528D02*
D03*
X2643790D02*
D03*
X2624105D02*
D03*
X2604420D02*
D03*
X2584735D02*
D03*
X2565050D02*
D03*
X2545365D02*
D03*
X2525680D02*
D03*
X2505995D02*
D03*
X2486310D02*
D03*
X2466625D02*
D03*
X2446940D02*
D03*
X2427255D02*
D03*
X2407570D02*
D03*
X2387885D02*
D03*
X2368199D02*
D03*
D13*
X2736310Y3237638D02*
D03*
Y3217953D02*
D03*
Y3198268D02*
D03*
Y3178583D02*
D03*
Y3158898D02*
D03*
Y3139213D02*
D03*
Y3119528D02*
D03*
Y3099843D02*
D03*
Y3080157D02*
D03*
Y3060472D02*
D03*
Y3040787D02*
D03*
Y3021102D02*
D03*
Y3001417D02*
D03*
Y2981732D02*
D03*
Y2962047D02*
D03*
Y2942362D02*
D03*
X2295365D02*
D03*
Y2962047D02*
D03*
Y2981732D02*
D03*
Y3001417D02*
D03*
Y3021102D02*
D03*
Y3040787D02*
D03*
Y3060472D02*
D03*
Y3080157D02*
D03*
Y3099843D02*
D03*
Y3119528D02*
D03*
Y3139213D02*
D03*
Y3158898D02*
D03*
Y3178583D02*
D03*
Y3198268D02*
D03*
Y3217953D02*
D03*
Y3237638D02*
D03*
D14*
X1975837Y3630000D02*
D03*
D15*
X1860680Y3514843D02*
D03*
X1886270D02*
D03*
X1911861D02*
D03*
X1937451D02*
D03*
X1963042D02*
D03*
X1988632D02*
D03*
X2014223D02*
D03*
X2039814D02*
D03*
X2065404D02*
D03*
X2090995D02*
D03*
X1860680Y3745157D02*
D03*
X1886270D02*
D03*
X1911861D02*
D03*
X1937451D02*
D03*
X1963042D02*
D03*
X1988632D02*
D03*
X2014223D02*
D03*
X2039814D02*
D03*
X2065404D02*
D03*
X2090995D02*
D03*
D16*
X8751360Y2320769D02*
D03*
X8700179D02*
D03*
X8451360D02*
D03*
X8400179D02*
D03*
X8151360D02*
D03*
X8100179D02*
D03*
X7851360D02*
D03*
X7800179D02*
D03*
X7546360D02*
D03*
X7495179D02*
D03*
X7251360D02*
D03*
X7200179D02*
D03*
X6951360D02*
D03*
X6900179D02*
D03*
X6651360D02*
D03*
X6600179D02*
D03*
X6351360D02*
D03*
X6300179D02*
D03*
X6051360D02*
D03*
X6000179D02*
D03*
X5746360D02*
D03*
X5695179D02*
D03*
X5451360D02*
D03*
X5400179D02*
D03*
X5151360D02*
D03*
X5100179D02*
D03*
X4851360D02*
D03*
X4800179D02*
D03*
X4551360D02*
D03*
X4500179D02*
D03*
D17*
X3815837Y2555000D02*
D03*
Y2486102D02*
D03*
X3730837Y2554449D02*
D03*
Y2485551D02*
D03*
X2190837Y3264449D02*
D03*
Y3195551D02*
D03*
X2170837Y3044449D02*
D03*
Y2975551D02*
D03*
X2695837Y2630315D02*
D03*
Y2699213D02*
D03*
X2610837Y2630315D02*
D03*
Y2699213D02*
D03*
X2525837Y2630315D02*
D03*
Y2699213D02*
D03*
X2440837Y2630866D02*
D03*
Y2699764D02*
D03*
X2355837Y2630866D02*
D03*
Y2699764D02*
D03*
X2265837Y2776102D02*
D03*
Y2845000D02*
D03*
X1815837Y4095551D02*
D03*
Y4164449D02*
D03*
X2155837Y3579449D02*
D03*
Y3510551D02*
D03*
X1795837Y3579449D02*
D03*
Y3510551D02*
D03*
X2275837Y3830551D02*
D03*
Y3899449D02*
D03*
X2105837Y4018898D02*
D03*
Y3950000D02*
D03*
X2190837Y3830551D02*
D03*
Y3899449D02*
D03*
D18*
X2960286Y3420000D02*
D03*
X2891388D02*
D03*
X2960286Y3340000D02*
D03*
X2891388D02*
D03*
X2960286Y3260000D02*
D03*
X2891388D02*
D03*
X2960286Y3180000D02*
D03*
X2891388D02*
D03*
X2960286Y3100000D02*
D03*
X2891388D02*
D03*
X2960286Y3020000D02*
D03*
X2891388D02*
D03*
X2960286Y2940000D02*
D03*
X2891388D02*
D03*
X2960286Y2860000D02*
D03*
X2891388D02*
D03*
X1884735Y4020000D02*
D03*
X1815837D02*
D03*
X2191388Y3980000D02*
D03*
X2260286D02*
D03*
D19*
X1973357Y3287284D02*
D03*
D20*
X1806033D02*
D03*
Y2899488D02*
D03*
D21*
X1973357D02*
D03*
D22*
X1972371Y3124882D02*
D03*
Y3156378D02*
D03*
Y3061890D02*
D03*
Y3030394D02*
D03*
Y3093386D02*
D03*
D23*
X8750000Y4340000D02*
D03*
X8691538Y4281538D02*
D03*
X8450000Y4340000D02*
D03*
X8391538Y4281538D02*
D03*
X8150000Y4340000D02*
D03*
X8091538Y4281538D02*
D03*
X7850000Y4340000D02*
D03*
X7791538Y4281538D02*
D03*
X7550000Y4340000D02*
D03*
X7491538Y4281538D02*
D03*
X7250000Y4340000D02*
D03*
X7191538Y4281538D02*
D03*
X6950000Y4340000D02*
D03*
X6891538Y4281538D02*
D03*
X6650000Y4340000D02*
D03*
X6591538Y4281538D02*
D03*
X6350000Y4340000D02*
D03*
X6291538Y4281538D02*
D03*
X6050000Y4340000D02*
D03*
X5991538Y4281538D02*
D03*
X5750000Y4340000D02*
D03*
X5691538Y4281538D02*
D03*
X5450000Y4340000D02*
D03*
X5391538Y4281538D02*
D03*
X5150000Y4340000D02*
D03*
X5091538Y4281538D02*
D03*
X4850000Y4340000D02*
D03*
X4791538Y4281538D02*
D03*
X4550000Y4340000D02*
D03*
X4491538Y4281538D02*
D03*
X8750000Y4140000D02*
D03*
X8691538Y4081538D02*
D03*
X8450000Y4140000D02*
D03*
X8391538Y4081538D02*
D03*
X8150000Y4140000D02*
D03*
X8091538Y4081538D02*
D03*
X7850000Y4140000D02*
D03*
X7791538Y4081538D02*
D03*
X7550000Y4140000D02*
D03*
X7491538Y4081538D02*
D03*
X7250000Y4140000D02*
D03*
X7191538Y4081538D02*
D03*
X6950000Y4140000D02*
D03*
X6891538Y4081538D02*
D03*
X6650000Y4140000D02*
D03*
X6591538Y4081538D02*
D03*
X6350000Y4140000D02*
D03*
X6291538Y4081538D02*
D03*
X6050000Y4140000D02*
D03*
X5991538Y4081538D02*
D03*
X5750000Y4140000D02*
D03*
X5691538Y4081538D02*
D03*
X5450000Y4140000D02*
D03*
X5391538Y4081538D02*
D03*
X5150000Y4140000D02*
D03*
X5091538Y4081538D02*
D03*
X4850000Y4140000D02*
D03*
X4791538Y4081538D02*
D03*
X4550000Y4140000D02*
D03*
X4491538Y4081538D02*
D03*
X8750000Y3940000D02*
D03*
X8691538Y3881538D02*
D03*
X8450000Y3940000D02*
D03*
X8391538Y3881538D02*
D03*
X8150000Y3940000D02*
D03*
X8091538Y3881538D02*
D03*
X7850000Y3940000D02*
D03*
X7791538Y3881538D02*
D03*
X7550000Y3940000D02*
D03*
X7491538Y3881538D02*
D03*
X7250000Y3940000D02*
D03*
X7191538Y3881538D02*
D03*
X6950000Y3940000D02*
D03*
X6891538Y3881538D02*
D03*
X6650000Y3940000D02*
D03*
X6591538Y3881538D02*
D03*
X6350000Y3940000D02*
D03*
X6291538Y3881538D02*
D03*
X6050000Y3940000D02*
D03*
X5991538Y3881538D02*
D03*
X5750000Y3940000D02*
D03*
X5691538Y3881538D02*
D03*
X5450000Y3940000D02*
D03*
X5391538Y3881538D02*
D03*
X5150000Y3940000D02*
D03*
X5091538Y3881538D02*
D03*
X4850000Y3940000D02*
D03*
X4791538Y3881538D02*
D03*
X4550000Y3940000D02*
D03*
X4491538Y3881538D02*
D03*
X8750000Y3740000D02*
D03*
X8691538Y3681538D02*
D03*
X8450000Y3740000D02*
D03*
X8391538Y3681538D02*
D03*
X8150000Y3740000D02*
D03*
X8091538Y3681538D02*
D03*
X7850000Y3740000D02*
D03*
X7791538Y3681538D02*
D03*
X7550000Y3740000D02*
D03*
X7491538Y3681538D02*
D03*
X7250000Y3740000D02*
D03*
X7191538Y3681538D02*
D03*
X6950000Y3740000D02*
D03*
X6891538Y3681538D02*
D03*
X6650000Y3740000D02*
D03*
X6591538Y3681538D02*
D03*
X6350000Y3740000D02*
D03*
X6291538Y3681538D02*
D03*
X6050000Y3740000D02*
D03*
X5991538Y3681538D02*
D03*
X5750000Y3740000D02*
D03*
X5691538Y3681538D02*
D03*
X5450000Y3740000D02*
D03*
X5391538Y3681538D02*
D03*
X5150000Y3740000D02*
D03*
X5091538Y3681538D02*
D03*
X4850000Y3740000D02*
D03*
X4791538Y3681538D02*
D03*
X4550000Y3740000D02*
D03*
X4491538Y3681538D02*
D03*
X8750000Y3540000D02*
D03*
X8691538Y3481538D02*
D03*
X8450000Y3540000D02*
D03*
X8391538Y3481538D02*
D03*
X8150000Y3540000D02*
D03*
X8091538Y3481538D02*
D03*
X7850000Y3540000D02*
D03*
X7791538Y3481538D02*
D03*
X7550000Y3540000D02*
D03*
X7491538Y3481538D02*
D03*
X7250000Y3540000D02*
D03*
X7191538Y3481538D02*
D03*
X6950000Y3540000D02*
D03*
X6891538Y3481538D02*
D03*
X6650000Y3540000D02*
D03*
X6591538Y3481538D02*
D03*
X6350000Y3540000D02*
D03*
X6291538Y3481538D02*
D03*
X6050000Y3540000D02*
D03*
X5991538Y3481538D02*
D03*
X5750000Y3540000D02*
D03*
X5691538Y3481538D02*
D03*
X5450000Y3540000D02*
D03*
X5391538Y3481538D02*
D03*
X5150000Y3540000D02*
D03*
X5091538Y3481538D02*
D03*
X4850000Y3540000D02*
D03*
X4791538Y3481538D02*
D03*
X4550000Y3540000D02*
D03*
X4491538Y3481538D02*
D03*
X8750000Y3340000D02*
D03*
X8691538Y3281538D02*
D03*
X8450000Y3340000D02*
D03*
X8391538Y3281538D02*
D03*
X8150000Y3340000D02*
D03*
X8091538Y3281538D02*
D03*
X7850000Y3340000D02*
D03*
X7791538Y3281538D02*
D03*
X7550000Y3340000D02*
D03*
X7491538Y3281538D02*
D03*
X7250000Y3340000D02*
D03*
X7191538Y3281538D02*
D03*
X6950000Y3340000D02*
D03*
X6891538Y3281538D02*
D03*
X6650000Y3340000D02*
D03*
X6591538Y3281538D02*
D03*
X6350000Y3340000D02*
D03*
X6291538Y3281538D02*
D03*
X6050000Y3340000D02*
D03*
X5991538Y3281538D02*
D03*
X5750000Y3340000D02*
D03*
X5691538Y3281538D02*
D03*
X5450000Y3340000D02*
D03*
X5391538Y3281538D02*
D03*
X5150000Y3340000D02*
D03*
X5091538Y3281538D02*
D03*
X4850000Y3340000D02*
D03*
X4791538Y3281538D02*
D03*
X4550000Y3340000D02*
D03*
X4491538Y3281538D02*
D03*
X8750000Y3140000D02*
D03*
X8691538Y3081538D02*
D03*
X8450000Y3140000D02*
D03*
X8391538Y3081538D02*
D03*
X8150000Y3140000D02*
D03*
X8091538Y3081538D02*
D03*
X7850000Y3140000D02*
D03*
X7791538Y3081538D02*
D03*
X7550000Y3140000D02*
D03*
X7491538Y3081538D02*
D03*
X7250000Y3140000D02*
D03*
X7191538Y3081538D02*
D03*
X6950000Y3140000D02*
D03*
X6891538Y3081538D02*
D03*
X6650000Y3140000D02*
D03*
X6591538Y3081538D02*
D03*
X6350000Y3140000D02*
D03*
X6291538Y3081538D02*
D03*
X6050000Y3140000D02*
D03*
X5991538Y3081538D02*
D03*
X5750000Y3140000D02*
D03*
X5691538Y3081538D02*
D03*
X5450000Y3140000D02*
D03*
X5391538Y3081538D02*
D03*
X5150000Y3140000D02*
D03*
X5091538Y3081538D02*
D03*
X4850000Y3140000D02*
D03*
X4791538Y3081538D02*
D03*
X4550000Y3140000D02*
D03*
X4491538Y3081538D02*
D03*
X8750000Y2940000D02*
D03*
X8691538Y2881538D02*
D03*
X8450000Y2940000D02*
D03*
X8391538Y2881538D02*
D03*
X8150000Y2940000D02*
D03*
X8091538Y2881538D02*
D03*
X7850000Y2940000D02*
D03*
X7791538Y2881538D02*
D03*
X7550000Y2940000D02*
D03*
X7491538Y2881538D02*
D03*
X7250000Y2940000D02*
D03*
X7191538Y2881538D02*
D03*
X6950000Y2940000D02*
D03*
X6891538Y2881538D02*
D03*
X6650000Y2940000D02*
D03*
X6591538Y2881538D02*
D03*
X6350000Y2940000D02*
D03*
X6291538Y2881538D02*
D03*
X6050000Y2940000D02*
D03*
X5991538Y2881538D02*
D03*
X5750000Y2940000D02*
D03*
X5691538Y2881538D02*
D03*
X5450000Y2940000D02*
D03*
X5391538Y2881538D02*
D03*
X5150000Y2940000D02*
D03*
X5091538Y2881538D02*
D03*
X4850000Y2940000D02*
D03*
X4791538Y2881538D02*
D03*
X4550000Y2940000D02*
D03*
X4491538Y2881538D02*
D03*
X8750000Y2740000D02*
D03*
X8691538Y2681538D02*
D03*
X8450000Y2740000D02*
D03*
X8391538Y2681538D02*
D03*
X8150000Y2740000D02*
D03*
X8091538Y2681538D02*
D03*
X7850000Y2740000D02*
D03*
X7791538Y2681538D02*
D03*
X7550000Y2740000D02*
D03*
X7491538Y2681538D02*
D03*
X7250000Y2740000D02*
D03*
X7191538Y2681538D02*
D03*
X6950000Y2740000D02*
D03*
X6891538Y2681538D02*
D03*
X6650000Y2740000D02*
D03*
X6591538Y2681538D02*
D03*
X6350000Y2740000D02*
D03*
X6291538Y2681538D02*
D03*
X6050000Y2740000D02*
D03*
X5991538Y2681538D02*
D03*
X5750000Y2740000D02*
D03*
X5691538Y2681538D02*
D03*
X5450000Y2740000D02*
D03*
X5391538Y2681538D02*
D03*
X5150000Y2740000D02*
D03*
X5091538Y2681538D02*
D03*
X4850000Y2740000D02*
D03*
X4791538Y2681538D02*
D03*
X4550000Y2740000D02*
D03*
X4491538Y2681538D02*
D03*
X8750000Y2540000D02*
D03*
X8691538Y2481538D02*
D03*
X8450000Y2540000D02*
D03*
X8391538Y2481538D02*
D03*
X8150000Y2540000D02*
D03*
X8091538Y2481538D02*
D03*
X7850000Y2540000D02*
D03*
X7791538Y2481538D02*
D03*
X7550000Y2540000D02*
D03*
X7491538Y2481538D02*
D03*
X7250000Y2540000D02*
D03*
X7191538Y2481538D02*
D03*
X6950000Y2540000D02*
D03*
X6891538Y2481538D02*
D03*
X6650000Y2540000D02*
D03*
X6591538Y2481538D02*
D03*
X6350000Y2540000D02*
D03*
X6291538Y2481538D02*
D03*
X6050000Y2540000D02*
D03*
X5991538Y2481538D02*
D03*
X5750000Y2540000D02*
D03*
X5691538Y2481538D02*
D03*
X5450000Y2540000D02*
D03*
X5391538Y2481538D02*
D03*
X5150000Y2540000D02*
D03*
X5091538Y2481538D02*
D03*
X4850000Y2540000D02*
D03*
X4791538Y2481538D02*
D03*
X4550000Y2540000D02*
D03*
X4491538Y2481538D02*
D03*
D24*
X4123465Y3525000D02*
D03*
X4056535D02*
D03*
D25*
X3121496Y2675000D02*
D03*
X3058504D02*
D03*
X4126496Y3275000D02*
D03*
X4063504D02*
D03*
X4136496Y3070000D02*
D03*
X4073504D02*
D03*
X1819341Y3840000D02*
D03*
X1882333D02*
D03*
X1882333Y3935000D02*
D03*
X1819341D02*
D03*
X2015837Y3835000D02*
D03*
X2078829D02*
D03*
X2410837Y4180000D02*
D03*
X2473829D02*
D03*
Y3940000D02*
D03*
X2410837D02*
D03*
X2473829Y4100000D02*
D03*
X2410837D02*
D03*
X2473829Y4020000D02*
D03*
X2410837D02*
D03*
D26*
X3625000Y3618504D02*
D03*
Y3681496D02*
D03*
X3430000Y3681496D02*
D03*
Y3618504D02*
D03*
X3390000Y2488504D02*
D03*
Y2551496D02*
D03*
X3605000Y2493504D02*
D03*
Y2556496D02*
D03*
X3905000Y2488504D02*
D03*
Y2551496D02*
D03*
X2245837Y3576496D02*
D03*
Y3513504D02*
D03*
X2025837Y4016496D02*
D03*
Y3953504D02*
D03*
X2325837Y4212992D02*
D03*
Y4150000D02*
D03*
X2240837Y4148504D02*
D03*
Y4211496D02*
D03*
X2155837Y4150000D02*
D03*
Y4212992D02*
D03*
X2070837Y4148504D02*
D03*
Y4211496D02*
D03*
X1985837Y4148504D02*
D03*
Y4211496D02*
D03*
X1900837Y4148504D02*
D03*
Y4211496D02*
D03*
D27*
X2455837Y3765000D02*
X2685837Y3535000D01*
X2810837D01*
X2360837Y3670000D02*
X2455837Y3765000D01*
X2360837Y3465000D02*
Y3670000D01*
X4171429Y2853299D02*
X4173114Y2851614D01*
X4318664Y2772874D02*
X4450769Y2640769D01*
X4227874Y2772874D02*
X4318664D01*
X4310834Y2835769D02*
X4445769D01*
X4440769Y2995769D02*
Y3030769D01*
X4370000Y3165000D02*
X4440769Y3235769D01*
X4245000Y3025000D02*
Y4035000D01*
X4430769Y4220769D01*
X4410000Y2451538D02*
Y2635000D01*
Y2451538D02*
X4435769Y2425769D01*
X4291811Y2753189D02*
X4410000Y2635000D01*
X4241811Y2753189D02*
X4291811D01*
X4267624Y2792559D02*
X4310834Y2835769D01*
X4132000Y2792559D02*
X4267624D01*
X4229355Y2890798D02*
Y2892213D01*
X4253769Y2873769D02*
X4345000Y2965000D01*
X4320000Y2982857D02*
Y3510000D01*
X4173114Y2851614D02*
X4266614D01*
X4237782Y2873769D02*
X4253769D01*
X4229355Y2892213D02*
X4320000Y2982857D01*
X4266614Y2851614D02*
X4370000Y2955000D01*
X4260000Y2815000D02*
X4440769Y2995769D01*
X4370000Y2955000D02*
Y3165000D01*
X4345000Y3335000D02*
X4445769Y3435769D01*
X4345000Y2965000D02*
Y3335000D01*
X4295000Y2985000D02*
Y3684375D01*
X4440769Y3830144D01*
X4320000Y3510000D02*
X4450769Y3640769D01*
X3680000Y2395000D02*
X3700000Y2375000D01*
X3930000D02*
X4005030Y2450030D01*
X3700000Y2375000D02*
X3930000D01*
X2817339Y3098472D02*
X2825267D01*
X2817398Y3079472D02*
X2818335Y3078535D01*
X2832853D01*
X2825704Y3098036D02*
X2845360D01*
X2829909Y3128035D02*
X2830409Y3128536D01*
X2837833Y2997492D02*
Y3032167D01*
X2736310Y3099843D02*
X2815969D01*
X2845360Y3098036D02*
X2847167Y3099843D01*
X2736310Y3080157D02*
X2808784D01*
X2809469Y3079472D01*
X2809528Y3060472D02*
X2837833Y3032167D01*
X2825267Y3098472D02*
X2825704Y3098036D01*
X2815969Y3099843D02*
X2817339Y3098472D01*
X2809469Y3079472D02*
X2817398D01*
X2736310Y3060472D02*
X2809528D01*
X2847167Y3099843D02*
X2891231D01*
X2826113Y3221113D02*
Y3270787D01*
X2736404Y3158992D02*
X2790862D01*
X2831079Y3199209D01*
X2783677Y3178677D02*
X2826113Y3221113D01*
X2818165Y3159425D02*
X2874751D01*
X2797953Y3139213D02*
X2818165Y3159425D01*
X2831079Y3199209D02*
X2834534D01*
X2808808Y3119433D02*
X2817410Y3128035D01*
X2832853Y3078535D02*
X2870814Y3040575D01*
X2736404Y3178677D02*
X2783677D01*
X2736310Y3139213D02*
X2797953D01*
X2817410Y3128035D02*
X2829909D01*
X2335837Y3265000D02*
X2355396Y3245441D01*
X2295459Y3218047D02*
X2337944D01*
X2355396Y3235500D01*
Y3245441D01*
X2349703Y3092012D02*
Y3171459D01*
X2342674Y3178488D02*
X2349703Y3171459D01*
X2295459Y3178488D02*
X2342674D01*
X2231113Y3173887D02*
Y3264449D01*
X2246008Y3158992D02*
X2295270D01*
X2231113Y3173887D02*
X2246008Y3158992D01*
X2295459Y3080252D02*
X2337944D01*
X2349703Y3092012D01*
X2736310Y3119528D02*
X2736404Y3119433D01*
X2427160Y3371323D02*
X2455837Y3400000D01*
X2736310Y2981732D02*
X2736310Y2981732D01*
X2427255Y2869528D02*
X2427349Y2869622D01*
X2295365Y3178583D02*
X2295459Y3178488D01*
X2445867Y2940030D02*
X2455808D01*
X2565000Y2790000D02*
X2620837D01*
X2427349Y2921512D02*
X2445867Y2940030D01*
X2673790Y2927047D02*
X2715837Y2885000D01*
X2539811Y2815189D02*
X2565000Y2790000D01*
X2537534Y2815189D02*
X2539811D01*
X2525680Y2827043D02*
Y2869528D01*
X2455808Y2940030D02*
X2455837Y2940000D01*
X2295365Y3080157D02*
X2295459Y3080252D01*
X2427160Y3310567D02*
X2427255Y3310472D01*
X2627569Y2981732D02*
X2736310D01*
X2525680Y2827043D02*
X2537534Y2815189D01*
X2295270Y3158992D02*
X2295365Y3158898D01*
X2455837Y2940000D02*
X2630837D01*
X2427160Y3310567D02*
Y3371323D01*
X2643790Y2869528D02*
Y2927047D01*
X2630837Y2940000D02*
X2643790Y2927047D01*
X2295365Y3040787D02*
Y3060472D01*
X2625837Y2980000D02*
X2627569Y2981732D01*
X2736404Y3119433D02*
X2808808D01*
X2427349Y2869622D02*
Y2921512D01*
X2643790Y2927047D02*
X2673790D01*
X2335837Y3265000D02*
Y3440000D01*
X2606900Y2699213D02*
X2610837D01*
X2506089Y2813428D02*
Y2869433D01*
X2569517Y2750000D02*
X2641113D01*
X2506089Y2813428D02*
X2569517Y2750000D01*
X2525837Y2745000D02*
X2547647D01*
X2575113Y2731000D02*
X2606900Y2699213D01*
X2561647Y2731000D02*
X2575113D01*
X2547647Y2745000D02*
X2561647Y2731000D01*
X2265000Y2775265D02*
X2265837Y2776102D01*
X2265000Y2710000D02*
Y2775265D01*
X3714199Y2537811D02*
X3730837Y2554449D01*
X3682811Y2537811D02*
X3714199D01*
X3670000Y2525000D02*
X3682811Y2537811D01*
X3670000Y2460000D02*
Y2525000D01*
X3635000Y2425000D02*
X3670000Y2460000D01*
X2614774Y2630315D02*
X2820089Y2425000D01*
X3635000D01*
X2765089Y2395000D02*
X3680000D01*
X2529774Y2630315D02*
X2765089Y2395000D01*
X3905000Y2770000D02*
X4005000Y2670000D01*
X4005030Y2450030D02*
Y2459970D01*
X4005000Y2460000D02*
X4005030Y2459970D01*
X4005000Y2460000D02*
Y2670000D01*
X2525837Y2630315D02*
X2529774D01*
X2161533Y3099843D02*
X2330365D01*
X2155077Y3093386D02*
X2161533Y3099843D01*
X1972371Y3093386D02*
X2155077D01*
X2160982Y3119528D02*
X2330365D01*
X2155628Y3124882D02*
X2160982Y3119528D01*
X1972371Y3124882D02*
X2155628D01*
X2295365Y3217953D02*
X2295459Y3218047D01*
X2295270Y3139307D02*
X2295365Y3139213D01*
X2190837Y3195551D02*
X2194774D01*
X2211412Y3178913D01*
X2218441Y3139307D02*
X2295270D01*
X2211412Y3146337D02*
X2218441Y3139307D01*
X2211412Y3146337D02*
Y3178913D01*
X2335837Y3440000D02*
X2360837Y3465000D01*
X2122867Y2925000D02*
X2215837D01*
X2115837Y2932030D02*
X2122867Y2925000D01*
X2115837Y2932030D02*
Y2965000D01*
X2215837Y2925000D02*
X2245837Y2955000D01*
Y2955018D02*
X2252772Y2961953D01*
X2295270D01*
X2295365Y2962047D01*
X2245837Y2955000D02*
Y2955018D01*
X2095837Y2985000D02*
X2115837Y2965000D01*
X2050837Y2985000D02*
X2095837D01*
X2736310Y3217953D02*
X2736404Y3218047D01*
X2368199Y2712126D02*
Y2869528D01*
X2355837Y2699764D02*
X2368199Y2712126D01*
X2440837Y2699764D02*
Y2748866D01*
X2387885Y2801819D02*
X2440837Y2748866D01*
X2387885Y2801819D02*
Y2869528D01*
X2446940D02*
X2447034Y2869433D01*
X2505897Y2715850D02*
Y2729941D01*
X2447034Y2788803D02*
X2505897Y2729941D01*
Y2715850D02*
X2522535Y2699213D01*
X2525837D01*
X2447034Y2788803D02*
Y2869433D01*
X2486310Y2784528D02*
Y2869528D01*
X2691900Y2699213D02*
X2695837D01*
X2486310Y2784528D02*
X2525837Y2745000D01*
X2505995Y2869528D02*
X2506089Y2869433D01*
X2641113Y2750000D02*
X2691900Y2699213D01*
X2810837Y2944488D02*
X2891388Y2863937D01*
Y2860000D02*
Y2863937D01*
Y2940000D02*
Y2943937D01*
X2837833Y2997492D02*
X2891388Y2943937D01*
X2795050Y3040787D02*
X2810837Y3025000D01*
Y2944488D02*
Y3025000D01*
X2736310Y3040787D02*
X2795050D01*
X2874751Y3040575D02*
X2891388Y3023937D01*
Y3020000D02*
Y3023937D01*
X2870814Y3040575D02*
X2874751D01*
X2891231Y3099843D02*
X2891388Y3100000D01*
Y3176063D02*
Y3180000D01*
X2874751Y3159425D02*
X2891388Y3176063D01*
Y3256063D02*
Y3260000D01*
X2834534Y3199209D02*
X2891388Y3256063D01*
X2736310Y3158898D02*
X2736404Y3158992D01*
X2826113Y3270787D02*
X2891388Y3336063D01*
X2736310Y3178583D02*
X2736404Y3178677D01*
X2891388Y3336063D02*
Y3340000D01*
X2888292Y3423096D02*
Y3457545D01*
Y3423096D02*
X2891388Y3420000D01*
X2810837Y3535000D02*
X2888292Y3457545D01*
X2295365Y2874528D02*
Y2942362D01*
X2286412Y2865575D02*
X2295365Y2874528D01*
X2286412Y2861638D02*
Y2865575D01*
X2269774Y2845000D02*
X2286412Y2861638D01*
X2265837Y2845000D02*
X2269774D01*
D28*
X2787500Y3377500D02*
X2800000Y3365000D01*
X2775000Y3390000D02*
X2787500Y3377500D01*
X2802500D02*
X2830000Y3405000D01*
X2787500Y3377500D02*
X2802500D01*
X2736310Y3217953D02*
X2787953D01*
X2800000Y3230000D01*
Y3365000D01*
X2624451Y3359451D02*
X2655000Y3390000D01*
X2775000D01*
X3445000Y2551496D02*
X3456496D01*
X3860622Y3489756D02*
X3863386Y3492520D01*
X4002552Y3422559D02*
X4015150Y3435156D01*
X4090001Y3445000D02*
X4097019Y3437981D01*
X3875000Y3365000D02*
X3910000D01*
X4070216Y3125216D02*
X4075000Y3130000D01*
X3141024Y3048543D02*
X3233543D01*
X3200000Y3380000D02*
X3368235D01*
X3075668Y2784332D02*
X3106811Y2753189D01*
X3975591Y3422480D02*
X3975669Y3422559D01*
X4032150Y3432150D02*
X4045000Y3445000D01*
X3910000Y3365000D02*
X3931260Y3343740D01*
X4164042Y3185000D02*
X4200000D01*
X4018150Y3087835D02*
X4055532Y3125216D01*
X3975669Y3009016D02*
X4009315D01*
X3705000Y2835000D02*
X3804252Y2735748D01*
X3646850Y2680354D02*
Y2721850D01*
X3220000Y2870000D02*
X3226765D01*
X3140945Y2772874D02*
X3141024Y2772953D01*
X3595000Y3426765D02*
X3627165Y3458930D01*
X3292598Y3572598D02*
X3295000Y3575000D01*
X3485000Y2775000D02*
X3837205Y3127205D01*
X4097019Y3437981D02*
X4100254D01*
X3912500Y3282437D02*
X3929938Y3265000D01*
X4071083Y3168000D02*
X4102000D01*
X3843622Y2680433D02*
X3843701Y2680354D01*
X3845216Y2624784D02*
X3855216D01*
X3378683Y2720913D02*
X3390945Y2708651D01*
X3140945Y3205945D02*
X3295945D01*
X4025931Y3146890D02*
X4064042Y3185000D01*
X3863465Y2680433D02*
Y3093465D01*
X3378683Y2720913D02*
X3378683D01*
X3403235Y3345000D02*
X3435000D01*
X3450000Y3515000D02*
Y3545000D01*
X4038384Y3320000D02*
X4190000D01*
X3975591Y3087835D02*
X4018150D01*
X3830000Y2794500D02*
X3830481Y2794019D01*
X3080000Y2788665D02*
Y2915000D01*
X3975591Y3383110D02*
X4033110D01*
X3975591Y3304370D02*
X4022754D01*
X3770000Y3190000D02*
Y3394731D01*
X3975591Y3363425D02*
X4066660D01*
X3901719Y3195000D02*
X3911719Y3205000D01*
X3292520Y3515000D02*
X3292598Y3515079D01*
X4071221Y3225630D02*
X4071851Y3225000D01*
X3880000Y3195000D02*
X3901719D01*
X4057000Y3202000D02*
X4147042D01*
X3605000Y2835000D02*
X3705000D01*
X3233543Y3048543D02*
X3235000Y3050000D01*
X3595000Y3420000D02*
Y3426765D01*
X3450000Y3545000D02*
X3485216Y3580216D01*
X3810000Y3245000D02*
Y3300000D01*
X3940315Y3284685D02*
X3975591D01*
X3975669Y3166653D02*
X4021653D01*
X3863465Y3093465D02*
X3865000Y3095000D01*
X3234948Y2861817D02*
X3237779D01*
X3917080Y3245315D02*
X3975591D01*
X4193235Y3235000D02*
X4200000D01*
X3912664Y3205945D02*
X3975591D01*
X3905000Y3160000D02*
X3931260Y3186260D01*
X3975591D01*
X4140000Y3185000D02*
X4195000Y3130000D01*
X3975591Y3107520D02*
X3975669Y3107598D01*
X3975591Y2851614D02*
X4173114D01*
X3883071Y2745967D02*
X3905000Y2767896D01*
X3140945Y3186260D02*
Y3205945D01*
X3292598Y3515079D02*
Y3572598D01*
X3837205Y3127205D02*
X3975591D01*
X3095354Y2930354D02*
X3140945D01*
X3824016Y2645984D02*
X3845216Y2624784D01*
X3555000Y2785000D02*
X3605000Y2835000D01*
X3141024Y3343819D02*
X3206181D01*
X4071851Y3225000D02*
X4183235D01*
X3975591Y3166575D02*
X3975669Y3166653D01*
X3430315Y3478332D02*
X3473647Y3435000D01*
X4045000Y3475000D02*
X4150000D01*
X3880000Y3285000D02*
X3882563Y3282437D01*
X4021653Y3166653D02*
X4057000Y3202000D01*
X4147042D02*
X4164042Y3185000D01*
X4055532Y3125216D02*
X4070216D01*
X3863386Y2680354D02*
X3863465Y2680433D01*
X3183425Y3363425D02*
X3200000Y3380000D01*
X3485216Y3580216D02*
X3495216D01*
X4136682Y3355020D02*
X4140020D01*
X4030331Y2988000D02*
X4042000D01*
X3824016Y2645984D02*
Y2680354D01*
X3368235Y3380000D02*
X3403235Y3345000D01*
X3473647Y3435000D02*
X3490000D01*
X4100254Y3437981D02*
X4108235Y3430000D01*
X3810000Y3300000D02*
X3875000Y3365000D01*
X3911719Y3205000D02*
X3912664Y3205945D01*
X4064042Y3185000D02*
X4140000D01*
X4042000Y2988000D02*
X4065000Y2965000D01*
X3843622Y2680433D02*
Y2776378D01*
X3804252Y2680433D02*
X3804331Y2680354D01*
X3140945Y3363425D02*
X3183425D01*
X3929938Y3265000D02*
X3975591D01*
X3975669Y3107598D02*
X4010682D01*
X3775000Y2806367D02*
Y2850000D01*
X3080000Y2915000D02*
X3095354Y2930354D01*
X4015150Y3445150D02*
X4045000Y3475000D01*
X3895000Y3330000D02*
X3940315Y3284685D01*
X3975591Y3146890D02*
X4025931D01*
X3830481Y2789519D02*
X3843622Y2776378D01*
X3607480Y2760715D02*
X3620000Y2773235D01*
X3295945Y3205945D02*
X3435000Y3345000D01*
X3075668Y2784332D02*
X3080000Y2788665D01*
X3329646Y2930354D02*
X3485000Y2775000D01*
X3489291Y2680433D02*
X3489370Y2680354D01*
X4032150Y3412150D02*
Y3432150D01*
X4108235Y3430000D02*
X4115000D01*
X4183235Y3225000D02*
X4193235Y3235000D01*
X3975591Y3009095D02*
X3975669Y3009016D01*
X3883071Y2680354D02*
Y2745967D01*
X3742347Y2742347D02*
X3747131Y2737564D01*
X3141024Y2772953D02*
X3217480D01*
X3860622Y3485353D02*
Y3489756D01*
X3770000Y3394731D02*
X3860622Y3485353D01*
X4078235Y3375000D02*
X4085000D01*
X4034342Y3340000D02*
X4121662D01*
X3140945Y2871299D02*
X3141024Y2871220D01*
X3140945Y3048465D02*
X3141024Y3048543D01*
X3770000Y3190000D02*
X3835000Y3125000D01*
X4190000Y3320000D02*
X4210000Y3340000D01*
X3905000Y3035000D02*
X3938150Y3068150D01*
X3830481Y2789519D02*
Y2794019D01*
X3237779Y2861817D02*
X3378683Y2720913D01*
X3495216Y3580216D02*
X3500000Y3585000D01*
X3430315Y3478332D02*
Y3515000D01*
X4015150Y3435156D02*
Y3445150D01*
X3141024Y2871220D02*
X3218780D01*
X3620000Y2773235D02*
Y2780000D01*
X3627165Y3458930D02*
Y3515000D01*
X3489291Y2680433D02*
Y2770709D01*
X3975669Y3422559D02*
X4002552D01*
X4022795Y3402795D02*
X4032150Y3412150D01*
X4102000Y3168000D02*
X4135000Y3135000D01*
X3938150Y3068150D02*
X3975591D01*
X3855216Y2624784D02*
X3860000Y2620000D01*
X3804252Y2680433D02*
Y2735748D01*
X3106811Y2753189D02*
X3140945D01*
X4022754Y3304370D02*
X4038384Y3320000D01*
X3900000Y3235000D02*
X3906765D01*
X3140945Y2930354D02*
X3329646D01*
X3931260Y3343740D02*
X3975591D01*
X3882563Y3282437D02*
X3912500D01*
X4010682Y3107598D02*
X4071083Y3168000D01*
X3646850Y2721850D02*
X3695000Y2770000D01*
X3485000Y2775000D02*
X3489291Y2770709D01*
X4066660Y3363425D02*
X4078235Y3375000D01*
X3784646Y2680354D02*
Y2715354D01*
X3390945Y2680354D02*
Y2708651D01*
X3975591Y3402795D02*
X4022795D01*
X4045000Y3445000D02*
X4090001D01*
X4121662Y3340000D02*
X4136682Y3355020D01*
X4033110Y3383110D02*
X4065000Y3415000D01*
X3975591Y3225630D02*
X4071221D01*
X3975591Y3324055D02*
X4018397D01*
X4034342Y3340000D01*
X3720000Y2905000D02*
X3775000Y2850000D01*
Y2806367D02*
X3824016Y2757351D01*
X3747131Y2737564D02*
X3762436D01*
X3140945Y3343740D02*
X3141024Y3343819D01*
X3906765Y3235000D02*
X3917080Y3245315D01*
X3824016Y2680354D02*
Y2757351D01*
X3762436Y2737564D02*
X3784646Y2715354D01*
X3607480Y2680354D02*
Y2760715D01*
X4009315Y3009016D02*
X4030331Y2988000D01*
X3905000Y2767896D02*
Y2770000D01*
X3218780Y2871220D02*
X3220000Y2870000D01*
X3226765D02*
X3234948Y2861817D01*
X3206181Y3343819D02*
X3220000Y3330000D01*
X2960286Y3183937D02*
X3007000Y3230651D01*
X3075000Y3268323D02*
X3079924Y3273247D01*
Y3278748D01*
X3058000Y3097609D02*
Y3275365D01*
X3045924Y3287330D02*
Y3292832D01*
X3011924Y3301413D02*
Y3306915D01*
X2960286Y3103937D02*
X3024000Y3167651D01*
Y3289448D01*
X3041000Y3104651D02*
Y3282406D01*
X3062924Y3280288D02*
Y3285790D01*
X3085782Y3284606D02*
X3118386D01*
X3079924Y3278748D02*
X3085782Y3284606D01*
X2960286Y3023937D02*
X3041000Y3104651D01*
X2960286Y3263937D02*
X2990000Y3293651D01*
X3028924Y3299873D02*
X3112082Y3383032D01*
X3007000Y3230651D02*
Y3296489D01*
X3058000Y3275365D02*
X3062924Y3280288D01*
X3075000Y2978651D02*
Y3268323D01*
X3028924Y3294372D02*
Y3299873D01*
X3011924Y3306915D02*
X3107726Y3402717D01*
X3024000Y3289448D02*
X3028924Y3294372D01*
X2994924Y3339924D02*
X3077402Y3422402D01*
X3045924Y3292832D02*
X3077147Y3324055D01*
X3081504Y3304370D02*
X3140945D01*
X3007000Y3296489D02*
X3011924Y3301413D01*
X3005000Y3044609D02*
X3058000Y3097609D01*
X3077147Y3324055D02*
X3140945D01*
X2994924Y3308455D02*
Y3339924D01*
X2990000Y3293651D02*
Y3303531D01*
X3005000Y2984714D02*
Y3044609D01*
X3062924Y3285790D02*
X3081504Y3304370D01*
X2990000Y3303531D02*
X2994924Y3308455D01*
X2960286Y2863937D02*
X3075000Y2978651D01*
X3041000Y3282406D02*
X3045924Y3287330D01*
X3112082Y3383032D02*
X3140866D01*
X3107726Y3402717D02*
X3140866D01*
X4265000Y3010858D02*
Y4001982D01*
X4270858Y4007840D01*
X4412428D01*
X4430358Y4025769D01*
X4259142Y3005000D02*
X4265000Y3010858D01*
X4037373Y3005000D02*
X4259142D01*
X4430358Y4025769D02*
X4435769D01*
X4013593Y3028780D02*
X4037373Y3005000D01*
X4042828Y3025000D02*
X4245000D01*
X4019364Y3048465D02*
X4042828Y3025000D01*
X4126496Y3275000D02*
X4141496Y3290000D01*
X4200000D01*
X4006170Y3285000D02*
X4073504D01*
X4005934Y3284764D02*
X4006170Y3285000D01*
X3998150Y3284764D02*
X4005934D01*
X3863386Y3492520D02*
Y3626614D01*
X4136496Y3070000D02*
X4204500D01*
X3975591Y2753189D02*
X4241811D01*
X4257244Y2812244D02*
X4260000Y2815000D01*
X3975591Y2812244D02*
X4257244D01*
X3975591Y2792559D02*
X4132000D01*
X3975591Y2772874D02*
X4227874D01*
X4171356Y2890984D02*
X4171542Y2890798D01*
X3975591Y2871299D02*
X4235312D01*
X4237782Y2873769D01*
X3975591Y2890984D02*
X4171356D01*
X4171542Y2890798D02*
X4229355D01*
X3975591Y2910669D02*
X4220669D01*
X4295000Y2985000D01*
X2525758Y3385758D02*
X2540000Y3400000D01*
X2525758Y3310551D02*
Y3385758D01*
X2624451Y3310819D02*
Y3359451D01*
X2526026Y3258974D02*
Y3310126D01*
Y3258974D02*
X2535000Y3250000D01*
X2625837D01*
X2368546Y3257747D02*
X2373396Y3252897D01*
X2369538Y3021102D02*
Y3135070D01*
X2368546Y3257747D02*
Y3310126D01*
X2368199Y3310472D02*
X2368546Y3310126D01*
X2373396Y3138929D02*
Y3252897D01*
X2369538Y3135070D02*
X2373396Y3138929D01*
X1813475Y3576811D02*
X1868189D01*
X1886270Y3514843D02*
Y3558730D01*
X1868189Y3576811D02*
X1886270Y3558730D01*
X2065404Y3514843D02*
Y3555404D01*
X2091811Y3581811D02*
X2138199D01*
X2065404Y3555404D02*
X2091811Y3581811D01*
X2365837Y2975000D02*
Y2990000D01*
X2625837Y3194370D02*
X2663475Y3232008D01*
X2233814Y3012023D02*
X2244420Y3001417D01*
X2643444Y3267606D02*
Y3310126D01*
X2400837Y3423235D02*
Y3430000D01*
X2370885Y3372271D02*
X2387538Y3355618D01*
X2295018Y3040441D02*
X2295365Y3040787D01*
X2663948Y3310000D02*
X2705837D01*
X2625837Y3250000D02*
X2643444Y3267606D01*
X2663475Y3232008D02*
Y3310472D01*
X2625837Y3021102D02*
X2640837D01*
X2352885Y2962047D02*
X2365837Y2975000D01*
X2370885Y3372271D02*
Y3379036D01*
X2244420Y3001417D02*
X2354420D01*
X2233814Y3020307D02*
X2253948Y3040441D01*
X2663475Y3310472D02*
X2663948Y3310000D01*
X2387538Y3310819D02*
X2387885Y3310472D01*
X2253948Y3040441D02*
X2295018D01*
X2644735Y3021102D02*
X2736310D01*
X2625837D02*
Y3194370D01*
X2295365Y2962047D02*
X2352885D01*
X2407570Y3310472D02*
Y3416503D01*
X2233814Y3012023D02*
Y3020307D01*
X2295365Y3021102D02*
X2369538D01*
X2525680Y3310472D02*
X2526026Y3310126D01*
X2640837Y3021102D02*
X2644735D01*
X2643444Y3310126D02*
X2643790Y3310472D01*
X2525680D02*
X2525758Y3310551D01*
X2369538Y3021102D02*
X2625837D01*
X2400837Y3423235D02*
X2407570Y3416503D01*
X2387538Y3310819D02*
Y3355618D01*
X2354420Y3001417D02*
X2365837Y2990000D01*
X3058504Y2767169D02*
X3075668Y2784332D01*
X3390945Y2555551D02*
Y2680354D01*
X3450000Y2556496D02*
Y2596500D01*
X3975591Y3048465D02*
X4019364D01*
X3975591Y3028780D02*
X4013593D01*
X2400837Y4250000D02*
X2525000D01*
X2545000Y4230000D01*
Y4110000D02*
X2915000Y3740000D01*
X2545000Y4110000D02*
Y4230000D01*
X2915000Y3740000D02*
X3750000D01*
X3863386Y3626614D01*
X4071654Y3068150D02*
X4073504Y3070000D01*
X3975591Y3068150D02*
X4071654D01*
X3625000Y3681496D02*
X3626496Y3680000D01*
X3690000D01*
X3370000Y3685000D02*
X3426496D01*
X3430000Y3681496D01*
X3627165Y3515000D02*
Y3616338D01*
X3625000Y3618504D02*
X3627165Y3616338D01*
X3430315Y3515000D02*
Y3618189D01*
X3430000Y3618504D02*
X3430315Y3618189D01*
X3784646Y2630852D02*
Y2680354D01*
X2695837Y2630315D02*
X2696152Y2630000D01*
X2760000D01*
X3058504Y2675000D02*
Y2767169D01*
X3217480Y2772953D02*
X3219528Y2775000D01*
X3121496Y2676968D02*
X3217480Y2772953D01*
X3121496Y2675000D02*
Y2676968D01*
X3219528Y2775000D02*
X3220000D01*
X3395000Y2551496D02*
X3445000D01*
X3450000Y2556496D01*
X3905000Y2551496D02*
X3906496Y2550000D01*
X3965000D01*
X3390000Y2551496D02*
X3395000D01*
X3390945Y2555551D02*
X3395000Y2551496D01*
X3586496Y2575000D02*
X3605000Y2556496D01*
X3480000Y2575000D02*
X3586496D01*
X3456496Y2551496D02*
X3480000Y2575000D01*
X3495000Y2488504D02*
X3600000D01*
X3390000D02*
X3495000D01*
Y2520000D01*
X3600000Y2488504D02*
X3605000Y2493504D01*
X2960286Y3420000D02*
Y3423937D01*
X3005216Y3468867D01*
Y3490216D01*
X3010000Y3495000D01*
X3607480Y2558976D02*
Y2680354D01*
X3605000Y2556496D02*
X3607480Y2558976D01*
X3902756Y2553740D02*
X3905000Y2551496D01*
X3902756Y2553740D02*
Y2680354D01*
X3815837Y2555000D02*
Y2599660D01*
X3784646Y2630852D02*
X3815837Y2599660D01*
X3730837Y2554449D02*
Y2597919D01*
X3764961Y2632042D01*
Y2680354D01*
X2960286Y2860000D02*
Y2863937D01*
Y2940000D02*
Y2943937D01*
X2977924Y2961575D01*
X2981861D01*
X3005000Y2984714D01*
X2960286Y3020000D02*
Y3023937D01*
X3140866Y3383032D02*
X3140945Y3383110D01*
X2960286Y3100000D02*
Y3103937D01*
Y3260000D02*
Y3263937D01*
X3077402Y3422402D02*
X3140866D01*
X2977924Y3361575D02*
X2986575D01*
X3067165Y3442165D02*
X3140945D01*
X2986575Y3361575D02*
X3067165Y3442165D01*
X2960286Y3180000D02*
Y3183937D01*
X3140866Y3402717D02*
X3140945Y3402795D01*
X3140866Y3422402D02*
X3140945Y3422480D01*
X2960286Y3340000D02*
Y3343937D01*
X2977924Y3361575D01*
X3997717Y3462244D02*
X4056535Y3521063D01*
X3975591Y3442165D02*
X3997638D01*
X3997717Y3442244D01*
Y3462244D01*
X4056535Y3521063D02*
Y3525000D01*
X1860680Y3745157D02*
X1861403Y3745881D01*
X1886270Y3745157D02*
Y3830590D01*
X1911861Y3745157D02*
X1937451D01*
X1860680D02*
Y3773662D01*
X1858934Y3775408D02*
X1860680Y3773662D01*
X1841374Y3775408D02*
X1858934D01*
X1819341Y3797441D02*
X1841374Y3775408D01*
X1819341Y3797441D02*
Y3840000D01*
X1931593Y3885000D02*
X1937451Y3879142D01*
Y3745157D02*
Y3879142D01*
X1963042Y3745157D02*
X1988632D01*
X1975837Y3651654D02*
X1988632Y3664449D01*
Y3745157D01*
X1963042Y3514843D02*
X1988632D01*
X1975837Y3608347D02*
X1988632Y3595551D01*
Y3514843D02*
Y3595551D01*
X2014223Y3745157D02*
X2039814D01*
X2014223D02*
Y3833386D01*
X2065404Y3821575D02*
X2078829Y3835000D01*
X2065404Y3745157D02*
Y3821575D01*
X1817589Y3885000D02*
X1931593D01*
X2090995Y3774685D02*
X2133672Y3817362D01*
X2090995Y3745157D02*
Y3774685D01*
X2133672Y3817362D02*
X2177648D01*
X2190837Y3830551D01*
X1795837Y3594449D02*
X1813475Y3576811D01*
X2138199Y3581811D02*
X2155837Y3599449D01*
X1911861Y3514843D02*
X1937451D01*
X2014223D02*
X2039814D01*
X1859774Y3450551D02*
X1860680Y3451457D01*
Y3514843D01*
X1910837Y3450551D02*
X1911861Y3451575D01*
Y3514843D01*
X2014223Y3452165D02*
X2015837Y3450551D01*
X2014223Y3452165D02*
Y3514843D01*
X2090995Y3455394D02*
X2095837Y3450551D01*
X2090995Y3455394D02*
Y3514843D01*
X2624105Y3310472D02*
X2624451Y3310819D01*
X2175837Y2969449D02*
X2178121Y2971732D01*
X2173121Y2981732D02*
X2295365D01*
X2247774Y3079811D02*
X2295018D01*
X2295365Y3080157D01*
X2212412Y3044449D02*
X2247774Y3079811D01*
X2170837Y3044449D02*
X2212412D01*
X2170286Y3045000D02*
X2170837Y3044449D01*
X4071337Y3254121D02*
X4072729Y3252729D01*
X3430000Y3681496D02*
X3440718Y3692215D01*
D29*
X4450769Y2640769D02*
X4491538Y2681538D01*
X6835769Y2427000D02*
X6836385D01*
X6890923Y2481538D01*
X6835385Y2320385D02*
X6899794D01*
X6893446Y2329470D02*
X6900179Y2322738D01*
X6835000Y2320000D02*
X6835385Y2320385D01*
X6891478Y2329470D02*
X6893446D01*
X6900179Y2320769D02*
Y2322738D01*
X6899794Y2320385D02*
X6900179Y2320769D01*
X4445769Y2835769D02*
X4491538Y2881538D01*
X4440769Y3030769D02*
X4491538Y3081538D01*
X4440769Y3235769D02*
X4442682Y3237682D01*
X6531452Y2427682D02*
X6537682D01*
X6240769Y2430769D02*
X6291538Y2481538D01*
X6530769Y2427000D02*
X6531452Y2427682D01*
X6240769Y2427000D02*
Y2430769D01*
X6890923Y2481538D02*
X6891538D01*
X7135769Y2425769D02*
X7191538Y2481538D01*
X7135000Y2320000D02*
X7135385Y2320385D01*
X4435769Y2425769D02*
X4491538Y2481538D01*
X5930769Y2425769D02*
X5933269D01*
X6537682Y2427682D02*
X6591538Y2481538D01*
X4740769Y2425769D02*
Y2430769D01*
X5635769Y2425769D02*
X5691538Y2481538D01*
X5335769Y2425769D02*
X5391538Y2481538D01*
X5035769Y2425769D02*
X5091538Y2481538D01*
X5933269Y2425769D02*
X5989038Y2481538D01*
X5991538D01*
X6291478Y2312068D02*
X6293446D01*
X6225000Y2320000D02*
X6225385Y2320385D01*
X5935385D02*
X5999794D01*
X6300179Y2318801D02*
Y2320769D01*
X6293446Y2312068D02*
X6300179Y2318801D01*
X6225385Y2320385D02*
X6299794D01*
X5935000Y2320000D02*
X5935385Y2320385D01*
X4740769Y2430769D02*
X4791538Y2481538D01*
X5040000Y2320000D02*
X5040385Y2320385D01*
X5099794D02*
X5100179Y2320769D01*
X5040385Y2320385D02*
X5099794D01*
X5100179Y2318801D02*
Y2320769D01*
X5400179Y2318801D02*
Y2320769D01*
X5325000Y2320000D02*
X5325385Y2320385D01*
X4280000Y2320000D02*
X4499409D01*
X4500179Y2320769D01*
Y2318801D02*
Y2320769D01*
X8699794Y2320385D02*
X8700179Y2320769D01*
X8625385Y2320385D02*
X8699794D01*
X8625000Y2320000D02*
X8625385Y2320385D01*
X8399794D02*
X8400179Y2320769D01*
X8325385Y2320385D02*
X8399794D01*
X8325000Y2320000D02*
X8325385Y2320385D01*
X8099794D02*
X8100179Y2320769D01*
X8025385Y2320385D02*
X8099794D01*
X8025000Y2320000D02*
X8025385Y2320385D01*
X7799794D02*
X7800179Y2320769D01*
X7735385Y2320385D02*
X7799794D01*
X7735000Y2320000D02*
X7735385Y2320385D01*
X7494794D02*
X7495179Y2320769D01*
X7425385Y2320385D02*
X7494794D01*
X7425000Y2320000D02*
X7425385Y2320385D01*
X7199794D02*
X7200179Y2320769D01*
X7135385Y2320385D02*
X7199794D01*
X6599794D02*
X6600179Y2320769D01*
X6535385Y2320385D02*
X6599794D01*
X6535000Y2320000D02*
X6535385Y2320385D01*
X6299794D02*
X6300179Y2320769D01*
X5999794Y2320385D02*
X6000179Y2320769D01*
X5625000Y2325000D02*
X5627115Y2322885D01*
X5693063D02*
X5695179Y2320769D01*
X5627115Y2322885D02*
X5693063D01*
X5399794Y2320385D02*
X5400179Y2320769D01*
X5325385Y2320385D02*
X5399794D01*
X4799794D02*
X4800179Y2320769D01*
X4740385Y2320385D02*
X4799794D01*
X4740000Y2320000D02*
X4740385Y2320385D01*
X8750000Y2322129D02*
X8751360Y2320769D01*
X8750000Y2322129D02*
Y2540000D01*
X8450000Y2322129D02*
X8451360Y2320769D01*
X8450000Y2322129D02*
Y2540000D01*
X8150000Y2322129D02*
X8151360Y2320769D01*
X8150000Y2322129D02*
Y2540000D01*
X7850000Y2322129D02*
X7851360Y2320769D01*
X7850000Y2322129D02*
Y2540000D01*
X7546360Y2320769D02*
X7550000Y2324409D01*
Y2540000D01*
X7250000Y2322129D02*
X7251360Y2320769D01*
X7250000Y2322129D02*
Y2540000D01*
X6950000Y2322129D02*
X6951360Y2320769D01*
X6950000Y2322129D02*
Y2540000D01*
X6650000Y2322129D02*
X6651360Y2320769D01*
X6650000Y2322129D02*
Y2540000D01*
X6350000Y2322129D02*
X6351360Y2320769D01*
X6350000Y2322129D02*
Y2540000D01*
X6050000Y2322129D02*
X6051360Y2320769D01*
X6050000Y2322129D02*
Y2540000D01*
X5746360Y2320769D02*
X5750000Y2324409D01*
Y2540000D01*
X5450000Y2322129D02*
X5451360Y2320769D01*
X5450000Y2322129D02*
Y2540000D01*
X5150000Y2322129D02*
X5151360Y2320769D01*
X5150000Y2322129D02*
Y2540000D01*
X4850000Y2322129D02*
X4851360Y2320769D01*
X4850000Y2322129D02*
Y2540000D01*
X4550000Y2322129D02*
X4551360Y2320769D01*
X4550000Y2322129D02*
Y2540000D01*
X4445769Y3435769D02*
X4491538Y3481538D01*
X4450769Y3640769D02*
X4491538Y3681538D01*
X2271388Y3264449D02*
X2290837Y3245000D01*
X2231113Y3264449D02*
X2271388D01*
X4440769Y3830144D02*
Y3830769D01*
X4442682Y3237682D02*
X4447682D01*
X4440769Y3830769D02*
X4491538Y3881538D01*
X4447682Y3237682D02*
X4491538Y3281538D01*
X4550000Y2940000D02*
Y3140000D01*
Y3340000D01*
Y3540000D01*
Y3740000D01*
X4745769Y3435769D02*
X4791538Y3481538D01*
X5043269Y3435769D02*
X5089038Y3481538D01*
X4550000Y3740000D02*
Y3940000D01*
Y2740000D02*
Y2940000D01*
Y2540000D02*
Y2740000D01*
X4551360Y2320769D02*
X4552129Y2321538D01*
X4800179Y2318801D02*
Y2320769D01*
X5695179Y2318801D02*
Y2320769D01*
X8700179D02*
Y2322738D01*
X8400179Y2320769D02*
Y2322738D01*
X7495179Y2320769D02*
Y2322738D01*
X4850000Y4140000D02*
Y4340000D01*
Y3940000D02*
Y4140000D01*
Y3740000D02*
Y3940000D01*
Y3540000D02*
Y3740000D01*
Y3340000D02*
Y3540000D01*
Y3140000D02*
Y3340000D01*
Y2940000D02*
Y3140000D01*
Y2740000D02*
Y2940000D01*
Y2540000D02*
Y2740000D01*
X4851360Y2320769D02*
X4852129Y2321538D01*
X5151360Y2320769D02*
X5152129Y2321538D01*
X5150000Y2540000D02*
Y2740000D01*
Y2940000D01*
Y3140000D01*
Y3340000D01*
Y3540000D01*
Y4140000D02*
Y4340000D01*
Y3940000D02*
Y4140000D01*
Y3740000D02*
Y3940000D01*
Y3540000D02*
Y3740000D01*
X5450000Y4140000D02*
Y4340000D01*
Y3940000D02*
Y4140000D01*
Y3740000D02*
Y3940000D01*
Y3540000D02*
Y3740000D01*
Y3340000D02*
Y3540000D01*
Y3140000D02*
Y3340000D01*
Y2940000D02*
Y3140000D01*
Y2740000D02*
Y2940000D01*
Y2540000D02*
Y2740000D01*
X5451360Y2320769D02*
X5452129Y2321538D01*
X5750000Y3740000D02*
Y3940000D01*
Y3540000D02*
Y3740000D01*
Y3340000D02*
Y3540000D01*
Y3140000D02*
Y3340000D01*
Y2940000D02*
Y3140000D01*
Y2740000D02*
Y2940000D01*
Y2540000D02*
Y2740000D01*
X6050000Y2940000D02*
Y3140000D01*
X6051360Y2320769D02*
X6052129Y2321538D01*
X6351360Y2320769D02*
X6352129Y2321538D01*
X6350000Y2540000D02*
Y2740000D01*
Y2940000D01*
Y3140000D01*
Y3340000D01*
Y3540000D01*
Y3740000D01*
Y3940000D01*
Y4140000D01*
Y4340000D01*
X6650000Y4140000D02*
Y4340000D01*
Y3940000D02*
Y4140000D01*
Y3740000D02*
Y3940000D01*
Y3540000D02*
Y3740000D01*
Y3340000D02*
Y3540000D01*
Y3140000D02*
Y3340000D01*
Y2940000D02*
Y3140000D01*
X6651360Y2320769D02*
X6652129Y2321538D01*
X6650000Y2540000D02*
Y2740000D01*
Y2940000D01*
X6951360Y2320769D02*
X6952129Y2321538D01*
X6950000Y2540000D02*
Y2740000D01*
Y2940000D01*
Y3140000D01*
Y3340000D01*
Y3540000D01*
Y3740000D01*
Y3940000D01*
Y4140000D01*
Y4340000D01*
X7250000Y3740000D02*
Y3940000D01*
Y3540000D02*
Y3740000D01*
Y3340000D02*
Y3540000D01*
Y3140000D02*
Y3340000D01*
X7251360Y2320769D02*
X7252129Y2321538D01*
X7250000Y2540000D02*
Y2740000D01*
Y2940000D01*
Y3140000D01*
X7550000Y2540000D02*
Y2740000D01*
Y2940000D01*
Y3140000D01*
Y3340000D01*
Y3540000D01*
Y3740000D01*
Y3940000D01*
Y4140000D01*
Y4340000D01*
X7850000Y4140000D02*
Y4340000D01*
Y3940000D02*
Y4140000D01*
Y3740000D02*
Y3940000D01*
Y3540000D02*
Y3740000D01*
Y3340000D02*
Y3540000D01*
Y3140000D02*
Y3340000D01*
Y2940000D02*
Y3140000D01*
Y2740000D02*
Y2940000D01*
X7851360Y2320769D02*
X7852129Y2321538D01*
X7850000Y2540000D02*
Y2740000D01*
X8151360Y2320769D02*
X8152129Y2321538D01*
X8150000Y2540000D02*
Y2740000D01*
Y2940000D01*
Y3140000D01*
Y3340000D01*
Y3540000D01*
Y3740000D01*
Y3940000D01*
Y4140000D01*
Y4340000D01*
X8450000Y4140000D02*
Y4340000D01*
Y3940000D02*
Y4140000D01*
Y3740000D02*
Y3940000D01*
Y3540000D02*
Y3740000D01*
Y3340000D02*
Y3540000D01*
Y3140000D02*
Y3340000D01*
X8451360Y2320769D02*
X8452129Y2321538D01*
X8751360Y2320769D02*
X8752129Y2321538D01*
X8750000Y2540000D02*
Y2740000D01*
Y2940000D01*
Y3140000D01*
Y3340000D01*
Y3540000D01*
Y3740000D01*
Y3940000D01*
Y4140000D01*
Y4340000D01*
X4430769Y4220769D02*
X4491538Y4281538D01*
X4550000Y3940000D02*
Y4140000D01*
Y4340000D01*
X4730769Y4220769D02*
X4791538Y4281538D01*
X5084244D02*
X5091538D01*
X5023475Y4220769D02*
X5084244Y4281538D01*
X5020769Y4220769D02*
X5023475D01*
X5320769D02*
X5323475D01*
X5384244Y4281538D01*
X5391538D01*
X5750000Y4140000D02*
Y4340000D01*
Y3940000D02*
Y4140000D01*
X5630769Y4220769D02*
X5691538Y4281538D01*
X5935769Y4220769D02*
X5937682Y4222682D01*
Y4227682D01*
X5991538Y4281538D01*
X6289038D02*
X6291538D01*
X6228269Y4220769D02*
X6289038Y4281538D01*
X6225769Y4220769D02*
X6228269D01*
X6530769D02*
X6591538Y4281538D01*
X6835769Y4220769D02*
X6837682Y4222682D01*
Y4227682D01*
X6891538Y4281538D01*
X7135769Y4220769D02*
X7137682Y4222682D01*
Y4227682D01*
X7191538Y4281538D01*
X7250000Y3940000D02*
Y4140000D01*
Y4340000D01*
X7425769Y4220769D02*
X7427682Y4222682D01*
X7432682D01*
X7491538Y4281538D01*
X7725769Y4220769D02*
X7727682Y4222682D01*
X7732682D01*
X7791538Y4281538D01*
X8020769Y4220769D02*
X8023475D01*
X8084244Y4281538D01*
X8091538D01*
X8325769Y4220769D02*
X8327683Y4222682D01*
X8332683D01*
X8391538Y4281538D01*
X8630769Y4220769D02*
X8691538Y4281538D01*
X4435769Y4025769D02*
X4491538Y4081538D01*
X4735769Y4025769D02*
X4791538Y4081538D01*
X5035769Y4025769D02*
X5091538Y4081538D01*
X5335769Y4025769D02*
X5391538Y4081538D01*
X5689038D02*
X5691538D01*
X5633269Y4025769D02*
X5689038Y4081538D01*
X5630769Y4025769D02*
X5633269D01*
X6050000Y3740000D02*
Y3940000D01*
Y4140000D01*
Y4340000D01*
X5937682Y4027682D02*
X5991538Y4081538D01*
X5932682Y4027682D02*
X5937682D01*
X6235769Y4025769D02*
X6291538Y4081538D01*
X6535769Y4025769D02*
X6591538Y4081538D01*
X6835769Y4025769D02*
X6891538Y4081538D01*
X7140769Y4025769D02*
X7142682Y4027682D01*
Y4032682D01*
X7191538Y4081538D01*
X7435769Y4025769D02*
X7491538Y4081538D01*
X7725769Y4025769D02*
X7728475D01*
X7784244Y4081538D01*
X7791538D01*
X8025769Y4025769D02*
X8028475D01*
X8084244Y4081538D01*
X8091538D01*
X8330769Y4025769D02*
X8335769D01*
X8391538Y4081538D01*
X8635769Y4025769D02*
X8691538Y4081538D01*
X4740769Y3830769D02*
X4791538Y3881538D01*
X5042682Y3832682D02*
X5091538Y3881538D01*
X5042682Y3831432D02*
Y3832682D01*
X5340769Y3830769D02*
X5391538Y3881538D01*
X5640769Y3830769D02*
X5691538Y3881538D01*
X5630769Y3830769D02*
X5640769D01*
X5935769D02*
X5938269D01*
X5989038Y3881538D01*
X5991538D01*
X6240769Y3830769D02*
X6291538Y3881538D01*
X6540769Y3830769D02*
X6591538Y3881538D01*
X6840769Y3830769D02*
X6891538Y3881538D01*
X7140769Y3830769D02*
X7191538Y3881538D01*
X7491538Y3874244D02*
Y3881538D01*
X7440769Y3830769D02*
X7448063D01*
X7491538Y3874244D01*
X7740769Y3830769D02*
X7791538Y3881538D01*
X8040769Y3830769D02*
X8091538Y3881538D01*
X8340769Y3830769D02*
X8391538Y3881538D01*
X8640769Y3830769D02*
X8691538Y3881538D01*
X4750769Y3640769D02*
X4791538Y3681538D01*
X5050769Y3640769D02*
X5091538Y3681538D01*
X5350769Y3640769D02*
X5391538Y3681538D01*
X5645769Y3640769D02*
X5647682Y3642682D01*
X5652682D01*
X5691538Y3681538D01*
X5935769Y3640769D02*
X5938475D01*
X5979244Y3681538D01*
X5991538D01*
X6250769Y3640769D02*
X6291538Y3681538D01*
X6584244D02*
X6591538D01*
X6540769Y3640769D02*
X6543475D01*
X6584244Y3681538D01*
X6889038D02*
X6891538D01*
X6850769Y3640769D02*
Y3643269D01*
X6889038Y3681538D01*
X7140769Y3640769D02*
X7143475D01*
X7184244Y3681538D01*
X7191538D01*
X7440769Y3640769D02*
X7443475D01*
X7484244Y3681538D01*
X7491538D01*
X7740769Y3640769D02*
X7743475D01*
X7784244Y3681538D01*
X7791538D01*
X8045769Y3640769D02*
X8047682Y3642682D01*
X8052682D01*
X8091538Y3681538D01*
X8345769Y3640769D02*
X8347683Y3642682D01*
X8352683D01*
X8391538Y3681538D01*
X8635769Y3640769D02*
X8638475D01*
X8679244Y3681538D01*
X8691538D01*
X5040769Y3435769D02*
X5043269D01*
X5089038Y3481538D02*
X5091538D01*
X5345769Y3435769D02*
X5391538Y3481538D01*
X5640769Y3435769D02*
X5642682Y3437682D01*
X5647682D01*
X5691538Y3481538D01*
X5935769Y3435769D02*
X5938475D01*
X5984244Y3481538D01*
X5991538D01*
X6050000Y3340000D02*
Y3540000D01*
Y3140000D02*
Y3340000D01*
Y3540000D02*
Y3740000D01*
X6245769Y3435769D02*
X6291538Y3481538D01*
X6540769Y3435769D02*
X6542682Y3437682D01*
X6547682D01*
X6591538Y3481538D01*
X6845769Y3435769D02*
X6891538Y3481538D01*
X7145769Y3435769D02*
X7191538Y3481538D01*
X7445769Y3435769D02*
X7491538Y3481538D01*
X7745769Y3435769D02*
X7791538Y3481538D01*
X8040769Y3435769D02*
X8043269D01*
X8089038Y3481538D01*
X8091538D01*
X8389038D02*
X8391538D01*
X8343269Y3435769D02*
X8389038Y3481538D01*
X8645769Y3435769D02*
X8691538Y3481538D01*
X4735769Y3235769D02*
X4738475D01*
X4784244Y3281538D01*
X4791538D01*
X5045769Y3235769D02*
X5091538Y3281538D01*
X5340769Y3235769D02*
X5342682Y3237682D01*
X5347682D01*
X5391538Y3281538D01*
X5645769Y3235769D02*
X5691538Y3281538D01*
X5940769Y3235769D02*
X5943269D01*
X5989038Y3281538D01*
X5991538D01*
X6245769Y3235769D02*
X6291538Y3281538D01*
X6547682Y3242682D02*
X6552682D01*
X6591538Y3281538D01*
X6540769Y3235769D02*
X6547682Y3242682D01*
X6845769Y3235769D02*
X6891538Y3281538D01*
X7147682Y3242682D02*
X7152682D01*
X7191538Y3281538D01*
X7140769Y3235769D02*
X7147682Y3242682D01*
X7440769Y3235769D02*
X7443269D01*
X7489038Y3281538D01*
X7491538D01*
X7745769Y3235769D02*
X7791538Y3281538D01*
X8045769Y3235769D02*
X8091538Y3281538D01*
X8340769Y3235769D02*
X8343269D01*
X8389038Y3281538D01*
X8391538D01*
X8640769Y3235769D02*
X8642683Y3237682D01*
X8647683D01*
X8691538Y3281538D01*
X4740769Y3030769D02*
X4791538Y3081538D01*
X5040769Y3030769D02*
X5091538Y3081538D01*
X5335769Y3030769D02*
X5338269D01*
X5389038Y3081538D01*
X5391538D01*
X5640769Y3030769D02*
X5691538Y3081538D01*
X5940769Y3030769D02*
X5991538Y3081538D01*
X6284244D02*
X6291538D01*
X6230769Y3030769D02*
X6233475D01*
X6284244Y3081538D01*
X6535769Y3030769D02*
X6537682Y3032682D01*
X6542682D01*
X6591538Y3081538D01*
X6889038D02*
X6891538D01*
X6835769Y3030769D02*
X6838269D01*
X6889038Y3081538D01*
X7184244D02*
X7191538D01*
X7133475Y3030769D02*
X7184244Y3081538D01*
X7130769Y3030769D02*
X7133475D01*
X7440769D02*
X7491538Y3081538D01*
X7789038D02*
X7791538D01*
X7738269Y3030769D02*
X7789038Y3081538D01*
X7735769Y3030769D02*
X7738269D01*
X8030769D02*
X8033475D01*
X8084244Y3081538D01*
X8091538D01*
X8340769Y3030769D02*
X8391538Y3081538D01*
X8640769Y3030769D02*
X8691538Y3081538D01*
X5345769Y2835769D02*
X5391538Y2881538D01*
X5645769Y2835769D02*
X5691538Y2881538D01*
X5940769Y2835769D02*
X5943269D01*
X5989038Y2881538D01*
X5991538D01*
X6240769Y2835769D02*
X6242682Y2837682D01*
X6247682D01*
X6291538Y2881538D01*
X6545769Y2835769D02*
X6591538Y2881538D01*
X6840769Y2835769D02*
X6842682Y2837682D01*
X6847682D01*
X6891538Y2881538D01*
X7135769Y2835769D02*
X7138475D01*
X7184244Y2881538D01*
X7191538D01*
X7445769Y2835769D02*
X7491538Y2881538D01*
X7745769Y2835769D02*
X7791538Y2881538D01*
X8040769Y2835769D02*
X8043269D01*
X8089038Y2881538D01*
X8091538D01*
X8384244D02*
X8391538D01*
X8450000Y2940000D02*
Y3140000D01*
Y2540000D02*
Y2740000D01*
Y2940000D01*
X8338475Y2835769D02*
X8384244Y2881538D01*
X8335769Y2835769D02*
X8338475D01*
X8645769D02*
X8691538Y2881538D01*
X4750769Y2640769D02*
X4791538Y2681538D01*
X5055769Y2645769D02*
X5091538Y2681538D01*
X5055769Y2640769D02*
Y2645769D01*
X5345769Y2640769D02*
X5350769D01*
X5391538Y2681538D01*
X5645769Y2640769D02*
X5648269D01*
X5689038Y2681538D01*
X5691538D01*
X5940769Y2640769D02*
X5943475D01*
X5984244Y2681538D01*
X5991538D01*
X6050000Y2740000D02*
Y2940000D01*
Y2540000D02*
Y2740000D01*
X6245769Y2640769D02*
X6248269D01*
X6289038Y2681538D01*
X6291538D01*
X6589038D02*
X6591538D01*
X6550769Y2643269D02*
X6589038Y2681538D01*
X6550769Y2640769D02*
Y2643269D01*
X6850769Y2640769D02*
X6891538Y2681538D01*
X7150769Y2640769D02*
X7191538Y2681538D01*
X7445769Y2640769D02*
X7447682Y2642682D01*
X7452682D01*
X7491538Y2681538D01*
X7745769Y2640769D02*
X7748269D01*
X7789038Y2681538D01*
X7791538D01*
X8045769Y2640769D02*
X8047682Y2642682D01*
X8052682D01*
X8091538Y2681538D01*
X8350769Y2640769D02*
X8391538Y2681538D01*
X8650769Y2640769D02*
X8691538Y2681538D01*
X7435769Y2425769D02*
X7491538Y2481538D01*
X7735769Y2425769D02*
X7791538Y2481538D01*
X8035769Y2425769D02*
X8091538Y2481538D01*
X8335769Y2425769D02*
X8391538Y2481538D01*
X8635769Y2425769D02*
X8691538Y2481538D01*
X4745769Y2835769D02*
X4791538Y2881538D01*
X5045769Y2835769D02*
X5091538Y2881538D01*
X2440419Y2575419D02*
Y2630448D01*
X2440837Y2630866D01*
X2447967Y2623736D01*
X2440000Y2575000D02*
X2440419Y2575419D01*
X2610837Y2630315D02*
X2614774D01*
X3815419Y2485684D02*
X3815837Y2486102D01*
X3815419Y2410419D02*
Y2485684D01*
X3815000Y2410000D02*
X3815419Y2410419D01*
X3730000Y2415000D02*
X3730419Y2415419D01*
Y2485133D01*
X3730837Y2485551D01*
X2355419Y2630448D02*
X2355837Y2630866D01*
X2355419Y2575419D02*
Y2630448D01*
X2355000Y2575000D02*
X2355419Y2575419D01*
X3905000Y2430000D02*
Y2488504D01*
X3730837Y2485551D02*
X3731113Y2485827D01*
X4123465Y3525000D02*
X4175000D01*
X2014223Y3833386D02*
X2031428Y3850591D01*
Y3880591D02*
X2054735Y3903898D01*
X2031428Y3850591D02*
Y3880591D01*
X1815837Y4095551D02*
X1817589Y4097303D01*
Y3841752D02*
X1819341Y3840000D01*
X1817589Y3841752D02*
Y3885000D01*
X1950837Y4065000D02*
X1958955D01*
X1882333Y3933032D02*
Y3935000D01*
X2030837Y3881181D02*
X2031428Y3880591D01*
X2030837Y3881181D02*
Y3967008D01*
X1958955Y4065000D02*
X1991868Y4032087D01*
X2028751D02*
X2030837Y4030000D01*
X2195286Y3835000D02*
X2271388D01*
X2275837Y3830551D01*
X2190837D02*
X2195286Y3835000D01*
X2105837Y3903898D02*
Y3950000D01*
X2054735Y3903898D02*
X2105837D01*
X2170837D01*
X2191388Y3976063D02*
Y3980000D01*
X2165325Y3950000D02*
X2191388Y3976063D01*
X2105837Y3950000D02*
X2165325D01*
X2104636Y4017697D02*
X2105837Y4018898D01*
X2027038Y4017697D02*
X2104636D01*
X2025837Y4016496D02*
X2027038Y4017697D01*
X2260286Y3980000D02*
X2330837D01*
X2067215Y3156378D02*
X2095837Y3185000D01*
X1972371Y3156378D02*
X2067215D01*
X2151900Y3510551D02*
X2155837D01*
X2139262Y3493976D02*
Y3497913D01*
X2095837Y3450551D02*
X2139262Y3493976D01*
X2095837Y3185000D02*
Y3450551D01*
X2139262Y3497913D02*
X2151900Y3510551D01*
X1799774D02*
X1859774Y3450551D01*
X1795837Y3510551D02*
X1799774D01*
X1859774Y3450551D02*
X1910837D01*
X2015837D01*
X2095837D01*
X2233751Y3588583D02*
X2245837Y3576496D01*
X2220837Y3645000D02*
X2233751Y3632087D01*
Y3588583D02*
Y3632087D01*
X2025798Y3645000D02*
X2220837D01*
X2019144Y3651654D02*
X2025798Y3645000D01*
X2155837Y3510551D02*
X2157314Y3512028D01*
X2244361D01*
X2245837Y3513504D01*
X2491388Y4002441D02*
X2513829Y3980000D01*
X2489420Y4002441D02*
X2491388D01*
X2473829Y4018032D02*
X2489420Y4002441D01*
X2473829Y4018032D02*
Y4020000D01*
Y3940000D02*
Y3941968D01*
Y4020000D02*
Y4100000D01*
Y3941968D02*
X2511861Y3980000D01*
X2410837Y3940000D02*
X2411585Y3939252D01*
X2410837Y4020000D02*
Y4100000D01*
Y3940000D02*
Y3980000D01*
Y4020000D01*
X2240089Y4149252D02*
X2240837Y4148504D01*
X2156585Y4149252D02*
X2240089D01*
X2155837Y4150000D02*
X2156585Y4149252D01*
X2325089D02*
X2325837Y4150000D01*
X2241585Y4149252D02*
X2325089D01*
X2240837Y4148504D02*
X2241585Y4149252D01*
X1900837Y4148504D02*
X1985837D01*
X2070837D01*
X1950837Y4065000D02*
X1985837Y4100000D01*
Y4148504D01*
X1900837Y4211496D02*
X1985837D01*
X2070837D01*
X2155089Y4212244D02*
X2155837Y4212992D01*
X2071585Y4212244D02*
X2155089D01*
X2070837Y4211496D02*
X2071585Y4212244D01*
X2240089D02*
X2240837Y4211496D01*
X2156585Y4212244D02*
X2240089D01*
X2155837Y4212992D02*
X2156585Y4212244D01*
X2241585D02*
X2325089D01*
X2240837Y4211496D02*
X2241585Y4212244D01*
X1885247Y4195905D02*
X1900837Y4211496D01*
X1851231Y4195905D02*
X1885247D01*
X1819774Y4164449D02*
X1851231Y4195905D01*
X1815837Y4164449D02*
X1819774D01*
X1815837Y4020000D02*
Y4095551D01*
X1816841Y3932500D02*
X1817589Y3933248D01*
X1815837Y4020000D02*
X1817589Y4018248D01*
Y3885000D02*
X1819341Y3886752D01*
Y3935000D01*
X1817589Y3933248D02*
Y4018248D01*
X1883534Y4018799D02*
X1884735Y4020000D01*
X1883534Y3936201D02*
Y4018799D01*
X1882333Y3935000D02*
X1883534Y3936201D01*
X1945097Y4059260D02*
X1950837Y4065000D01*
X1920058Y4059260D02*
X1945097D01*
X1884735Y4023937D02*
X1920058Y4059260D01*
X1884735Y4020000D02*
Y4023937D01*
X1972371Y3030394D02*
X2035443D01*
X2330837Y3980000D02*
X2410837D01*
X2424341D01*
X2473829Y4100000D02*
Y4180000D01*
X2153869Y4150000D02*
X2155837D01*
X2105837Y4101968D02*
X2153869Y4150000D01*
X2105837Y4018898D02*
Y4101968D01*
X2190837Y3264449D02*
Y3325000D01*
Y3264449D02*
X2231113D01*
X2035443Y3030394D02*
X2050837Y3015000D01*
Y2985000D02*
Y3015000D01*
X2105837Y3045000D02*
X2106113Y3044724D01*
X2170010D01*
X2511861Y3980000D02*
X2513829D01*
X2552333D01*
X2170010Y3044724D02*
X2170286Y3045000D01*
X1991868Y4032087D02*
X2028751D01*
X2392719Y4250000D02*
X2400837D01*
X2325089Y4212244D02*
X2325837Y4212992D01*
X2343396Y4230192D02*
X2355112Y4241907D01*
X2384627D01*
X2343396Y4228583D02*
Y4230192D01*
X2327806Y4212992D02*
X2343396Y4228583D01*
X2325837Y4212992D02*
X2327806D01*
X2384627Y4241907D02*
X2392719Y4250000D01*
X2458239Y3901716D02*
Y3924409D01*
X2446523Y3890000D02*
X2458239Y3901716D01*
X2285286Y3890000D02*
X2446523D01*
X2275837Y3899449D02*
X2285286Y3890000D01*
X2458239Y3924409D02*
X2473829Y3940000D01*
X2410837Y4100000D02*
Y4180000D01*
D30*
X1880837Y3180000D02*
D03*
Y3006772D02*
D03*
D31*
X2755837Y3765000D02*
D03*
Y3465000D02*
D03*
X2455837Y3765000D02*
D03*
Y3465000D02*
D03*
D32*
X2830000Y3405000D02*
D03*
X4085000Y3375000D02*
D03*
X3880000Y3285000D02*
D03*
Y3195000D02*
D03*
X3595000Y3420000D02*
D03*
X3720000Y2905000D02*
D03*
X3895000Y3330000D02*
D03*
X3905000Y2770000D02*
D03*
X3865000Y3095000D02*
D03*
X3295000Y3575000D02*
D03*
X4150000Y3475000D02*
D03*
X3900000Y3235000D02*
D03*
X4200000Y3185000D02*
D03*
X3500000Y3585000D02*
D03*
X4135000Y3135000D02*
D03*
X3905000Y3035000D02*
D03*
X3220000Y2870000D02*
D03*
X4140020Y3355020D02*
D03*
X4075000Y3130000D02*
D03*
X3695000Y2770000D02*
D03*
X3435000Y3345000D02*
D03*
X3860000Y2620000D02*
D03*
X3742347Y2742347D02*
D03*
X3485000Y2775000D02*
D03*
X3830000Y2794500D02*
D03*
X4200000Y3235000D02*
D03*
X4065000Y3415000D02*
D03*
X3220000Y2775000D02*
D03*
Y3330000D02*
D03*
X3810000Y3245000D02*
D03*
X4195000Y3130000D02*
D03*
X3620000Y2780000D02*
D03*
X3235000Y3050000D02*
D03*
X3490000Y3435000D02*
D03*
X3905000Y3160000D02*
D03*
X4115000Y3430000D02*
D03*
X4065000Y2965000D02*
D03*
X4210000Y3340000D02*
D03*
X3555000Y2785000D02*
D03*
X6835000Y2320000D02*
D03*
X7135000D02*
D03*
X4200000Y3290000D02*
D03*
X6225000Y2320000D02*
D03*
X5935000D02*
D03*
X5040000D02*
D03*
X5325000D02*
D03*
X4280000D02*
D03*
X4204500Y3070000D02*
D03*
X8625000Y2320000D02*
D03*
X8325000D02*
D03*
X8025000D02*
D03*
X7735000D02*
D03*
X7425000D02*
D03*
X6535000D02*
D03*
X5625000Y2325000D02*
D03*
X4740000Y2320000D02*
D03*
X2830409Y3128536D02*
D03*
X2625837Y2980000D02*
D03*
X2370885Y3379036D02*
D03*
X2620837Y2790000D02*
D03*
X2400837Y3430000D02*
D03*
X2455837Y3400000D02*
D03*
X2715837Y2885000D02*
D03*
X3450000Y2596500D02*
D03*
X3690000Y3680000D02*
D03*
X3370000Y3685000D02*
D03*
X2440000Y2575000D02*
D03*
X2265000Y2710000D02*
D03*
X2760000Y2630000D02*
D03*
X3815000Y2410000D02*
D03*
X3730000Y2415000D02*
D03*
X2355000Y2575000D02*
D03*
X3905000Y2430000D02*
D03*
X3965000Y2550000D02*
D03*
X3540000Y3020000D02*
D03*
X3495000Y2520000D02*
D03*
X3010000Y3495000D02*
D03*
X4175000Y3525000D02*
D03*
X2175837Y2880000D02*
D03*
X2475837Y3075315D02*
D03*
D33*
X1932530Y3608347D02*
D03*
Y3651654D02*
D03*
X1975837Y3608347D02*
D03*
Y3651654D02*
D03*
X2019144Y3608347D02*
D03*
Y3651654D02*
D03*
D34*
X4450769Y2640769D02*
D03*
X6835769Y2427000D02*
D03*
X7135769Y2425769D02*
D03*
X4445769Y2835769D02*
D03*
X4440769Y3030769D02*
D03*
Y3235769D02*
D03*
X6530769Y2427000D02*
D03*
X6240769D02*
D03*
X4435769Y2425769D02*
D03*
X5335769D02*
D03*
X5930769D02*
D03*
X4740769D02*
D03*
X5035769D02*
D03*
X5635769D02*
D03*
X4445769Y3435769D02*
D03*
X4450769Y3640769D02*
D03*
X4440769Y3830144D02*
D03*
X4430769Y4220769D02*
D03*
X4730769D02*
D03*
X5020769D02*
D03*
X5320769D02*
D03*
X5630769D02*
D03*
X5935769D02*
D03*
X6225769D02*
D03*
X6530769D02*
D03*
X6835769D02*
D03*
X7135769D02*
D03*
X7425769D02*
D03*
X7725769D02*
D03*
X8020769D02*
D03*
X8325769D02*
D03*
X8630769D02*
D03*
X4435769Y4025769D02*
D03*
X4735769D02*
D03*
X5035769D02*
D03*
X5335769D02*
D03*
X5630769D02*
D03*
X5937682Y4027682D02*
D03*
X6235769Y4025769D02*
D03*
X6535769D02*
D03*
X6835769D02*
D03*
X7140769D02*
D03*
X7435769D02*
D03*
X7725769D02*
D03*
X8025769D02*
D03*
X8330769D02*
D03*
X8635769D02*
D03*
X4740769Y3830769D02*
D03*
X5042682Y3831432D02*
D03*
X5340769Y3830769D02*
D03*
X5630769D02*
D03*
X5935769D02*
D03*
X6240769D02*
D03*
X6540769D02*
D03*
X6840769D02*
D03*
X7140769D02*
D03*
X7440769D02*
D03*
X7740769D02*
D03*
X8040769D02*
D03*
X8340769D02*
D03*
X8640769D02*
D03*
X4750769Y3640769D02*
D03*
X5050769D02*
D03*
X5350769D02*
D03*
X5645769D02*
D03*
X5935769D02*
D03*
X6250769D02*
D03*
X6540769D02*
D03*
X6850769D02*
D03*
X7140769D02*
D03*
X7440769D02*
D03*
X7740769D02*
D03*
X8045769D02*
D03*
X8345769D02*
D03*
X8635769D02*
D03*
X4745769Y3435769D02*
D03*
X5040769D02*
D03*
X5345769D02*
D03*
X5640769D02*
D03*
X5935769D02*
D03*
X6245769D02*
D03*
X6540769D02*
D03*
X6845769D02*
D03*
X7145769D02*
D03*
X7445769D02*
D03*
X7745769D02*
D03*
X8040769D02*
D03*
X8343269D02*
D03*
X8645769D02*
D03*
X4735769Y3235769D02*
D03*
X5045769D02*
D03*
X5340769D02*
D03*
X5645769D02*
D03*
X5940769D02*
D03*
X6245769D02*
D03*
X6540769D02*
D03*
X6845769D02*
D03*
X7140769D02*
D03*
X7440769D02*
D03*
X7745769D02*
D03*
X8045769D02*
D03*
X8340769D02*
D03*
X8640769D02*
D03*
X4740769Y3030769D02*
D03*
X5040769D02*
D03*
X5335769D02*
D03*
X5640769D02*
D03*
X5940769D02*
D03*
X6230769D02*
D03*
X6535769D02*
D03*
X6835769D02*
D03*
X7130769D02*
D03*
X7440769D02*
D03*
X7735769D02*
D03*
X8030769D02*
D03*
X8340769D02*
D03*
X8640769D02*
D03*
X5345769Y2835769D02*
D03*
X5645769D02*
D03*
X5940769D02*
D03*
X6240769D02*
D03*
X6545769D02*
D03*
X6840769D02*
D03*
X7135769D02*
D03*
X7445769D02*
D03*
X7745769D02*
D03*
X8040769D02*
D03*
X8335769D02*
D03*
X8645769D02*
D03*
X4750769Y2640769D02*
D03*
X5055769D02*
D03*
X5345769D02*
D03*
X5645769D02*
D03*
X5940769D02*
D03*
X6245769D02*
D03*
X6550769D02*
D03*
X6850769D02*
D03*
X7150769D02*
D03*
X7445769D02*
D03*
X7745769D02*
D03*
X8045769D02*
D03*
X8350769D02*
D03*
X8650769D02*
D03*
X7435769Y2425769D02*
D03*
X7735769D02*
D03*
X8035769D02*
D03*
X8335769D02*
D03*
X8635769D02*
D03*
X4745769Y2835769D02*
D03*
X5045769D02*
D03*
D35*
X2540000Y3400000D02*
D03*
X2705837Y3310000D02*
D03*
X1950837Y4065000D02*
D03*
X2330837Y3980000D02*
D03*
X2552333D02*
D03*
X2190837Y3325000D02*
D03*
X2050837Y2985000D02*
D03*
X2105837Y3045000D02*
D03*
X2400837Y4250000D02*
D03*
%TF.MD5,87dae73c2c61e78dd47fc71f965ebba6*%
M02*
