%TF.GenerationSoftware,Altium Limited,Altium Designer,20.1.14 (287)*%
G04 Layer_Physical_Order=2*
G04 Layer_Color=36540*
%FSLAX26Y26*%
%MOIN*%
%TF.SameCoordinates,7E9A0AC4-0E20-4BBF-80A7-7FB1365180D4*%
%TF.FilePolarity,Positive*%
%TF.FileFunction,Copper,L2,Inr,Signal*%
%TF.Part,Single*%
G01*
G75*
%TA.AperFunction,Conductor*%
%ADD28C,0.010000*%
%ADD29C,0.020000*%
%TA.AperFunction,ComponentPad*%
%ADD30C,0.035433*%
%ADD31C,0.060000*%
%TA.AperFunction,ViaPad*%
%ADD32C,0.035000*%
%ADD33C,0.019685*%
%ADD34C,0.030000*%
%ADD35C,0.050000*%
G36*
X8835000Y2240000D02*
X2300805Y2240000D01*
X1678399Y2860767D01*
X1676467Y4406462D01*
X1680000Y4410000D01*
X2685000D01*
Y4060000D01*
X2930000Y3815000D01*
X3930000D01*
X4525000Y4410000D01*
X8835001Y4410000D01*
X8835000Y2240000D01*
D02*
G37*
%LPC*%
G36*
X2400837Y4282276D02*
X2392483Y4281176D01*
X2384699Y4277952D01*
X2378015Y4272823D01*
X2372885Y4266138D01*
X2369661Y4258354D01*
X2368561Y4250000D01*
X2369661Y4241646D01*
X2372885Y4233862D01*
X2378015Y4227177D01*
X2384699Y4222048D01*
X2392483Y4218824D01*
X2400837Y4217724D01*
X2409191Y4218824D01*
X2416975Y4222048D01*
X2423660Y4227177D01*
X2428789Y4233862D01*
X2432014Y4241646D01*
X2433113Y4250000D01*
X2432014Y4258354D01*
X2428789Y4266138D01*
X2423660Y4272823D01*
X2416975Y4277952D01*
X2409191Y4281176D01*
X2400837Y4282276D01*
D02*
G37*
G36*
X8630769Y4243200D02*
X8622185Y4241493D01*
X8614908Y4236630D01*
X8610046Y4229353D01*
X8608338Y4220769D01*
X8610046Y4212185D01*
X8614908Y4204908D01*
X8622185Y4200046D01*
X8630769Y4198338D01*
X8639353Y4200046D01*
X8646630Y4204908D01*
X8651493Y4212185D01*
X8653200Y4220769D01*
X8651493Y4229353D01*
X8646630Y4236630D01*
X8639353Y4241493D01*
X8630769Y4243200D01*
D02*
G37*
G36*
X8325769D02*
X8317185Y4241493D01*
X8309908Y4236630D01*
X8305046Y4229353D01*
X8303338Y4220769D01*
X8305046Y4212185D01*
X8309908Y4204908D01*
X8317185Y4200046D01*
X8325769Y4198338D01*
X8334353Y4200046D01*
X8341630Y4204908D01*
X8346493Y4212185D01*
X8348200Y4220769D01*
X8346493Y4229353D01*
X8341630Y4236630D01*
X8334353Y4241493D01*
X8325769Y4243200D01*
D02*
G37*
G36*
X8020769D02*
X8012185Y4241493D01*
X8004908Y4236630D01*
X8000046Y4229353D01*
X7998338Y4220769D01*
X8000046Y4212185D01*
X8004908Y4204908D01*
X8012185Y4200046D01*
X8020769Y4198338D01*
X8029353Y4200046D01*
X8036630Y4204908D01*
X8041493Y4212185D01*
X8043200Y4220769D01*
X8041493Y4229353D01*
X8036630Y4236630D01*
X8029353Y4241493D01*
X8020769Y4243200D01*
D02*
G37*
G36*
X7725769D02*
X7717185Y4241493D01*
X7709908Y4236630D01*
X7705046Y4229353D01*
X7703338Y4220769D01*
X7705046Y4212185D01*
X7709908Y4204908D01*
X7717185Y4200046D01*
X7725769Y4198338D01*
X7734353Y4200046D01*
X7741630Y4204908D01*
X7746493Y4212185D01*
X7748200Y4220769D01*
X7746493Y4229353D01*
X7741630Y4236630D01*
X7734353Y4241493D01*
X7725769Y4243200D01*
D02*
G37*
G36*
X7425769D02*
X7417185Y4241493D01*
X7409908Y4236630D01*
X7405046Y4229353D01*
X7403338Y4220769D01*
X7405046Y4212185D01*
X7409908Y4204908D01*
X7417185Y4200046D01*
X7425769Y4198338D01*
X7434353Y4200046D01*
X7441630Y4204908D01*
X7446493Y4212185D01*
X7448200Y4220769D01*
X7446493Y4229353D01*
X7441630Y4236630D01*
X7434353Y4241493D01*
X7425769Y4243200D01*
D02*
G37*
G36*
X7135769D02*
X7127185Y4241493D01*
X7119908Y4236630D01*
X7115046Y4229353D01*
X7113338Y4220769D01*
X7115046Y4212185D01*
X7119908Y4204908D01*
X7127185Y4200046D01*
X7135769Y4198338D01*
X7144353Y4200046D01*
X7151630Y4204908D01*
X7156493Y4212185D01*
X7158200Y4220769D01*
X7156493Y4229353D01*
X7151630Y4236630D01*
X7144353Y4241493D01*
X7135769Y4243200D01*
D02*
G37*
G36*
X6835769D02*
X6827185Y4241493D01*
X6819908Y4236630D01*
X6815046Y4229353D01*
X6813338Y4220769D01*
X6815046Y4212185D01*
X6819908Y4204908D01*
X6827185Y4200046D01*
X6835769Y4198338D01*
X6844353Y4200046D01*
X6851630Y4204908D01*
X6856493Y4212185D01*
X6858200Y4220769D01*
X6856493Y4229353D01*
X6851630Y4236630D01*
X6844353Y4241493D01*
X6835769Y4243200D01*
D02*
G37*
G36*
X6530769D02*
X6522185Y4241493D01*
X6514908Y4236630D01*
X6510046Y4229353D01*
X6508338Y4220769D01*
X6510046Y4212185D01*
X6514908Y4204908D01*
X6522185Y4200046D01*
X6530769Y4198338D01*
X6539353Y4200046D01*
X6546630Y4204908D01*
X6551493Y4212185D01*
X6553200Y4220769D01*
X6551493Y4229353D01*
X6546630Y4236630D01*
X6539353Y4241493D01*
X6530769Y4243200D01*
D02*
G37*
G36*
X6225769D02*
X6217185Y4241493D01*
X6209908Y4236630D01*
X6205046Y4229353D01*
X6203338Y4220769D01*
X6205046Y4212185D01*
X6209908Y4204908D01*
X6217185Y4200046D01*
X6225769Y4198338D01*
X6234353Y4200046D01*
X6241630Y4204908D01*
X6246493Y4212185D01*
X6248200Y4220769D01*
X6246493Y4229353D01*
X6241630Y4236630D01*
X6234353Y4241493D01*
X6225769Y4243200D01*
D02*
G37*
G36*
X5935769D02*
X5927185Y4241493D01*
X5919908Y4236630D01*
X5915046Y4229353D01*
X5913338Y4220769D01*
X5915046Y4212185D01*
X5919908Y4204908D01*
X5927185Y4200046D01*
X5935769Y4198338D01*
X5944353Y4200046D01*
X5951630Y4204908D01*
X5956493Y4212185D01*
X5958200Y4220769D01*
X5956493Y4229353D01*
X5951630Y4236630D01*
X5944353Y4241493D01*
X5935769Y4243200D01*
D02*
G37*
G36*
X5630769D02*
X5622185Y4241493D01*
X5614908Y4236630D01*
X5610046Y4229353D01*
X5608338Y4220769D01*
X5610046Y4212185D01*
X5614908Y4204908D01*
X5622185Y4200046D01*
X5630769Y4198338D01*
X5639353Y4200046D01*
X5646630Y4204908D01*
X5651493Y4212185D01*
X5653200Y4220769D01*
X5651493Y4229353D01*
X5646630Y4236630D01*
X5639353Y4241493D01*
X5630769Y4243200D01*
D02*
G37*
G36*
X5320769D02*
X5312185Y4241493D01*
X5304908Y4236630D01*
X5300046Y4229353D01*
X5298338Y4220769D01*
X5300046Y4212185D01*
X5304908Y4204908D01*
X5312185Y4200046D01*
X5320769Y4198338D01*
X5329353Y4200046D01*
X5336630Y4204908D01*
X5341493Y4212185D01*
X5343200Y4220769D01*
X5341493Y4229353D01*
X5336630Y4236630D01*
X5329353Y4241493D01*
X5320769Y4243200D01*
D02*
G37*
G36*
X5020769D02*
X5012185Y4241493D01*
X5004908Y4236630D01*
X5000046Y4229353D01*
X4998338Y4220769D01*
X5000046Y4212185D01*
X5004908Y4204908D01*
X5012185Y4200046D01*
X5020769Y4198338D01*
X5029353Y4200046D01*
X5036630Y4204908D01*
X5041493Y4212185D01*
X5043200Y4220769D01*
X5041493Y4229353D01*
X5036630Y4236630D01*
X5029353Y4241493D01*
X5020769Y4243200D01*
D02*
G37*
G36*
X4730769D02*
X4722185Y4241493D01*
X4714908Y4236630D01*
X4710046Y4229353D01*
X4708338Y4220769D01*
X4710046Y4212185D01*
X4714908Y4204908D01*
X4722185Y4200046D01*
X4730769Y4198338D01*
X4739353Y4200046D01*
X4746630Y4204908D01*
X4751493Y4212185D01*
X4753200Y4220769D01*
X4751493Y4229353D01*
X4746630Y4236630D01*
X4739353Y4241493D01*
X4730769Y4243200D01*
D02*
G37*
G36*
X4430769D02*
X4422185Y4241493D01*
X4414908Y4236630D01*
X4410046Y4229353D01*
X4408338Y4220769D01*
X4410046Y4212185D01*
X4414908Y4204908D01*
X4422185Y4200046D01*
X4430769Y4198338D01*
X4439353Y4200046D01*
X4446630Y4204908D01*
X4451493Y4212185D01*
X4453200Y4220769D01*
X4451493Y4229353D01*
X4446630Y4236630D01*
X4439353Y4241493D01*
X4430769Y4243200D01*
D02*
G37*
G36*
X1955837Y4099644D02*
Y4070000D01*
X1985481D01*
X1984936Y4074137D01*
X1981410Y4082651D01*
X1975800Y4089962D01*
X1968488Y4095572D01*
X1959974Y4099099D01*
X1955837Y4099644D01*
D02*
G37*
G36*
X1945837D02*
X1941700Y4099099D01*
X1933186Y4095572D01*
X1925875Y4089962D01*
X1920265Y4082651D01*
X1916738Y4074137D01*
X1916194Y4070000D01*
X1945837D01*
Y4099644D01*
D02*
G37*
G36*
X1985481Y4060000D02*
X1955837D01*
Y4030356D01*
X1959974Y4030901D01*
X1968488Y4034428D01*
X1975800Y4040038D01*
X1981410Y4047349D01*
X1984936Y4055863D01*
X1985481Y4060000D01*
D02*
G37*
G36*
X1945837D02*
X1916194D01*
X1916738Y4055863D01*
X1920265Y4047349D01*
X1925875Y4040038D01*
X1933186Y4034428D01*
X1941700Y4030901D01*
X1945837Y4030356D01*
Y4060000D01*
D02*
G37*
G36*
X5937682Y4050113D02*
X5929099Y4048406D01*
X5921821Y4043544D01*
X5916959Y4036267D01*
X5915252Y4027682D01*
X5916959Y4019099D01*
X5921821Y4011821D01*
X5929099Y4006959D01*
X5937682Y4005251D01*
X5946266Y4006959D01*
X5953544Y4011821D01*
X5958406Y4019099D01*
X5960114Y4027682D01*
X5958406Y4036267D01*
X5953544Y4043544D01*
X5946266Y4048406D01*
X5937682Y4050113D01*
D02*
G37*
G36*
X8635769Y4048200D02*
X8627185Y4046493D01*
X8619908Y4041630D01*
X8615046Y4034353D01*
X8613338Y4025769D01*
X8615046Y4017185D01*
X8619908Y4009908D01*
X8627185Y4005046D01*
X8635769Y4003338D01*
X8644353Y4005046D01*
X8651630Y4009908D01*
X8656493Y4017185D01*
X8658200Y4025769D01*
X8656493Y4034353D01*
X8651630Y4041630D01*
X8644353Y4046493D01*
X8635769Y4048200D01*
D02*
G37*
G36*
X8330769D02*
X8322185Y4046493D01*
X8314908Y4041630D01*
X8310046Y4034353D01*
X8308338Y4025769D01*
X8310046Y4017185D01*
X8314908Y4009908D01*
X8322185Y4005046D01*
X8330769Y4003338D01*
X8339353Y4005046D01*
X8346630Y4009908D01*
X8351493Y4017185D01*
X8353200Y4025769D01*
X8351493Y4034353D01*
X8346630Y4041630D01*
X8339353Y4046493D01*
X8330769Y4048200D01*
D02*
G37*
G36*
X8025769D02*
X8017185Y4046493D01*
X8009908Y4041630D01*
X8005046Y4034353D01*
X8003338Y4025769D01*
X8005046Y4017185D01*
X8009908Y4009908D01*
X8017185Y4005046D01*
X8025769Y4003338D01*
X8034353Y4005046D01*
X8041630Y4009908D01*
X8046493Y4017185D01*
X8048200Y4025769D01*
X8046493Y4034353D01*
X8041630Y4041630D01*
X8034353Y4046493D01*
X8025769Y4048200D01*
D02*
G37*
G36*
X7725769D02*
X7717185Y4046493D01*
X7709908Y4041630D01*
X7705046Y4034353D01*
X7703338Y4025769D01*
X7705046Y4017185D01*
X7709908Y4009908D01*
X7717185Y4005046D01*
X7725769Y4003338D01*
X7734353Y4005046D01*
X7741630Y4009908D01*
X7746493Y4017185D01*
X7748200Y4025769D01*
X7746493Y4034353D01*
X7741630Y4041630D01*
X7734353Y4046493D01*
X7725769Y4048200D01*
D02*
G37*
G36*
X7435769D02*
X7427185Y4046493D01*
X7419908Y4041630D01*
X7415046Y4034353D01*
X7413338Y4025769D01*
X7415046Y4017185D01*
X7419908Y4009908D01*
X7427185Y4005046D01*
X7435769Y4003338D01*
X7444353Y4005046D01*
X7451630Y4009908D01*
X7456493Y4017185D01*
X7458200Y4025769D01*
X7456493Y4034353D01*
X7451630Y4041630D01*
X7444353Y4046493D01*
X7435769Y4048200D01*
D02*
G37*
G36*
X7140769D02*
X7132185Y4046493D01*
X7124908Y4041630D01*
X7120046Y4034353D01*
X7118338Y4025769D01*
X7120046Y4017185D01*
X7124908Y4009908D01*
X7132185Y4005046D01*
X7140769Y4003338D01*
X7149353Y4005046D01*
X7156630Y4009908D01*
X7161493Y4017185D01*
X7163200Y4025769D01*
X7161493Y4034353D01*
X7156630Y4041630D01*
X7149353Y4046493D01*
X7140769Y4048200D01*
D02*
G37*
G36*
X6835769D02*
X6827185Y4046493D01*
X6819908Y4041630D01*
X6815046Y4034353D01*
X6813338Y4025769D01*
X6815046Y4017185D01*
X6819908Y4009908D01*
X6827185Y4005046D01*
X6835769Y4003338D01*
X6844353Y4005046D01*
X6851630Y4009908D01*
X6856493Y4017185D01*
X6858200Y4025769D01*
X6856493Y4034353D01*
X6851630Y4041630D01*
X6844353Y4046493D01*
X6835769Y4048200D01*
D02*
G37*
G36*
X6535769D02*
X6527185Y4046493D01*
X6519908Y4041630D01*
X6515046Y4034353D01*
X6513338Y4025769D01*
X6515046Y4017185D01*
X6519908Y4009908D01*
X6527185Y4005046D01*
X6535769Y4003338D01*
X6544353Y4005046D01*
X6551630Y4009908D01*
X6556493Y4017185D01*
X6558200Y4025769D01*
X6556493Y4034353D01*
X6551630Y4041630D01*
X6544353Y4046493D01*
X6535769Y4048200D01*
D02*
G37*
G36*
X6235769D02*
X6227185Y4046493D01*
X6219908Y4041630D01*
X6215046Y4034353D01*
X6213338Y4025769D01*
X6215046Y4017185D01*
X6219908Y4009908D01*
X6227185Y4005046D01*
X6235769Y4003338D01*
X6244353Y4005046D01*
X6251630Y4009908D01*
X6256493Y4017185D01*
X6258200Y4025769D01*
X6256493Y4034353D01*
X6251630Y4041630D01*
X6244353Y4046493D01*
X6235769Y4048200D01*
D02*
G37*
G36*
X5630769D02*
X5622185Y4046493D01*
X5614908Y4041630D01*
X5610046Y4034353D01*
X5608338Y4025769D01*
X5610046Y4017185D01*
X5614908Y4009908D01*
X5622185Y4005046D01*
X5630769Y4003338D01*
X5639353Y4005046D01*
X5646630Y4009908D01*
X5651493Y4017185D01*
X5653200Y4025769D01*
X5651493Y4034353D01*
X5646630Y4041630D01*
X5639353Y4046493D01*
X5630769Y4048200D01*
D02*
G37*
G36*
X5335769D02*
X5327185Y4046493D01*
X5319908Y4041630D01*
X5315046Y4034353D01*
X5313338Y4025769D01*
X5315046Y4017185D01*
X5319908Y4009908D01*
X5327185Y4005046D01*
X5335769Y4003338D01*
X5344353Y4005046D01*
X5351630Y4009908D01*
X5356493Y4017185D01*
X5358200Y4025769D01*
X5356493Y4034353D01*
X5351630Y4041630D01*
X5344353Y4046493D01*
X5335769Y4048200D01*
D02*
G37*
G36*
X5035769D02*
X5027185Y4046493D01*
X5019908Y4041630D01*
X5015046Y4034353D01*
X5013338Y4025769D01*
X5015046Y4017185D01*
X5019908Y4009908D01*
X5027185Y4005046D01*
X5035769Y4003338D01*
X5044353Y4005046D01*
X5051630Y4009908D01*
X5056493Y4017185D01*
X5058200Y4025769D01*
X5056493Y4034353D01*
X5051630Y4041630D01*
X5044353Y4046493D01*
X5035769Y4048200D01*
D02*
G37*
G36*
X4735769D02*
X4727185Y4046493D01*
X4719908Y4041630D01*
X4715046Y4034353D01*
X4713338Y4025769D01*
X4715046Y4017185D01*
X4719908Y4009908D01*
X4727185Y4005046D01*
X4735769Y4003338D01*
X4744353Y4005046D01*
X4751630Y4009908D01*
X4756493Y4017185D01*
X4758200Y4025769D01*
X4756493Y4034353D01*
X4751630Y4041630D01*
X4744353Y4046493D01*
X4735769Y4048200D01*
D02*
G37*
G36*
X4435769D02*
X4427185Y4046493D01*
X4419908Y4041630D01*
X4415046Y4034353D01*
X4413338Y4025769D01*
X4415046Y4017185D01*
X4419908Y4009908D01*
X4427185Y4005046D01*
X4435769Y4003338D01*
X4444353Y4005046D01*
X4451630Y4009908D01*
X4456493Y4017185D01*
X4458200Y4025769D01*
X4456493Y4034353D01*
X4451630Y4041630D01*
X4444353Y4046493D01*
X4435769Y4048200D01*
D02*
G37*
G36*
X2557333Y4014644D02*
Y3985000D01*
X2586977D01*
X2586432Y3989137D01*
X2582906Y3997651D01*
X2577296Y4004962D01*
X2569984Y4010572D01*
X2561470Y4014099D01*
X2557333Y4014644D01*
D02*
G37*
G36*
X2547333D02*
X2543196Y4014099D01*
X2534682Y4010572D01*
X2527371Y4004962D01*
X2521761Y3997651D01*
X2518234Y3989137D01*
X2517689Y3985000D01*
X2547333D01*
Y4014644D01*
D02*
G37*
G36*
X2330837Y4012276D02*
X2322483Y4011176D01*
X2314699Y4007952D01*
X2308015Y4002823D01*
X2302885Y3996138D01*
X2299661Y3988354D01*
X2298561Y3980000D01*
X2299661Y3971646D01*
X2302885Y3963862D01*
X2308015Y3957177D01*
X2314699Y3952048D01*
X2322483Y3948824D01*
X2330837Y3947724D01*
X2339191Y3948824D01*
X2346975Y3952048D01*
X2353660Y3957177D01*
X2358789Y3963862D01*
X2362014Y3971646D01*
X2363113Y3980000D01*
X2362014Y3988354D01*
X2358789Y3996138D01*
X2353660Y4002823D01*
X2346975Y4007952D01*
X2339191Y4011176D01*
X2330837Y4012276D01*
D02*
G37*
G36*
X2586977Y3975000D02*
X2557333D01*
Y3945356D01*
X2561470Y3945901D01*
X2569984Y3949428D01*
X2577296Y3955038D01*
X2582906Y3962349D01*
X2586432Y3970863D01*
X2586977Y3975000D01*
D02*
G37*
G36*
X2547333D02*
X2517689D01*
X2518234Y3970863D01*
X2521761Y3962349D01*
X2527371Y3955038D01*
X2534682Y3949428D01*
X2543196Y3945901D01*
X2547333Y3945356D01*
Y3975000D01*
D02*
G37*
G36*
X5042682Y3853863D02*
X5034099Y3852156D01*
X5026821Y3847294D01*
X5021959Y3840017D01*
X5020252Y3831432D01*
X5021959Y3822849D01*
X5026821Y3815571D01*
X5034099Y3810709D01*
X5042682Y3809001D01*
X5051266Y3810709D01*
X5058544Y3815571D01*
X5063406Y3822849D01*
X5065114Y3831432D01*
X5063406Y3840017D01*
X5058544Y3847294D01*
X5051266Y3852156D01*
X5042682Y3853863D01*
D02*
G37*
G36*
X8640769Y3853200D02*
X8632185Y3851493D01*
X8624908Y3846630D01*
X8620046Y3839353D01*
X8618338Y3830769D01*
X8620046Y3822185D01*
X8624908Y3814908D01*
X8632185Y3810046D01*
X8640769Y3808338D01*
X8649353Y3810046D01*
X8656630Y3814908D01*
X8661493Y3822185D01*
X8663200Y3830769D01*
X8661493Y3839353D01*
X8656630Y3846630D01*
X8649353Y3851493D01*
X8640769Y3853200D01*
D02*
G37*
G36*
X8340769D02*
X8332185Y3851493D01*
X8324908Y3846630D01*
X8320046Y3839353D01*
X8318338Y3830769D01*
X8320046Y3822185D01*
X8324908Y3814908D01*
X8332185Y3810046D01*
X8340769Y3808338D01*
X8349353Y3810046D01*
X8356630Y3814908D01*
X8361493Y3822185D01*
X8363200Y3830769D01*
X8361493Y3839353D01*
X8356630Y3846630D01*
X8349353Y3851493D01*
X8340769Y3853200D01*
D02*
G37*
G36*
X8040769D02*
X8032185Y3851493D01*
X8024908Y3846630D01*
X8020046Y3839353D01*
X8018338Y3830769D01*
X8020046Y3822185D01*
X8024908Y3814908D01*
X8032185Y3810046D01*
X8040769Y3808338D01*
X8049353Y3810046D01*
X8056630Y3814908D01*
X8061493Y3822185D01*
X8063200Y3830769D01*
X8061493Y3839353D01*
X8056630Y3846630D01*
X8049353Y3851493D01*
X8040769Y3853200D01*
D02*
G37*
G36*
X7740769D02*
X7732185Y3851493D01*
X7724908Y3846630D01*
X7720046Y3839353D01*
X7718338Y3830769D01*
X7720046Y3822185D01*
X7724908Y3814908D01*
X7732185Y3810046D01*
X7740769Y3808338D01*
X7749353Y3810046D01*
X7756630Y3814908D01*
X7761493Y3822185D01*
X7763200Y3830769D01*
X7761493Y3839353D01*
X7756630Y3846630D01*
X7749353Y3851493D01*
X7740769Y3853200D01*
D02*
G37*
G36*
X7440769D02*
X7432185Y3851493D01*
X7424908Y3846630D01*
X7420046Y3839353D01*
X7418338Y3830769D01*
X7420046Y3822185D01*
X7424908Y3814908D01*
X7432185Y3810046D01*
X7440769Y3808338D01*
X7449353Y3810046D01*
X7456630Y3814908D01*
X7461493Y3822185D01*
X7463200Y3830769D01*
X7461493Y3839353D01*
X7456630Y3846630D01*
X7449353Y3851493D01*
X7440769Y3853200D01*
D02*
G37*
G36*
X7140769D02*
X7132185Y3851493D01*
X7124908Y3846630D01*
X7120046Y3839353D01*
X7118338Y3830769D01*
X7120046Y3822185D01*
X7124908Y3814908D01*
X7132185Y3810046D01*
X7140769Y3808338D01*
X7149353Y3810046D01*
X7156630Y3814908D01*
X7161493Y3822185D01*
X7163200Y3830769D01*
X7161493Y3839353D01*
X7156630Y3846630D01*
X7149353Y3851493D01*
X7140769Y3853200D01*
D02*
G37*
G36*
X6840769D02*
X6832185Y3851493D01*
X6824908Y3846630D01*
X6820046Y3839353D01*
X6818338Y3830769D01*
X6820046Y3822185D01*
X6824908Y3814908D01*
X6832185Y3810046D01*
X6840769Y3808338D01*
X6849353Y3810046D01*
X6856630Y3814908D01*
X6861493Y3822185D01*
X6863200Y3830769D01*
X6861493Y3839353D01*
X6856630Y3846630D01*
X6849353Y3851493D01*
X6840769Y3853200D01*
D02*
G37*
G36*
X6540769D02*
X6532185Y3851493D01*
X6524908Y3846630D01*
X6520046Y3839353D01*
X6518338Y3830769D01*
X6520046Y3822185D01*
X6524908Y3814908D01*
X6532185Y3810046D01*
X6540769Y3808338D01*
X6549353Y3810046D01*
X6556630Y3814908D01*
X6561493Y3822185D01*
X6563200Y3830769D01*
X6561493Y3839353D01*
X6556630Y3846630D01*
X6549353Y3851493D01*
X6540769Y3853200D01*
D02*
G37*
G36*
X6240769D02*
X6232185Y3851493D01*
X6224908Y3846630D01*
X6220046Y3839353D01*
X6218338Y3830769D01*
X6220046Y3822185D01*
X6224908Y3814908D01*
X6232185Y3810046D01*
X6240769Y3808338D01*
X6249353Y3810046D01*
X6256630Y3814908D01*
X6261493Y3822185D01*
X6263200Y3830769D01*
X6261493Y3839353D01*
X6256630Y3846630D01*
X6249353Y3851493D01*
X6240769Y3853200D01*
D02*
G37*
G36*
X5935769D02*
X5927185Y3851493D01*
X5919908Y3846630D01*
X5915046Y3839353D01*
X5913338Y3830769D01*
X5915046Y3822185D01*
X5919908Y3814908D01*
X5927185Y3810046D01*
X5935769Y3808338D01*
X5944353Y3810046D01*
X5951630Y3814908D01*
X5956493Y3822185D01*
X5958200Y3830769D01*
X5956493Y3839353D01*
X5951630Y3846630D01*
X5944353Y3851493D01*
X5935769Y3853200D01*
D02*
G37*
G36*
X5630769D02*
X5622185Y3851493D01*
X5614908Y3846630D01*
X5610046Y3839353D01*
X5608338Y3830769D01*
X5610046Y3822185D01*
X5614908Y3814908D01*
X5622185Y3810046D01*
X5630769Y3808338D01*
X5639353Y3810046D01*
X5646630Y3814908D01*
X5651493Y3822185D01*
X5653200Y3830769D01*
X5651493Y3839353D01*
X5646630Y3846630D01*
X5639353Y3851493D01*
X5630769Y3853200D01*
D02*
G37*
G36*
X5340769D02*
X5332185Y3851493D01*
X5324908Y3846630D01*
X5320046Y3839353D01*
X5318338Y3830769D01*
X5320046Y3822185D01*
X5324908Y3814908D01*
X5332185Y3810046D01*
X5340769Y3808338D01*
X5349353Y3810046D01*
X5356630Y3814908D01*
X5361493Y3822185D01*
X5363200Y3830769D01*
X5361493Y3839353D01*
X5356630Y3846630D01*
X5349353Y3851493D01*
X5340769Y3853200D01*
D02*
G37*
G36*
X4740769D02*
X4732185Y3851493D01*
X4724908Y3846630D01*
X4720046Y3839353D01*
X4718338Y3830769D01*
X4720046Y3822185D01*
X4724908Y3814908D01*
X4732185Y3810046D01*
X4740769Y3808338D01*
X4749353Y3810046D01*
X4756630Y3814908D01*
X4761493Y3822185D01*
X4763200Y3830769D01*
X4761493Y3839353D01*
X4756630Y3846630D01*
X4749353Y3851493D01*
X4740769Y3853200D01*
D02*
G37*
G36*
X4440769Y3852575D02*
X4432185Y3850868D01*
X4424908Y3846005D01*
X4420046Y3838728D01*
X4418338Y3830144D01*
X4420046Y3821560D01*
X4424908Y3814283D01*
X4432185Y3809421D01*
X4440769Y3807713D01*
X4449353Y3809421D01*
X4456630Y3814283D01*
X4461493Y3821560D01*
X4463200Y3830144D01*
X4461493Y3838728D01*
X4456630Y3846005D01*
X4449353Y3850868D01*
X4440769Y3852575D01*
D02*
G37*
G36*
X2760837Y3804687D02*
Y3770000D01*
X2795524D01*
X2794808Y3775442D01*
X2790777Y3785173D01*
X2784366Y3793528D01*
X2776010Y3799940D01*
X2766279Y3803970D01*
X2760837Y3804687D01*
D02*
G37*
G36*
X2750837D02*
X2745395Y3803970D01*
X2735665Y3799940D01*
X2727309Y3793528D01*
X2720897Y3785173D01*
X2716867Y3775442D01*
X2716150Y3770000D01*
X2750837D01*
Y3804687D01*
D02*
G37*
G36*
X2455837Y3802319D02*
X2446178Y3801048D01*
X2437178Y3797320D01*
X2429448Y3791389D01*
X2423518Y3783660D01*
X2419789Y3774659D01*
X2418518Y3765000D01*
X2419789Y3755341D01*
X2423518Y3746340D01*
X2429448Y3738611D01*
X2437178Y3732680D01*
X2446178Y3728952D01*
X2455837Y3727681D01*
X2465496Y3728952D01*
X2474497Y3732680D01*
X2482226Y3738611D01*
X2488157Y3746340D01*
X2491885Y3755341D01*
X2493157Y3765000D01*
X2491885Y3774659D01*
X2488157Y3783660D01*
X2482226Y3791389D01*
X2474497Y3797320D01*
X2465496Y3801048D01*
X2455837Y3802319D01*
D02*
G37*
G36*
X2795524Y3760000D02*
X2760837D01*
Y3725313D01*
X2766279Y3726030D01*
X2776010Y3730060D01*
X2784366Y3736472D01*
X2790777Y3744827D01*
X2794808Y3754558D01*
X2795524Y3760000D01*
D02*
G37*
G36*
X2750837D02*
X2716150D01*
X2716867Y3754558D01*
X2720897Y3744827D01*
X2727309Y3736472D01*
X2735665Y3730060D01*
X2745395Y3726030D01*
X2750837Y3725313D01*
Y3760000D01*
D02*
G37*
G36*
X3375000Y3712079D02*
Y3690000D01*
X3397079D01*
X3396792Y3692179D01*
X3394021Y3698869D01*
X3389613Y3704613D01*
X3383869Y3709021D01*
X3377179Y3711792D01*
X3375000Y3712079D01*
D02*
G37*
G36*
X3365000D02*
X3362821Y3711792D01*
X3356131Y3709021D01*
X3350387Y3704613D01*
X3345979Y3698869D01*
X3343208Y3692179D01*
X3342921Y3690000D01*
X3365000D01*
Y3712079D01*
D02*
G37*
G36*
X3695000Y3707079D02*
Y3685000D01*
X3717079D01*
X3716792Y3687179D01*
X3714021Y3693869D01*
X3709613Y3699613D01*
X3703869Y3704021D01*
X3697179Y3706792D01*
X3695000Y3707079D01*
D02*
G37*
G36*
X3685000D02*
X3682821Y3706792D01*
X3676131Y3704021D01*
X3670387Y3699613D01*
X3665979Y3693869D01*
X3663208Y3687179D01*
X3662921Y3685000D01*
X3685000D01*
Y3707079D01*
D02*
G37*
G36*
X3397079Y3680000D02*
X3375000D01*
Y3657921D01*
X3377179Y3658208D01*
X3383869Y3660979D01*
X3389613Y3665387D01*
X3394021Y3671131D01*
X3396792Y3677821D01*
X3397079Y3680000D01*
D02*
G37*
G36*
X3365000D02*
X3342921D01*
X3343208Y3677821D01*
X3345979Y3671131D01*
X3350387Y3665387D01*
X3356131Y3660979D01*
X3362821Y3658208D01*
X3365000Y3657921D01*
Y3680000D01*
D02*
G37*
G36*
X2014144Y3670890D02*
X2011402Y3670345D01*
X2004839Y3665959D01*
X2000453Y3659396D01*
X2000040Y3657318D01*
X1994942D01*
X1994528Y3659396D01*
X1990143Y3665959D01*
X1983579Y3670345D01*
X1980837Y3670890D01*
Y3651654D01*
X1970837D01*
Y3670890D01*
X1968095Y3670345D01*
X1961532Y3665959D01*
X1957146Y3659396D01*
X1956733Y3657318D01*
X1951635D01*
X1951221Y3659396D01*
X1946836Y3665959D01*
X1940272Y3670345D01*
X1937530Y3670890D01*
Y3651654D01*
X1932530D01*
Y3646654D01*
X1913293D01*
X1913839Y3643912D01*
X1918225Y3637348D01*
X1924788Y3632962D01*
X1926866Y3632549D01*
Y3627451D01*
X1924788Y3627038D01*
X1918225Y3622652D01*
X1913839Y3616089D01*
X1913293Y3613347D01*
X1932530D01*
Y3608347D01*
X1937530D01*
Y3589110D01*
X1940272Y3589655D01*
X1946836Y3594041D01*
X1951221Y3600604D01*
X1951635Y3602682D01*
X1956733D01*
X1957146Y3600604D01*
X1961532Y3594041D01*
X1968095Y3589655D01*
X1970837Y3589110D01*
Y3608347D01*
X1980837D01*
Y3589110D01*
X1983579Y3589655D01*
X1990143Y3594041D01*
X1994528Y3600604D01*
X1994942Y3602682D01*
X2000040D01*
X2000453Y3600604D01*
X2004839Y3594041D01*
X2011402Y3589655D01*
X2014144Y3589110D01*
Y3608347D01*
X2019144D01*
Y3613347D01*
X2038381D01*
X2037835Y3616089D01*
X2033450Y3622652D01*
X2026886Y3627038D01*
X2024808Y3627451D01*
Y3632549D01*
X2026886Y3632962D01*
X2033450Y3637348D01*
X2037835Y3643912D01*
X2038381Y3646654D01*
X2019144D01*
Y3651654D01*
X2014144D01*
Y3670890D01*
D02*
G37*
G36*
X2024144D02*
Y3656654D01*
X2038381D01*
X2037835Y3659396D01*
X2033450Y3665959D01*
X2026886Y3670345D01*
X2024144Y3670890D01*
D02*
G37*
G36*
X1927530D02*
X1924788Y3670345D01*
X1918225Y3665959D01*
X1913839Y3659396D01*
X1913293Y3656654D01*
X1927530D01*
Y3670890D01*
D02*
G37*
G36*
X3717079Y3675000D02*
X3695000D01*
Y3652921D01*
X3697179Y3653208D01*
X3703869Y3655979D01*
X3709613Y3660387D01*
X3714021Y3666131D01*
X3716792Y3672821D01*
X3717079Y3675000D01*
D02*
G37*
G36*
X3685000D02*
X3662921D01*
X3663208Y3672821D01*
X3665979Y3666131D01*
X3670387Y3660387D01*
X3676131Y3655979D01*
X3682821Y3653208D01*
X3685000Y3652921D01*
Y3675000D01*
D02*
G37*
G36*
X8635769Y3663200D02*
X8627185Y3661493D01*
X8619908Y3656630D01*
X8615046Y3649353D01*
X8613338Y3640769D01*
X8615046Y3632185D01*
X8619908Y3624908D01*
X8627185Y3620046D01*
X8635769Y3618338D01*
X8644353Y3620046D01*
X8651630Y3624908D01*
X8656493Y3632185D01*
X8658200Y3640769D01*
X8656493Y3649353D01*
X8651630Y3656630D01*
X8644353Y3661493D01*
X8635769Y3663200D01*
D02*
G37*
G36*
X8345769D02*
X8337185Y3661493D01*
X8329908Y3656630D01*
X8325046Y3649353D01*
X8323338Y3640769D01*
X8325046Y3632185D01*
X8329908Y3624908D01*
X8337185Y3620046D01*
X8345769Y3618338D01*
X8354353Y3620046D01*
X8361630Y3624908D01*
X8366493Y3632185D01*
X8368200Y3640769D01*
X8366493Y3649353D01*
X8361630Y3656630D01*
X8354353Y3661493D01*
X8345769Y3663200D01*
D02*
G37*
G36*
X8045769D02*
X8037185Y3661493D01*
X8029908Y3656630D01*
X8025046Y3649353D01*
X8023338Y3640769D01*
X8025046Y3632185D01*
X8029908Y3624908D01*
X8037185Y3620046D01*
X8045769Y3618338D01*
X8054353Y3620046D01*
X8061630Y3624908D01*
X8066493Y3632185D01*
X8068200Y3640769D01*
X8066493Y3649353D01*
X8061630Y3656630D01*
X8054353Y3661493D01*
X8045769Y3663200D01*
D02*
G37*
G36*
X7740769D02*
X7732185Y3661493D01*
X7724908Y3656630D01*
X7720046Y3649353D01*
X7718338Y3640769D01*
X7720046Y3632185D01*
X7724908Y3624908D01*
X7732185Y3620046D01*
X7740769Y3618338D01*
X7749353Y3620046D01*
X7756630Y3624908D01*
X7761493Y3632185D01*
X7763200Y3640769D01*
X7761493Y3649353D01*
X7756630Y3656630D01*
X7749353Y3661493D01*
X7740769Y3663200D01*
D02*
G37*
G36*
X7440769D02*
X7432185Y3661493D01*
X7424908Y3656630D01*
X7420046Y3649353D01*
X7418338Y3640769D01*
X7420046Y3632185D01*
X7424908Y3624908D01*
X7432185Y3620046D01*
X7440769Y3618338D01*
X7449353Y3620046D01*
X7456630Y3624908D01*
X7461493Y3632185D01*
X7463200Y3640769D01*
X7461493Y3649353D01*
X7456630Y3656630D01*
X7449353Y3661493D01*
X7440769Y3663200D01*
D02*
G37*
G36*
X7140769D02*
X7132185Y3661493D01*
X7124908Y3656630D01*
X7120046Y3649353D01*
X7118338Y3640769D01*
X7120046Y3632185D01*
X7124908Y3624908D01*
X7132185Y3620046D01*
X7140769Y3618338D01*
X7149353Y3620046D01*
X7156630Y3624908D01*
X7161493Y3632185D01*
X7163200Y3640769D01*
X7161493Y3649353D01*
X7156630Y3656630D01*
X7149353Y3661493D01*
X7140769Y3663200D01*
D02*
G37*
G36*
X6850769D02*
X6842185Y3661493D01*
X6834908Y3656630D01*
X6830046Y3649353D01*
X6828338Y3640769D01*
X6830046Y3632185D01*
X6834908Y3624908D01*
X6842185Y3620046D01*
X6850769Y3618338D01*
X6859353Y3620046D01*
X6866630Y3624908D01*
X6871493Y3632185D01*
X6873200Y3640769D01*
X6871493Y3649353D01*
X6866630Y3656630D01*
X6859353Y3661493D01*
X6850769Y3663200D01*
D02*
G37*
G36*
X6540769D02*
X6532185Y3661493D01*
X6524908Y3656630D01*
X6520046Y3649353D01*
X6518338Y3640769D01*
X6520046Y3632185D01*
X6524908Y3624908D01*
X6532185Y3620046D01*
X6540769Y3618338D01*
X6549353Y3620046D01*
X6556630Y3624908D01*
X6561493Y3632185D01*
X6563200Y3640769D01*
X6561493Y3649353D01*
X6556630Y3656630D01*
X6549353Y3661493D01*
X6540769Y3663200D01*
D02*
G37*
G36*
X6250769D02*
X6242185Y3661493D01*
X6234908Y3656630D01*
X6230046Y3649353D01*
X6228338Y3640769D01*
X6230046Y3632185D01*
X6234908Y3624908D01*
X6242185Y3620046D01*
X6250769Y3618338D01*
X6259353Y3620046D01*
X6266630Y3624908D01*
X6271493Y3632185D01*
X6273200Y3640769D01*
X6271493Y3649353D01*
X6266630Y3656630D01*
X6259353Y3661493D01*
X6250769Y3663200D01*
D02*
G37*
G36*
X5935769D02*
X5927185Y3661493D01*
X5919908Y3656630D01*
X5915046Y3649353D01*
X5913338Y3640769D01*
X5915046Y3632185D01*
X5919908Y3624908D01*
X5927185Y3620046D01*
X5935769Y3618338D01*
X5944353Y3620046D01*
X5951630Y3624908D01*
X5956493Y3632185D01*
X5958200Y3640769D01*
X5956493Y3649353D01*
X5951630Y3656630D01*
X5944353Y3661493D01*
X5935769Y3663200D01*
D02*
G37*
G36*
X5645769D02*
X5637185Y3661493D01*
X5629908Y3656630D01*
X5625046Y3649353D01*
X5623338Y3640769D01*
X5625046Y3632185D01*
X5629908Y3624908D01*
X5637185Y3620046D01*
X5645769Y3618338D01*
X5654353Y3620046D01*
X5661630Y3624908D01*
X5666493Y3632185D01*
X5668200Y3640769D01*
X5666493Y3649353D01*
X5661630Y3656630D01*
X5654353Y3661493D01*
X5645769Y3663200D01*
D02*
G37*
G36*
X5350769D02*
X5342185Y3661493D01*
X5334908Y3656630D01*
X5330046Y3649353D01*
X5328338Y3640769D01*
X5330046Y3632185D01*
X5334908Y3624908D01*
X5342185Y3620046D01*
X5350769Y3618338D01*
X5359353Y3620046D01*
X5366630Y3624908D01*
X5371493Y3632185D01*
X5373200Y3640769D01*
X5371493Y3649353D01*
X5366630Y3656630D01*
X5359353Y3661493D01*
X5350769Y3663200D01*
D02*
G37*
G36*
X5050769D02*
X5042185Y3661493D01*
X5034908Y3656630D01*
X5030046Y3649353D01*
X5028338Y3640769D01*
X5030046Y3632185D01*
X5034908Y3624908D01*
X5042185Y3620046D01*
X5050769Y3618338D01*
X5059353Y3620046D01*
X5066630Y3624908D01*
X5071493Y3632185D01*
X5073200Y3640769D01*
X5071493Y3649353D01*
X5066630Y3656630D01*
X5059353Y3661493D01*
X5050769Y3663200D01*
D02*
G37*
G36*
X4750769D02*
X4742185Y3661493D01*
X4734908Y3656630D01*
X4730046Y3649353D01*
X4728338Y3640769D01*
X4730046Y3632185D01*
X4734908Y3624908D01*
X4742185Y3620046D01*
X4750769Y3618338D01*
X4759353Y3620046D01*
X4766630Y3624908D01*
X4771493Y3632185D01*
X4773200Y3640769D01*
X4771493Y3649353D01*
X4766630Y3656630D01*
X4759353Y3661493D01*
X4750769Y3663200D01*
D02*
G37*
G36*
X4450769D02*
X4442185Y3661493D01*
X4434908Y3656630D01*
X4430046Y3649353D01*
X4428338Y3640769D01*
X4430046Y3632185D01*
X4434908Y3624908D01*
X4442185Y3620046D01*
X4450769Y3618338D01*
X4459353Y3620046D01*
X4466630Y3624908D01*
X4471493Y3632185D01*
X4473200Y3640769D01*
X4471493Y3649353D01*
X4466630Y3656630D01*
X4459353Y3661493D01*
X4450769Y3663200D01*
D02*
G37*
G36*
X3505000Y3612079D02*
Y3590000D01*
X3527079D01*
X3526792Y3592179D01*
X3524021Y3598869D01*
X3519613Y3604613D01*
X3513869Y3609021D01*
X3507179Y3611792D01*
X3505000Y3612079D01*
D02*
G37*
G36*
X3495000D02*
X3492821Y3611792D01*
X3486131Y3609021D01*
X3480387Y3604613D01*
X3475979Y3598869D01*
X3473208Y3592179D01*
X3472921Y3590000D01*
X3495000D01*
Y3612079D01*
D02*
G37*
G36*
X2038381Y3603347D02*
X2024144D01*
Y3589110D01*
X2026886Y3589655D01*
X2033450Y3594041D01*
X2037835Y3600604D01*
X2038381Y3603347D01*
D02*
G37*
G36*
X1927530D02*
X1913293D01*
X1913839Y3600604D01*
X1918225Y3594041D01*
X1924788Y3589655D01*
X1927530Y3589110D01*
Y3603347D01*
D02*
G37*
G36*
X3300000Y3602079D02*
Y3580000D01*
X3322079D01*
X3321792Y3582179D01*
X3319021Y3588869D01*
X3314613Y3594613D01*
X3308869Y3599021D01*
X3302179Y3601792D01*
X3300000Y3602079D01*
D02*
G37*
G36*
X3290000D02*
X3287821Y3601792D01*
X3281131Y3599021D01*
X3275387Y3594613D01*
X3270979Y3588869D01*
X3268208Y3582179D01*
X3267921Y3580000D01*
X3290000D01*
Y3602079D01*
D02*
G37*
G36*
X3527079Y3580000D02*
X3505000D01*
Y3557921D01*
X3507179Y3558208D01*
X3513869Y3560979D01*
X3519613Y3565387D01*
X3524021Y3571131D01*
X3526792Y3577821D01*
X3527079Y3580000D01*
D02*
G37*
G36*
X3495000D02*
X3472921D01*
X3473208Y3577821D01*
X3475979Y3571131D01*
X3480387Y3565387D01*
X3486131Y3560979D01*
X3492821Y3558208D01*
X3495000Y3557921D01*
Y3580000D01*
D02*
G37*
G36*
X3322079Y3570000D02*
X3300000D01*
Y3547921D01*
X3302179Y3548208D01*
X3308869Y3550979D01*
X3314613Y3555387D01*
X3319021Y3561131D01*
X3321792Y3567821D01*
X3322079Y3570000D01*
D02*
G37*
G36*
X3290000D02*
X3267921D01*
X3268208Y3567821D01*
X3270979Y3561131D01*
X3275387Y3555387D01*
X3281131Y3550979D01*
X3287821Y3548208D01*
X3290000Y3547921D01*
Y3570000D01*
D02*
G37*
G36*
X4175000Y3549980D02*
X4165441Y3548079D01*
X4157337Y3542664D01*
X4151922Y3534559D01*
X4150020Y3525000D01*
X4151922Y3515441D01*
X4157337Y3507336D01*
X4165441Y3501921D01*
X4175000Y3500020D01*
X4184559Y3501921D01*
X4192663Y3507336D01*
X4198078Y3515441D01*
X4199980Y3525000D01*
X4198078Y3534559D01*
X4192663Y3542664D01*
X4184559Y3548079D01*
X4175000Y3549980D01*
D02*
G37*
G36*
X3010000Y3519980D02*
X3000441Y3518079D01*
X2992336Y3512664D01*
X2986921Y3504559D01*
X2985020Y3495000D01*
X2986921Y3485441D01*
X2992336Y3477336D01*
X3000441Y3471921D01*
X3010000Y3470020D01*
X3019559Y3471921D01*
X3027664Y3477336D01*
X3033079Y3485441D01*
X3034980Y3495000D01*
X3033079Y3504559D01*
X3027664Y3512664D01*
X3019559Y3518079D01*
X3010000Y3519980D01*
D02*
G37*
G36*
X4150000Y3499980D02*
X4140441Y3498079D01*
X4132337Y3492664D01*
X4126922Y3484559D01*
X4125020Y3475000D01*
X4126922Y3465441D01*
X4132337Y3457336D01*
X4140441Y3451921D01*
X4150000Y3450020D01*
X4159559Y3451921D01*
X4167663Y3457336D01*
X4173078Y3465441D01*
X4174980Y3475000D01*
X4173078Y3484559D01*
X4167663Y3492664D01*
X4159559Y3498079D01*
X4150000Y3499980D01*
D02*
G37*
G36*
X2455837Y3502319D02*
X2446178Y3501048D01*
X2437178Y3497320D01*
X2429448Y3491389D01*
X2423518Y3483660D01*
X2419789Y3474659D01*
X2418518Y3465000D01*
X2419789Y3455341D01*
X2421236Y3451849D01*
X2417197Y3448535D01*
X2410397Y3453079D01*
X2400837Y3454980D01*
X2391278Y3453079D01*
X2383174Y3447664D01*
X2377759Y3439559D01*
X2375857Y3430000D01*
X2377759Y3420441D01*
X2383174Y3412336D01*
X2391278Y3406921D01*
X2400837Y3405020D01*
X2410397Y3406921D01*
X2418501Y3412336D01*
X2423916Y3420441D01*
X2425817Y3430000D01*
X2424440Y3436926D01*
X2429116Y3439044D01*
X2429448Y3438611D01*
X2437178Y3432680D01*
X2446178Y3428952D01*
X2448585Y3428635D01*
X2448751Y3423570D01*
X2446278Y3423079D01*
X2438174Y3417664D01*
X2432759Y3409559D01*
X2430857Y3400000D01*
X2432759Y3390441D01*
X2438174Y3382336D01*
X2446278Y3376921D01*
X2455837Y3375020D01*
X2465397Y3376921D01*
X2473501Y3382336D01*
X2478916Y3390441D01*
X2480817Y3400000D01*
X2478916Y3409559D01*
X2473501Y3417664D01*
X2465397Y3423079D01*
X2462923Y3423570D01*
X2463089Y3428635D01*
X2465496Y3428952D01*
X2474497Y3432680D01*
X2482226Y3438611D01*
X2488157Y3446340D01*
X2491885Y3455341D01*
X2493157Y3465000D01*
X2491885Y3474659D01*
X2488157Y3483660D01*
X2482226Y3491389D01*
X2474497Y3497320D01*
X2465496Y3501048D01*
X2455837Y3502319D01*
D02*
G37*
G36*
X4115000Y3454980D02*
X4105441Y3453079D01*
X4097337Y3447664D01*
X4091921Y3439559D01*
X4090120Y3430504D01*
X4088615Y3429707D01*
X4085125Y3428980D01*
X4082664Y3432664D01*
X4074559Y3438079D01*
X4065000Y3439980D01*
X4055441Y3438079D01*
X4047336Y3432664D01*
X4041921Y3424559D01*
X4040020Y3415000D01*
X4041921Y3405441D01*
X4047336Y3397336D01*
X4055441Y3391921D01*
X4060195Y3390976D01*
X4062497Y3385420D01*
X4061921Y3384559D01*
X4060020Y3375000D01*
X4061921Y3365441D01*
X4067336Y3357336D01*
X4075441Y3351921D01*
X4085000Y3350020D01*
X4094559Y3351921D01*
X4102663Y3357336D01*
X4108078Y3365441D01*
X4109088Y3370517D01*
X4116739Y3378167D01*
X4121563D01*
X4123080Y3373167D01*
X4122356Y3372684D01*
X4116941Y3364579D01*
X4115040Y3355020D01*
X4116941Y3345461D01*
X4122356Y3337356D01*
X4130461Y3331941D01*
X4140020Y3330040D01*
X4149579Y3331941D01*
X4157684Y3337356D01*
X4163099Y3345461D01*
X4164108Y3350537D01*
X4179239Y3365667D01*
X4195315D01*
X4196832Y3360667D01*
X4192337Y3357664D01*
X4186922Y3349559D01*
X4185020Y3340000D01*
X4186922Y3330441D01*
X4192337Y3322336D01*
X4193721Y3321412D01*
X4192088Y3316489D01*
X4186131Y3314021D01*
X4180387Y3309613D01*
X4175979Y3303869D01*
X4173208Y3297179D01*
X4172921Y3295000D01*
X4200000D01*
Y3285000D01*
X4172921D01*
X4173208Y3282821D01*
X4175979Y3276131D01*
X4180387Y3270387D01*
X4186131Y3265979D01*
X4192100Y3263506D01*
X4192491Y3261381D01*
X4191947Y3258378D01*
X4190441Y3258079D01*
X4182337Y3252664D01*
X4176922Y3244559D01*
X4175020Y3235000D01*
X4176922Y3225441D01*
X4182337Y3217336D01*
X4189159Y3212778D01*
X4189441Y3211744D01*
Y3208256D01*
X4189159Y3207222D01*
X4182337Y3202664D01*
X4176922Y3194559D01*
X4175020Y3185000D01*
X4176922Y3175441D01*
X4182337Y3167336D01*
X4190441Y3161921D01*
X4200000Y3160020D01*
X4209559Y3161921D01*
X4217663Y3167336D01*
X4223078Y3175441D01*
X4223891Y3179525D01*
X4229316Y3181171D01*
X4242667Y3167820D01*
Y2867180D01*
X4217744Y2842256D01*
X4213986Y2836633D01*
X4212667Y2830000D01*
Y2585000D01*
X4213986Y2578367D01*
X4217744Y2572744D01*
X4344975Y2445513D01*
X4350598Y2441756D01*
X4357231Y2440436D01*
X4413807D01*
X4416164Y2436026D01*
X4415046Y2434353D01*
X4413338Y2425769D01*
X4415046Y2417185D01*
X4419908Y2409908D01*
X4423762Y2407333D01*
X4422245Y2402333D01*
X4372180D01*
X4197333Y2577180D01*
Y2950000D01*
X4196014Y2956633D01*
X4192256Y2962256D01*
X3937256Y3217256D01*
X3931633Y3221014D01*
X3926779Y3221979D01*
X3924369Y3224234D01*
X3923412Y3227115D01*
X3924980Y3235000D01*
X3923079Y3244559D01*
X3917664Y3252664D01*
X3909559Y3258079D01*
X3900000Y3259980D01*
X3893811Y3258749D01*
X3891860Y3263459D01*
X3897664Y3267336D01*
X3903079Y3275441D01*
X3904980Y3285000D01*
X3903079Y3294559D01*
X3898968Y3300711D01*
X3900686Y3305989D01*
X3900865Y3306187D01*
X3904559Y3306921D01*
X3912664Y3312336D01*
X3918079Y3320441D01*
X3919980Y3330000D01*
X3918079Y3339559D01*
X3912664Y3347664D01*
X3904559Y3353079D01*
X3895000Y3354980D01*
X3885441Y3353079D01*
X3877336Y3347664D01*
X3871921Y3339559D01*
X3870020Y3330000D01*
X3871921Y3320441D01*
X3876032Y3314289D01*
X3874314Y3309011D01*
X3874135Y3308813D01*
X3870441Y3308079D01*
X3862336Y3302664D01*
X3856921Y3294559D01*
X3855020Y3285000D01*
X3856921Y3275441D01*
X3862336Y3267336D01*
X3870441Y3261921D01*
X3880000Y3260020D01*
X3886189Y3261251D01*
X3888140Y3256541D01*
X3882336Y3252664D01*
X3876921Y3244559D01*
X3875020Y3235000D01*
X3876921Y3225441D01*
X3877497Y3224580D01*
X3875195Y3219024D01*
X3870441Y3218079D01*
X3862336Y3212664D01*
X3856921Y3204559D01*
X3855020Y3195000D01*
X3856921Y3185441D01*
X3862336Y3177336D01*
X3870441Y3171921D01*
X3877406Y3170536D01*
X3880010Y3169973D01*
X3881040Y3165129D01*
X3880020Y3160000D01*
X3881921Y3150441D01*
X3887336Y3142336D01*
X3895441Y3136921D01*
X3905000Y3135020D01*
X3905390Y3135097D01*
X4012667Y3027820D01*
Y2675000D01*
X4013986Y2668367D01*
X4017744Y2662744D01*
X4334744Y2345744D01*
X4340367Y2341986D01*
X4347000Y2340667D01*
X4718517D01*
X4721002Y2335667D01*
X4716922Y2329559D01*
X4715020Y2320000D01*
X4716922Y2310441D01*
X4722337Y2302336D01*
X4730441Y2296921D01*
X4740000Y2295020D01*
X4749559Y2296921D01*
X4757663Y2302336D01*
X4763078Y2310441D01*
X4764980Y2320000D01*
X4763078Y2329559D01*
X4758998Y2335667D01*
X4761483Y2340667D01*
X5018517D01*
X5021002Y2335667D01*
X5016922Y2329559D01*
X5015020Y2320000D01*
X5016922Y2310441D01*
X5022337Y2302336D01*
X5030441Y2296921D01*
X5040000Y2295020D01*
X5049559Y2296921D01*
X5057663Y2302336D01*
X5063078Y2310441D01*
X5064980Y2320000D01*
X5063078Y2329559D01*
X5058998Y2335667D01*
X5061483Y2340667D01*
X5303517D01*
X5306002Y2335667D01*
X5301922Y2329559D01*
X5300020Y2320000D01*
X5301922Y2310441D01*
X5307337Y2302336D01*
X5315441Y2296921D01*
X5325000Y2295020D01*
X5334559Y2296921D01*
X5342663Y2302336D01*
X5348078Y2310441D01*
X5349980Y2320000D01*
X5348078Y2329559D01*
X5343998Y2335667D01*
X5346483Y2340667D01*
X5374820D01*
X5402743Y2312744D01*
X5402744Y2312744D01*
X5408367Y2308986D01*
X5415000Y2307667D01*
X5607116D01*
X5607337Y2307336D01*
X5615441Y2301921D01*
X5625000Y2300020D01*
X5634559Y2301921D01*
X5642663Y2307336D01*
X5648078Y2315441D01*
X5649980Y2325000D01*
X5648078Y2334559D01*
X5642663Y2342664D01*
X5634559Y2348079D01*
X5625000Y2349980D01*
X5615441Y2348079D01*
X5607337Y2342664D01*
X5607116Y2342333D01*
X5422180D01*
X5401465Y2363048D01*
X5403378Y2367667D01*
X5632820D01*
X5692744Y2307744D01*
X5698367Y2303986D01*
X5705000Y2302667D01*
X5917116D01*
X5917337Y2302336D01*
X5925441Y2296921D01*
X5935000Y2295020D01*
X5944559Y2296921D01*
X5952663Y2302336D01*
X5958078Y2310441D01*
X5959980Y2320000D01*
X5958078Y2329559D01*
X5952663Y2337664D01*
X5948168Y2340667D01*
X5949685Y2345667D01*
X5954820D01*
X5992744Y2307744D01*
X5998367Y2303986D01*
X6005000Y2302667D01*
X6207116D01*
X6207337Y2302336D01*
X6215441Y2296921D01*
X6225000Y2295020D01*
X6234559Y2296921D01*
X6242663Y2302336D01*
X6248078Y2310441D01*
X6249980Y2320000D01*
X6248078Y2329559D01*
X6242663Y2337664D01*
X6239172Y2339997D01*
X6238220Y2346646D01*
X6239076Y2347667D01*
X6520924D01*
X6521780Y2346646D01*
X6520828Y2339997D01*
X6517337Y2337664D01*
X6511922Y2329559D01*
X6510020Y2320000D01*
X6511922Y2310441D01*
X6517337Y2302336D01*
X6525441Y2296921D01*
X6535000Y2295020D01*
X6544559Y2296921D01*
X6552663Y2302336D01*
X6558078Y2310441D01*
X6559980Y2320000D01*
X6558078Y2329559D01*
X6552663Y2337664D01*
X6549172Y2339997D01*
X6548220Y2346646D01*
X6549076Y2347667D01*
X6820924D01*
X6821780Y2346646D01*
X6820828Y2339997D01*
X6817337Y2337664D01*
X6811922Y2329559D01*
X6810020Y2320000D01*
X6811922Y2310441D01*
X6817337Y2302336D01*
X6825441Y2296921D01*
X6835000Y2295020D01*
X6844559Y2296921D01*
X6852663Y2302336D01*
X6858078Y2310441D01*
X6859980Y2320000D01*
X6858078Y2329559D01*
X6852663Y2337664D01*
X6849172Y2339997D01*
X6848220Y2346646D01*
X6848236Y2346664D01*
X6853656Y2346831D01*
X6892744Y2307744D01*
X6898367Y2303986D01*
X6905000Y2302667D01*
X7117116D01*
X7117337Y2302336D01*
X7125441Y2296921D01*
X7135000Y2295020D01*
X7144559Y2296921D01*
X7152663Y2302336D01*
X7158078Y2310441D01*
X7159980Y2320000D01*
X7158078Y2329559D01*
X7156511Y2331905D01*
X7160395Y2335093D01*
X7187744Y2307744D01*
X7193367Y2303986D01*
X7200000Y2302667D01*
X7407116D01*
X7407337Y2302336D01*
X7415441Y2296921D01*
X7425000Y2295020D01*
X7434559Y2296921D01*
X7442663Y2302336D01*
X7448078Y2310441D01*
X7449980Y2320000D01*
X7448078Y2329559D01*
X7446511Y2331905D01*
X7450395Y2335093D01*
X7477744Y2307744D01*
X7483367Y2303986D01*
X7490000Y2302667D01*
X7717116D01*
X7717337Y2302336D01*
X7725441Y2296921D01*
X7735000Y2295020D01*
X7744559Y2296921D01*
X7752663Y2302336D01*
X7758078Y2310441D01*
X7759980Y2320000D01*
X7758078Y2329559D01*
X7752663Y2337664D01*
X7744559Y2343079D01*
X7735000Y2344980D01*
X7725441Y2343079D01*
X7717337Y2337664D01*
X7717116Y2337333D01*
X7497180D01*
X7452256Y2382256D01*
X7446633Y2386014D01*
X7440000Y2387333D01*
X7262180D01*
X7162256Y2487256D01*
X7156633Y2491014D01*
X7150000Y2492333D01*
X6022180D01*
X5937256Y2577256D01*
X5931633Y2581014D01*
X5925000Y2582333D01*
X4447180D01*
X4392333Y2637180D01*
Y3290000D01*
X4391014Y3296633D01*
X4387256Y3302256D01*
X4267256Y3422256D01*
X4261633Y3426014D01*
X4255000Y3427333D01*
X4160875D01*
X4154242Y3426014D01*
X4148619Y3422256D01*
X4142306Y3415943D01*
X4141197Y3416108D01*
X4139682Y3418213D01*
X4138307Y3421591D01*
X4139980Y3430000D01*
X4138078Y3439559D01*
X4132663Y3447664D01*
X4124559Y3453079D01*
X4115000Y3454980D01*
D02*
G37*
G36*
X2755837Y3502319D02*
X2746178Y3501048D01*
X2737178Y3497320D01*
X2729448Y3491389D01*
X2723518Y3483660D01*
X2719789Y3474659D01*
X2718518Y3465000D01*
X2719789Y3455341D01*
X2723518Y3446340D01*
X2729448Y3438611D01*
X2737178Y3432680D01*
X2746178Y3428952D01*
X2755837Y3427681D01*
X2765496Y3428952D01*
X2774497Y3432680D01*
X2782226Y3438611D01*
X2788157Y3446340D01*
X2791885Y3455341D01*
X2793157Y3465000D01*
X2791885Y3474659D01*
X2788157Y3483660D01*
X2782226Y3491389D01*
X2774497Y3497320D01*
X2765496Y3501048D01*
X2755837Y3502319D01*
D02*
G37*
G36*
X8645769Y3458200D02*
X8637185Y3456493D01*
X8629908Y3451630D01*
X8625046Y3444353D01*
X8623338Y3435769D01*
X8625046Y3427185D01*
X8629908Y3419908D01*
X8637185Y3415046D01*
X8645769Y3413338D01*
X8654353Y3415046D01*
X8661630Y3419908D01*
X8666493Y3427185D01*
X8668200Y3435769D01*
X8666493Y3444353D01*
X8661630Y3451630D01*
X8654353Y3456493D01*
X8645769Y3458200D01*
D02*
G37*
G36*
X8343269D02*
X8334685Y3456493D01*
X8327408Y3451630D01*
X8322546Y3444353D01*
X8320838Y3435769D01*
X8322546Y3427185D01*
X8327408Y3419908D01*
X8334685Y3415046D01*
X8343269Y3413338D01*
X8351853Y3415046D01*
X8359130Y3419908D01*
X8363993Y3427185D01*
X8365700Y3435769D01*
X8363993Y3444353D01*
X8359130Y3451630D01*
X8351853Y3456493D01*
X8343269Y3458200D01*
D02*
G37*
G36*
X8040769D02*
X8032185Y3456493D01*
X8024908Y3451630D01*
X8020046Y3444353D01*
X8018338Y3435769D01*
X8020046Y3427185D01*
X8024908Y3419908D01*
X8032185Y3415046D01*
X8040769Y3413338D01*
X8049353Y3415046D01*
X8056630Y3419908D01*
X8061493Y3427185D01*
X8063200Y3435769D01*
X8061493Y3444353D01*
X8056630Y3451630D01*
X8049353Y3456493D01*
X8040769Y3458200D01*
D02*
G37*
G36*
X7745769D02*
X7737185Y3456493D01*
X7729908Y3451630D01*
X7725046Y3444353D01*
X7723338Y3435769D01*
X7725046Y3427185D01*
X7729908Y3419908D01*
X7737185Y3415046D01*
X7745769Y3413338D01*
X7754353Y3415046D01*
X7761630Y3419908D01*
X7766493Y3427185D01*
X7768200Y3435769D01*
X7766493Y3444353D01*
X7761630Y3451630D01*
X7754353Y3456493D01*
X7745769Y3458200D01*
D02*
G37*
G36*
X7445769D02*
X7437185Y3456493D01*
X7429908Y3451630D01*
X7425046Y3444353D01*
X7423338Y3435769D01*
X7425046Y3427185D01*
X7429908Y3419908D01*
X7437185Y3415046D01*
X7445769Y3413338D01*
X7454353Y3415046D01*
X7461630Y3419908D01*
X7466493Y3427185D01*
X7468200Y3435769D01*
X7466493Y3444353D01*
X7461630Y3451630D01*
X7454353Y3456493D01*
X7445769Y3458200D01*
D02*
G37*
G36*
X7145769D02*
X7137185Y3456493D01*
X7129908Y3451630D01*
X7125046Y3444353D01*
X7123338Y3435769D01*
X7125046Y3427185D01*
X7129908Y3419908D01*
X7137185Y3415046D01*
X7145769Y3413338D01*
X7154353Y3415046D01*
X7161630Y3419908D01*
X7166493Y3427185D01*
X7168200Y3435769D01*
X7166493Y3444353D01*
X7161630Y3451630D01*
X7154353Y3456493D01*
X7145769Y3458200D01*
D02*
G37*
G36*
X6845769D02*
X6837185Y3456493D01*
X6829908Y3451630D01*
X6825046Y3444353D01*
X6823338Y3435769D01*
X6825046Y3427185D01*
X6829908Y3419908D01*
X6837185Y3415046D01*
X6845769Y3413338D01*
X6854353Y3415046D01*
X6861630Y3419908D01*
X6866493Y3427185D01*
X6868200Y3435769D01*
X6866493Y3444353D01*
X6861630Y3451630D01*
X6854353Y3456493D01*
X6845769Y3458200D01*
D02*
G37*
G36*
X6540769D02*
X6532185Y3456493D01*
X6524908Y3451630D01*
X6520046Y3444353D01*
X6518338Y3435769D01*
X6520046Y3427185D01*
X6524908Y3419908D01*
X6532185Y3415046D01*
X6540769Y3413338D01*
X6549353Y3415046D01*
X6556630Y3419908D01*
X6561493Y3427185D01*
X6563200Y3435769D01*
X6561493Y3444353D01*
X6556630Y3451630D01*
X6549353Y3456493D01*
X6540769Y3458200D01*
D02*
G37*
G36*
X6245769D02*
X6237185Y3456493D01*
X6229908Y3451630D01*
X6225046Y3444353D01*
X6223338Y3435769D01*
X6225046Y3427185D01*
X6229908Y3419908D01*
X6237185Y3415046D01*
X6245769Y3413338D01*
X6254353Y3415046D01*
X6261630Y3419908D01*
X6266493Y3427185D01*
X6268200Y3435769D01*
X6266493Y3444353D01*
X6261630Y3451630D01*
X6254353Y3456493D01*
X6245769Y3458200D01*
D02*
G37*
G36*
X5935769D02*
X5927185Y3456493D01*
X5919908Y3451630D01*
X5915046Y3444353D01*
X5913338Y3435769D01*
X5915046Y3427185D01*
X5919908Y3419908D01*
X5927185Y3415046D01*
X5935769Y3413338D01*
X5944353Y3415046D01*
X5951630Y3419908D01*
X5956493Y3427185D01*
X5958200Y3435769D01*
X5956493Y3444353D01*
X5951630Y3451630D01*
X5944353Y3456493D01*
X5935769Y3458200D01*
D02*
G37*
G36*
X5640769D02*
X5632185Y3456493D01*
X5624908Y3451630D01*
X5620046Y3444353D01*
X5618338Y3435769D01*
X5620046Y3427185D01*
X5624908Y3419908D01*
X5632185Y3415046D01*
X5640769Y3413338D01*
X5649353Y3415046D01*
X5656630Y3419908D01*
X5661493Y3427185D01*
X5663200Y3435769D01*
X5661493Y3444353D01*
X5656630Y3451630D01*
X5649353Y3456493D01*
X5640769Y3458200D01*
D02*
G37*
G36*
X5345769D02*
X5337185Y3456493D01*
X5329908Y3451630D01*
X5325046Y3444353D01*
X5323338Y3435769D01*
X5325046Y3427185D01*
X5329908Y3419908D01*
X5337185Y3415046D01*
X5345769Y3413338D01*
X5354353Y3415046D01*
X5361630Y3419908D01*
X5366493Y3427185D01*
X5368200Y3435769D01*
X5366493Y3444353D01*
X5361630Y3451630D01*
X5354353Y3456493D01*
X5345769Y3458200D01*
D02*
G37*
G36*
X5040769D02*
X5032185Y3456493D01*
X5024908Y3451630D01*
X5020046Y3444353D01*
X5018338Y3435769D01*
X5020046Y3427185D01*
X5024908Y3419908D01*
X5032185Y3415046D01*
X5040769Y3413338D01*
X5049353Y3415046D01*
X5056630Y3419908D01*
X5061493Y3427185D01*
X5063200Y3435769D01*
X5061493Y3444353D01*
X5056630Y3451630D01*
X5049353Y3456493D01*
X5040769Y3458200D01*
D02*
G37*
G36*
X4745769D02*
X4737185Y3456493D01*
X4729908Y3451630D01*
X4725046Y3444353D01*
X4723338Y3435769D01*
X4725046Y3427185D01*
X4729908Y3419908D01*
X4737185Y3415046D01*
X4745769Y3413338D01*
X4754353Y3415046D01*
X4761630Y3419908D01*
X4766493Y3427185D01*
X4768200Y3435769D01*
X4766493Y3444353D01*
X4761630Y3451630D01*
X4754353Y3456493D01*
X4745769Y3458200D01*
D02*
G37*
G36*
X4445769D02*
X4437185Y3456493D01*
X4429908Y3451630D01*
X4425046Y3444353D01*
X4423338Y3435769D01*
X4425046Y3427185D01*
X4429908Y3419908D01*
X4437185Y3415046D01*
X4445769Y3413338D01*
X4454353Y3415046D01*
X4461630Y3419908D01*
X4466493Y3427185D01*
X4468200Y3435769D01*
X4466493Y3444353D01*
X4461630Y3451630D01*
X4454353Y3456493D01*
X4445769Y3458200D01*
D02*
G37*
G36*
X3490000Y3459980D02*
X3480441Y3458079D01*
X3472336Y3452664D01*
X3466921Y3444559D01*
X3465020Y3435000D01*
X3466921Y3425441D01*
X3472336Y3417336D01*
X3480441Y3411921D01*
X3490000Y3410020D01*
X3499559Y3411921D01*
X3507664Y3417336D01*
X3513079Y3425441D01*
X3514980Y3435000D01*
X3513079Y3444559D01*
X3507664Y3452664D01*
X3499559Y3458079D01*
X3490000Y3459980D01*
D02*
G37*
G36*
X2835000Y3432079D02*
Y3410000D01*
X2857079D01*
X2856792Y3412179D01*
X2854021Y3418869D01*
X2849613Y3424613D01*
X2843869Y3429021D01*
X2837179Y3431792D01*
X2835000Y3432079D01*
D02*
G37*
G36*
X2825000D02*
X2822821Y3431792D01*
X2816131Y3429021D01*
X2810387Y3424613D01*
X2805979Y3418869D01*
X2803208Y3412179D01*
X2802921Y3410000D01*
X2825000D01*
Y3432079D01*
D02*
G37*
G36*
X3595000Y3444980D02*
X3585441Y3443079D01*
X3577336Y3437664D01*
X3571921Y3429559D01*
X3570020Y3420000D01*
X3571921Y3410441D01*
X3577336Y3402336D01*
X3585441Y3396921D01*
X3595000Y3395020D01*
X3604559Y3396921D01*
X3612664Y3402336D01*
X3618079Y3410441D01*
X3619980Y3420000D01*
X3618079Y3429559D01*
X3612664Y3437664D01*
X3604559Y3443079D01*
X3595000Y3444980D01*
D02*
G37*
G36*
X2857079Y3400000D02*
X2835000D01*
Y3377921D01*
X2837179Y3378208D01*
X2843869Y3380979D01*
X2849613Y3385387D01*
X2854021Y3391131D01*
X2856792Y3397821D01*
X2857079Y3400000D01*
D02*
G37*
G36*
X2825000D02*
X2802921D01*
X2803208Y3397821D01*
X2805979Y3391131D01*
X2810387Y3385387D01*
X2816131Y3380979D01*
X2822821Y3378208D01*
X2825000Y3377921D01*
Y3400000D01*
D02*
G37*
G36*
X2540000Y3432276D02*
X2531646Y3431176D01*
X2523862Y3427952D01*
X2517177Y3422823D01*
X2512048Y3416138D01*
X2508824Y3408354D01*
X2507724Y3400000D01*
X2508824Y3391646D01*
X2512048Y3383862D01*
X2517177Y3377177D01*
X2523862Y3372048D01*
X2531646Y3368824D01*
X2540000Y3367724D01*
X2548354Y3368824D01*
X2556138Y3372048D01*
X2562823Y3377177D01*
X2567952Y3383862D01*
X2571176Y3391646D01*
X2572276Y3400000D01*
X2571176Y3408354D01*
X2567952Y3416138D01*
X2562823Y3422823D01*
X2556138Y3427952D01*
X2548354Y3431176D01*
X2540000Y3432276D01*
D02*
G37*
G36*
X2370885Y3404016D02*
X2361325Y3402114D01*
X2353221Y3396699D01*
X2347806Y3388595D01*
X2345905Y3379036D01*
X2347806Y3369477D01*
X2353221Y3361372D01*
X2361325Y3355957D01*
X2370885Y3354056D01*
X2380444Y3355957D01*
X2388548Y3361372D01*
X2393963Y3369477D01*
X2395865Y3379036D01*
X2393963Y3388595D01*
X2388548Y3396699D01*
X2380444Y3402114D01*
X2370885Y3404016D01*
D02*
G37*
G36*
X3440000Y3372079D02*
Y3350000D01*
X3462079D01*
X3461792Y3352179D01*
X3459021Y3358869D01*
X3454613Y3364613D01*
X3448869Y3369021D01*
X3442179Y3371792D01*
X3440000Y3372079D01*
D02*
G37*
G36*
X3430000D02*
X3427821Y3371792D01*
X3421131Y3369021D01*
X3415387Y3364613D01*
X3410979Y3358869D01*
X3408208Y3352179D01*
X3407921Y3350000D01*
X3430000D01*
Y3372079D01*
D02*
G37*
G36*
X2195837Y3359644D02*
Y3330000D01*
X2225481D01*
X2224936Y3334137D01*
X2221410Y3342651D01*
X2215800Y3349962D01*
X2208488Y3355572D01*
X2199974Y3359099D01*
X2195837Y3359644D01*
D02*
G37*
G36*
X2185837D02*
X2181700Y3359099D01*
X2173186Y3355572D01*
X2165875Y3349962D01*
X2160265Y3342651D01*
X2156738Y3334137D01*
X2156193Y3330000D01*
X2185837D01*
Y3359644D01*
D02*
G37*
G36*
X3462079Y3340000D02*
X3440000D01*
Y3317921D01*
X3442179Y3318208D01*
X3448869Y3320979D01*
X3454613Y3325387D01*
X3459021Y3331131D01*
X3461792Y3337821D01*
X3462079Y3340000D01*
D02*
G37*
G36*
X3430000D02*
X3407921D01*
X3408208Y3337821D01*
X3410979Y3331131D01*
X3415387Y3325387D01*
X3421131Y3320979D01*
X3427821Y3318208D01*
X3430000Y3317921D01*
Y3340000D01*
D02*
G37*
G36*
X3220000Y3354980D02*
X3210441Y3353079D01*
X3202336Y3347664D01*
X3196921Y3339559D01*
X3195020Y3330000D01*
X3196921Y3320441D01*
X3202336Y3312336D01*
X3210441Y3306921D01*
X3220000Y3305020D01*
X3229559Y3306921D01*
X3237664Y3312336D01*
X3243079Y3320441D01*
X3244980Y3330000D01*
X3243079Y3339559D01*
X3237664Y3347664D01*
X3229559Y3353079D01*
X3220000Y3354980D01*
D02*
G37*
G36*
X2225481Y3320000D02*
X2195837D01*
Y3290356D01*
X2199974Y3290901D01*
X2208488Y3294428D01*
X2215800Y3300038D01*
X2221410Y3307349D01*
X2224936Y3315863D01*
X2225481Y3320000D01*
D02*
G37*
G36*
X2185837D02*
X2156193D01*
X2156738Y3315863D01*
X2160265Y3307349D01*
X2165875Y3300038D01*
X2173186Y3294428D01*
X2181700Y3290901D01*
X2185837Y3290356D01*
Y3320000D01*
D02*
G37*
G36*
X2705837Y3342276D02*
X2697483Y3341176D01*
X2689699Y3337952D01*
X2683015Y3332823D01*
X2677885Y3326138D01*
X2674661Y3318354D01*
X2673561Y3310000D01*
X2674661Y3301646D01*
X2677885Y3293862D01*
X2683015Y3287177D01*
X2689699Y3282048D01*
X2697483Y3278824D01*
X2705837Y3277724D01*
X2714191Y3278824D01*
X2721975Y3282048D01*
X2728660Y3287177D01*
X2733789Y3293862D01*
X2737014Y3301646D01*
X2738113Y3310000D01*
X2737014Y3318354D01*
X2733789Y3326138D01*
X2728660Y3332823D01*
X2721975Y3337952D01*
X2714191Y3341176D01*
X2705837Y3342276D01*
D02*
G37*
G36*
X3815000Y3272079D02*
Y3250000D01*
X3837079D01*
X3836792Y3252179D01*
X3834021Y3258869D01*
X3829613Y3264613D01*
X3823869Y3269021D01*
X3817179Y3271792D01*
X3815000Y3272079D01*
D02*
G37*
G36*
X3805000D02*
X3802821Y3271792D01*
X3796131Y3269021D01*
X3790387Y3264613D01*
X3785979Y3258869D01*
X3783208Y3252179D01*
X3782921Y3250000D01*
X3805000D01*
Y3272079D01*
D02*
G37*
G36*
X3837079Y3240000D02*
X3815000D01*
Y3217921D01*
X3817179Y3218208D01*
X3823869Y3220979D01*
X3829613Y3225387D01*
X3834021Y3231131D01*
X3836792Y3237821D01*
X3837079Y3240000D01*
D02*
G37*
G36*
X3805000D02*
X3782921D01*
X3783208Y3237821D01*
X3785979Y3231131D01*
X3790387Y3225387D01*
X3796131Y3220979D01*
X3802821Y3218208D01*
X3805000Y3217921D01*
Y3240000D01*
D02*
G37*
G36*
X8640769Y3258200D02*
X8632185Y3256493D01*
X8624908Y3251630D01*
X8620046Y3244353D01*
X8618338Y3235769D01*
X8620046Y3227185D01*
X8624908Y3219908D01*
X8632185Y3215046D01*
X8640769Y3213338D01*
X8649353Y3215046D01*
X8656630Y3219908D01*
X8661493Y3227185D01*
X8663200Y3235769D01*
X8661493Y3244353D01*
X8656630Y3251630D01*
X8649353Y3256493D01*
X8640769Y3258200D01*
D02*
G37*
G36*
X8340769D02*
X8332185Y3256493D01*
X8324908Y3251630D01*
X8320046Y3244353D01*
X8318338Y3235769D01*
X8320046Y3227185D01*
X8324908Y3219908D01*
X8332185Y3215046D01*
X8340769Y3213338D01*
X8349353Y3215046D01*
X8356630Y3219908D01*
X8361493Y3227185D01*
X8363200Y3235769D01*
X8361493Y3244353D01*
X8356630Y3251630D01*
X8349353Y3256493D01*
X8340769Y3258200D01*
D02*
G37*
G36*
X8045769D02*
X8037185Y3256493D01*
X8029908Y3251630D01*
X8025046Y3244353D01*
X8023338Y3235769D01*
X8025046Y3227185D01*
X8029908Y3219908D01*
X8037185Y3215046D01*
X8045769Y3213338D01*
X8054353Y3215046D01*
X8061630Y3219908D01*
X8066493Y3227185D01*
X8068200Y3235769D01*
X8066493Y3244353D01*
X8061630Y3251630D01*
X8054353Y3256493D01*
X8045769Y3258200D01*
D02*
G37*
G36*
X7745769D02*
X7737185Y3256493D01*
X7729908Y3251630D01*
X7725046Y3244353D01*
X7723338Y3235769D01*
X7725046Y3227185D01*
X7729908Y3219908D01*
X7737185Y3215046D01*
X7745769Y3213338D01*
X7754353Y3215046D01*
X7761630Y3219908D01*
X7766493Y3227185D01*
X7768200Y3235769D01*
X7766493Y3244353D01*
X7761630Y3251630D01*
X7754353Y3256493D01*
X7745769Y3258200D01*
D02*
G37*
G36*
X7440769D02*
X7432185Y3256493D01*
X7424908Y3251630D01*
X7420046Y3244353D01*
X7418338Y3235769D01*
X7420046Y3227185D01*
X7424908Y3219908D01*
X7432185Y3215046D01*
X7440769Y3213338D01*
X7449353Y3215046D01*
X7456630Y3219908D01*
X7461493Y3227185D01*
X7463200Y3235769D01*
X7461493Y3244353D01*
X7456630Y3251630D01*
X7449353Y3256493D01*
X7440769Y3258200D01*
D02*
G37*
G36*
X7140769D02*
X7132185Y3256493D01*
X7124908Y3251630D01*
X7120046Y3244353D01*
X7118338Y3235769D01*
X7120046Y3227185D01*
X7124908Y3219908D01*
X7132185Y3215046D01*
X7140769Y3213338D01*
X7149353Y3215046D01*
X7156630Y3219908D01*
X7161493Y3227185D01*
X7163200Y3235769D01*
X7161493Y3244353D01*
X7156630Y3251630D01*
X7149353Y3256493D01*
X7140769Y3258200D01*
D02*
G37*
G36*
X6845769D02*
X6837185Y3256493D01*
X6829908Y3251630D01*
X6825046Y3244353D01*
X6823338Y3235769D01*
X6825046Y3227185D01*
X6829908Y3219908D01*
X6837185Y3215046D01*
X6845769Y3213338D01*
X6854353Y3215046D01*
X6861630Y3219908D01*
X6866493Y3227185D01*
X6868200Y3235769D01*
X6866493Y3244353D01*
X6861630Y3251630D01*
X6854353Y3256493D01*
X6845769Y3258200D01*
D02*
G37*
G36*
X6540769D02*
X6532185Y3256493D01*
X6524908Y3251630D01*
X6520046Y3244353D01*
X6518338Y3235769D01*
X6520046Y3227185D01*
X6524908Y3219908D01*
X6532185Y3215046D01*
X6540769Y3213338D01*
X6549353Y3215046D01*
X6556630Y3219908D01*
X6561493Y3227185D01*
X6563200Y3235769D01*
X6561493Y3244353D01*
X6556630Y3251630D01*
X6549353Y3256493D01*
X6540769Y3258200D01*
D02*
G37*
G36*
X6245769D02*
X6237185Y3256493D01*
X6229908Y3251630D01*
X6225046Y3244353D01*
X6223338Y3235769D01*
X6225046Y3227185D01*
X6229908Y3219908D01*
X6237185Y3215046D01*
X6245769Y3213338D01*
X6254353Y3215046D01*
X6261630Y3219908D01*
X6266493Y3227185D01*
X6268200Y3235769D01*
X6266493Y3244353D01*
X6261630Y3251630D01*
X6254353Y3256493D01*
X6245769Y3258200D01*
D02*
G37*
G36*
X5940769D02*
X5932185Y3256493D01*
X5924908Y3251630D01*
X5920046Y3244353D01*
X5918338Y3235769D01*
X5920046Y3227185D01*
X5924908Y3219908D01*
X5932185Y3215046D01*
X5940769Y3213338D01*
X5949353Y3215046D01*
X5956630Y3219908D01*
X5961493Y3227185D01*
X5963200Y3235769D01*
X5961493Y3244353D01*
X5956630Y3251630D01*
X5949353Y3256493D01*
X5940769Y3258200D01*
D02*
G37*
G36*
X5645769D02*
X5637185Y3256493D01*
X5629908Y3251630D01*
X5625046Y3244353D01*
X5623338Y3235769D01*
X5625046Y3227185D01*
X5629908Y3219908D01*
X5637185Y3215046D01*
X5645769Y3213338D01*
X5654353Y3215046D01*
X5661630Y3219908D01*
X5666493Y3227185D01*
X5668200Y3235769D01*
X5666493Y3244353D01*
X5661630Y3251630D01*
X5654353Y3256493D01*
X5645769Y3258200D01*
D02*
G37*
G36*
X5340769D02*
X5332185Y3256493D01*
X5324908Y3251630D01*
X5320046Y3244353D01*
X5318338Y3235769D01*
X5320046Y3227185D01*
X5324908Y3219908D01*
X5332185Y3215046D01*
X5340769Y3213338D01*
X5349353Y3215046D01*
X5356630Y3219908D01*
X5361493Y3227185D01*
X5363200Y3235769D01*
X5361493Y3244353D01*
X5356630Y3251630D01*
X5349353Y3256493D01*
X5340769Y3258200D01*
D02*
G37*
G36*
X5045769D02*
X5037185Y3256493D01*
X5029908Y3251630D01*
X5025046Y3244353D01*
X5023338Y3235769D01*
X5025046Y3227185D01*
X5029908Y3219908D01*
X5037185Y3215046D01*
X5045769Y3213338D01*
X5054353Y3215046D01*
X5061630Y3219908D01*
X5066493Y3227185D01*
X5068200Y3235769D01*
X5066493Y3244353D01*
X5061630Y3251630D01*
X5054353Y3256493D01*
X5045769Y3258200D01*
D02*
G37*
G36*
X4735769D02*
X4727185Y3256493D01*
X4719908Y3251630D01*
X4715046Y3244353D01*
X4713338Y3235769D01*
X4715046Y3227185D01*
X4719908Y3219908D01*
X4727185Y3215046D01*
X4735769Y3213338D01*
X4744353Y3215046D01*
X4751630Y3219908D01*
X4756493Y3227185D01*
X4758200Y3235769D01*
X4756493Y3244353D01*
X4751630Y3251630D01*
X4744353Y3256493D01*
X4735769Y3258200D01*
D02*
G37*
G36*
X4440769D02*
X4432185Y3256493D01*
X4424908Y3251630D01*
X4420046Y3244353D01*
X4418338Y3235769D01*
X4420046Y3227185D01*
X4424908Y3219908D01*
X4432185Y3215046D01*
X4440769Y3213338D01*
X4449353Y3215046D01*
X4456630Y3219908D01*
X4461493Y3227185D01*
X4463200Y3235769D01*
X4461493Y3244353D01*
X4456630Y3251630D01*
X4449353Y3256493D01*
X4440769Y3258200D01*
D02*
G37*
G36*
X1880837Y3205201D02*
X1871193Y3203282D01*
X1863018Y3197820D01*
X1857555Y3189644D01*
X1855637Y3180000D01*
X1857555Y3170356D01*
X1863018Y3162180D01*
X1871193Y3156718D01*
X1880837Y3154799D01*
X1890481Y3156718D01*
X1898657Y3162180D01*
X1904120Y3170356D01*
X1906038Y3180000D01*
X1904120Y3189644D01*
X1898657Y3197820D01*
X1890481Y3203282D01*
X1880837Y3205201D01*
D02*
G37*
G36*
X4135000Y3159980D02*
X4125441Y3158079D01*
X4117337Y3152664D01*
X4111922Y3144559D01*
X4110020Y3135000D01*
X4111922Y3125441D01*
X4117337Y3117336D01*
X4125441Y3111921D01*
X4135000Y3110020D01*
X4144559Y3111921D01*
X4152663Y3117336D01*
X4158078Y3125441D01*
X4159980Y3135000D01*
X4158078Y3144559D01*
X4152663Y3152664D01*
X4144559Y3158079D01*
X4135000Y3159980D01*
D02*
G37*
G36*
X4195000Y3154980D02*
X4185441Y3153079D01*
X4177337Y3147664D01*
X4171922Y3139559D01*
X4170020Y3130000D01*
X4171922Y3120441D01*
X4177337Y3112336D01*
X4185441Y3106921D01*
X4195000Y3105020D01*
X4204559Y3106921D01*
X4212663Y3112336D01*
X4218078Y3120441D01*
X4219980Y3130000D01*
X4218078Y3139559D01*
X4212663Y3147664D01*
X4204559Y3153079D01*
X4195000Y3154980D01*
D02*
G37*
G36*
X4075000D02*
X4065441Y3153079D01*
X4057336Y3147664D01*
X4051921Y3139559D01*
X4050020Y3130000D01*
X4051921Y3120441D01*
X4057336Y3112336D01*
X4065441Y3106921D01*
X4075000Y3105020D01*
X4084559Y3106921D01*
X4092664Y3112336D01*
X4098078Y3120441D01*
X4099980Y3130000D01*
X4098078Y3139559D01*
X4092664Y3147664D01*
X4084559Y3153079D01*
X4075000Y3154980D01*
D02*
G37*
G36*
X2830409Y3153516D02*
X2820850Y3151614D01*
X2812746Y3146199D01*
X2807331Y3138095D01*
X2805429Y3128536D01*
X2807331Y3118977D01*
X2812746Y3110872D01*
X2820850Y3105457D01*
X2830409Y3103556D01*
X2839969Y3105457D01*
X2848073Y3110872D01*
X2853488Y3118977D01*
X2855389Y3128536D01*
X2853488Y3138095D01*
X2848073Y3146199D01*
X2839969Y3151614D01*
X2830409Y3153516D01*
D02*
G37*
G36*
X4209500Y3097079D02*
Y3075000D01*
X4231579D01*
X4231292Y3077179D01*
X4228521Y3083869D01*
X4224113Y3089613D01*
X4218369Y3094021D01*
X4211679Y3096792D01*
X4209500Y3097079D01*
D02*
G37*
G36*
X4199500D02*
X4197321Y3096792D01*
X4190631Y3094021D01*
X4184887Y3089613D01*
X4180479Y3083869D01*
X4177708Y3077179D01*
X4177421Y3075000D01*
X4199500D01*
Y3097079D01*
D02*
G37*
G36*
X3865000Y3119980D02*
X3855441Y3118079D01*
X3847336Y3112664D01*
X3841921Y3104559D01*
X3840020Y3095000D01*
X3841921Y3085441D01*
X3847336Y3077336D01*
X3855441Y3071921D01*
X3865000Y3070020D01*
X3874559Y3071921D01*
X3882664Y3077336D01*
X3888079Y3085441D01*
X3889980Y3095000D01*
X3888079Y3104559D01*
X3882664Y3112664D01*
X3874559Y3118079D01*
X3865000Y3119980D01*
D02*
G37*
G36*
X2475837Y3100295D02*
X2466278Y3098393D01*
X2458174Y3092978D01*
X2452759Y3084874D01*
X2450857Y3075315D01*
X2452759Y3065756D01*
X2458174Y3057651D01*
X2466278Y3052236D01*
X2475837Y3050335D01*
X2485397Y3052236D01*
X2493501Y3057651D01*
X2498916Y3065756D01*
X2500817Y3075315D01*
X2498916Y3084874D01*
X2493501Y3092978D01*
X2485397Y3098393D01*
X2475837Y3100295D01*
D02*
G37*
G36*
X4231579Y3065000D02*
X4209500D01*
Y3042921D01*
X4211679Y3043208D01*
X4218369Y3045979D01*
X4224113Y3050387D01*
X4228521Y3056131D01*
X4231292Y3062821D01*
X4231579Y3065000D01*
D02*
G37*
G36*
X4199500D02*
X4177421D01*
X4177708Y3062821D01*
X4180479Y3056131D01*
X4184887Y3050387D01*
X4190631Y3045979D01*
X4197321Y3043208D01*
X4199500Y3042921D01*
Y3065000D01*
D02*
G37*
G36*
X3235000Y3074980D02*
X3225441Y3073079D01*
X3217336Y3067664D01*
X3211921Y3059559D01*
X3210020Y3050000D01*
X3211921Y3040441D01*
X3217336Y3032336D01*
X3225441Y3026921D01*
X3235000Y3025020D01*
X3244559Y3026921D01*
X3252664Y3032336D01*
X3258079Y3040441D01*
X3259980Y3050000D01*
X3258079Y3059559D01*
X3252664Y3067664D01*
X3244559Y3073079D01*
X3235000Y3074980D01*
D02*
G37*
G36*
X3545000Y3047079D02*
Y3025000D01*
X3567079D01*
X3566792Y3027179D01*
X3564021Y3033869D01*
X3559613Y3039613D01*
X3553869Y3044021D01*
X3547179Y3046792D01*
X3545000Y3047079D01*
D02*
G37*
G36*
X3535000D02*
X3532821Y3046792D01*
X3526131Y3044021D01*
X3520387Y3039613D01*
X3515979Y3033869D01*
X3513208Y3027179D01*
X3512921Y3025000D01*
X3535000D01*
Y3047079D01*
D02*
G37*
G36*
X2105837Y3077276D02*
X2097483Y3076176D01*
X2089699Y3072952D01*
X2083015Y3067823D01*
X2077885Y3061138D01*
X2074661Y3053354D01*
X2073561Y3045000D01*
X2074661Y3036646D01*
X2077885Y3028862D01*
X2083015Y3022177D01*
X2089699Y3017048D01*
X2097483Y3013824D01*
X2105837Y3012724D01*
X2114191Y3013824D01*
X2121975Y3017048D01*
X2128660Y3022177D01*
X2133789Y3028862D01*
X2137014Y3036646D01*
X2138113Y3045000D01*
X2137014Y3053354D01*
X2133789Y3061138D01*
X2128660Y3067823D01*
X2121975Y3072952D01*
X2114191Y3076176D01*
X2105837Y3077276D01*
D02*
G37*
G36*
X3905000Y3059980D02*
X3895441Y3058079D01*
X3887336Y3052664D01*
X3881921Y3044559D01*
X3880020Y3035000D01*
X3881294Y3028597D01*
X3748186Y2895489D01*
X3743578Y2897952D01*
X3744980Y2905000D01*
X3743079Y2914559D01*
X3737664Y2922664D01*
X3729559Y2928079D01*
X3720000Y2929980D01*
X3710441Y2928079D01*
X3702336Y2922664D01*
X3696921Y2914559D01*
X3695020Y2905000D01*
X3696921Y2895441D01*
X3702336Y2887336D01*
X3710441Y2881921D01*
X3720000Y2880020D01*
X3727048Y2881422D01*
X3729511Y2876814D01*
X3647432Y2794735D01*
X3639620D01*
X3637664Y2797664D01*
X3629559Y2803079D01*
X3620000Y2804980D01*
X3610441Y2803079D01*
X3602336Y2797664D01*
X3596921Y2789559D01*
X3595020Y2780000D01*
X3596921Y2770441D01*
X3602336Y2762336D01*
X3610441Y2756921D01*
X3620000Y2755020D01*
X3629559Y2756921D01*
X3637664Y2762336D01*
X3642961Y2770265D01*
X3652500D01*
X3657182Y2771196D01*
X3661151Y2773849D01*
X3662965Y2775662D01*
X3664307Y2775000D01*
X3690000D01*
Y2800693D01*
X3689338Y2802035D01*
X3898597Y3011294D01*
X3905000Y3010020D01*
X3914559Y3011921D01*
X3922664Y3017336D01*
X3928079Y3025441D01*
X3929980Y3035000D01*
X3928079Y3044559D01*
X3922664Y3052664D01*
X3914559Y3058079D01*
X3905000Y3059980D01*
D02*
G37*
G36*
X8640769Y3053200D02*
X8632185Y3051493D01*
X8624908Y3046630D01*
X8620046Y3039353D01*
X8618338Y3030769D01*
X8620046Y3022185D01*
X8624908Y3014908D01*
X8632185Y3010046D01*
X8640769Y3008338D01*
X8649353Y3010046D01*
X8656630Y3014908D01*
X8661493Y3022185D01*
X8663200Y3030769D01*
X8661493Y3039353D01*
X8656630Y3046630D01*
X8649353Y3051493D01*
X8640769Y3053200D01*
D02*
G37*
G36*
X8340769D02*
X8332185Y3051493D01*
X8324908Y3046630D01*
X8320046Y3039353D01*
X8318338Y3030769D01*
X8320046Y3022185D01*
X8324908Y3014908D01*
X8332185Y3010046D01*
X8340769Y3008338D01*
X8349353Y3010046D01*
X8356630Y3014908D01*
X8361493Y3022185D01*
X8363200Y3030769D01*
X8361493Y3039353D01*
X8356630Y3046630D01*
X8349353Y3051493D01*
X8340769Y3053200D01*
D02*
G37*
G36*
X8030769D02*
X8022185Y3051493D01*
X8014908Y3046630D01*
X8010046Y3039353D01*
X8008338Y3030769D01*
X8010046Y3022185D01*
X8014908Y3014908D01*
X8022185Y3010046D01*
X8030769Y3008338D01*
X8039353Y3010046D01*
X8046630Y3014908D01*
X8051493Y3022185D01*
X8053200Y3030769D01*
X8051493Y3039353D01*
X8046630Y3046630D01*
X8039353Y3051493D01*
X8030769Y3053200D01*
D02*
G37*
G36*
X7735769D02*
X7727185Y3051493D01*
X7719908Y3046630D01*
X7715046Y3039353D01*
X7713338Y3030769D01*
X7715046Y3022185D01*
X7719908Y3014908D01*
X7727185Y3010046D01*
X7735769Y3008338D01*
X7744353Y3010046D01*
X7751630Y3014908D01*
X7756493Y3022185D01*
X7758200Y3030769D01*
X7756493Y3039353D01*
X7751630Y3046630D01*
X7744353Y3051493D01*
X7735769Y3053200D01*
D02*
G37*
G36*
X7440769D02*
X7432185Y3051493D01*
X7424908Y3046630D01*
X7420046Y3039353D01*
X7418338Y3030769D01*
X7420046Y3022185D01*
X7424908Y3014908D01*
X7432185Y3010046D01*
X7440769Y3008338D01*
X7449353Y3010046D01*
X7456630Y3014908D01*
X7461493Y3022185D01*
X7463200Y3030769D01*
X7461493Y3039353D01*
X7456630Y3046630D01*
X7449353Y3051493D01*
X7440769Y3053200D01*
D02*
G37*
G36*
X7130769D02*
X7122185Y3051493D01*
X7114908Y3046630D01*
X7110046Y3039353D01*
X7108338Y3030769D01*
X7110046Y3022185D01*
X7114908Y3014908D01*
X7122185Y3010046D01*
X7130769Y3008338D01*
X7139353Y3010046D01*
X7146630Y3014908D01*
X7151493Y3022185D01*
X7153200Y3030769D01*
X7151493Y3039353D01*
X7146630Y3046630D01*
X7139353Y3051493D01*
X7130769Y3053200D01*
D02*
G37*
G36*
X6835769D02*
X6827185Y3051493D01*
X6819908Y3046630D01*
X6815046Y3039353D01*
X6813338Y3030769D01*
X6815046Y3022185D01*
X6819908Y3014908D01*
X6827185Y3010046D01*
X6835769Y3008338D01*
X6844353Y3010046D01*
X6851630Y3014908D01*
X6856493Y3022185D01*
X6858200Y3030769D01*
X6856493Y3039353D01*
X6851630Y3046630D01*
X6844353Y3051493D01*
X6835769Y3053200D01*
D02*
G37*
G36*
X6535769D02*
X6527185Y3051493D01*
X6519908Y3046630D01*
X6515046Y3039353D01*
X6513338Y3030769D01*
X6515046Y3022185D01*
X6519908Y3014908D01*
X6527185Y3010046D01*
X6535769Y3008338D01*
X6544353Y3010046D01*
X6551630Y3014908D01*
X6556493Y3022185D01*
X6558200Y3030769D01*
X6556493Y3039353D01*
X6551630Y3046630D01*
X6544353Y3051493D01*
X6535769Y3053200D01*
D02*
G37*
G36*
X6230769D02*
X6222185Y3051493D01*
X6214908Y3046630D01*
X6210046Y3039353D01*
X6208338Y3030769D01*
X6210046Y3022185D01*
X6214908Y3014908D01*
X6222185Y3010046D01*
X6230769Y3008338D01*
X6239353Y3010046D01*
X6246630Y3014908D01*
X6251493Y3022185D01*
X6253200Y3030769D01*
X6251493Y3039353D01*
X6246630Y3046630D01*
X6239353Y3051493D01*
X6230769Y3053200D01*
D02*
G37*
G36*
X5940769D02*
X5932185Y3051493D01*
X5924908Y3046630D01*
X5920046Y3039353D01*
X5918338Y3030769D01*
X5920046Y3022185D01*
X5924908Y3014908D01*
X5932185Y3010046D01*
X5940769Y3008338D01*
X5949353Y3010046D01*
X5956630Y3014908D01*
X5961493Y3022185D01*
X5963200Y3030769D01*
X5961493Y3039353D01*
X5956630Y3046630D01*
X5949353Y3051493D01*
X5940769Y3053200D01*
D02*
G37*
G36*
X5640769D02*
X5632185Y3051493D01*
X5624908Y3046630D01*
X5620046Y3039353D01*
X5618338Y3030769D01*
X5620046Y3022185D01*
X5624908Y3014908D01*
X5632185Y3010046D01*
X5640769Y3008338D01*
X5649353Y3010046D01*
X5656630Y3014908D01*
X5661493Y3022185D01*
X5663200Y3030769D01*
X5661493Y3039353D01*
X5656630Y3046630D01*
X5649353Y3051493D01*
X5640769Y3053200D01*
D02*
G37*
G36*
X5335769D02*
X5327185Y3051493D01*
X5319908Y3046630D01*
X5315046Y3039353D01*
X5313338Y3030769D01*
X5315046Y3022185D01*
X5319908Y3014908D01*
X5327185Y3010046D01*
X5335769Y3008338D01*
X5344353Y3010046D01*
X5351630Y3014908D01*
X5356493Y3022185D01*
X5358200Y3030769D01*
X5356493Y3039353D01*
X5351630Y3046630D01*
X5344353Y3051493D01*
X5335769Y3053200D01*
D02*
G37*
G36*
X5040769D02*
X5032185Y3051493D01*
X5024908Y3046630D01*
X5020046Y3039353D01*
X5018338Y3030769D01*
X5020046Y3022185D01*
X5024908Y3014908D01*
X5032185Y3010046D01*
X5040769Y3008338D01*
X5049353Y3010046D01*
X5056630Y3014908D01*
X5061493Y3022185D01*
X5063200Y3030769D01*
X5061493Y3039353D01*
X5056630Y3046630D01*
X5049353Y3051493D01*
X5040769Y3053200D01*
D02*
G37*
G36*
X4740769D02*
X4732185Y3051493D01*
X4724908Y3046630D01*
X4720046Y3039353D01*
X4718338Y3030769D01*
X4720046Y3022185D01*
X4724908Y3014908D01*
X4732185Y3010046D01*
X4740769Y3008338D01*
X4749353Y3010046D01*
X4756630Y3014908D01*
X4761493Y3022185D01*
X4763200Y3030769D01*
X4761493Y3039353D01*
X4756630Y3046630D01*
X4749353Y3051493D01*
X4740769Y3053200D01*
D02*
G37*
G36*
X4440769D02*
X4432185Y3051493D01*
X4424908Y3046630D01*
X4420046Y3039353D01*
X4418338Y3030769D01*
X4420046Y3022185D01*
X4424908Y3014908D01*
X4432185Y3010046D01*
X4440769Y3008338D01*
X4449353Y3010046D01*
X4456630Y3014908D01*
X4461493Y3022185D01*
X4463200Y3030769D01*
X4461493Y3039353D01*
X4456630Y3046630D01*
X4449353Y3051493D01*
X4440769Y3053200D01*
D02*
G37*
G36*
X3567079Y3015000D02*
X3545000D01*
Y2992921D01*
X3547179Y2993208D01*
X3553869Y2995979D01*
X3559613Y3000387D01*
X3564021Y3006131D01*
X3566792Y3012821D01*
X3567079Y3015000D01*
D02*
G37*
G36*
X3535000D02*
X3512921D01*
X3513208Y3012821D01*
X3515979Y3006131D01*
X3520387Y3000387D01*
X3526131Y2995979D01*
X3532821Y2993208D01*
X3535000Y2992921D01*
Y3015000D01*
D02*
G37*
G36*
X2055837Y3019644D02*
Y2990000D01*
X2085481D01*
X2084936Y2994137D01*
X2081410Y3002651D01*
X2075800Y3009962D01*
X2068488Y3015572D01*
X2059974Y3019099D01*
X2055837Y3019644D01*
D02*
G37*
G36*
X2045837D02*
X2041700Y3019099D01*
X2033186Y3015572D01*
X2025875Y3009962D01*
X2020265Y3002651D01*
X2016738Y2994137D01*
X2016194Y2990000D01*
X2045837D01*
Y3019644D01*
D02*
G37*
G36*
X2630837Y3007079D02*
Y2985000D01*
X2652916D01*
X2652629Y2987179D01*
X2649858Y2993869D01*
X2645450Y2999613D01*
X2639706Y3004021D01*
X2633016Y3006792D01*
X2630837Y3007079D01*
D02*
G37*
G36*
X2620837D02*
X2618658Y3006792D01*
X2611969Y3004021D01*
X2606224Y2999613D01*
X2601816Y2993869D01*
X2599045Y2987179D01*
X2598758Y2985000D01*
X2620837D01*
Y3007079D01*
D02*
G37*
G36*
X1880837Y3031973D02*
X1871193Y3030054D01*
X1863018Y3024592D01*
X1857555Y3016416D01*
X1855637Y3006772D01*
X1857555Y2997128D01*
X1863018Y2988952D01*
X1871193Y2983490D01*
X1880837Y2981571D01*
X1890481Y2983490D01*
X1898657Y2988952D01*
X1904120Y2997128D01*
X1906038Y3006772D01*
X1904120Y3016416D01*
X1898657Y3024592D01*
X1890481Y3030054D01*
X1880837Y3031973D01*
D02*
G37*
G36*
X2652916Y2975000D02*
X2630837D01*
Y2952921D01*
X2633016Y2953208D01*
X2639706Y2955979D01*
X2645450Y2960387D01*
X2649858Y2966131D01*
X2652629Y2972821D01*
X2652916Y2975000D01*
D02*
G37*
G36*
X2620837D02*
X2598758D01*
X2599045Y2972821D01*
X2601816Y2966131D01*
X2606224Y2960387D01*
X2611969Y2955979D01*
X2618658Y2953208D01*
X2620837Y2952921D01*
Y2975000D01*
D02*
G37*
G36*
X2085481Y2980000D02*
X2055837D01*
Y2950356D01*
X2059974Y2950901D01*
X2068488Y2954428D01*
X2075800Y2960038D01*
X2081410Y2967349D01*
X2084936Y2975863D01*
X2085481Y2980000D01*
D02*
G37*
G36*
X2045837D02*
X2016194D01*
X2016738Y2975863D01*
X2020265Y2967349D01*
X2025875Y2960038D01*
X2033186Y2954428D01*
X2041700Y2950901D01*
X2045837Y2950356D01*
Y2980000D01*
D02*
G37*
G36*
X2180837Y2907079D02*
Y2885000D01*
X2202916D01*
X2202629Y2887179D01*
X2199858Y2893869D01*
X2195450Y2899613D01*
X2189706Y2904021D01*
X2183016Y2906792D01*
X2180837Y2907079D01*
D02*
G37*
G36*
X2170837D02*
X2168658Y2906792D01*
X2161969Y2904021D01*
X2156224Y2899613D01*
X2151816Y2893869D01*
X2149045Y2887179D01*
X2148758Y2885000D01*
X2170837D01*
Y2907079D01*
D02*
G37*
G36*
X2715837Y2909980D02*
X2706278Y2908079D01*
X2698174Y2902664D01*
X2692759Y2894559D01*
X2690857Y2885000D01*
X2692759Y2875441D01*
X2698174Y2867336D01*
X2706278Y2861921D01*
X2715837Y2860020D01*
X2725397Y2861921D01*
X2733501Y2867336D01*
X2738916Y2875441D01*
X2740817Y2885000D01*
X2738916Y2894559D01*
X2733501Y2902664D01*
X2725397Y2908079D01*
X2715837Y2909980D01*
D02*
G37*
G36*
X2202916Y2875000D02*
X2180837D01*
Y2852921D01*
X2183016Y2853208D01*
X2189706Y2855979D01*
X2195450Y2860387D01*
X2199858Y2866131D01*
X2202629Y2872821D01*
X2202916Y2875000D01*
D02*
G37*
G36*
X2170837D02*
X2148758D01*
X2149045Y2872821D01*
X2151816Y2866131D01*
X2156224Y2860387D01*
X2161969Y2855979D01*
X2168658Y2853208D01*
X2170837Y2852921D01*
Y2875000D01*
D02*
G37*
G36*
X3220000Y2894980D02*
X3210441Y2893079D01*
X3202336Y2887664D01*
X3196921Y2879559D01*
X3195020Y2870000D01*
X3196921Y2860441D01*
X3202336Y2852336D01*
X3210441Y2846921D01*
X3220000Y2845020D01*
X3229559Y2846921D01*
X3237664Y2852336D01*
X3243079Y2860441D01*
X3244980Y2870000D01*
X3243079Y2879559D01*
X3237664Y2887664D01*
X3229559Y2893079D01*
X3220000Y2894980D01*
D02*
G37*
G36*
X8645769Y2858200D02*
X8637185Y2856493D01*
X8629908Y2851630D01*
X8625046Y2844353D01*
X8623338Y2835769D01*
X8625046Y2827185D01*
X8629908Y2819908D01*
X8637185Y2815046D01*
X8645769Y2813338D01*
X8654353Y2815046D01*
X8661630Y2819908D01*
X8666493Y2827185D01*
X8668200Y2835769D01*
X8666493Y2844353D01*
X8661630Y2851630D01*
X8654353Y2856493D01*
X8645769Y2858200D01*
D02*
G37*
G36*
X8335769D02*
X8327185Y2856493D01*
X8319908Y2851630D01*
X8315046Y2844353D01*
X8313338Y2835769D01*
X8315046Y2827185D01*
X8319908Y2819908D01*
X8327185Y2815046D01*
X8335769Y2813338D01*
X8344353Y2815046D01*
X8351630Y2819908D01*
X8356493Y2827185D01*
X8358200Y2835769D01*
X8356493Y2844353D01*
X8351630Y2851630D01*
X8344353Y2856493D01*
X8335769Y2858200D01*
D02*
G37*
G36*
X8040769D02*
X8032185Y2856493D01*
X8024908Y2851630D01*
X8020046Y2844353D01*
X8018338Y2835769D01*
X8020046Y2827185D01*
X8024908Y2819908D01*
X8032185Y2815046D01*
X8040769Y2813338D01*
X8049353Y2815046D01*
X8056630Y2819908D01*
X8061493Y2827185D01*
X8063200Y2835769D01*
X8061493Y2844353D01*
X8056630Y2851630D01*
X8049353Y2856493D01*
X8040769Y2858200D01*
D02*
G37*
G36*
X7745769D02*
X7737185Y2856493D01*
X7729908Y2851630D01*
X7725046Y2844353D01*
X7723338Y2835769D01*
X7725046Y2827185D01*
X7729908Y2819908D01*
X7737185Y2815046D01*
X7745769Y2813338D01*
X7754353Y2815046D01*
X7761630Y2819908D01*
X7766493Y2827185D01*
X7768200Y2835769D01*
X7766493Y2844353D01*
X7761630Y2851630D01*
X7754353Y2856493D01*
X7745769Y2858200D01*
D02*
G37*
G36*
X7445769D02*
X7437185Y2856493D01*
X7429908Y2851630D01*
X7425046Y2844353D01*
X7423338Y2835769D01*
X7425046Y2827185D01*
X7429908Y2819908D01*
X7437185Y2815046D01*
X7445769Y2813338D01*
X7454353Y2815046D01*
X7461630Y2819908D01*
X7466493Y2827185D01*
X7468200Y2835769D01*
X7466493Y2844353D01*
X7461630Y2851630D01*
X7454353Y2856493D01*
X7445769Y2858200D01*
D02*
G37*
G36*
X7135769D02*
X7127185Y2856493D01*
X7119908Y2851630D01*
X7115046Y2844353D01*
X7113338Y2835769D01*
X7115046Y2827185D01*
X7119908Y2819908D01*
X7127185Y2815046D01*
X7135769Y2813338D01*
X7144353Y2815046D01*
X7151630Y2819908D01*
X7156493Y2827185D01*
X7158200Y2835769D01*
X7156493Y2844353D01*
X7151630Y2851630D01*
X7144353Y2856493D01*
X7135769Y2858200D01*
D02*
G37*
G36*
X6840769D02*
X6832185Y2856493D01*
X6824908Y2851630D01*
X6820046Y2844353D01*
X6818338Y2835769D01*
X6820046Y2827185D01*
X6824908Y2819908D01*
X6832185Y2815046D01*
X6840769Y2813338D01*
X6849353Y2815046D01*
X6856630Y2819908D01*
X6861493Y2827185D01*
X6863200Y2835769D01*
X6861493Y2844353D01*
X6856630Y2851630D01*
X6849353Y2856493D01*
X6840769Y2858200D01*
D02*
G37*
G36*
X6545769D02*
X6537185Y2856493D01*
X6529908Y2851630D01*
X6525046Y2844353D01*
X6523338Y2835769D01*
X6525046Y2827185D01*
X6529908Y2819908D01*
X6537185Y2815046D01*
X6545769Y2813338D01*
X6554353Y2815046D01*
X6561630Y2819908D01*
X6566493Y2827185D01*
X6568200Y2835769D01*
X6566493Y2844353D01*
X6561630Y2851630D01*
X6554353Y2856493D01*
X6545769Y2858200D01*
D02*
G37*
G36*
X6240769D02*
X6232185Y2856493D01*
X6224908Y2851630D01*
X6220046Y2844353D01*
X6218338Y2835769D01*
X6220046Y2827185D01*
X6224908Y2819908D01*
X6232185Y2815046D01*
X6240769Y2813338D01*
X6249353Y2815046D01*
X6256630Y2819908D01*
X6261493Y2827185D01*
X6263200Y2835769D01*
X6261493Y2844353D01*
X6256630Y2851630D01*
X6249353Y2856493D01*
X6240769Y2858200D01*
D02*
G37*
G36*
X5940769D02*
X5932185Y2856493D01*
X5924908Y2851630D01*
X5920046Y2844353D01*
X5918338Y2835769D01*
X5920046Y2827185D01*
X5924908Y2819908D01*
X5932185Y2815046D01*
X5940769Y2813338D01*
X5949353Y2815046D01*
X5956630Y2819908D01*
X5961493Y2827185D01*
X5963200Y2835769D01*
X5961493Y2844353D01*
X5956630Y2851630D01*
X5949353Y2856493D01*
X5940769Y2858200D01*
D02*
G37*
G36*
X5645769D02*
X5637185Y2856493D01*
X5629908Y2851630D01*
X5625046Y2844353D01*
X5623338Y2835769D01*
X5625046Y2827185D01*
X5629908Y2819908D01*
X5637185Y2815046D01*
X5645769Y2813338D01*
X5654353Y2815046D01*
X5661630Y2819908D01*
X5666493Y2827185D01*
X5668200Y2835769D01*
X5666493Y2844353D01*
X5661630Y2851630D01*
X5654353Y2856493D01*
X5645769Y2858200D01*
D02*
G37*
G36*
X5345769D02*
X5337185Y2856493D01*
X5329908Y2851630D01*
X5325046Y2844353D01*
X5323338Y2835769D01*
X5325046Y2827185D01*
X5329908Y2819908D01*
X5337185Y2815046D01*
X5345769Y2813338D01*
X5354353Y2815046D01*
X5361630Y2819908D01*
X5366493Y2827185D01*
X5368200Y2835769D01*
X5366493Y2844353D01*
X5361630Y2851630D01*
X5354353Y2856493D01*
X5345769Y2858200D01*
D02*
G37*
G36*
X5045769D02*
X5037185Y2856493D01*
X5029908Y2851630D01*
X5025046Y2844353D01*
X5023338Y2835769D01*
X5025046Y2827185D01*
X5029908Y2819908D01*
X5037185Y2815046D01*
X5045769Y2813338D01*
X5054353Y2815046D01*
X5061630Y2819908D01*
X5066493Y2827185D01*
X5068200Y2835769D01*
X5066493Y2844353D01*
X5061630Y2851630D01*
X5054353Y2856493D01*
X5045769Y2858200D01*
D02*
G37*
G36*
X4745769D02*
X4737185Y2856493D01*
X4729908Y2851630D01*
X4725046Y2844353D01*
X4723338Y2835769D01*
X4725046Y2827185D01*
X4729908Y2819908D01*
X4737185Y2815046D01*
X4745769Y2813338D01*
X4754353Y2815046D01*
X4761630Y2819908D01*
X4766493Y2827185D01*
X4768200Y2835769D01*
X4766493Y2844353D01*
X4761630Y2851630D01*
X4754353Y2856493D01*
X4745769Y2858200D01*
D02*
G37*
G36*
X4445769D02*
X4437185Y2856493D01*
X4429908Y2851630D01*
X4425046Y2844353D01*
X4423338Y2835769D01*
X4425046Y2827185D01*
X4429908Y2819908D01*
X4437185Y2815046D01*
X4445769Y2813338D01*
X4454353Y2815046D01*
X4461630Y2819908D01*
X4466493Y2827185D01*
X4468200Y2835769D01*
X4466493Y2844353D01*
X4461630Y2851630D01*
X4454353Y2856493D01*
X4445769Y2858200D01*
D02*
G37*
G36*
X3835000Y2821579D02*
Y2799500D01*
X3857079D01*
X3856792Y2801679D01*
X3854021Y2808369D01*
X3849613Y2814113D01*
X3843869Y2818521D01*
X3837179Y2821292D01*
X3835000Y2821579D01*
D02*
G37*
G36*
X3825000D02*
X3822821Y2821292D01*
X3816131Y2818521D01*
X3810387Y2814113D01*
X3805979Y2808369D01*
X3803208Y2801679D01*
X3802921Y2799500D01*
X3825000D01*
Y2821579D01*
D02*
G37*
G36*
X2625837Y2817079D02*
Y2795000D01*
X2647916D01*
X2647629Y2797179D01*
X2644858Y2803869D01*
X2640450Y2809613D01*
X2634706Y2814021D01*
X2628016Y2816792D01*
X2625837Y2817079D01*
D02*
G37*
G36*
X2615837D02*
X2613658Y2816792D01*
X2606969Y2814021D01*
X2601224Y2809613D01*
X2596816Y2803869D01*
X2594045Y2797179D01*
X2593758Y2795000D01*
X2615837D01*
Y2817079D01*
D02*
G37*
G36*
X3700000Y2797079D02*
Y2775000D01*
X3722079D01*
X3721792Y2777179D01*
X3719021Y2783869D01*
X3714613Y2789613D01*
X3708869Y2794021D01*
X3702179Y2796792D01*
X3700000Y2797079D01*
D02*
G37*
G36*
X3857079Y2789500D02*
X3835000D01*
Y2767421D01*
X3837179Y2767708D01*
X3843869Y2770479D01*
X3849613Y2774887D01*
X3854021Y2780631D01*
X3856792Y2787321D01*
X3857079Y2789500D01*
D02*
G37*
G36*
X3825000D02*
X3802921D01*
X3803208Y2787321D01*
X3805979Y2780631D01*
X3810387Y2774887D01*
X3816131Y2770479D01*
X3822821Y2767708D01*
X3825000Y2767421D01*
Y2789500D01*
D02*
G37*
G36*
X2647916Y2785000D02*
X2625837D01*
Y2762921D01*
X2628016Y2763208D01*
X2634706Y2765979D01*
X2640450Y2770387D01*
X2644858Y2776131D01*
X2647629Y2782821D01*
X2647916Y2785000D01*
D02*
G37*
G36*
X2615837D02*
X2593758D01*
X2594045Y2782821D01*
X2596816Y2776131D01*
X2601224Y2770387D01*
X2606969Y2765979D01*
X2613658Y2763208D01*
X2615837Y2762921D01*
Y2785000D01*
D02*
G37*
G36*
X3742347Y2767327D02*
X3732788Y2765426D01*
X3726412Y2761165D01*
X3725143Y2761620D01*
X3721976Y2764215D01*
X3722079Y2765000D01*
X3700000D01*
Y2742921D01*
X3702179Y2743208D01*
X3708869Y2745979D01*
X3713735Y2749713D01*
X3716904Y2748425D01*
X3718333Y2747200D01*
X3717367Y2742347D01*
X3719269Y2732788D01*
X3724684Y2724684D01*
X3732788Y2719269D01*
X3742347Y2717367D01*
X3751907Y2719269D01*
X3760011Y2724684D01*
X3765426Y2732788D01*
X3767327Y2742347D01*
X3765426Y2751907D01*
X3760011Y2760011D01*
X3751907Y2765426D01*
X3742347Y2767327D01*
D02*
G37*
G36*
X3555000Y2809980D02*
X3545441Y2808079D01*
X3537336Y2802664D01*
X3531921Y2794559D01*
X3530020Y2785000D01*
X3531921Y2775441D01*
X3537336Y2767336D01*
X3545441Y2761921D01*
X3555000Y2760020D01*
X3564559Y2761921D01*
X3572664Y2767336D01*
X3578079Y2775441D01*
X3579980Y2785000D01*
X3578079Y2794559D01*
X3572664Y2802664D01*
X3564559Y2808079D01*
X3555000Y2809980D01*
D02*
G37*
G36*
X3485000Y2799980D02*
X3475441Y2798079D01*
X3467336Y2792664D01*
X3461921Y2784559D01*
X3460020Y2775000D01*
X3461921Y2765441D01*
X3467336Y2757336D01*
X3475441Y2751921D01*
X3485000Y2750020D01*
X3494559Y2751921D01*
X3502664Y2757336D01*
X3508079Y2765441D01*
X3509980Y2775000D01*
X3508079Y2784559D01*
X3502664Y2792664D01*
X3494559Y2798079D01*
X3485000Y2799980D01*
D02*
G37*
G36*
X3220000D02*
X3210441Y2798079D01*
X3202336Y2792664D01*
X3196921Y2784559D01*
X3195020Y2775000D01*
X3196921Y2765441D01*
X3202336Y2757336D01*
X3210441Y2751921D01*
X3220000Y2750020D01*
X3229559Y2751921D01*
X3237664Y2757336D01*
X3243079Y2765441D01*
X3244980Y2775000D01*
X3243079Y2784559D01*
X3237664Y2792664D01*
X3229559Y2798079D01*
X3220000Y2799980D01*
D02*
G37*
G36*
X3905000Y2794980D02*
X3895441Y2793079D01*
X3887336Y2787664D01*
X3881921Y2779559D01*
X3880020Y2770000D01*
X3881921Y2760441D01*
X3887336Y2752336D01*
X3895441Y2746921D01*
X3905000Y2745020D01*
X3914559Y2746921D01*
X3922664Y2752336D01*
X3928079Y2760441D01*
X3929980Y2770000D01*
X3928079Y2779559D01*
X3922664Y2787664D01*
X3914559Y2793079D01*
X3905000Y2794980D01*
D02*
G37*
G36*
X3690000Y2765000D02*
X3667921D01*
X3668208Y2762821D01*
X3670979Y2756131D01*
X3675387Y2750387D01*
X3681131Y2745979D01*
X3687821Y2743208D01*
X3690000Y2742921D01*
Y2765000D01*
D02*
G37*
G36*
X2265000Y2734980D02*
X2255441Y2733079D01*
X2247336Y2727664D01*
X2241921Y2719559D01*
X2240020Y2710000D01*
X2241921Y2700441D01*
X2247336Y2692336D01*
X2255441Y2686921D01*
X2265000Y2685020D01*
X2274559Y2686921D01*
X2282664Y2692336D01*
X2288079Y2700441D01*
X2289980Y2710000D01*
X2288079Y2719559D01*
X2282664Y2727664D01*
X2274559Y2733079D01*
X2265000Y2734980D01*
D02*
G37*
G36*
X8650769Y2663200D02*
X8642185Y2661493D01*
X8634908Y2656630D01*
X8630046Y2649353D01*
X8628338Y2640769D01*
X8630046Y2632185D01*
X8634908Y2624908D01*
X8642185Y2620046D01*
X8650769Y2618338D01*
X8659353Y2620046D01*
X8666630Y2624908D01*
X8671493Y2632185D01*
X8673200Y2640769D01*
X8671493Y2649353D01*
X8666630Y2656630D01*
X8659353Y2661493D01*
X8650769Y2663200D01*
D02*
G37*
G36*
X8350769D02*
X8342185Y2661493D01*
X8334908Y2656630D01*
X8330046Y2649353D01*
X8328338Y2640769D01*
X8330046Y2632185D01*
X8334908Y2624908D01*
X8342185Y2620046D01*
X8350769Y2618338D01*
X8359353Y2620046D01*
X8366630Y2624908D01*
X8371493Y2632185D01*
X8373200Y2640769D01*
X8371493Y2649353D01*
X8366630Y2656630D01*
X8359353Y2661493D01*
X8350769Y2663200D01*
D02*
G37*
G36*
X8045769D02*
X8037185Y2661493D01*
X8029908Y2656630D01*
X8025046Y2649353D01*
X8023338Y2640769D01*
X8025046Y2632185D01*
X8029908Y2624908D01*
X8037185Y2620046D01*
X8045769Y2618338D01*
X8054353Y2620046D01*
X8061630Y2624908D01*
X8066493Y2632185D01*
X8068200Y2640769D01*
X8066493Y2649353D01*
X8061630Y2656630D01*
X8054353Y2661493D01*
X8045769Y2663200D01*
D02*
G37*
G36*
X7745769D02*
X7737185Y2661493D01*
X7729908Y2656630D01*
X7725046Y2649353D01*
X7723338Y2640769D01*
X7725046Y2632185D01*
X7729908Y2624908D01*
X7737185Y2620046D01*
X7745769Y2618338D01*
X7754353Y2620046D01*
X7761630Y2624908D01*
X7766493Y2632185D01*
X7768200Y2640769D01*
X7766493Y2649353D01*
X7761630Y2656630D01*
X7754353Y2661493D01*
X7745769Y2663200D01*
D02*
G37*
G36*
X7445769D02*
X7437185Y2661493D01*
X7429908Y2656630D01*
X7425046Y2649353D01*
X7423338Y2640769D01*
X7425046Y2632185D01*
X7429908Y2624908D01*
X7437185Y2620046D01*
X7445769Y2618338D01*
X7454353Y2620046D01*
X7461630Y2624908D01*
X7466493Y2632185D01*
X7468200Y2640769D01*
X7466493Y2649353D01*
X7461630Y2656630D01*
X7454353Y2661493D01*
X7445769Y2663200D01*
D02*
G37*
G36*
X7150769D02*
X7142185Y2661493D01*
X7134908Y2656630D01*
X7130046Y2649353D01*
X7128338Y2640769D01*
X7130046Y2632185D01*
X7134908Y2624908D01*
X7142185Y2620046D01*
X7150769Y2618338D01*
X7159353Y2620046D01*
X7166630Y2624908D01*
X7171493Y2632185D01*
X7173200Y2640769D01*
X7171493Y2649353D01*
X7166630Y2656630D01*
X7159353Y2661493D01*
X7150769Y2663200D01*
D02*
G37*
G36*
X6850769D02*
X6842185Y2661493D01*
X6834908Y2656630D01*
X6830046Y2649353D01*
X6828338Y2640769D01*
X6830046Y2632185D01*
X6834908Y2624908D01*
X6842185Y2620046D01*
X6850769Y2618338D01*
X6859353Y2620046D01*
X6866630Y2624908D01*
X6871493Y2632185D01*
X6873200Y2640769D01*
X6871493Y2649353D01*
X6866630Y2656630D01*
X6859353Y2661493D01*
X6850769Y2663200D01*
D02*
G37*
G36*
X6550769D02*
X6542185Y2661493D01*
X6534908Y2656630D01*
X6530046Y2649353D01*
X6528338Y2640769D01*
X6530046Y2632185D01*
X6534908Y2624908D01*
X6542185Y2620046D01*
X6550769Y2618338D01*
X6559353Y2620046D01*
X6566630Y2624908D01*
X6571493Y2632185D01*
X6573200Y2640769D01*
X6571493Y2649353D01*
X6566630Y2656630D01*
X6559353Y2661493D01*
X6550769Y2663200D01*
D02*
G37*
G36*
X6245769D02*
X6237185Y2661493D01*
X6229908Y2656630D01*
X6225046Y2649353D01*
X6223338Y2640769D01*
X6225046Y2632185D01*
X6229908Y2624908D01*
X6237185Y2620046D01*
X6245769Y2618338D01*
X6254353Y2620046D01*
X6261630Y2624908D01*
X6266493Y2632185D01*
X6268200Y2640769D01*
X6266493Y2649353D01*
X6261630Y2656630D01*
X6254353Y2661493D01*
X6245769Y2663200D01*
D02*
G37*
G36*
X5940769D02*
X5932185Y2661493D01*
X5924908Y2656630D01*
X5920046Y2649353D01*
X5918338Y2640769D01*
X5920046Y2632185D01*
X5924908Y2624908D01*
X5932185Y2620046D01*
X5940769Y2618338D01*
X5949353Y2620046D01*
X5956630Y2624908D01*
X5961493Y2632185D01*
X5963200Y2640769D01*
X5961493Y2649353D01*
X5956630Y2656630D01*
X5949353Y2661493D01*
X5940769Y2663200D01*
D02*
G37*
G36*
X5645769D02*
X5637185Y2661493D01*
X5629908Y2656630D01*
X5625046Y2649353D01*
X5623338Y2640769D01*
X5625046Y2632185D01*
X5629908Y2624908D01*
X5637185Y2620046D01*
X5645769Y2618338D01*
X5654353Y2620046D01*
X5661630Y2624908D01*
X5666493Y2632185D01*
X5668200Y2640769D01*
X5666493Y2649353D01*
X5661630Y2656630D01*
X5654353Y2661493D01*
X5645769Y2663200D01*
D02*
G37*
G36*
X5345769D02*
X5337185Y2661493D01*
X5329908Y2656630D01*
X5325046Y2649353D01*
X5323338Y2640769D01*
X5325046Y2632185D01*
X5329908Y2624908D01*
X5337185Y2620046D01*
X5345769Y2618338D01*
X5354353Y2620046D01*
X5361630Y2624908D01*
X5366493Y2632185D01*
X5368200Y2640769D01*
X5366493Y2649353D01*
X5361630Y2656630D01*
X5354353Y2661493D01*
X5345769Y2663200D01*
D02*
G37*
G36*
X5055769D02*
X5047185Y2661493D01*
X5039908Y2656630D01*
X5035046Y2649353D01*
X5033338Y2640769D01*
X5035046Y2632185D01*
X5039908Y2624908D01*
X5047185Y2620046D01*
X5055769Y2618338D01*
X5064353Y2620046D01*
X5071630Y2624908D01*
X5076493Y2632185D01*
X5078200Y2640769D01*
X5076493Y2649353D01*
X5071630Y2656630D01*
X5064353Y2661493D01*
X5055769Y2663200D01*
D02*
G37*
G36*
X4750769D02*
X4742185Y2661493D01*
X4734908Y2656630D01*
X4730046Y2649353D01*
X4728338Y2640769D01*
X4730046Y2632185D01*
X4734908Y2624908D01*
X4742185Y2620046D01*
X4750769Y2618338D01*
X4759353Y2620046D01*
X4766630Y2624908D01*
X4771493Y2632185D01*
X4773200Y2640769D01*
X4771493Y2649353D01*
X4766630Y2656630D01*
X4759353Y2661493D01*
X4750769Y2663200D01*
D02*
G37*
G36*
X4450769D02*
X4442185Y2661493D01*
X4434908Y2656630D01*
X4430046Y2649353D01*
X4428338Y2640769D01*
X4430046Y2632185D01*
X4434908Y2624908D01*
X4442185Y2620046D01*
X4450769Y2618338D01*
X4459353Y2620046D01*
X4466630Y2624908D01*
X4471493Y2632185D01*
X4473200Y2640769D01*
X4471493Y2649353D01*
X4466630Y2656630D01*
X4459353Y2661493D01*
X4450769Y2663200D01*
D02*
G37*
G36*
X2760000Y2654980D02*
X2750441Y2653079D01*
X2742336Y2647664D01*
X2736921Y2639559D01*
X2735020Y2630000D01*
X2736921Y2620441D01*
X2742336Y2612336D01*
X2750441Y2606921D01*
X2760000Y2605020D01*
X2769559Y2606921D01*
X2777664Y2612336D01*
X2783079Y2620441D01*
X2784980Y2630000D01*
X2783079Y2639559D01*
X2777664Y2647664D01*
X2769559Y2653079D01*
X2760000Y2654980D01*
D02*
G37*
G36*
X3860000Y2644980D02*
X3850441Y2643079D01*
X3842336Y2637664D01*
X3836921Y2629559D01*
X3835020Y2620000D01*
X3836921Y2610441D01*
X3842336Y2602336D01*
X3850441Y2596921D01*
X3860000Y2595020D01*
X3869559Y2596921D01*
X3877664Y2602336D01*
X3883079Y2610441D01*
X3884980Y2620000D01*
X3883079Y2629559D01*
X3877664Y2637664D01*
X3869559Y2643079D01*
X3860000Y2644980D01*
D02*
G37*
G36*
X3450000Y2621480D02*
X3440441Y2619579D01*
X3432336Y2614164D01*
X3426921Y2606059D01*
X3425020Y2596500D01*
X3426921Y2586941D01*
X3432336Y2578836D01*
X3440441Y2573421D01*
X3450000Y2571520D01*
X3459559Y2573421D01*
X3467664Y2578836D01*
X3473079Y2586941D01*
X3474980Y2596500D01*
X3473079Y2606059D01*
X3467664Y2614164D01*
X3459559Y2619579D01*
X3450000Y2621480D01*
D02*
G37*
G36*
X2440000Y2599980D02*
X2430441Y2598079D01*
X2422336Y2592664D01*
X2416921Y2584559D01*
X2415020Y2575000D01*
X2416921Y2565441D01*
X2422336Y2557336D01*
X2430441Y2551921D01*
X2440000Y2550020D01*
X2449559Y2551921D01*
X2457664Y2557336D01*
X2463079Y2565441D01*
X2464980Y2575000D01*
X2463079Y2584559D01*
X2457664Y2592664D01*
X2449559Y2598079D01*
X2440000Y2599980D01*
D02*
G37*
G36*
X2355000D02*
X2345441Y2598079D01*
X2337336Y2592664D01*
X2331921Y2584559D01*
X2330020Y2575000D01*
X2331921Y2565441D01*
X2337336Y2557336D01*
X2345441Y2551921D01*
X2355000Y2550020D01*
X2364559Y2551921D01*
X2372664Y2557336D01*
X2378079Y2565441D01*
X2379980Y2575000D01*
X2378079Y2584559D01*
X2372664Y2592664D01*
X2364559Y2598079D01*
X2355000Y2599980D01*
D02*
G37*
G36*
X3965000Y2574980D02*
X3955441Y2573079D01*
X3947336Y2567664D01*
X3941921Y2559559D01*
X3940020Y2550000D01*
X3941921Y2540441D01*
X3947336Y2532336D01*
X3955441Y2526921D01*
X3965000Y2525020D01*
X3974559Y2526921D01*
X3982664Y2532336D01*
X3988079Y2540441D01*
X3989980Y2550000D01*
X3988079Y2559559D01*
X3982664Y2567664D01*
X3974559Y2573079D01*
X3965000Y2574980D01*
D02*
G37*
G36*
X3500000Y2547079D02*
Y2525000D01*
X3522079D01*
X3521792Y2527179D01*
X3519021Y2533869D01*
X3514613Y2539613D01*
X3508869Y2544021D01*
X3502179Y2546792D01*
X3500000Y2547079D01*
D02*
G37*
G36*
X3490000D02*
X3487821Y2546792D01*
X3481131Y2544021D01*
X3475387Y2539613D01*
X3470979Y2533869D01*
X3468208Y2527179D01*
X3467921Y2525000D01*
X3490000D01*
Y2547079D01*
D02*
G37*
G36*
X3522079Y2515000D02*
X3500000D01*
Y2492921D01*
X3502179Y2493208D01*
X3508869Y2495979D01*
X3514613Y2500387D01*
X3519021Y2506131D01*
X3521792Y2512821D01*
X3522079Y2515000D01*
D02*
G37*
G36*
X3490000D02*
X3467921D01*
X3468208Y2512821D01*
X3470979Y2506131D01*
X3475387Y2500387D01*
X3481131Y2495979D01*
X3487821Y2493208D01*
X3490000Y2492921D01*
Y2515000D01*
D02*
G37*
G36*
X3910000Y2457079D02*
Y2435000D01*
X3932079D01*
X3931792Y2437179D01*
X3929021Y2443869D01*
X3924613Y2449613D01*
X3918869Y2454021D01*
X3912179Y2456792D01*
X3910000Y2457079D01*
D02*
G37*
G36*
X3900000D02*
X3897821Y2456792D01*
X3891131Y2454021D01*
X3885387Y2449613D01*
X3880979Y2443869D01*
X3878208Y2437179D01*
X3877921Y2435000D01*
X3900000D01*
Y2457079D01*
D02*
G37*
G36*
X8635769Y2448200D02*
X8627185Y2446493D01*
X8619908Y2441630D01*
X8615046Y2434353D01*
X8613338Y2425769D01*
X8615046Y2417185D01*
X8619908Y2409908D01*
X8627185Y2405046D01*
X8635769Y2403338D01*
X8644353Y2405046D01*
X8651630Y2409908D01*
X8656493Y2417185D01*
X8658200Y2425769D01*
X8656493Y2434353D01*
X8651630Y2441630D01*
X8644353Y2446493D01*
X8635769Y2448200D01*
D02*
G37*
G36*
X8335769D02*
X8327185Y2446493D01*
X8319908Y2441630D01*
X8315046Y2434353D01*
X8313338Y2425769D01*
X8315046Y2417185D01*
X8319908Y2409908D01*
X8327185Y2405046D01*
X8335769Y2403338D01*
X8344353Y2405046D01*
X8351630Y2409908D01*
X8356493Y2417185D01*
X8358200Y2425769D01*
X8356493Y2434353D01*
X8351630Y2441630D01*
X8344353Y2446493D01*
X8335769Y2448200D01*
D02*
G37*
G36*
X8035769D02*
X8027185Y2446493D01*
X8019908Y2441630D01*
X8015046Y2434353D01*
X8013338Y2425769D01*
X8015046Y2417185D01*
X8019908Y2409908D01*
X8027185Y2405046D01*
X8035769Y2403338D01*
X8044353Y2405046D01*
X8051630Y2409908D01*
X8056493Y2417185D01*
X8058200Y2425769D01*
X8056493Y2434353D01*
X8051630Y2441630D01*
X8044353Y2446493D01*
X8035769Y2448200D01*
D02*
G37*
G36*
X7735769D02*
X7727185Y2446493D01*
X7719908Y2441630D01*
X7715046Y2434353D01*
X7713338Y2425769D01*
X7715046Y2417185D01*
X7719908Y2409908D01*
X7727185Y2405046D01*
X7735769Y2403338D01*
X7744353Y2405046D01*
X7751630Y2409908D01*
X7756493Y2417185D01*
X7758200Y2425769D01*
X7756493Y2434353D01*
X7751630Y2441630D01*
X7744353Y2446493D01*
X7735769Y2448200D01*
D02*
G37*
G36*
X7435769D02*
X7427185Y2446493D01*
X7419908Y2441630D01*
X7415046Y2434353D01*
X7413338Y2425769D01*
X7415046Y2417185D01*
X7419908Y2409908D01*
X7427185Y2405046D01*
X7435769Y2403338D01*
X7444353Y2405046D01*
X7451630Y2409908D01*
X7456493Y2417185D01*
X7458200Y2425769D01*
X7456493Y2434353D01*
X7451630Y2441630D01*
X7444353Y2446493D01*
X7435769Y2448200D01*
D02*
G37*
G36*
X3932079Y2425000D02*
X3910000D01*
Y2402921D01*
X3912179Y2403208D01*
X3918869Y2405979D01*
X3924613Y2410387D01*
X3929021Y2416131D01*
X3931792Y2422821D01*
X3932079Y2425000D01*
D02*
G37*
G36*
X3900000D02*
X3877921D01*
X3878208Y2422821D01*
X3880979Y2416131D01*
X3885387Y2410387D01*
X3891131Y2405979D01*
X3897821Y2403208D01*
X3900000Y2402921D01*
Y2425000D01*
D02*
G37*
G36*
X3730000Y2439980D02*
X3720441Y2438079D01*
X3712336Y2432664D01*
X3706921Y2424559D01*
X3705020Y2415000D01*
X3706921Y2405441D01*
X3712336Y2397336D01*
X3720441Y2391921D01*
X3730000Y2390020D01*
X3739559Y2391921D01*
X3747664Y2397336D01*
X3753079Y2405441D01*
X3754980Y2415000D01*
X3753079Y2424559D01*
X3747664Y2432664D01*
X3739559Y2438079D01*
X3730000Y2439980D01*
D02*
G37*
G36*
X3815000Y2434980D02*
X3805441Y2433079D01*
X3797336Y2427664D01*
X3791921Y2419559D01*
X3790020Y2410000D01*
X3791921Y2400441D01*
X3797336Y2392336D01*
X3805441Y2386921D01*
X3815000Y2385020D01*
X3824559Y2386921D01*
X3832664Y2392336D01*
X3838079Y2400441D01*
X3839980Y2410000D01*
X3838079Y2419559D01*
X3832664Y2427664D01*
X3824559Y2433079D01*
X3815000Y2434980D01*
D02*
G37*
G36*
X8625000Y2344980D02*
X8615441Y2343079D01*
X8607336Y2337664D01*
X8601922Y2329559D01*
X8600020Y2320000D01*
X8601922Y2310441D01*
X8607336Y2302336D01*
X8615441Y2296921D01*
X8625000Y2295020D01*
X8634559Y2296921D01*
X8642664Y2302336D01*
X8648078Y2310441D01*
X8649980Y2320000D01*
X8648078Y2329559D01*
X8642664Y2337664D01*
X8634559Y2343079D01*
X8625000Y2344980D01*
D02*
G37*
G36*
X8325000D02*
X8315441Y2343079D01*
X8307336Y2337664D01*
X8301922Y2329559D01*
X8300020Y2320000D01*
X8301922Y2310441D01*
X8307336Y2302336D01*
X8315441Y2296921D01*
X8325000Y2295020D01*
X8334559Y2296921D01*
X8342664Y2302336D01*
X8348078Y2310441D01*
X8349980Y2320000D01*
X8348078Y2329559D01*
X8342664Y2337664D01*
X8334559Y2343079D01*
X8325000Y2344980D01*
D02*
G37*
G36*
X8025000D02*
X8015441Y2343079D01*
X8007337Y2337664D01*
X8001922Y2329559D01*
X8000020Y2320000D01*
X8001922Y2310441D01*
X8007337Y2302336D01*
X8015441Y2296921D01*
X8025000Y2295020D01*
X8034559Y2296921D01*
X8042663Y2302336D01*
X8048078Y2310441D01*
X8049980Y2320000D01*
X8048078Y2329559D01*
X8042663Y2337664D01*
X8034559Y2343079D01*
X8025000Y2344980D01*
D02*
G37*
G36*
X4280000D02*
X4270441Y2343079D01*
X4262337Y2337664D01*
X4256922Y2329559D01*
X4255020Y2320000D01*
X4256922Y2310441D01*
X4262337Y2302336D01*
X4270441Y2296921D01*
X4280000Y2295020D01*
X4289559Y2296921D01*
X4297663Y2302336D01*
X4303078Y2310441D01*
X4304980Y2320000D01*
X4303078Y2329559D01*
X4297663Y2337664D01*
X4289559Y2343079D01*
X4280000Y2344980D01*
D02*
G37*
%LPD*%
G36*
X4277667Y3247820D02*
Y3188158D01*
X4272667Y3186642D01*
X4272256Y3187256D01*
X4224903Y3234610D01*
X4224980Y3235000D01*
X4223078Y3244559D01*
X4217663Y3252664D01*
X4209559Y3258079D01*
X4208053Y3258378D01*
X4207509Y3261381D01*
X4207900Y3263506D01*
X4213869Y3265979D01*
X4219613Y3270387D01*
X4224021Y3276131D01*
X4226792Y3282821D01*
X4227737Y3290000D01*
X4227634Y3290782D01*
X4232370Y3293117D01*
X4277667Y3247820D01*
D02*
G37*
G36*
X4162667Y2942820D02*
Y2573917D01*
X4157667Y2571846D01*
X4047333Y2682180D01*
Y2938244D01*
X4052333Y2940481D01*
X4057821Y2938208D01*
X4060000Y2937921D01*
Y2965000D01*
Y2992079D01*
X4057821Y2991792D01*
X4052333Y2989519D01*
X4047333Y2991756D01*
Y3035000D01*
X4046014Y3041633D01*
X4042256Y3047256D01*
X3929903Y3159610D01*
X3929980Y3160000D01*
X3928079Y3169559D01*
X3926511Y3171905D01*
X3930395Y3175093D01*
X4162667Y2942820D01*
D02*
G37*
G36*
X4357667Y3278678D02*
Y2633955D01*
X4352667Y2631122D01*
X4352333Y2631322D01*
Y3276045D01*
X4357333Y3278878D01*
X4357667Y3278678D01*
D02*
G37*
G36*
X4317667Y3272820D02*
Y2620000D01*
X4318986Y2613367D01*
X4320536Y2611048D01*
X4316652Y2607860D01*
X4312333Y2612180D01*
Y3254999D01*
X4312333Y3255000D01*
X4311014Y3261633D01*
X4307256Y3267256D01*
X4307256Y3267256D01*
X4234903Y3339610D01*
X4234980Y3340000D01*
X4233078Y3349559D01*
X4231511Y3351905D01*
X4235395Y3355093D01*
X4317667Y3272820D01*
D02*
G37*
G36*
X4277667Y2846842D02*
Y2605000D01*
X4278986Y2598367D01*
X4282744Y2592744D01*
X4392744Y2482744D01*
X4396697Y2480102D01*
X4395180Y2475102D01*
X4364410D01*
X4247333Y2592180D01*
Y2822820D01*
X4272256Y2847744D01*
X4272667Y2848358D01*
X4277667Y2846842D01*
D02*
G37*
G36*
X5993154Y2412333D02*
X5991083Y2407333D01*
X5950923D01*
X5948251Y2412333D01*
X5951493Y2417185D01*
X5953200Y2425769D01*
X5951493Y2434353D01*
X5946630Y2441630D01*
X5939353Y2446493D01*
X5930769Y2448200D01*
X5922185Y2446493D01*
X5914908Y2441630D01*
X5910046Y2434353D01*
X5908338Y2425769D01*
X5910046Y2417185D01*
X5913288Y2412333D01*
X5910615Y2407333D01*
X5792180D01*
X5692256Y2507256D01*
X5691642Y2507667D01*
X5693158Y2512667D01*
X5892820D01*
X5993154Y2412333D01*
D02*
G37*
G36*
X5616164Y2436026D02*
X5615046Y2434353D01*
X5613338Y2425769D01*
X5615046Y2417185D01*
X5619908Y2409908D01*
X5623762Y2407333D01*
X5622245Y2402333D01*
X5349293D01*
X5347776Y2407333D01*
X5351630Y2409908D01*
X5356493Y2417185D01*
X5358200Y2425769D01*
X5356493Y2434353D01*
X5355375Y2436026D01*
X5357732Y2440436D01*
X5613807D01*
X5616164Y2436026D01*
D02*
G37*
G36*
X5316164D02*
X5315046Y2434353D01*
X5313338Y2425769D01*
X5315046Y2417185D01*
X5319908Y2409908D01*
X5323762Y2407333D01*
X5322245Y2402333D01*
X5049293D01*
X5047776Y2407333D01*
X5051630Y2409908D01*
X5056493Y2417185D01*
X5058200Y2425769D01*
X5056493Y2434353D01*
X5055375Y2436026D01*
X5057732Y2440436D01*
X5313807D01*
X5316164Y2436026D01*
D02*
G37*
G36*
X5016164D02*
X5015046Y2434353D01*
X5013338Y2425769D01*
X5015046Y2417185D01*
X5019908Y2409908D01*
X5023762Y2407333D01*
X5022245Y2402333D01*
X4754293D01*
X4752776Y2407333D01*
X4756630Y2409908D01*
X4761493Y2417185D01*
X4763200Y2425769D01*
X4761493Y2434353D01*
X4760375Y2436026D01*
X4762732Y2440436D01*
X5013807D01*
X5016164Y2436026D01*
D02*
G37*
G36*
X4721164D02*
X4720046Y2434353D01*
X4718338Y2425769D01*
X4720046Y2417185D01*
X4724908Y2409908D01*
X4728762Y2407333D01*
X4727245Y2402333D01*
X4449293D01*
X4447776Y2407333D01*
X4451630Y2409908D01*
X4456493Y2417185D01*
X4458200Y2425769D01*
X4456493Y2434353D01*
X4455375Y2436026D01*
X4457732Y2440436D01*
X4718807D01*
X4721164Y2436026D01*
D02*
G37*
G36*
X6002744Y2462744D02*
X6008367Y2458986D01*
X6015000Y2457667D01*
X7142820D01*
X7242744Y2357744D01*
X7248367Y2353986D01*
X7255000Y2352667D01*
X7432820D01*
X7440093Y2345395D01*
X7436905Y2341511D01*
X7434559Y2343079D01*
X7425000Y2344980D01*
X7415441Y2343079D01*
X7407337Y2337664D01*
X7407116Y2337333D01*
X7207180D01*
X7144206Y2400307D01*
X7145663Y2405921D01*
X7151630Y2409908D01*
X7156493Y2417185D01*
X7158200Y2425769D01*
X7156493Y2434353D01*
X7151630Y2441630D01*
X7144353Y2446493D01*
X7135769Y2448200D01*
X7127185Y2446493D01*
X7119908Y2441630D01*
X7115046Y2434353D01*
X7113338Y2425769D01*
X7115016Y2417333D01*
X7115150Y2416436D01*
X7112359Y2412333D01*
X6857732D01*
X6855375Y2416743D01*
X6856493Y2418416D01*
X6858200Y2427000D01*
X6856493Y2435584D01*
X6851630Y2442861D01*
X6844353Y2447724D01*
X6835769Y2449431D01*
X6827185Y2447724D01*
X6819908Y2442861D01*
X6815046Y2435584D01*
X6813338Y2427000D01*
X6815046Y2418416D01*
X6816164Y2416743D01*
X6813807Y2412333D01*
X6552732D01*
X6550375Y2416743D01*
X6551493Y2418416D01*
X6553200Y2427000D01*
X6551493Y2435584D01*
X6546630Y2442861D01*
X6539353Y2447724D01*
X6530769Y2449431D01*
X6522185Y2447724D01*
X6514908Y2442861D01*
X6510046Y2435584D01*
X6508338Y2427000D01*
X6510046Y2418416D01*
X6511164Y2416743D01*
X6508807Y2412333D01*
X6262732D01*
X6260375Y2416743D01*
X6261493Y2418416D01*
X6263200Y2427000D01*
X6261493Y2435584D01*
X6256630Y2442861D01*
X6249353Y2447724D01*
X6240769Y2449431D01*
X6232185Y2447724D01*
X6224908Y2442861D01*
X6220046Y2435584D01*
X6218338Y2427000D01*
X6220046Y2418416D01*
X6221164Y2416743D01*
X6218807Y2412333D01*
X6042180D01*
X5912256Y2542256D01*
X5911642Y2542667D01*
X5913158Y2547667D01*
X5917820D01*
X6002744Y2462744D01*
D02*
G37*
G36*
X7150093Y2345395D02*
X7146905Y2341511D01*
X7144559Y2343079D01*
X7135000Y2344980D01*
X7125441Y2343079D01*
X7117337Y2337664D01*
X7117116Y2337333D01*
X6912180D01*
X6876846Y2372667D01*
X6878917Y2377667D01*
X7117820D01*
X7150093Y2345395D01*
D02*
G37*
G36*
X5731537Y2350744D02*
X5737160Y2346986D01*
X5743793Y2345667D01*
X5920315D01*
X5921832Y2340667D01*
X5917337Y2337664D01*
X5917116Y2337333D01*
X5712180D01*
X5652256Y2397256D01*
X5646892Y2400841D01*
X5646478Y2402543D01*
X5646105Y2406216D01*
X5651630Y2409908D01*
X5656493Y2417185D01*
X5656885Y2419159D01*
X5661670Y2420610D01*
X5731537Y2350744D01*
D02*
G37*
%LPC*%
G36*
X4070000Y2992079D02*
Y2970000D01*
X4092079D01*
X4091792Y2972179D01*
X4089021Y2978869D01*
X4084613Y2984613D01*
X4078869Y2989021D01*
X4072179Y2991792D01*
X4070000Y2992079D01*
D02*
G37*
G36*
X4092079Y2960000D02*
X4070000D01*
Y2937921D01*
X4072179Y2938208D01*
X4078869Y2940979D01*
X4084613Y2945387D01*
X4089021Y2951131D01*
X4091792Y2957821D01*
X4092079Y2960000D01*
D02*
G37*
%LPD*%
D28*
X3652500Y2782500D02*
X3905000Y3035000D01*
X3622500Y2782500D02*
X3652500D01*
X3620000Y2780000D02*
X3622500Y2782500D01*
D29*
X4109559Y3395500D02*
X4146375D01*
X4089059Y3375000D02*
X4109559Y3395500D01*
X4255000Y3410000D02*
X4375000Y3290000D01*
X4146375Y3395500D02*
X4160875Y3410000D01*
X4085000Y3375000D02*
X4089059D01*
X4160875Y3410000D02*
X4255000D01*
X4140020Y3355020D02*
X4144079D01*
X4172059Y3383000D01*
X4232000D02*
X4335000Y3280000D01*
X4172059Y3383000D02*
X4232000D01*
X4375000Y2630000D02*
Y3290000D01*
X4440000Y2565000D02*
X5925000D01*
X4375000Y2630000D02*
X4440000Y2565000D01*
X5925000D02*
X6015000Y2475000D01*
X7150000D01*
X7255000Y2370000D01*
X7440000D01*
X7490000Y2320000D02*
X7735000D01*
X7440000Y2370000D02*
X7490000Y2320000D01*
X3925000Y3205000D02*
X4180000Y2950000D01*
X3880000Y3195000D02*
X3915000D01*
X3925000Y3205000D01*
X3905000Y3160000D02*
X4030000Y3035000D01*
X4335000Y2620000D02*
Y3280000D01*
X4210000Y3340000D02*
X4295000Y3255000D01*
Y2605000D02*
Y3255000D01*
X4335000Y2620000D02*
X4425000Y2530000D01*
X5900000D01*
X6035000Y2395000D01*
X6020000Y2365000D02*
X6860000D01*
X5995000Y2390000D02*
X6020000Y2365000D01*
X5785000Y2390000D02*
X5995000D01*
X6035000Y2395000D02*
X7125000D01*
X6860000Y2365000D02*
X6905000Y2320000D01*
X7125000Y2395000D02*
X7200000Y2320000D01*
X7425000D01*
X6905000D02*
X7135000D01*
X4405000Y2495000D02*
X5680000D01*
X4295000Y2605000D02*
X4405000Y2495000D01*
X4230000Y2585000D02*
X4357231Y2457769D01*
X5649024D01*
X5743793Y2363000D01*
X5680000Y2495000D02*
X5785000Y2390000D01*
X5962000Y2363000D02*
X6005000Y2320000D01*
X5743793Y2363000D02*
X5962000D01*
X6005000Y2320000D02*
X6225000D01*
X5705000D02*
X5935000D01*
X5640000Y2385000D02*
X5705000Y2320000D01*
X4200000Y3235000D02*
X4260000Y3175000D01*
Y2860000D02*
Y3175000D01*
X4230000Y2585000D02*
Y2830000D01*
X4260000Y2860000D01*
X4180000Y2570000D02*
Y2950000D01*
X4030000Y2675000D02*
X4347000Y2358000D01*
X4030000Y2675000D02*
Y3035000D01*
X5382000Y2358000D02*
X5415000Y2325000D01*
X4347000Y2358000D02*
X5382000D01*
X4365000Y2385000D02*
X5640000D01*
X4180000Y2570000D02*
X4365000Y2385000D01*
X5415000Y2325000D02*
X5625000D01*
D30*
X1880837Y3180000D02*
D03*
Y3006772D02*
D03*
D31*
X2755837Y3765000D02*
D03*
Y3465000D02*
D03*
X2455837Y3765000D02*
D03*
Y3465000D02*
D03*
D32*
X2830000Y3405000D02*
D03*
X4085000Y3375000D02*
D03*
X3880000Y3285000D02*
D03*
Y3195000D02*
D03*
X3595000Y3420000D02*
D03*
X3720000Y2905000D02*
D03*
X3895000Y3330000D02*
D03*
X3905000Y2770000D02*
D03*
X3865000Y3095000D02*
D03*
X3295000Y3575000D02*
D03*
X4150000Y3475000D02*
D03*
X3900000Y3235000D02*
D03*
X4200000Y3185000D02*
D03*
X3500000Y3585000D02*
D03*
X4135000Y3135000D02*
D03*
X3905000Y3035000D02*
D03*
X3220000Y2870000D02*
D03*
X4140020Y3355020D02*
D03*
X4075000Y3130000D02*
D03*
X3695000Y2770000D02*
D03*
X3435000Y3345000D02*
D03*
X3860000Y2620000D02*
D03*
X3742347Y2742347D02*
D03*
X3485000Y2775000D02*
D03*
X3830000Y2794500D02*
D03*
X4200000Y3235000D02*
D03*
X4065000Y3415000D02*
D03*
X3220000Y2775000D02*
D03*
Y3330000D02*
D03*
X3810000Y3245000D02*
D03*
X4195000Y3130000D02*
D03*
X3620000Y2780000D02*
D03*
X3235000Y3050000D02*
D03*
X3490000Y3435000D02*
D03*
X3905000Y3160000D02*
D03*
X4115000Y3430000D02*
D03*
X4065000Y2965000D02*
D03*
X4210000Y3340000D02*
D03*
X3555000Y2785000D02*
D03*
X6835000Y2320000D02*
D03*
X7135000D02*
D03*
X4200000Y3290000D02*
D03*
X6225000Y2320000D02*
D03*
X5935000D02*
D03*
X5040000D02*
D03*
X5325000D02*
D03*
X4280000D02*
D03*
X4204500Y3070000D02*
D03*
X8625000Y2320000D02*
D03*
X8325000D02*
D03*
X8025000D02*
D03*
X7735000D02*
D03*
X7425000D02*
D03*
X6535000D02*
D03*
X5625000Y2325000D02*
D03*
X4740000Y2320000D02*
D03*
X2830409Y3128536D02*
D03*
X2625837Y2980000D02*
D03*
X2370885Y3379036D02*
D03*
X2620837Y2790000D02*
D03*
X2400837Y3430000D02*
D03*
X2455837Y3400000D02*
D03*
X2715837Y2885000D02*
D03*
X3450000Y2596500D02*
D03*
X3690000Y3680000D02*
D03*
X3370000Y3685000D02*
D03*
X2440000Y2575000D02*
D03*
X2265000Y2710000D02*
D03*
X2760000Y2630000D02*
D03*
X3815000Y2410000D02*
D03*
X3730000Y2415000D02*
D03*
X2355000Y2575000D02*
D03*
X3905000Y2430000D02*
D03*
X3965000Y2550000D02*
D03*
X3540000Y3020000D02*
D03*
X3495000Y2520000D02*
D03*
X3010000Y3495000D02*
D03*
X4175000Y3525000D02*
D03*
X2175837Y2880000D02*
D03*
X2475837Y3075315D02*
D03*
D33*
X1932530Y3608347D02*
D03*
Y3651654D02*
D03*
X1975837Y3608347D02*
D03*
Y3651654D02*
D03*
X2019144Y3608347D02*
D03*
Y3651654D02*
D03*
D34*
X4450769Y2640769D02*
D03*
X6835769Y2427000D02*
D03*
X7135769Y2425769D02*
D03*
X4445769Y2835769D02*
D03*
X4440769Y3030769D02*
D03*
Y3235769D02*
D03*
X6530769Y2427000D02*
D03*
X6240769D02*
D03*
X4435769Y2425769D02*
D03*
X5335769D02*
D03*
X5930769D02*
D03*
X4740769D02*
D03*
X5035769D02*
D03*
X5635769D02*
D03*
X4445769Y3435769D02*
D03*
X4450769Y3640769D02*
D03*
X4440769Y3830144D02*
D03*
X4430769Y4220769D02*
D03*
X4730769D02*
D03*
X5020769D02*
D03*
X5320769D02*
D03*
X5630769D02*
D03*
X5935769D02*
D03*
X6225769D02*
D03*
X6530769D02*
D03*
X6835769D02*
D03*
X7135769D02*
D03*
X7425769D02*
D03*
X7725769D02*
D03*
X8020769D02*
D03*
X8325769D02*
D03*
X8630769D02*
D03*
X4435769Y4025769D02*
D03*
X4735769D02*
D03*
X5035769D02*
D03*
X5335769D02*
D03*
X5630769D02*
D03*
X5937682Y4027682D02*
D03*
X6235769Y4025769D02*
D03*
X6535769D02*
D03*
X6835769D02*
D03*
X7140769D02*
D03*
X7435769D02*
D03*
X7725769D02*
D03*
X8025769D02*
D03*
X8330769D02*
D03*
X8635769D02*
D03*
X4740769Y3830769D02*
D03*
X5042682Y3831432D02*
D03*
X5340769Y3830769D02*
D03*
X5630769D02*
D03*
X5935769D02*
D03*
X6240769D02*
D03*
X6540769D02*
D03*
X6840769D02*
D03*
X7140769D02*
D03*
X7440769D02*
D03*
X7740769D02*
D03*
X8040769D02*
D03*
X8340769D02*
D03*
X8640769D02*
D03*
X4750769Y3640769D02*
D03*
X5050769D02*
D03*
X5350769D02*
D03*
X5645769D02*
D03*
X5935769D02*
D03*
X6250769D02*
D03*
X6540769D02*
D03*
X6850769D02*
D03*
X7140769D02*
D03*
X7440769D02*
D03*
X7740769D02*
D03*
X8045769D02*
D03*
X8345769D02*
D03*
X8635769D02*
D03*
X4745769Y3435769D02*
D03*
X5040769D02*
D03*
X5345769D02*
D03*
X5640769D02*
D03*
X5935769D02*
D03*
X6245769D02*
D03*
X6540769D02*
D03*
X6845769D02*
D03*
X7145769D02*
D03*
X7445769D02*
D03*
X7745769D02*
D03*
X8040769D02*
D03*
X8343269D02*
D03*
X8645769D02*
D03*
X4735769Y3235769D02*
D03*
X5045769D02*
D03*
X5340769D02*
D03*
X5645769D02*
D03*
X5940769D02*
D03*
X6245769D02*
D03*
X6540769D02*
D03*
X6845769D02*
D03*
X7140769D02*
D03*
X7440769D02*
D03*
X7745769D02*
D03*
X8045769D02*
D03*
X8340769D02*
D03*
X8640769D02*
D03*
X4740769Y3030769D02*
D03*
X5040769D02*
D03*
X5335769D02*
D03*
X5640769D02*
D03*
X5940769D02*
D03*
X6230769D02*
D03*
X6535769D02*
D03*
X6835769D02*
D03*
X7130769D02*
D03*
X7440769D02*
D03*
X7735769D02*
D03*
X8030769D02*
D03*
X8340769D02*
D03*
X8640769D02*
D03*
X5345769Y2835769D02*
D03*
X5645769D02*
D03*
X5940769D02*
D03*
X6240769D02*
D03*
X6545769D02*
D03*
X6840769D02*
D03*
X7135769D02*
D03*
X7445769D02*
D03*
X7745769D02*
D03*
X8040769D02*
D03*
X8335769D02*
D03*
X8645769D02*
D03*
X4750769Y2640769D02*
D03*
X5055769D02*
D03*
X5345769D02*
D03*
X5645769D02*
D03*
X5940769D02*
D03*
X6245769D02*
D03*
X6550769D02*
D03*
X6850769D02*
D03*
X7150769D02*
D03*
X7445769D02*
D03*
X7745769D02*
D03*
X8045769D02*
D03*
X8350769D02*
D03*
X8650769D02*
D03*
X7435769Y2425769D02*
D03*
X7735769D02*
D03*
X8035769D02*
D03*
X8335769D02*
D03*
X8635769D02*
D03*
X4745769Y2835769D02*
D03*
X5045769D02*
D03*
D35*
X2540000Y3400000D02*
D03*
X2705837Y3310000D02*
D03*
X1950837Y4065000D02*
D03*
X2330837Y3980000D02*
D03*
X2552333D02*
D03*
X2190837Y3325000D02*
D03*
X2050837Y2985000D02*
D03*
X2105837Y3045000D02*
D03*
X2400837Y4250000D02*
D03*
%TF.MD5,17fd42a350b0e0d6259e94afdd410505*%
M02*
