%TF.GenerationSoftware,Altium Limited,Altium Designer,20.1.14 (287)*%
G04 Layer_Color=65535*
%FSLAX26Y26*%
%MOIN*%
%TF.SameCoordinates,7E9A0AC4-0E20-4BBF-80A7-7FB1365180D4*%
%TF.FilePolarity,Positive*%
%TF.FileFunction,Legend,Top*%
%TF.Part,Single*%
G01*
G75*
%TA.AperFunction,NonConductor*%
%ADD38C,0.009842*%
%ADD40C,0.007874*%
%ADD41C,0.005906*%
%ADD43C,0.010000*%
%ADD56C,0.023622*%
%ADD57C,0.019685*%
%ADD58C,0.006000*%
D38*
X3145866Y3468740D02*
G03*
X3145866Y3468740I-4921J0D01*
G01*
X2300286Y3265197D02*
G03*
X2300286Y3265197I-4921J0D01*
G01*
X2124459Y3745157D02*
G03*
X2124459Y3745157I-4921J0D01*
G01*
X4027008Y3525000D02*
G03*
X4027008Y3525000I-4921J0D01*
G01*
D40*
X3184252Y2723661D02*
X3932284D01*
X3184252Y3471693D02*
X3932284D01*
Y2723661D02*
Y3471693D01*
X3184252Y2723661D02*
Y3471693D01*
X2352451Y2926614D02*
X2679223D01*
X2352451Y3253386D02*
X2679223D01*
Y2926614D02*
Y3253386D01*
X2352451Y2926614D02*
Y3253386D01*
X1845916Y3567008D02*
Y3692992D01*
X2105758Y3567008D02*
Y3692992D01*
X4083110Y3505315D02*
X4096890D01*
X4083110Y3544685D02*
X4096890D01*
D41*
X8725769Y2293210D02*
Y2348328D01*
X8775769Y2293210D02*
Y2300769D01*
X8675769Y2293210D02*
X8775769D01*
X8675769D02*
Y2300769D01*
Y2340769D02*
Y2348328D01*
X8775769D01*
Y2340769D02*
Y2348328D01*
X8425769Y2293210D02*
Y2348328D01*
X8475769Y2293210D02*
Y2300769D01*
X8375769Y2293210D02*
X8475769D01*
X8375769D02*
Y2300769D01*
Y2340769D02*
Y2348328D01*
X8475769D01*
Y2340769D02*
Y2348328D01*
X8125769Y2293210D02*
Y2348328D01*
X8175769Y2293210D02*
Y2300769D01*
X8075769Y2293210D02*
X8175769D01*
X8075769D02*
Y2300769D01*
Y2340769D02*
Y2348328D01*
X8175769D01*
Y2340769D02*
Y2348328D01*
X7825769Y2293210D02*
Y2348328D01*
X7875769Y2293210D02*
Y2300769D01*
X7775769Y2293210D02*
X7875769D01*
X7775769D02*
Y2300769D01*
Y2340769D02*
Y2348328D01*
X7875769D01*
Y2340769D02*
Y2348328D01*
X7520769Y2293210D02*
Y2348328D01*
X7570769Y2293210D02*
Y2300769D01*
X7470769Y2293210D02*
X7570769D01*
X7470769D02*
Y2300769D01*
Y2340769D02*
Y2348328D01*
X7570769D01*
Y2340769D02*
Y2348328D01*
X7225769Y2293210D02*
Y2348328D01*
X7275769Y2293210D02*
Y2300769D01*
X7175769Y2293210D02*
X7275769D01*
X7175769D02*
Y2300769D01*
Y2340769D02*
Y2348328D01*
X7275769D01*
Y2340769D02*
Y2348328D01*
X6925769Y2293210D02*
Y2348328D01*
X6975769Y2293210D02*
Y2300769D01*
X6875769Y2293210D02*
X6975769D01*
X6875769D02*
Y2300769D01*
Y2340769D02*
Y2348328D01*
X6975769D01*
Y2340769D02*
Y2348328D01*
X6625769Y2293210D02*
Y2348328D01*
X6675769Y2293210D02*
Y2300769D01*
X6575769Y2293210D02*
X6675769D01*
X6575769D02*
Y2300769D01*
Y2340769D02*
Y2348328D01*
X6675769D01*
Y2340769D02*
Y2348328D01*
X6325769Y2293210D02*
Y2348328D01*
X6375769Y2293210D02*
Y2300769D01*
X6275769Y2293210D02*
X6375769D01*
X6275769D02*
Y2300769D01*
Y2340769D02*
Y2348328D01*
X6375769D01*
Y2340769D02*
Y2348328D01*
X6025769Y2293210D02*
Y2348328D01*
X6075769Y2293210D02*
Y2300769D01*
X5975769Y2293210D02*
X6075769D01*
X5975769D02*
Y2300769D01*
Y2340769D02*
Y2348328D01*
X6075769D01*
Y2340769D02*
Y2348328D01*
X5720769Y2293210D02*
Y2348328D01*
X5770769Y2293210D02*
Y2300769D01*
X5670769Y2293210D02*
X5770769D01*
X5670769D02*
Y2300769D01*
Y2340769D02*
Y2348328D01*
X5770769D01*
Y2340769D02*
Y2348328D01*
X5425769Y2293210D02*
Y2348328D01*
X5475769Y2293210D02*
Y2300769D01*
X5375769Y2293210D02*
X5475769D01*
X5375769D02*
Y2300769D01*
Y2340769D02*
Y2348328D01*
X5475769D01*
Y2340769D02*
Y2348328D01*
X5125769Y2293210D02*
Y2348328D01*
X5175769Y2293210D02*
Y2300769D01*
X5075769Y2293210D02*
X5175769D01*
X5075769D02*
Y2300769D01*
Y2340769D02*
Y2348328D01*
X5175769D01*
Y2340769D02*
Y2348328D01*
X4825769Y2293210D02*
Y2348328D01*
X4875769Y2293210D02*
Y2300769D01*
X4775769Y2293210D02*
X4875769D01*
X4775769D02*
Y2300769D01*
Y2340769D02*
Y2348328D01*
X4875769D01*
Y2340769D02*
Y2348328D01*
X4525769Y2293210D02*
Y2348328D01*
X4575769Y2293210D02*
Y2300769D01*
X4475769Y2293210D02*
X4575769D01*
X4475769D02*
Y2300769D01*
Y2340769D02*
Y2348328D01*
X4575769D01*
Y2340769D02*
Y2348328D01*
X3843396Y2587480D02*
X3851270D01*
Y2453622D02*
Y2587480D01*
X3843396Y2453622D02*
X3851270D01*
X3780404Y2587480D02*
X3788278D01*
X3780404Y2453622D02*
Y2587480D01*
Y2453622D02*
X3788278D01*
X3780404Y2520551D02*
X3851270D01*
X3758396Y2586929D02*
X3766270D01*
Y2453071D02*
Y2586929D01*
X3758396Y2453071D02*
X3766270D01*
X3695404Y2586929D02*
X3703278D01*
X3695404Y2453071D02*
Y2586929D01*
Y2453071D02*
X3703278D01*
X3695404Y2520000D02*
X3766270D01*
X2992766Y3384567D02*
Y3392441D01*
X2858908Y3384567D02*
X2992766D01*
X2858908D02*
Y3392441D01*
X2992766Y3447559D02*
Y3455433D01*
X2858908D02*
X2992766D01*
X2858908Y3447559D02*
Y3455433D01*
X2925837Y3384567D02*
Y3455433D01*
X2992766Y3304567D02*
Y3312441D01*
X2858908Y3304567D02*
X2992766D01*
X2858908D02*
Y3312441D01*
X2992766Y3367559D02*
Y3375433D01*
X2858908D02*
X2992766D01*
X2858908Y3367559D02*
Y3375433D01*
X2925837Y3304567D02*
Y3375433D01*
X2992766Y3224567D02*
Y3232441D01*
X2858908Y3224567D02*
X2992766D01*
X2858908D02*
Y3232441D01*
X2992766Y3287559D02*
Y3295433D01*
X2858908D02*
X2992766D01*
X2858908Y3287559D02*
Y3295433D01*
X2925837Y3224567D02*
Y3295433D01*
X2992766Y3144567D02*
Y3152441D01*
X2858908Y3144567D02*
X2992766D01*
X2858908D02*
Y3152441D01*
X2992766Y3207559D02*
Y3215433D01*
X2858908D02*
X2992766D01*
X2858908Y3207559D02*
Y3215433D01*
X2925837Y3144567D02*
Y3215433D01*
X2992766Y3064567D02*
Y3072441D01*
X2858908Y3064567D02*
X2992766D01*
X2858908D02*
Y3072441D01*
X2992766Y3127559D02*
Y3135433D01*
X2858908D02*
X2992766D01*
X2858908Y3127559D02*
Y3135433D01*
X2925837Y3064567D02*
Y3135433D01*
X2992766Y2984567D02*
Y2992441D01*
X2858908Y2984567D02*
X2992766D01*
X2858908D02*
Y2992441D01*
X2992766Y3047559D02*
Y3055433D01*
X2858908D02*
X2992766D01*
X2858908Y3047559D02*
Y3055433D01*
X2925837Y2984567D02*
Y3055433D01*
X2992766Y2904567D02*
Y2912441D01*
X2858908Y2904567D02*
X2992766D01*
X2858908D02*
Y2912441D01*
X2992766Y2967559D02*
Y2975433D01*
X2858908D02*
X2992766D01*
X2858908Y2967559D02*
Y2975433D01*
X2925837Y2904567D02*
Y2975433D01*
X2992766Y2824567D02*
Y2832441D01*
X2858908Y2824567D02*
X2992766D01*
X2858908D02*
Y2832441D01*
X2992766Y2887559D02*
Y2895433D01*
X2858908D02*
X2992766D01*
X2858908Y2887559D02*
Y2895433D01*
X2925837Y2824567D02*
Y2895433D01*
X2218396Y3296929D02*
X2226270D01*
Y3163071D02*
Y3296929D01*
X2218396Y3163071D02*
X2226270D01*
X2155404Y3296929D02*
X2163278D01*
X2155404Y3163071D02*
Y3296929D01*
Y3163071D02*
X2163278D01*
X2155404Y3230000D02*
X2226270D01*
X2198396Y3076929D02*
X2206270D01*
Y2943071D02*
Y3076929D01*
X2198396Y2943071D02*
X2206270D01*
X2135404Y3076929D02*
X2143278D01*
X2135404Y2943071D02*
Y3076929D01*
Y2943071D02*
X2143278D01*
X2135404Y3010000D02*
X2206270D01*
X2660404Y2597835D02*
X2668278D01*
X2660404D02*
Y2731693D01*
X2668278D01*
X2723396Y2597835D02*
X2731270D01*
Y2731693D01*
X2723396D02*
X2731270D01*
X2660404Y2664764D02*
X2731270D01*
X2575404Y2597835D02*
X2583278D01*
X2575404D02*
Y2731693D01*
X2583278D01*
X2638396Y2597835D02*
X2646270D01*
Y2731693D01*
X2638396D02*
X2646270D01*
X2575404Y2664764D02*
X2646270D01*
X2490404Y2597835D02*
X2498278D01*
X2490404D02*
Y2731693D01*
X2498278D01*
X2553396Y2597835D02*
X2561270D01*
Y2731693D01*
X2553396D02*
X2561270D01*
X2490404Y2664764D02*
X2561270D01*
X2405404Y2598386D02*
X2413278D01*
X2405404D02*
Y2732244D01*
X2413278D01*
X2468396Y2598386D02*
X2476270D01*
Y2732244D01*
X2468396D02*
X2476270D01*
X2405404Y2665315D02*
X2476270D01*
X2320404Y2598386D02*
X2328278D01*
X2320404D02*
Y2732244D01*
X2328278D01*
X2383396Y2598386D02*
X2391270D01*
Y2732244D01*
X2383396D02*
X2391270D01*
X2320404Y2665315D02*
X2391270D01*
X2230404Y2743622D02*
X2238278D01*
X2230404D02*
Y2877480D01*
X2238278D01*
X2293396Y2743622D02*
X2301270D01*
Y2877480D01*
X2293396D02*
X2301270D01*
X2230404Y2810551D02*
X2301270D01*
X1917215Y3984567D02*
Y3992441D01*
X1783357Y3984567D02*
X1917215D01*
X1783357D02*
Y3992441D01*
X1917215Y4047559D02*
Y4055433D01*
X1783357D02*
X1917215D01*
X1783357Y4047559D02*
Y4055433D01*
X1850286Y3984567D02*
Y4055433D01*
X1780404Y4063071D02*
X1788278D01*
X1780404D02*
Y4196929D01*
X1788278D01*
X1843396Y4063071D02*
X1851270D01*
Y4196929D01*
X1843396D02*
X1851270D01*
X1780404Y4130000D02*
X1851270D01*
X2183396Y3611929D02*
X2191270D01*
Y3478071D02*
Y3611929D01*
X2183396Y3478071D02*
X2191270D01*
X2120404Y3611929D02*
X2128278D01*
X2120404Y3478071D02*
Y3611929D01*
Y3478071D02*
X2128278D01*
X2120404Y3545000D02*
X2191270D01*
X1823396Y3611929D02*
X1831270D01*
Y3478071D02*
Y3611929D01*
X1823396Y3478071D02*
X1831270D01*
X1760404Y3611929D02*
X1768278D01*
X1760404Y3478071D02*
Y3611929D01*
Y3478071D02*
X1768278D01*
X1760404Y3545000D02*
X1831270D01*
X2240404Y3798071D02*
X2248278D01*
X2240404D02*
Y3931929D01*
X2248278D01*
X2303396Y3798071D02*
X2311270D01*
Y3931929D01*
X2303396D02*
X2311270D01*
X2240404Y3865000D02*
X2311270D01*
X2133396Y4051378D02*
X2141270D01*
Y3917520D02*
Y4051378D01*
X2133396Y3917520D02*
X2141270D01*
X2070404Y4051378D02*
X2078278D01*
X2070404Y3917520D02*
Y4051378D01*
Y3917520D02*
X2078278D01*
X2070404Y3984449D02*
X2141270D01*
X2155404Y3798071D02*
X2163278D01*
X2155404D02*
Y3931929D01*
X2163278D01*
X2218396Y3798071D02*
X2226270D01*
Y3931929D01*
X2218396D02*
X2226270D01*
X2155404Y3865000D02*
X2226270D01*
X2158908Y4007559D02*
Y4015433D01*
X2292766D01*
Y4007559D02*
Y4015433D01*
X2158908Y3944567D02*
Y3952441D01*
Y3944567D02*
X2292766D01*
Y3952441D01*
X2225837Y3944567D02*
Y4015433D01*
X8720769Y4310769D02*
X8727840Y4317840D01*
X8706627Y4310769D02*
X8720769Y4296627D01*
X8695714Y4335824D02*
X8745824Y4285714D01*
X8780873Y4356731D02*
X8798857Y4338747D01*
X8689256Y4229146D02*
X8798857Y4338747D01*
X8683688Y4234713D02*
X8689256Y4229146D01*
X8748747Y4388857D02*
X8766731Y4370873D01*
X8639146Y4279256D02*
X8748747Y4388857D01*
X8639146Y4279256D02*
X8644713Y4273688D01*
X8780873Y4356731D02*
X8784409Y4360267D01*
X8802393Y4342283D01*
X8798857Y4338747D02*
X8802393Y4342283D01*
X8748747Y4388857D02*
X8752283Y4392393D01*
X8770267Y4374409D01*
X8766731Y4370873D02*
X8770267Y4374409D01*
X8706627Y4310769D02*
X8720769D01*
Y4296627D02*
Y4310769D01*
X8420769D02*
X8427840Y4317840D01*
X8406627Y4310769D02*
X8420769Y4296627D01*
X8395714Y4335824D02*
X8445824Y4285714D01*
X8480873Y4356731D02*
X8498857Y4338747D01*
X8389256Y4229146D02*
X8498857Y4338747D01*
X8383688Y4234713D02*
X8389256Y4229146D01*
X8448747Y4388857D02*
X8466731Y4370873D01*
X8339146Y4279256D02*
X8448747Y4388857D01*
X8339146Y4279256D02*
X8344713Y4273688D01*
X8480873Y4356731D02*
X8484409Y4360267D01*
X8502393Y4342283D01*
X8498857Y4338747D02*
X8502393Y4342283D01*
X8448747Y4388857D02*
X8452283Y4392393D01*
X8470267Y4374409D01*
X8466731Y4370873D02*
X8470267Y4374409D01*
X8406627Y4310769D02*
X8420769D01*
Y4296627D02*
Y4310769D01*
X8120769D02*
X8127840Y4317840D01*
X8106627Y4310769D02*
X8120769Y4296627D01*
X8095714Y4335824D02*
X8145824Y4285714D01*
X8180873Y4356731D02*
X8198857Y4338747D01*
X8089256Y4229146D02*
X8198857Y4338747D01*
X8083688Y4234713D02*
X8089256Y4229146D01*
X8148747Y4388857D02*
X8166731Y4370873D01*
X8039146Y4279256D02*
X8148747Y4388857D01*
X8039146Y4279256D02*
X8044713Y4273688D01*
X8180873Y4356731D02*
X8184409Y4360267D01*
X8202393Y4342283D01*
X8198857Y4338747D02*
X8202393Y4342283D01*
X8148747Y4388857D02*
X8152283Y4392393D01*
X8170267Y4374409D01*
X8166731Y4370873D02*
X8170267Y4374409D01*
X8106627Y4310769D02*
X8120769D01*
Y4296627D02*
Y4310769D01*
X7820769D02*
X7827840Y4317840D01*
X7806627Y4310769D02*
X7820769Y4296627D01*
X7795714Y4335824D02*
X7845824Y4285714D01*
X7880873Y4356731D02*
X7898857Y4338747D01*
X7789256Y4229146D02*
X7898857Y4338747D01*
X7783688Y4234713D02*
X7789256Y4229146D01*
X7848747Y4388857D02*
X7866731Y4370873D01*
X7739146Y4279256D02*
X7848747Y4388857D01*
X7739146Y4279256D02*
X7744713Y4273688D01*
X7880873Y4356731D02*
X7884409Y4360267D01*
X7902393Y4342283D01*
X7898857Y4338747D02*
X7902393Y4342283D01*
X7848747Y4388857D02*
X7852283Y4392393D01*
X7870267Y4374409D01*
X7866731Y4370873D02*
X7870267Y4374409D01*
X7806627Y4310769D02*
X7820769D01*
Y4296627D02*
Y4310769D01*
X7520769D02*
X7527840Y4317840D01*
X7506627Y4310769D02*
X7520769Y4296627D01*
X7495714Y4335824D02*
X7545824Y4285714D01*
X7580873Y4356731D02*
X7598857Y4338747D01*
X7489256Y4229146D02*
X7598857Y4338747D01*
X7483688Y4234713D02*
X7489256Y4229146D01*
X7548747Y4388857D02*
X7566731Y4370873D01*
X7439146Y4279256D02*
X7548747Y4388857D01*
X7439146Y4279256D02*
X7444713Y4273688D01*
X7580873Y4356731D02*
X7584409Y4360267D01*
X7602393Y4342283D01*
X7598857Y4338747D02*
X7602393Y4342283D01*
X7548747Y4388857D02*
X7552283Y4392393D01*
X7570267Y4374409D01*
X7566731Y4370873D02*
X7570267Y4374409D01*
X7506627Y4310769D02*
X7520769D01*
Y4296627D02*
Y4310769D01*
X7220769D02*
X7227840Y4317840D01*
X7206627Y4310769D02*
X7220769Y4296627D01*
X7195714Y4335824D02*
X7245824Y4285714D01*
X7280873Y4356731D02*
X7298857Y4338747D01*
X7189256Y4229146D02*
X7298857Y4338747D01*
X7183688Y4234713D02*
X7189256Y4229146D01*
X7248747Y4388857D02*
X7266731Y4370873D01*
X7139146Y4279256D02*
X7248747Y4388857D01*
X7139146Y4279256D02*
X7144713Y4273688D01*
X7280873Y4356731D02*
X7284409Y4360267D01*
X7302393Y4342283D01*
X7298857Y4338747D02*
X7302393Y4342283D01*
X7248747Y4388857D02*
X7252283Y4392393D01*
X7270267Y4374409D01*
X7266731Y4370873D02*
X7270267Y4374409D01*
X7206627Y4310769D02*
X7220769D01*
Y4296627D02*
Y4310769D01*
X6920769D02*
X6927840Y4317840D01*
X6906627Y4310769D02*
X6920769Y4296627D01*
X6895714Y4335824D02*
X6945824Y4285714D01*
X6980873Y4356731D02*
X6998857Y4338747D01*
X6889256Y4229146D02*
X6998857Y4338747D01*
X6883688Y4234713D02*
X6889256Y4229146D01*
X6948747Y4388857D02*
X6966731Y4370873D01*
X6839146Y4279256D02*
X6948747Y4388857D01*
X6839146Y4279256D02*
X6844713Y4273688D01*
X6980873Y4356731D02*
X6984409Y4360267D01*
X7002393Y4342283D01*
X6998857Y4338747D02*
X7002393Y4342283D01*
X6948747Y4388857D02*
X6952283Y4392393D01*
X6970267Y4374409D01*
X6966731Y4370873D02*
X6970267Y4374409D01*
X6906627Y4310769D02*
X6920769D01*
Y4296627D02*
Y4310769D01*
X6620769D02*
X6627840Y4317840D01*
X6606627Y4310769D02*
X6620769Y4296627D01*
X6595714Y4335824D02*
X6645824Y4285714D01*
X6680873Y4356731D02*
X6698857Y4338747D01*
X6589256Y4229146D02*
X6698857Y4338747D01*
X6583688Y4234713D02*
X6589256Y4229146D01*
X6648747Y4388857D02*
X6666731Y4370873D01*
X6539146Y4279256D02*
X6648747Y4388857D01*
X6539146Y4279256D02*
X6544713Y4273688D01*
X6680873Y4356731D02*
X6684409Y4360267D01*
X6702393Y4342283D01*
X6698857Y4338747D02*
X6702393Y4342283D01*
X6648747Y4388857D02*
X6652283Y4392393D01*
X6670267Y4374409D01*
X6666731Y4370873D02*
X6670267Y4374409D01*
X6606627Y4310769D02*
X6620769D01*
Y4296627D02*
Y4310769D01*
X6320769D02*
X6327840Y4317840D01*
X6306627Y4310769D02*
X6320769Y4296627D01*
X6295714Y4335824D02*
X6345824Y4285714D01*
X6380873Y4356731D02*
X6398857Y4338747D01*
X6289256Y4229146D02*
X6398857Y4338747D01*
X6283688Y4234713D02*
X6289256Y4229146D01*
X6348747Y4388857D02*
X6366731Y4370873D01*
X6239146Y4279256D02*
X6348747Y4388857D01*
X6239146Y4279256D02*
X6244713Y4273688D01*
X6380873Y4356731D02*
X6384409Y4360267D01*
X6402393Y4342283D01*
X6398857Y4338747D02*
X6402393Y4342283D01*
X6348747Y4388857D02*
X6352283Y4392393D01*
X6370267Y4374409D01*
X6366731Y4370873D02*
X6370267Y4374409D01*
X6306627Y4310769D02*
X6320769D01*
Y4296627D02*
Y4310769D01*
X6020769D02*
X6027840Y4317840D01*
X6006627Y4310769D02*
X6020769Y4296627D01*
X5995714Y4335824D02*
X6045824Y4285714D01*
X6080873Y4356731D02*
X6098857Y4338747D01*
X5989256Y4229146D02*
X6098857Y4338747D01*
X5983688Y4234713D02*
X5989256Y4229146D01*
X6048747Y4388857D02*
X6066731Y4370873D01*
X5939146Y4279256D02*
X6048747Y4388857D01*
X5939146Y4279256D02*
X5944713Y4273688D01*
X6080873Y4356731D02*
X6084409Y4360267D01*
X6102393Y4342283D01*
X6098857Y4338747D02*
X6102393Y4342283D01*
X6048747Y4388857D02*
X6052283Y4392393D01*
X6070267Y4374409D01*
X6066731Y4370873D02*
X6070267Y4374409D01*
X6006627Y4310769D02*
X6020769D01*
Y4296627D02*
Y4310769D01*
X5720769D02*
X5727840Y4317840D01*
X5706627Y4310769D02*
X5720769Y4296627D01*
X5695714Y4335824D02*
X5745824Y4285714D01*
X5780873Y4356731D02*
X5798857Y4338747D01*
X5689256Y4229146D02*
X5798857Y4338747D01*
X5683688Y4234713D02*
X5689256Y4229146D01*
X5748747Y4388857D02*
X5766731Y4370873D01*
X5639146Y4279256D02*
X5748747Y4388857D01*
X5639146Y4279256D02*
X5644713Y4273688D01*
X5780873Y4356731D02*
X5784409Y4360267D01*
X5802393Y4342283D01*
X5798857Y4338747D02*
X5802393Y4342283D01*
X5748747Y4388857D02*
X5752283Y4392393D01*
X5770267Y4374409D01*
X5766731Y4370873D02*
X5770267Y4374409D01*
X5706627Y4310769D02*
X5720769D01*
Y4296627D02*
Y4310769D01*
X5420769D02*
X5427840Y4317840D01*
X5406627Y4310769D02*
X5420769Y4296627D01*
X5395714Y4335824D02*
X5445824Y4285714D01*
X5480873Y4356731D02*
X5498857Y4338747D01*
X5389256Y4229146D02*
X5498857Y4338747D01*
X5383688Y4234713D02*
X5389256Y4229146D01*
X5448747Y4388857D02*
X5466731Y4370873D01*
X5339146Y4279256D02*
X5448747Y4388857D01*
X5339146Y4279256D02*
X5344713Y4273688D01*
X5480873Y4356731D02*
X5484409Y4360267D01*
X5502393Y4342283D01*
X5498857Y4338747D02*
X5502393Y4342283D01*
X5448747Y4388857D02*
X5452283Y4392393D01*
X5470267Y4374409D01*
X5466731Y4370873D02*
X5470267Y4374409D01*
X5406627Y4310769D02*
X5420769D01*
Y4296627D02*
Y4310769D01*
X5120769D02*
X5127840Y4317840D01*
X5106627Y4310769D02*
X5120769Y4296627D01*
X5095714Y4335824D02*
X5145824Y4285714D01*
X5180873Y4356731D02*
X5198857Y4338747D01*
X5089256Y4229146D02*
X5198857Y4338747D01*
X5083688Y4234713D02*
X5089256Y4229146D01*
X5148747Y4388857D02*
X5166731Y4370873D01*
X5039146Y4279256D02*
X5148747Y4388857D01*
X5039146Y4279256D02*
X5044713Y4273688D01*
X5180873Y4356731D02*
X5184409Y4360267D01*
X5202393Y4342283D01*
X5198857Y4338747D02*
X5202393Y4342283D01*
X5148747Y4388857D02*
X5152283Y4392393D01*
X5170267Y4374409D01*
X5166731Y4370873D02*
X5170267Y4374409D01*
X5106627Y4310769D02*
X5120769D01*
Y4296627D02*
Y4310769D01*
X4820769D02*
X4827840Y4317840D01*
X4806627Y4310769D02*
X4820769Y4296627D01*
X4795714Y4335824D02*
X4845824Y4285714D01*
X4880873Y4356731D02*
X4898857Y4338747D01*
X4789256Y4229146D02*
X4898857Y4338747D01*
X4783688Y4234713D02*
X4789256Y4229146D01*
X4848747Y4388857D02*
X4866731Y4370873D01*
X4739146Y4279256D02*
X4848747Y4388857D01*
X4739146Y4279256D02*
X4744713Y4273688D01*
X4880873Y4356731D02*
X4884409Y4360267D01*
X4902393Y4342283D01*
X4898857Y4338747D02*
X4902393Y4342283D01*
X4848747Y4388857D02*
X4852283Y4392393D01*
X4870267Y4374409D01*
X4866731Y4370873D02*
X4870267Y4374409D01*
X4806627Y4310769D02*
X4820769D01*
Y4296627D02*
Y4310769D01*
X4520769D02*
X4527840Y4317840D01*
X4506627Y4310769D02*
X4520769Y4296627D01*
X4495714Y4335824D02*
X4545824Y4285714D01*
X4580873Y4356731D02*
X4598857Y4338747D01*
X4489256Y4229146D02*
X4598857Y4338747D01*
X4483688Y4234713D02*
X4489256Y4229146D01*
X4548747Y4388857D02*
X4566731Y4370873D01*
X4439146Y4279256D02*
X4548747Y4388857D01*
X4439146Y4279256D02*
X4444713Y4273688D01*
X4580873Y4356731D02*
X4584409Y4360267D01*
X4602393Y4342283D01*
X4598857Y4338747D02*
X4602393Y4342283D01*
X4548747Y4388857D02*
X4552283Y4392393D01*
X4570267Y4374409D01*
X4566731Y4370873D02*
X4570267Y4374409D01*
X4506627Y4310769D02*
X4520769D01*
Y4296627D02*
Y4310769D01*
X8720769Y4110769D02*
X8727840Y4117840D01*
X8706627Y4110769D02*
X8720769Y4096627D01*
X8695714Y4135824D02*
X8745824Y4085714D01*
X8780873Y4156731D02*
X8798857Y4138747D01*
X8689256Y4029146D02*
X8798857Y4138747D01*
X8683688Y4034713D02*
X8689256Y4029146D01*
X8748747Y4188857D02*
X8766731Y4170873D01*
X8639146Y4079256D02*
X8748747Y4188857D01*
X8639146Y4079256D02*
X8644713Y4073688D01*
X8780873Y4156731D02*
X8784409Y4160267D01*
X8802393Y4142283D01*
X8798857Y4138747D02*
X8802393Y4142283D01*
X8748747Y4188857D02*
X8752283Y4192393D01*
X8770267Y4174409D01*
X8766731Y4170873D02*
X8770267Y4174409D01*
X8706627Y4110769D02*
X8720769D01*
Y4096627D02*
Y4110769D01*
X8420769D02*
X8427840Y4117840D01*
X8406627Y4110769D02*
X8420769Y4096627D01*
X8395714Y4135824D02*
X8445824Y4085714D01*
X8480873Y4156731D02*
X8498857Y4138747D01*
X8389256Y4029146D02*
X8498857Y4138747D01*
X8383688Y4034713D02*
X8389256Y4029146D01*
X8448747Y4188857D02*
X8466731Y4170873D01*
X8339146Y4079256D02*
X8448747Y4188857D01*
X8339146Y4079256D02*
X8344713Y4073688D01*
X8480873Y4156731D02*
X8484409Y4160267D01*
X8502393Y4142283D01*
X8498857Y4138747D02*
X8502393Y4142283D01*
X8448747Y4188857D02*
X8452283Y4192393D01*
X8470267Y4174409D01*
X8466731Y4170873D02*
X8470267Y4174409D01*
X8406627Y4110769D02*
X8420769D01*
Y4096627D02*
Y4110769D01*
X8120769D02*
X8127840Y4117840D01*
X8106627Y4110769D02*
X8120769Y4096627D01*
X8095714Y4135824D02*
X8145824Y4085714D01*
X8180873Y4156731D02*
X8198857Y4138747D01*
X8089256Y4029146D02*
X8198857Y4138747D01*
X8083688Y4034713D02*
X8089256Y4029146D01*
X8148747Y4188857D02*
X8166731Y4170873D01*
X8039146Y4079256D02*
X8148747Y4188857D01*
X8039146Y4079256D02*
X8044713Y4073688D01*
X8180873Y4156731D02*
X8184409Y4160267D01*
X8202393Y4142283D01*
X8198857Y4138747D02*
X8202393Y4142283D01*
X8148747Y4188857D02*
X8152283Y4192393D01*
X8170267Y4174409D01*
X8166731Y4170873D02*
X8170267Y4174409D01*
X8106627Y4110769D02*
X8120769D01*
Y4096627D02*
Y4110769D01*
X7820769D02*
X7827840Y4117840D01*
X7806627Y4110769D02*
X7820769Y4096627D01*
X7795714Y4135824D02*
X7845824Y4085714D01*
X7880873Y4156731D02*
X7898857Y4138747D01*
X7789256Y4029146D02*
X7898857Y4138747D01*
X7783688Y4034713D02*
X7789256Y4029146D01*
X7848747Y4188857D02*
X7866731Y4170873D01*
X7739146Y4079256D02*
X7848747Y4188857D01*
X7739146Y4079256D02*
X7744713Y4073688D01*
X7880873Y4156731D02*
X7884409Y4160267D01*
X7902393Y4142283D01*
X7898857Y4138747D02*
X7902393Y4142283D01*
X7848747Y4188857D02*
X7852283Y4192393D01*
X7870267Y4174409D01*
X7866731Y4170873D02*
X7870267Y4174409D01*
X7806627Y4110769D02*
X7820769D01*
Y4096627D02*
Y4110769D01*
X7520769D02*
X7527840Y4117840D01*
X7506627Y4110769D02*
X7520769Y4096627D01*
X7495714Y4135824D02*
X7545824Y4085714D01*
X7580873Y4156731D02*
X7598857Y4138747D01*
X7489256Y4029146D02*
X7598857Y4138747D01*
X7483688Y4034713D02*
X7489256Y4029146D01*
X7548747Y4188857D02*
X7566731Y4170873D01*
X7439146Y4079256D02*
X7548747Y4188857D01*
X7439146Y4079256D02*
X7444713Y4073688D01*
X7580873Y4156731D02*
X7584409Y4160267D01*
X7602393Y4142283D01*
X7598857Y4138747D02*
X7602393Y4142283D01*
X7548747Y4188857D02*
X7552283Y4192393D01*
X7570267Y4174409D01*
X7566731Y4170873D02*
X7570267Y4174409D01*
X7506627Y4110769D02*
X7520769D01*
Y4096627D02*
Y4110769D01*
X7220769D02*
X7227840Y4117840D01*
X7206627Y4110769D02*
X7220769Y4096627D01*
X7195714Y4135824D02*
X7245824Y4085714D01*
X7280873Y4156731D02*
X7298857Y4138747D01*
X7189256Y4029146D02*
X7298857Y4138747D01*
X7183688Y4034713D02*
X7189256Y4029146D01*
X7248747Y4188857D02*
X7266731Y4170873D01*
X7139146Y4079256D02*
X7248747Y4188857D01*
X7139146Y4079256D02*
X7144713Y4073688D01*
X7280873Y4156731D02*
X7284409Y4160267D01*
X7302393Y4142283D01*
X7298857Y4138747D02*
X7302393Y4142283D01*
X7248747Y4188857D02*
X7252283Y4192393D01*
X7270267Y4174409D01*
X7266731Y4170873D02*
X7270267Y4174409D01*
X7206627Y4110769D02*
X7220769D01*
Y4096627D02*
Y4110769D01*
X6920769D02*
X6927840Y4117840D01*
X6906627Y4110769D02*
X6920769Y4096627D01*
X6895714Y4135824D02*
X6945824Y4085714D01*
X6980873Y4156731D02*
X6998857Y4138747D01*
X6889256Y4029146D02*
X6998857Y4138747D01*
X6883688Y4034713D02*
X6889256Y4029146D01*
X6948747Y4188857D02*
X6966731Y4170873D01*
X6839146Y4079256D02*
X6948747Y4188857D01*
X6839146Y4079256D02*
X6844713Y4073688D01*
X6980873Y4156731D02*
X6984409Y4160267D01*
X7002393Y4142283D01*
X6998857Y4138747D02*
X7002393Y4142283D01*
X6948747Y4188857D02*
X6952283Y4192393D01*
X6970267Y4174409D01*
X6966731Y4170873D02*
X6970267Y4174409D01*
X6906627Y4110769D02*
X6920769D01*
Y4096627D02*
Y4110769D01*
X6620769D02*
X6627840Y4117840D01*
X6606627Y4110769D02*
X6620769Y4096627D01*
X6595714Y4135824D02*
X6645824Y4085714D01*
X6680873Y4156731D02*
X6698857Y4138747D01*
X6589256Y4029146D02*
X6698857Y4138747D01*
X6583688Y4034713D02*
X6589256Y4029146D01*
X6648747Y4188857D02*
X6666731Y4170873D01*
X6539146Y4079256D02*
X6648747Y4188857D01*
X6539146Y4079256D02*
X6544713Y4073688D01*
X6680873Y4156731D02*
X6684409Y4160267D01*
X6702393Y4142283D01*
X6698857Y4138747D02*
X6702393Y4142283D01*
X6648747Y4188857D02*
X6652283Y4192393D01*
X6670267Y4174409D01*
X6666731Y4170873D02*
X6670267Y4174409D01*
X6606627Y4110769D02*
X6620769D01*
Y4096627D02*
Y4110769D01*
X6320769D02*
X6327840Y4117840D01*
X6306627Y4110769D02*
X6320769Y4096627D01*
X6295714Y4135824D02*
X6345824Y4085714D01*
X6380873Y4156731D02*
X6398857Y4138747D01*
X6289256Y4029146D02*
X6398857Y4138747D01*
X6283688Y4034713D02*
X6289256Y4029146D01*
X6348747Y4188857D02*
X6366731Y4170873D01*
X6239146Y4079256D02*
X6348747Y4188857D01*
X6239146Y4079256D02*
X6244713Y4073688D01*
X6380873Y4156731D02*
X6384409Y4160267D01*
X6402393Y4142283D01*
X6398857Y4138747D02*
X6402393Y4142283D01*
X6348747Y4188857D02*
X6352283Y4192393D01*
X6370267Y4174409D01*
X6366731Y4170873D02*
X6370267Y4174409D01*
X6306627Y4110769D02*
X6320769D01*
Y4096627D02*
Y4110769D01*
X6020769D02*
X6027840Y4117840D01*
X6006627Y4110769D02*
X6020769Y4096627D01*
X5995714Y4135824D02*
X6045824Y4085714D01*
X6080873Y4156731D02*
X6098857Y4138747D01*
X5989256Y4029146D02*
X6098857Y4138747D01*
X5983688Y4034713D02*
X5989256Y4029146D01*
X6048747Y4188857D02*
X6066731Y4170873D01*
X5939146Y4079256D02*
X6048747Y4188857D01*
X5939146Y4079256D02*
X5944713Y4073688D01*
X6080873Y4156731D02*
X6084409Y4160267D01*
X6102393Y4142283D01*
X6098857Y4138747D02*
X6102393Y4142283D01*
X6048747Y4188857D02*
X6052283Y4192393D01*
X6070267Y4174409D01*
X6066731Y4170873D02*
X6070267Y4174409D01*
X6006627Y4110769D02*
X6020769D01*
Y4096627D02*
Y4110769D01*
X5720769D02*
X5727840Y4117840D01*
X5706627Y4110769D02*
X5720769Y4096627D01*
X5695714Y4135824D02*
X5745824Y4085714D01*
X5780873Y4156731D02*
X5798857Y4138747D01*
X5689256Y4029146D02*
X5798857Y4138747D01*
X5683688Y4034713D02*
X5689256Y4029146D01*
X5748747Y4188857D02*
X5766731Y4170873D01*
X5639146Y4079256D02*
X5748747Y4188857D01*
X5639146Y4079256D02*
X5644713Y4073688D01*
X5780873Y4156731D02*
X5784409Y4160267D01*
X5802393Y4142283D01*
X5798857Y4138747D02*
X5802393Y4142283D01*
X5748747Y4188857D02*
X5752283Y4192393D01*
X5770267Y4174409D01*
X5766731Y4170873D02*
X5770267Y4174409D01*
X5706627Y4110769D02*
X5720769D01*
Y4096627D02*
Y4110769D01*
X5420769D02*
X5427840Y4117840D01*
X5406627Y4110769D02*
X5420769Y4096627D01*
X5395714Y4135824D02*
X5445824Y4085714D01*
X5480873Y4156731D02*
X5498857Y4138747D01*
X5389256Y4029146D02*
X5498857Y4138747D01*
X5383688Y4034713D02*
X5389256Y4029146D01*
X5448747Y4188857D02*
X5466731Y4170873D01*
X5339146Y4079256D02*
X5448747Y4188857D01*
X5339146Y4079256D02*
X5344713Y4073688D01*
X5480873Y4156731D02*
X5484409Y4160267D01*
X5502393Y4142283D01*
X5498857Y4138747D02*
X5502393Y4142283D01*
X5448747Y4188857D02*
X5452283Y4192393D01*
X5470267Y4174409D01*
X5466731Y4170873D02*
X5470267Y4174409D01*
X5406627Y4110769D02*
X5420769D01*
Y4096627D02*
Y4110769D01*
X5120769D02*
X5127840Y4117840D01*
X5106627Y4110769D02*
X5120769Y4096627D01*
X5095714Y4135824D02*
X5145824Y4085714D01*
X5180873Y4156731D02*
X5198857Y4138747D01*
X5089256Y4029146D02*
X5198857Y4138747D01*
X5083688Y4034713D02*
X5089256Y4029146D01*
X5148747Y4188857D02*
X5166731Y4170873D01*
X5039146Y4079256D02*
X5148747Y4188857D01*
X5039146Y4079256D02*
X5044713Y4073688D01*
X5180873Y4156731D02*
X5184409Y4160267D01*
X5202393Y4142283D01*
X5198857Y4138747D02*
X5202393Y4142283D01*
X5148747Y4188857D02*
X5152283Y4192393D01*
X5170267Y4174409D01*
X5166731Y4170873D02*
X5170267Y4174409D01*
X5106627Y4110769D02*
X5120769D01*
Y4096627D02*
Y4110769D01*
X4820769D02*
X4827840Y4117840D01*
X4806627Y4110769D02*
X4820769Y4096627D01*
X4795714Y4135824D02*
X4845824Y4085714D01*
X4880873Y4156731D02*
X4898857Y4138747D01*
X4789256Y4029146D02*
X4898857Y4138747D01*
X4783688Y4034713D02*
X4789256Y4029146D01*
X4848747Y4188857D02*
X4866731Y4170873D01*
X4739146Y4079256D02*
X4848747Y4188857D01*
X4739146Y4079256D02*
X4744713Y4073688D01*
X4880873Y4156731D02*
X4884409Y4160267D01*
X4902393Y4142283D01*
X4898857Y4138747D02*
X4902393Y4142283D01*
X4848747Y4188857D02*
X4852283Y4192393D01*
X4870267Y4174409D01*
X4866731Y4170873D02*
X4870267Y4174409D01*
X4806627Y4110769D02*
X4820769D01*
Y4096627D02*
Y4110769D01*
X4520769D02*
X4527840Y4117840D01*
X4506627Y4110769D02*
X4520769Y4096627D01*
X4495714Y4135824D02*
X4545824Y4085714D01*
X4580873Y4156731D02*
X4598857Y4138747D01*
X4489256Y4029146D02*
X4598857Y4138747D01*
X4483688Y4034713D02*
X4489256Y4029146D01*
X4548747Y4188857D02*
X4566731Y4170873D01*
X4439146Y4079256D02*
X4548747Y4188857D01*
X4439146Y4079256D02*
X4444713Y4073688D01*
X4580873Y4156731D02*
X4584409Y4160267D01*
X4602393Y4142283D01*
X4598857Y4138747D02*
X4602393Y4142283D01*
X4548747Y4188857D02*
X4552283Y4192393D01*
X4570267Y4174409D01*
X4566731Y4170873D02*
X4570267Y4174409D01*
X4506627Y4110769D02*
X4520769D01*
Y4096627D02*
Y4110769D01*
X8720769Y3910769D02*
X8727840Y3917840D01*
X8706627Y3910769D02*
X8720769Y3896627D01*
X8695714Y3935824D02*
X8745824Y3885714D01*
X8780873Y3956731D02*
X8798857Y3938747D01*
X8689256Y3829146D02*
X8798857Y3938747D01*
X8683688Y3834713D02*
X8689256Y3829146D01*
X8748747Y3988857D02*
X8766731Y3970873D01*
X8639146Y3879256D02*
X8748747Y3988857D01*
X8639146Y3879256D02*
X8644713Y3873688D01*
X8780873Y3956731D02*
X8784409Y3960267D01*
X8802393Y3942283D01*
X8798857Y3938747D02*
X8802393Y3942283D01*
X8748747Y3988857D02*
X8752283Y3992393D01*
X8770267Y3974409D01*
X8766731Y3970873D02*
X8770267Y3974409D01*
X8706627Y3910769D02*
X8720769D01*
Y3896627D02*
Y3910769D01*
X8420769D02*
X8427840Y3917840D01*
X8406627Y3910769D02*
X8420769Y3896627D01*
X8395714Y3935824D02*
X8445824Y3885714D01*
X8480873Y3956731D02*
X8498857Y3938747D01*
X8389256Y3829146D02*
X8498857Y3938747D01*
X8383688Y3834713D02*
X8389256Y3829146D01*
X8448747Y3988857D02*
X8466731Y3970873D01*
X8339146Y3879256D02*
X8448747Y3988857D01*
X8339146Y3879256D02*
X8344713Y3873688D01*
X8480873Y3956731D02*
X8484409Y3960267D01*
X8502393Y3942283D01*
X8498857Y3938747D02*
X8502393Y3942283D01*
X8448747Y3988857D02*
X8452283Y3992393D01*
X8470267Y3974409D01*
X8466731Y3970873D02*
X8470267Y3974409D01*
X8406627Y3910769D02*
X8420769D01*
Y3896627D02*
Y3910769D01*
X8120769D02*
X8127840Y3917840D01*
X8106627Y3910769D02*
X8120769Y3896627D01*
X8095714Y3935824D02*
X8145824Y3885714D01*
X8180873Y3956731D02*
X8198857Y3938747D01*
X8089256Y3829146D02*
X8198857Y3938747D01*
X8083688Y3834713D02*
X8089256Y3829146D01*
X8148747Y3988857D02*
X8166731Y3970873D01*
X8039146Y3879256D02*
X8148747Y3988857D01*
X8039146Y3879256D02*
X8044713Y3873688D01*
X8180873Y3956731D02*
X8184409Y3960267D01*
X8202393Y3942283D01*
X8198857Y3938747D02*
X8202393Y3942283D01*
X8148747Y3988857D02*
X8152283Y3992393D01*
X8170267Y3974409D01*
X8166731Y3970873D02*
X8170267Y3974409D01*
X8106627Y3910769D02*
X8120769D01*
Y3896627D02*
Y3910769D01*
X7820769D02*
X7827840Y3917840D01*
X7806627Y3910769D02*
X7820769Y3896627D01*
X7795714Y3935824D02*
X7845824Y3885714D01*
X7880873Y3956731D02*
X7898857Y3938747D01*
X7789256Y3829146D02*
X7898857Y3938747D01*
X7783688Y3834713D02*
X7789256Y3829146D01*
X7848747Y3988857D02*
X7866731Y3970873D01*
X7739146Y3879256D02*
X7848747Y3988857D01*
X7739146Y3879256D02*
X7744713Y3873688D01*
X7880873Y3956731D02*
X7884409Y3960267D01*
X7902393Y3942283D01*
X7898857Y3938747D02*
X7902393Y3942283D01*
X7848747Y3988857D02*
X7852283Y3992393D01*
X7870267Y3974409D01*
X7866731Y3970873D02*
X7870267Y3974409D01*
X7806627Y3910769D02*
X7820769D01*
Y3896627D02*
Y3910769D01*
X7520769D02*
X7527840Y3917840D01*
X7506627Y3910769D02*
X7520769Y3896627D01*
X7495714Y3935824D02*
X7545824Y3885714D01*
X7580873Y3956731D02*
X7598857Y3938747D01*
X7489256Y3829146D02*
X7598857Y3938747D01*
X7483688Y3834713D02*
X7489256Y3829146D01*
X7548747Y3988857D02*
X7566731Y3970873D01*
X7439146Y3879256D02*
X7548747Y3988857D01*
X7439146Y3879256D02*
X7444713Y3873688D01*
X7580873Y3956731D02*
X7584409Y3960267D01*
X7602393Y3942283D01*
X7598857Y3938747D02*
X7602393Y3942283D01*
X7548747Y3988857D02*
X7552283Y3992393D01*
X7570267Y3974409D01*
X7566731Y3970873D02*
X7570267Y3974409D01*
X7506627Y3910769D02*
X7520769D01*
Y3896627D02*
Y3910769D01*
X7220769D02*
X7227840Y3917840D01*
X7206627Y3910769D02*
X7220769Y3896627D01*
X7195714Y3935824D02*
X7245824Y3885714D01*
X7280873Y3956731D02*
X7298857Y3938747D01*
X7189256Y3829146D02*
X7298857Y3938747D01*
X7183688Y3834713D02*
X7189256Y3829146D01*
X7248747Y3988857D02*
X7266731Y3970873D01*
X7139146Y3879256D02*
X7248747Y3988857D01*
X7139146Y3879256D02*
X7144713Y3873688D01*
X7280873Y3956731D02*
X7284409Y3960267D01*
X7302393Y3942283D01*
X7298857Y3938747D02*
X7302393Y3942283D01*
X7248747Y3988857D02*
X7252283Y3992393D01*
X7270267Y3974409D01*
X7266731Y3970873D02*
X7270267Y3974409D01*
X7206627Y3910769D02*
X7220769D01*
Y3896627D02*
Y3910769D01*
X6920769D02*
X6927840Y3917840D01*
X6906627Y3910769D02*
X6920769Y3896627D01*
X6895714Y3935824D02*
X6945824Y3885714D01*
X6980873Y3956731D02*
X6998857Y3938747D01*
X6889256Y3829146D02*
X6998857Y3938747D01*
X6883688Y3834713D02*
X6889256Y3829146D01*
X6948747Y3988857D02*
X6966731Y3970873D01*
X6839146Y3879256D02*
X6948747Y3988857D01*
X6839146Y3879256D02*
X6844713Y3873688D01*
X6980873Y3956731D02*
X6984409Y3960267D01*
X7002393Y3942283D01*
X6998857Y3938747D02*
X7002393Y3942283D01*
X6948747Y3988857D02*
X6952283Y3992393D01*
X6970267Y3974409D01*
X6966731Y3970873D02*
X6970267Y3974409D01*
X6906627Y3910769D02*
X6920769D01*
Y3896627D02*
Y3910769D01*
X6620769D02*
X6627840Y3917840D01*
X6606627Y3910769D02*
X6620769Y3896627D01*
X6595714Y3935824D02*
X6645824Y3885714D01*
X6680873Y3956731D02*
X6698857Y3938747D01*
X6589256Y3829146D02*
X6698857Y3938747D01*
X6583688Y3834713D02*
X6589256Y3829146D01*
X6648747Y3988857D02*
X6666731Y3970873D01*
X6539146Y3879256D02*
X6648747Y3988857D01*
X6539146Y3879256D02*
X6544713Y3873688D01*
X6680873Y3956731D02*
X6684409Y3960267D01*
X6702393Y3942283D01*
X6698857Y3938747D02*
X6702393Y3942283D01*
X6648747Y3988857D02*
X6652283Y3992393D01*
X6670267Y3974409D01*
X6666731Y3970873D02*
X6670267Y3974409D01*
X6606627Y3910769D02*
X6620769D01*
Y3896627D02*
Y3910769D01*
X6320769D02*
X6327840Y3917840D01*
X6306627Y3910769D02*
X6320769Y3896627D01*
X6295714Y3935824D02*
X6345824Y3885714D01*
X6380873Y3956731D02*
X6398857Y3938747D01*
X6289256Y3829146D02*
X6398857Y3938747D01*
X6283688Y3834713D02*
X6289256Y3829146D01*
X6348747Y3988857D02*
X6366731Y3970873D01*
X6239146Y3879256D02*
X6348747Y3988857D01*
X6239146Y3879256D02*
X6244713Y3873688D01*
X6380873Y3956731D02*
X6384409Y3960267D01*
X6402393Y3942283D01*
X6398857Y3938747D02*
X6402393Y3942283D01*
X6348747Y3988857D02*
X6352283Y3992393D01*
X6370267Y3974409D01*
X6366731Y3970873D02*
X6370267Y3974409D01*
X6306627Y3910769D02*
X6320769D01*
Y3896627D02*
Y3910769D01*
X6020769D02*
X6027840Y3917840D01*
X6006627Y3910769D02*
X6020769Y3896627D01*
X5995714Y3935824D02*
X6045824Y3885714D01*
X6080873Y3956731D02*
X6098857Y3938747D01*
X5989256Y3829146D02*
X6098857Y3938747D01*
X5983688Y3834713D02*
X5989256Y3829146D01*
X6048747Y3988857D02*
X6066731Y3970873D01*
X5939146Y3879256D02*
X6048747Y3988857D01*
X5939146Y3879256D02*
X5944713Y3873688D01*
X6080873Y3956731D02*
X6084409Y3960267D01*
X6102393Y3942283D01*
X6098857Y3938747D02*
X6102393Y3942283D01*
X6048747Y3988857D02*
X6052283Y3992393D01*
X6070267Y3974409D01*
X6066731Y3970873D02*
X6070267Y3974409D01*
X6006627Y3910769D02*
X6020769D01*
Y3896627D02*
Y3910769D01*
X5720769D02*
X5727840Y3917840D01*
X5706627Y3910769D02*
X5720769Y3896627D01*
X5695714Y3935824D02*
X5745824Y3885714D01*
X5780873Y3956731D02*
X5798857Y3938747D01*
X5689256Y3829146D02*
X5798857Y3938747D01*
X5683688Y3834713D02*
X5689256Y3829146D01*
X5748747Y3988857D02*
X5766731Y3970873D01*
X5639146Y3879256D02*
X5748747Y3988857D01*
X5639146Y3879256D02*
X5644713Y3873688D01*
X5780873Y3956731D02*
X5784409Y3960267D01*
X5802393Y3942283D01*
X5798857Y3938747D02*
X5802393Y3942283D01*
X5748747Y3988857D02*
X5752283Y3992393D01*
X5770267Y3974409D01*
X5766731Y3970873D02*
X5770267Y3974409D01*
X5706627Y3910769D02*
X5720769D01*
Y3896627D02*
Y3910769D01*
X5420769D02*
X5427840Y3917840D01*
X5406627Y3910769D02*
X5420769Y3896627D01*
X5395714Y3935824D02*
X5445824Y3885714D01*
X5480873Y3956731D02*
X5498857Y3938747D01*
X5389256Y3829146D02*
X5498857Y3938747D01*
X5383688Y3834713D02*
X5389256Y3829146D01*
X5448747Y3988857D02*
X5466731Y3970873D01*
X5339146Y3879256D02*
X5448747Y3988857D01*
X5339146Y3879256D02*
X5344713Y3873688D01*
X5480873Y3956731D02*
X5484409Y3960267D01*
X5502393Y3942283D01*
X5498857Y3938747D02*
X5502393Y3942283D01*
X5448747Y3988857D02*
X5452283Y3992393D01*
X5470267Y3974409D01*
X5466731Y3970873D02*
X5470267Y3974409D01*
X5406627Y3910769D02*
X5420769D01*
Y3896627D02*
Y3910769D01*
X5120769D02*
X5127840Y3917840D01*
X5106627Y3910769D02*
X5120769Y3896627D01*
X5095714Y3935824D02*
X5145824Y3885714D01*
X5180873Y3956731D02*
X5198857Y3938747D01*
X5089256Y3829146D02*
X5198857Y3938747D01*
X5083688Y3834713D02*
X5089256Y3829146D01*
X5148747Y3988857D02*
X5166731Y3970873D01*
X5039146Y3879256D02*
X5148747Y3988857D01*
X5039146Y3879256D02*
X5044713Y3873688D01*
X5180873Y3956731D02*
X5184409Y3960267D01*
X5202393Y3942283D01*
X5198857Y3938747D02*
X5202393Y3942283D01*
X5148747Y3988857D02*
X5152283Y3992393D01*
X5170267Y3974409D01*
X5166731Y3970873D02*
X5170267Y3974409D01*
X5106627Y3910769D02*
X5120769D01*
Y3896627D02*
Y3910769D01*
X4820769D02*
X4827840Y3917840D01*
X4806627Y3910769D02*
X4820769Y3896627D01*
X4795714Y3935824D02*
X4845824Y3885714D01*
X4880873Y3956731D02*
X4898857Y3938747D01*
X4789256Y3829146D02*
X4898857Y3938747D01*
X4783688Y3834713D02*
X4789256Y3829146D01*
X4848747Y3988857D02*
X4866731Y3970873D01*
X4739146Y3879256D02*
X4848747Y3988857D01*
X4739146Y3879256D02*
X4744713Y3873688D01*
X4880873Y3956731D02*
X4884409Y3960267D01*
X4902393Y3942283D01*
X4898857Y3938747D02*
X4902393Y3942283D01*
X4848747Y3988857D02*
X4852283Y3992393D01*
X4870267Y3974409D01*
X4866731Y3970873D02*
X4870267Y3974409D01*
X4806627Y3910769D02*
X4820769D01*
Y3896627D02*
Y3910769D01*
X4520769D02*
X4527840Y3917840D01*
X4506627Y3910769D02*
X4520769Y3896627D01*
X4495714Y3935824D02*
X4545824Y3885714D01*
X4580873Y3956731D02*
X4598857Y3938747D01*
X4489256Y3829146D02*
X4598857Y3938747D01*
X4483688Y3834713D02*
X4489256Y3829146D01*
X4548747Y3988857D02*
X4566731Y3970873D01*
X4439146Y3879256D02*
X4548747Y3988857D01*
X4439146Y3879256D02*
X4444713Y3873688D01*
X4580873Y3956731D02*
X4584409Y3960267D01*
X4602393Y3942283D01*
X4598857Y3938747D02*
X4602393Y3942283D01*
X4548747Y3988857D02*
X4552283Y3992393D01*
X4570267Y3974409D01*
X4566731Y3970873D02*
X4570267Y3974409D01*
X4506627Y3910769D02*
X4520769D01*
Y3896627D02*
Y3910769D01*
X8720769Y3710769D02*
X8727840Y3717840D01*
X8706627Y3710769D02*
X8720769Y3696627D01*
X8695714Y3735824D02*
X8745824Y3685714D01*
X8780873Y3756731D02*
X8798857Y3738747D01*
X8689256Y3629146D02*
X8798857Y3738747D01*
X8683688Y3634713D02*
X8689256Y3629146D01*
X8748747Y3788857D02*
X8766731Y3770873D01*
X8639146Y3679256D02*
X8748747Y3788857D01*
X8639146Y3679256D02*
X8644713Y3673688D01*
X8780873Y3756731D02*
X8784409Y3760267D01*
X8802393Y3742283D01*
X8798857Y3738747D02*
X8802393Y3742283D01*
X8748747Y3788857D02*
X8752283Y3792393D01*
X8770267Y3774409D01*
X8766731Y3770873D02*
X8770267Y3774409D01*
X8706627Y3710769D02*
X8720769D01*
Y3696627D02*
Y3710769D01*
X8420769D02*
X8427840Y3717840D01*
X8406627Y3710769D02*
X8420769Y3696627D01*
X8395714Y3735824D02*
X8445824Y3685714D01*
X8480873Y3756731D02*
X8498857Y3738747D01*
X8389256Y3629146D02*
X8498857Y3738747D01*
X8383688Y3634713D02*
X8389256Y3629146D01*
X8448747Y3788857D02*
X8466731Y3770873D01*
X8339146Y3679256D02*
X8448747Y3788857D01*
X8339146Y3679256D02*
X8344713Y3673688D01*
X8480873Y3756731D02*
X8484409Y3760267D01*
X8502393Y3742283D01*
X8498857Y3738747D02*
X8502393Y3742283D01*
X8448747Y3788857D02*
X8452283Y3792393D01*
X8470267Y3774409D01*
X8466731Y3770873D02*
X8470267Y3774409D01*
X8406627Y3710769D02*
X8420769D01*
Y3696627D02*
Y3710769D01*
X8120769D02*
X8127840Y3717840D01*
X8106627Y3710769D02*
X8120769Y3696627D01*
X8095714Y3735824D02*
X8145824Y3685714D01*
X8180873Y3756731D02*
X8198857Y3738747D01*
X8089256Y3629146D02*
X8198857Y3738747D01*
X8083688Y3634713D02*
X8089256Y3629146D01*
X8148747Y3788857D02*
X8166731Y3770873D01*
X8039146Y3679256D02*
X8148747Y3788857D01*
X8039146Y3679256D02*
X8044713Y3673688D01*
X8180873Y3756731D02*
X8184409Y3760267D01*
X8202393Y3742283D01*
X8198857Y3738747D02*
X8202393Y3742283D01*
X8148747Y3788857D02*
X8152283Y3792393D01*
X8170267Y3774409D01*
X8166731Y3770873D02*
X8170267Y3774409D01*
X8106627Y3710769D02*
X8120769D01*
Y3696627D02*
Y3710769D01*
X7820769D02*
X7827840Y3717840D01*
X7806627Y3710769D02*
X7820769Y3696627D01*
X7795714Y3735824D02*
X7845824Y3685714D01*
X7880873Y3756731D02*
X7898857Y3738747D01*
X7789256Y3629146D02*
X7898857Y3738747D01*
X7783688Y3634713D02*
X7789256Y3629146D01*
X7848747Y3788857D02*
X7866731Y3770873D01*
X7739146Y3679256D02*
X7848747Y3788857D01*
X7739146Y3679256D02*
X7744713Y3673688D01*
X7880873Y3756731D02*
X7884409Y3760267D01*
X7902393Y3742283D01*
X7898857Y3738747D02*
X7902393Y3742283D01*
X7848747Y3788857D02*
X7852283Y3792393D01*
X7870267Y3774409D01*
X7866731Y3770873D02*
X7870267Y3774409D01*
X7806627Y3710769D02*
X7820769D01*
Y3696627D02*
Y3710769D01*
X7520769D02*
X7527840Y3717840D01*
X7506627Y3710769D02*
X7520769Y3696627D01*
X7495714Y3735824D02*
X7545824Y3685714D01*
X7580873Y3756731D02*
X7598857Y3738747D01*
X7489256Y3629146D02*
X7598857Y3738747D01*
X7483688Y3634713D02*
X7489256Y3629146D01*
X7548747Y3788857D02*
X7566731Y3770873D01*
X7439146Y3679256D02*
X7548747Y3788857D01*
X7439146Y3679256D02*
X7444713Y3673688D01*
X7580873Y3756731D02*
X7584409Y3760267D01*
X7602393Y3742283D01*
X7598857Y3738747D02*
X7602393Y3742283D01*
X7548747Y3788857D02*
X7552283Y3792393D01*
X7570267Y3774409D01*
X7566731Y3770873D02*
X7570267Y3774409D01*
X7506627Y3710769D02*
X7520769D01*
Y3696627D02*
Y3710769D01*
X7220769D02*
X7227840Y3717840D01*
X7206627Y3710769D02*
X7220769Y3696627D01*
X7195714Y3735824D02*
X7245824Y3685714D01*
X7280873Y3756731D02*
X7298857Y3738747D01*
X7189256Y3629146D02*
X7298857Y3738747D01*
X7183688Y3634713D02*
X7189256Y3629146D01*
X7248747Y3788857D02*
X7266731Y3770873D01*
X7139146Y3679256D02*
X7248747Y3788857D01*
X7139146Y3679256D02*
X7144713Y3673688D01*
X7280873Y3756731D02*
X7284409Y3760267D01*
X7302393Y3742283D01*
X7298857Y3738747D02*
X7302393Y3742283D01*
X7248747Y3788857D02*
X7252283Y3792393D01*
X7270267Y3774409D01*
X7266731Y3770873D02*
X7270267Y3774409D01*
X7206627Y3710769D02*
X7220769D01*
Y3696627D02*
Y3710769D01*
X6920769D02*
X6927840Y3717840D01*
X6906627Y3710769D02*
X6920769Y3696627D01*
X6895714Y3735824D02*
X6945824Y3685714D01*
X6980873Y3756731D02*
X6998857Y3738747D01*
X6889256Y3629146D02*
X6998857Y3738747D01*
X6883688Y3634713D02*
X6889256Y3629146D01*
X6948747Y3788857D02*
X6966731Y3770873D01*
X6839146Y3679256D02*
X6948747Y3788857D01*
X6839146Y3679256D02*
X6844713Y3673688D01*
X6980873Y3756731D02*
X6984409Y3760267D01*
X7002393Y3742283D01*
X6998857Y3738747D02*
X7002393Y3742283D01*
X6948747Y3788857D02*
X6952283Y3792393D01*
X6970267Y3774409D01*
X6966731Y3770873D02*
X6970267Y3774409D01*
X6906627Y3710769D02*
X6920769D01*
Y3696627D02*
Y3710769D01*
X6620769D02*
X6627840Y3717840D01*
X6606627Y3710769D02*
X6620769Y3696627D01*
X6595714Y3735824D02*
X6645824Y3685714D01*
X6680873Y3756731D02*
X6698857Y3738747D01*
X6589256Y3629146D02*
X6698857Y3738747D01*
X6583688Y3634713D02*
X6589256Y3629146D01*
X6648747Y3788857D02*
X6666731Y3770873D01*
X6539146Y3679256D02*
X6648747Y3788857D01*
X6539146Y3679256D02*
X6544713Y3673688D01*
X6680873Y3756731D02*
X6684409Y3760267D01*
X6702393Y3742283D01*
X6698857Y3738747D02*
X6702393Y3742283D01*
X6648747Y3788857D02*
X6652283Y3792393D01*
X6670267Y3774409D01*
X6666731Y3770873D02*
X6670267Y3774409D01*
X6606627Y3710769D02*
X6620769D01*
Y3696627D02*
Y3710769D01*
X6320769D02*
X6327840Y3717840D01*
X6306627Y3710769D02*
X6320769Y3696627D01*
X6295714Y3735824D02*
X6345824Y3685714D01*
X6380873Y3756731D02*
X6398857Y3738747D01*
X6289256Y3629146D02*
X6398857Y3738747D01*
X6283688Y3634713D02*
X6289256Y3629146D01*
X6348747Y3788857D02*
X6366731Y3770873D01*
X6239146Y3679256D02*
X6348747Y3788857D01*
X6239146Y3679256D02*
X6244713Y3673688D01*
X6380873Y3756731D02*
X6384409Y3760267D01*
X6402393Y3742283D01*
X6398857Y3738747D02*
X6402393Y3742283D01*
X6348747Y3788857D02*
X6352283Y3792393D01*
X6370267Y3774409D01*
X6366731Y3770873D02*
X6370267Y3774409D01*
X6306627Y3710769D02*
X6320769D01*
Y3696627D02*
Y3710769D01*
X6020769D02*
X6027840Y3717840D01*
X6006627Y3710769D02*
X6020769Y3696627D01*
X5995714Y3735824D02*
X6045824Y3685714D01*
X6080873Y3756731D02*
X6098857Y3738747D01*
X5989256Y3629146D02*
X6098857Y3738747D01*
X5983688Y3634713D02*
X5989256Y3629146D01*
X6048747Y3788857D02*
X6066731Y3770873D01*
X5939146Y3679256D02*
X6048747Y3788857D01*
X5939146Y3679256D02*
X5944713Y3673688D01*
X6080873Y3756731D02*
X6084409Y3760267D01*
X6102393Y3742283D01*
X6098857Y3738747D02*
X6102393Y3742283D01*
X6048747Y3788857D02*
X6052283Y3792393D01*
X6070267Y3774409D01*
X6066731Y3770873D02*
X6070267Y3774409D01*
X6006627Y3710769D02*
X6020769D01*
Y3696627D02*
Y3710769D01*
X5720769D02*
X5727840Y3717840D01*
X5706627Y3710769D02*
X5720769Y3696627D01*
X5695714Y3735824D02*
X5745824Y3685714D01*
X5780873Y3756731D02*
X5798857Y3738747D01*
X5689256Y3629146D02*
X5798857Y3738747D01*
X5683688Y3634713D02*
X5689256Y3629146D01*
X5748747Y3788857D02*
X5766731Y3770873D01*
X5639146Y3679256D02*
X5748747Y3788857D01*
X5639146Y3679256D02*
X5644713Y3673688D01*
X5780873Y3756731D02*
X5784409Y3760267D01*
X5802393Y3742283D01*
X5798857Y3738747D02*
X5802393Y3742283D01*
X5748747Y3788857D02*
X5752283Y3792393D01*
X5770267Y3774409D01*
X5766731Y3770873D02*
X5770267Y3774409D01*
X5706627Y3710769D02*
X5720769D01*
Y3696627D02*
Y3710769D01*
X5420769D02*
X5427840Y3717840D01*
X5406627Y3710769D02*
X5420769Y3696627D01*
X5395714Y3735824D02*
X5445824Y3685714D01*
X5480873Y3756731D02*
X5498857Y3738747D01*
X5389256Y3629146D02*
X5498857Y3738747D01*
X5383688Y3634713D02*
X5389256Y3629146D01*
X5448747Y3788857D02*
X5466731Y3770873D01*
X5339146Y3679256D02*
X5448747Y3788857D01*
X5339146Y3679256D02*
X5344713Y3673688D01*
X5480873Y3756731D02*
X5484409Y3760267D01*
X5502393Y3742283D01*
X5498857Y3738747D02*
X5502393Y3742283D01*
X5448747Y3788857D02*
X5452283Y3792393D01*
X5470267Y3774409D01*
X5466731Y3770873D02*
X5470267Y3774409D01*
X5406627Y3710769D02*
X5420769D01*
Y3696627D02*
Y3710769D01*
X5120769D02*
X5127840Y3717840D01*
X5106627Y3710769D02*
X5120769Y3696627D01*
X5095714Y3735824D02*
X5145824Y3685714D01*
X5180873Y3756731D02*
X5198857Y3738747D01*
X5089256Y3629146D02*
X5198857Y3738747D01*
X5083688Y3634713D02*
X5089256Y3629146D01*
X5148747Y3788857D02*
X5166731Y3770873D01*
X5039146Y3679256D02*
X5148747Y3788857D01*
X5039146Y3679256D02*
X5044713Y3673688D01*
X5180873Y3756731D02*
X5184409Y3760267D01*
X5202393Y3742283D01*
X5198857Y3738747D02*
X5202393Y3742283D01*
X5148747Y3788857D02*
X5152283Y3792393D01*
X5170267Y3774409D01*
X5166731Y3770873D02*
X5170267Y3774409D01*
X5106627Y3710769D02*
X5120769D01*
Y3696627D02*
Y3710769D01*
X4820769D02*
X4827840Y3717840D01*
X4806627Y3710769D02*
X4820769Y3696627D01*
X4795714Y3735824D02*
X4845824Y3685714D01*
X4880873Y3756731D02*
X4898857Y3738747D01*
X4789256Y3629146D02*
X4898857Y3738747D01*
X4783688Y3634713D02*
X4789256Y3629146D01*
X4848747Y3788857D02*
X4866731Y3770873D01*
X4739146Y3679256D02*
X4848747Y3788857D01*
X4739146Y3679256D02*
X4744713Y3673688D01*
X4880873Y3756731D02*
X4884409Y3760267D01*
X4902393Y3742283D01*
X4898857Y3738747D02*
X4902393Y3742283D01*
X4848747Y3788857D02*
X4852283Y3792393D01*
X4870267Y3774409D01*
X4866731Y3770873D02*
X4870267Y3774409D01*
X4806627Y3710769D02*
X4820769D01*
Y3696627D02*
Y3710769D01*
X4520769D02*
X4527840Y3717840D01*
X4506627Y3710769D02*
X4520769Y3696627D01*
X4495714Y3735824D02*
X4545824Y3685714D01*
X4580873Y3756731D02*
X4598857Y3738747D01*
X4489256Y3629146D02*
X4598857Y3738747D01*
X4483688Y3634713D02*
X4489256Y3629146D01*
X4548747Y3788857D02*
X4566731Y3770873D01*
X4439146Y3679256D02*
X4548747Y3788857D01*
X4439146Y3679256D02*
X4444713Y3673688D01*
X4580873Y3756731D02*
X4584409Y3760267D01*
X4602393Y3742283D01*
X4598857Y3738747D02*
X4602393Y3742283D01*
X4548747Y3788857D02*
X4552283Y3792393D01*
X4570267Y3774409D01*
X4566731Y3770873D02*
X4570267Y3774409D01*
X4506627Y3710769D02*
X4520769D01*
Y3696627D02*
Y3710769D01*
X8720769Y3510769D02*
X8727840Y3517840D01*
X8706627Y3510769D02*
X8720769Y3496627D01*
X8695714Y3535824D02*
X8745824Y3485714D01*
X8780873Y3556731D02*
X8798857Y3538747D01*
X8689256Y3429146D02*
X8798857Y3538747D01*
X8683688Y3434713D02*
X8689256Y3429146D01*
X8748747Y3588857D02*
X8766731Y3570873D01*
X8639146Y3479256D02*
X8748747Y3588857D01*
X8639146Y3479256D02*
X8644713Y3473688D01*
X8780873Y3556731D02*
X8784409Y3560267D01*
X8802393Y3542283D01*
X8798857Y3538747D02*
X8802393Y3542283D01*
X8748747Y3588857D02*
X8752283Y3592393D01*
X8770267Y3574409D01*
X8766731Y3570873D02*
X8770267Y3574409D01*
X8706627Y3510769D02*
X8720769D01*
Y3496627D02*
Y3510769D01*
X8420769D02*
X8427840Y3517840D01*
X8406627Y3510769D02*
X8420769Y3496627D01*
X8395714Y3535824D02*
X8445824Y3485714D01*
X8480873Y3556731D02*
X8498857Y3538747D01*
X8389256Y3429146D02*
X8498857Y3538747D01*
X8383688Y3434713D02*
X8389256Y3429146D01*
X8448747Y3588857D02*
X8466731Y3570873D01*
X8339146Y3479256D02*
X8448747Y3588857D01*
X8339146Y3479256D02*
X8344713Y3473688D01*
X8480873Y3556731D02*
X8484409Y3560267D01*
X8502393Y3542283D01*
X8498857Y3538747D02*
X8502393Y3542283D01*
X8448747Y3588857D02*
X8452283Y3592393D01*
X8470267Y3574409D01*
X8466731Y3570873D02*
X8470267Y3574409D01*
X8406627Y3510769D02*
X8420769D01*
Y3496627D02*
Y3510769D01*
X8120769D02*
X8127840Y3517840D01*
X8106627Y3510769D02*
X8120769Y3496627D01*
X8095714Y3535824D02*
X8145824Y3485714D01*
X8180873Y3556731D02*
X8198857Y3538747D01*
X8089256Y3429146D02*
X8198857Y3538747D01*
X8083688Y3434713D02*
X8089256Y3429146D01*
X8148747Y3588857D02*
X8166731Y3570873D01*
X8039146Y3479256D02*
X8148747Y3588857D01*
X8039146Y3479256D02*
X8044713Y3473688D01*
X8180873Y3556731D02*
X8184409Y3560267D01*
X8202393Y3542283D01*
X8198857Y3538747D02*
X8202393Y3542283D01*
X8148747Y3588857D02*
X8152283Y3592393D01*
X8170267Y3574409D01*
X8166731Y3570873D02*
X8170267Y3574409D01*
X8106627Y3510769D02*
X8120769D01*
Y3496627D02*
Y3510769D01*
X7820769D02*
X7827840Y3517840D01*
X7806627Y3510769D02*
X7820769Y3496627D01*
X7795714Y3535824D02*
X7845824Y3485714D01*
X7880873Y3556731D02*
X7898857Y3538747D01*
X7789256Y3429146D02*
X7898857Y3538747D01*
X7783688Y3434713D02*
X7789256Y3429146D01*
X7848747Y3588857D02*
X7866731Y3570873D01*
X7739146Y3479256D02*
X7848747Y3588857D01*
X7739146Y3479256D02*
X7744713Y3473688D01*
X7880873Y3556731D02*
X7884409Y3560267D01*
X7902393Y3542283D01*
X7898857Y3538747D02*
X7902393Y3542283D01*
X7848747Y3588857D02*
X7852283Y3592393D01*
X7870267Y3574409D01*
X7866731Y3570873D02*
X7870267Y3574409D01*
X7806627Y3510769D02*
X7820769D01*
Y3496627D02*
Y3510769D01*
X7520769D02*
X7527840Y3517840D01*
X7506627Y3510769D02*
X7520769Y3496627D01*
X7495714Y3535824D02*
X7545824Y3485714D01*
X7580873Y3556731D02*
X7598857Y3538747D01*
X7489256Y3429146D02*
X7598857Y3538747D01*
X7483688Y3434713D02*
X7489256Y3429146D01*
X7548747Y3588857D02*
X7566731Y3570873D01*
X7439146Y3479256D02*
X7548747Y3588857D01*
X7439146Y3479256D02*
X7444713Y3473688D01*
X7580873Y3556731D02*
X7584409Y3560267D01*
X7602393Y3542283D01*
X7598857Y3538747D02*
X7602393Y3542283D01*
X7548747Y3588857D02*
X7552283Y3592393D01*
X7570267Y3574409D01*
X7566731Y3570873D02*
X7570267Y3574409D01*
X7506627Y3510769D02*
X7520769D01*
Y3496627D02*
Y3510769D01*
X7220769D02*
X7227840Y3517840D01*
X7206627Y3510769D02*
X7220769Y3496627D01*
X7195714Y3535824D02*
X7245824Y3485714D01*
X7280873Y3556731D02*
X7298857Y3538747D01*
X7189256Y3429146D02*
X7298857Y3538747D01*
X7183688Y3434713D02*
X7189256Y3429146D01*
X7248747Y3588857D02*
X7266731Y3570873D01*
X7139146Y3479256D02*
X7248747Y3588857D01*
X7139146Y3479256D02*
X7144713Y3473688D01*
X7280873Y3556731D02*
X7284409Y3560267D01*
X7302393Y3542283D01*
X7298857Y3538747D02*
X7302393Y3542283D01*
X7248747Y3588857D02*
X7252283Y3592393D01*
X7270267Y3574409D01*
X7266731Y3570873D02*
X7270267Y3574409D01*
X7206627Y3510769D02*
X7220769D01*
Y3496627D02*
Y3510769D01*
X6920769D02*
X6927840Y3517840D01*
X6906627Y3510769D02*
X6920769Y3496627D01*
X6895714Y3535824D02*
X6945824Y3485714D01*
X6980873Y3556731D02*
X6998857Y3538747D01*
X6889256Y3429146D02*
X6998857Y3538747D01*
X6883688Y3434713D02*
X6889256Y3429146D01*
X6948747Y3588857D02*
X6966731Y3570873D01*
X6839146Y3479256D02*
X6948747Y3588857D01*
X6839146Y3479256D02*
X6844713Y3473688D01*
X6980873Y3556731D02*
X6984409Y3560267D01*
X7002393Y3542283D01*
X6998857Y3538747D02*
X7002393Y3542283D01*
X6948747Y3588857D02*
X6952283Y3592393D01*
X6970267Y3574409D01*
X6966731Y3570873D02*
X6970267Y3574409D01*
X6906627Y3510769D02*
X6920769D01*
Y3496627D02*
Y3510769D01*
X6620769D02*
X6627840Y3517840D01*
X6606627Y3510769D02*
X6620769Y3496627D01*
X6595714Y3535824D02*
X6645824Y3485714D01*
X6680873Y3556731D02*
X6698857Y3538747D01*
X6589256Y3429146D02*
X6698857Y3538747D01*
X6583688Y3434713D02*
X6589256Y3429146D01*
X6648747Y3588857D02*
X6666731Y3570873D01*
X6539146Y3479256D02*
X6648747Y3588857D01*
X6539146Y3479256D02*
X6544713Y3473688D01*
X6680873Y3556731D02*
X6684409Y3560267D01*
X6702393Y3542283D01*
X6698857Y3538747D02*
X6702393Y3542283D01*
X6648747Y3588857D02*
X6652283Y3592393D01*
X6670267Y3574409D01*
X6666731Y3570873D02*
X6670267Y3574409D01*
X6606627Y3510769D02*
X6620769D01*
Y3496627D02*
Y3510769D01*
X6320769D02*
X6327840Y3517840D01*
X6306627Y3510769D02*
X6320769Y3496627D01*
X6295714Y3535824D02*
X6345824Y3485714D01*
X6380873Y3556731D02*
X6398857Y3538747D01*
X6289256Y3429146D02*
X6398857Y3538747D01*
X6283688Y3434713D02*
X6289256Y3429146D01*
X6348747Y3588857D02*
X6366731Y3570873D01*
X6239146Y3479256D02*
X6348747Y3588857D01*
X6239146Y3479256D02*
X6244713Y3473688D01*
X6380873Y3556731D02*
X6384409Y3560267D01*
X6402393Y3542283D01*
X6398857Y3538747D02*
X6402393Y3542283D01*
X6348747Y3588857D02*
X6352283Y3592393D01*
X6370267Y3574409D01*
X6366731Y3570873D02*
X6370267Y3574409D01*
X6306627Y3510769D02*
X6320769D01*
Y3496627D02*
Y3510769D01*
X6020769D02*
X6027840Y3517840D01*
X6006627Y3510769D02*
X6020769Y3496627D01*
X5995714Y3535824D02*
X6045824Y3485714D01*
X6080873Y3556731D02*
X6098857Y3538747D01*
X5989256Y3429146D02*
X6098857Y3538747D01*
X5983688Y3434713D02*
X5989256Y3429146D01*
X6048747Y3588857D02*
X6066731Y3570873D01*
X5939146Y3479256D02*
X6048747Y3588857D01*
X5939146Y3479256D02*
X5944713Y3473688D01*
X6080873Y3556731D02*
X6084409Y3560267D01*
X6102393Y3542283D01*
X6098857Y3538747D02*
X6102393Y3542283D01*
X6048747Y3588857D02*
X6052283Y3592393D01*
X6070267Y3574409D01*
X6066731Y3570873D02*
X6070267Y3574409D01*
X6006627Y3510769D02*
X6020769D01*
Y3496627D02*
Y3510769D01*
X5720769D02*
X5727840Y3517840D01*
X5706627Y3510769D02*
X5720769Y3496627D01*
X5695714Y3535824D02*
X5745824Y3485714D01*
X5780873Y3556731D02*
X5798857Y3538747D01*
X5689256Y3429146D02*
X5798857Y3538747D01*
X5683688Y3434713D02*
X5689256Y3429146D01*
X5748747Y3588857D02*
X5766731Y3570873D01*
X5639146Y3479256D02*
X5748747Y3588857D01*
X5639146Y3479256D02*
X5644713Y3473688D01*
X5780873Y3556731D02*
X5784409Y3560267D01*
X5802393Y3542283D01*
X5798857Y3538747D02*
X5802393Y3542283D01*
X5748747Y3588857D02*
X5752283Y3592393D01*
X5770267Y3574409D01*
X5766731Y3570873D02*
X5770267Y3574409D01*
X5706627Y3510769D02*
X5720769D01*
Y3496627D02*
Y3510769D01*
X5420769D02*
X5427840Y3517840D01*
X5406627Y3510769D02*
X5420769Y3496627D01*
X5395714Y3535824D02*
X5445824Y3485714D01*
X5480873Y3556731D02*
X5498857Y3538747D01*
X5389256Y3429146D02*
X5498857Y3538747D01*
X5383688Y3434713D02*
X5389256Y3429146D01*
X5448747Y3588857D02*
X5466731Y3570873D01*
X5339146Y3479256D02*
X5448747Y3588857D01*
X5339146Y3479256D02*
X5344713Y3473688D01*
X5480873Y3556731D02*
X5484409Y3560267D01*
X5502393Y3542283D01*
X5498857Y3538747D02*
X5502393Y3542283D01*
X5448747Y3588857D02*
X5452283Y3592393D01*
X5470267Y3574409D01*
X5466731Y3570873D02*
X5470267Y3574409D01*
X5406627Y3510769D02*
X5420769D01*
Y3496627D02*
Y3510769D01*
X5120769D02*
X5127840Y3517840D01*
X5106627Y3510769D02*
X5120769Y3496627D01*
X5095714Y3535824D02*
X5145824Y3485714D01*
X5180873Y3556731D02*
X5198857Y3538747D01*
X5089256Y3429146D02*
X5198857Y3538747D01*
X5083688Y3434713D02*
X5089256Y3429146D01*
X5148747Y3588857D02*
X5166731Y3570873D01*
X5039146Y3479256D02*
X5148747Y3588857D01*
X5039146Y3479256D02*
X5044713Y3473688D01*
X5180873Y3556731D02*
X5184409Y3560267D01*
X5202393Y3542283D01*
X5198857Y3538747D02*
X5202393Y3542283D01*
X5148747Y3588857D02*
X5152283Y3592393D01*
X5170267Y3574409D01*
X5166731Y3570873D02*
X5170267Y3574409D01*
X5106627Y3510769D02*
X5120769D01*
Y3496627D02*
Y3510769D01*
X4820769D02*
X4827840Y3517840D01*
X4806627Y3510769D02*
X4820769Y3496627D01*
X4795714Y3535824D02*
X4845824Y3485714D01*
X4880873Y3556731D02*
X4898857Y3538747D01*
X4789256Y3429146D02*
X4898857Y3538747D01*
X4783688Y3434713D02*
X4789256Y3429146D01*
X4848747Y3588857D02*
X4866731Y3570873D01*
X4739146Y3479256D02*
X4848747Y3588857D01*
X4739146Y3479256D02*
X4744713Y3473688D01*
X4880873Y3556731D02*
X4884409Y3560267D01*
X4902393Y3542283D01*
X4898857Y3538747D02*
X4902393Y3542283D01*
X4848747Y3588857D02*
X4852283Y3592393D01*
X4870267Y3574409D01*
X4866731Y3570873D02*
X4870267Y3574409D01*
X4806627Y3510769D02*
X4820769D01*
Y3496627D02*
Y3510769D01*
X4520769D02*
X4527840Y3517840D01*
X4506627Y3510769D02*
X4520769Y3496627D01*
X4495714Y3535824D02*
X4545824Y3485714D01*
X4580873Y3556731D02*
X4598857Y3538747D01*
X4489256Y3429146D02*
X4598857Y3538747D01*
X4483688Y3434713D02*
X4489256Y3429146D01*
X4548747Y3588857D02*
X4566731Y3570873D01*
X4439146Y3479256D02*
X4548747Y3588857D01*
X4439146Y3479256D02*
X4444713Y3473688D01*
X4580873Y3556731D02*
X4584409Y3560267D01*
X4602393Y3542283D01*
X4598857Y3538747D02*
X4602393Y3542283D01*
X4548747Y3588857D02*
X4552283Y3592393D01*
X4570267Y3574409D01*
X4566731Y3570873D02*
X4570267Y3574409D01*
X4506627Y3510769D02*
X4520769D01*
Y3496627D02*
Y3510769D01*
X8720769Y3310769D02*
X8727840Y3317840D01*
X8706627Y3310769D02*
X8720769Y3296627D01*
X8695714Y3335824D02*
X8745824Y3285714D01*
X8780873Y3356731D02*
X8798857Y3338747D01*
X8689256Y3229146D02*
X8798857Y3338747D01*
X8683688Y3234713D02*
X8689256Y3229146D01*
X8748747Y3388857D02*
X8766731Y3370873D01*
X8639146Y3279256D02*
X8748747Y3388857D01*
X8639146Y3279256D02*
X8644713Y3273688D01*
X8780873Y3356731D02*
X8784409Y3360267D01*
X8802393Y3342283D01*
X8798857Y3338747D02*
X8802393Y3342283D01*
X8748747Y3388857D02*
X8752283Y3392393D01*
X8770267Y3374409D01*
X8766731Y3370873D02*
X8770267Y3374409D01*
X8706627Y3310769D02*
X8720769D01*
Y3296627D02*
Y3310769D01*
X8420769D02*
X8427840Y3317840D01*
X8406627Y3310769D02*
X8420769Y3296627D01*
X8395714Y3335824D02*
X8445824Y3285714D01*
X8480873Y3356731D02*
X8498857Y3338747D01*
X8389256Y3229146D02*
X8498857Y3338747D01*
X8383688Y3234713D02*
X8389256Y3229146D01*
X8448747Y3388857D02*
X8466731Y3370873D01*
X8339146Y3279256D02*
X8448747Y3388857D01*
X8339146Y3279256D02*
X8344713Y3273688D01*
X8480873Y3356731D02*
X8484409Y3360267D01*
X8502393Y3342283D01*
X8498857Y3338747D02*
X8502393Y3342283D01*
X8448747Y3388857D02*
X8452283Y3392393D01*
X8470267Y3374409D01*
X8466731Y3370873D02*
X8470267Y3374409D01*
X8406627Y3310769D02*
X8420769D01*
Y3296627D02*
Y3310769D01*
X8120769D02*
X8127840Y3317840D01*
X8106627Y3310769D02*
X8120769Y3296627D01*
X8095714Y3335824D02*
X8145824Y3285714D01*
X8180873Y3356731D02*
X8198857Y3338747D01*
X8089256Y3229146D02*
X8198857Y3338747D01*
X8083688Y3234713D02*
X8089256Y3229146D01*
X8148747Y3388857D02*
X8166731Y3370873D01*
X8039146Y3279256D02*
X8148747Y3388857D01*
X8039146Y3279256D02*
X8044713Y3273688D01*
X8180873Y3356731D02*
X8184409Y3360267D01*
X8202393Y3342283D01*
X8198857Y3338747D02*
X8202393Y3342283D01*
X8148747Y3388857D02*
X8152283Y3392393D01*
X8170267Y3374409D01*
X8166731Y3370873D02*
X8170267Y3374409D01*
X8106627Y3310769D02*
X8120769D01*
Y3296627D02*
Y3310769D01*
X7820769D02*
X7827840Y3317840D01*
X7806627Y3310769D02*
X7820769Y3296627D01*
X7795714Y3335824D02*
X7845824Y3285714D01*
X7880873Y3356731D02*
X7898857Y3338747D01*
X7789256Y3229146D02*
X7898857Y3338747D01*
X7783688Y3234713D02*
X7789256Y3229146D01*
X7848747Y3388857D02*
X7866731Y3370873D01*
X7739146Y3279256D02*
X7848747Y3388857D01*
X7739146Y3279256D02*
X7744713Y3273688D01*
X7880873Y3356731D02*
X7884409Y3360267D01*
X7902393Y3342283D01*
X7898857Y3338747D02*
X7902393Y3342283D01*
X7848747Y3388857D02*
X7852283Y3392393D01*
X7870267Y3374409D01*
X7866731Y3370873D02*
X7870267Y3374409D01*
X7806627Y3310769D02*
X7820769D01*
Y3296627D02*
Y3310769D01*
X7520769D02*
X7527840Y3317840D01*
X7506627Y3310769D02*
X7520769Y3296627D01*
X7495714Y3335824D02*
X7545824Y3285714D01*
X7580873Y3356731D02*
X7598857Y3338747D01*
X7489256Y3229146D02*
X7598857Y3338747D01*
X7483688Y3234713D02*
X7489256Y3229146D01*
X7548747Y3388857D02*
X7566731Y3370873D01*
X7439146Y3279256D02*
X7548747Y3388857D01*
X7439146Y3279256D02*
X7444713Y3273688D01*
X7580873Y3356731D02*
X7584409Y3360267D01*
X7602393Y3342283D01*
X7598857Y3338747D02*
X7602393Y3342283D01*
X7548747Y3388857D02*
X7552283Y3392393D01*
X7570267Y3374409D01*
X7566731Y3370873D02*
X7570267Y3374409D01*
X7506627Y3310769D02*
X7520769D01*
Y3296627D02*
Y3310769D01*
X7220769D02*
X7227840Y3317840D01*
X7206627Y3310769D02*
X7220769Y3296627D01*
X7195714Y3335824D02*
X7245824Y3285714D01*
X7280873Y3356731D02*
X7298857Y3338747D01*
X7189256Y3229146D02*
X7298857Y3338747D01*
X7183688Y3234713D02*
X7189256Y3229146D01*
X7248747Y3388857D02*
X7266731Y3370873D01*
X7139146Y3279256D02*
X7248747Y3388857D01*
X7139146Y3279256D02*
X7144713Y3273688D01*
X7280873Y3356731D02*
X7284409Y3360267D01*
X7302393Y3342283D01*
X7298857Y3338747D02*
X7302393Y3342283D01*
X7248747Y3388857D02*
X7252283Y3392393D01*
X7270267Y3374409D01*
X7266731Y3370873D02*
X7270267Y3374409D01*
X7206627Y3310769D02*
X7220769D01*
Y3296627D02*
Y3310769D01*
X6920769D02*
X6927840Y3317840D01*
X6906627Y3310769D02*
X6920769Y3296627D01*
X6895714Y3335824D02*
X6945824Y3285714D01*
X6980873Y3356731D02*
X6998857Y3338747D01*
X6889256Y3229146D02*
X6998857Y3338747D01*
X6883688Y3234713D02*
X6889256Y3229146D01*
X6948747Y3388857D02*
X6966731Y3370873D01*
X6839146Y3279256D02*
X6948747Y3388857D01*
X6839146Y3279256D02*
X6844713Y3273688D01*
X6980873Y3356731D02*
X6984409Y3360267D01*
X7002393Y3342283D01*
X6998857Y3338747D02*
X7002393Y3342283D01*
X6948747Y3388857D02*
X6952283Y3392393D01*
X6970267Y3374409D01*
X6966731Y3370873D02*
X6970267Y3374409D01*
X6906627Y3310769D02*
X6920769D01*
Y3296627D02*
Y3310769D01*
X6620769D02*
X6627840Y3317840D01*
X6606627Y3310769D02*
X6620769Y3296627D01*
X6595714Y3335824D02*
X6645824Y3285714D01*
X6680873Y3356731D02*
X6698857Y3338747D01*
X6589256Y3229146D02*
X6698857Y3338747D01*
X6583688Y3234713D02*
X6589256Y3229146D01*
X6648747Y3388857D02*
X6666731Y3370873D01*
X6539146Y3279256D02*
X6648747Y3388857D01*
X6539146Y3279256D02*
X6544713Y3273688D01*
X6680873Y3356731D02*
X6684409Y3360267D01*
X6702393Y3342283D01*
X6698857Y3338747D02*
X6702393Y3342283D01*
X6648747Y3388857D02*
X6652283Y3392393D01*
X6670267Y3374409D01*
X6666731Y3370873D02*
X6670267Y3374409D01*
X6606627Y3310769D02*
X6620769D01*
Y3296627D02*
Y3310769D01*
X6320769D02*
X6327840Y3317840D01*
X6306627Y3310769D02*
X6320769Y3296627D01*
X6295714Y3335824D02*
X6345824Y3285714D01*
X6380873Y3356731D02*
X6398857Y3338747D01*
X6289256Y3229146D02*
X6398857Y3338747D01*
X6283688Y3234713D02*
X6289256Y3229146D01*
X6348747Y3388857D02*
X6366731Y3370873D01*
X6239146Y3279256D02*
X6348747Y3388857D01*
X6239146Y3279256D02*
X6244713Y3273688D01*
X6380873Y3356731D02*
X6384409Y3360267D01*
X6402393Y3342283D01*
X6398857Y3338747D02*
X6402393Y3342283D01*
X6348747Y3388857D02*
X6352283Y3392393D01*
X6370267Y3374409D01*
X6366731Y3370873D02*
X6370267Y3374409D01*
X6306627Y3310769D02*
X6320769D01*
Y3296627D02*
Y3310769D01*
X6020769D02*
X6027840Y3317840D01*
X6006627Y3310769D02*
X6020769Y3296627D01*
X5995714Y3335824D02*
X6045824Y3285714D01*
X6080873Y3356731D02*
X6098857Y3338747D01*
X5989256Y3229146D02*
X6098857Y3338747D01*
X5983688Y3234713D02*
X5989256Y3229146D01*
X6048747Y3388857D02*
X6066731Y3370873D01*
X5939146Y3279256D02*
X6048747Y3388857D01*
X5939146Y3279256D02*
X5944713Y3273688D01*
X6080873Y3356731D02*
X6084409Y3360267D01*
X6102393Y3342283D01*
X6098857Y3338747D02*
X6102393Y3342283D01*
X6048747Y3388857D02*
X6052283Y3392393D01*
X6070267Y3374409D01*
X6066731Y3370873D02*
X6070267Y3374409D01*
X6006627Y3310769D02*
X6020769D01*
Y3296627D02*
Y3310769D01*
X5720769D02*
X5727840Y3317840D01*
X5706627Y3310769D02*
X5720769Y3296627D01*
X5695714Y3335824D02*
X5745824Y3285714D01*
X5780873Y3356731D02*
X5798857Y3338747D01*
X5689256Y3229146D02*
X5798857Y3338747D01*
X5683688Y3234713D02*
X5689256Y3229146D01*
X5748747Y3388857D02*
X5766731Y3370873D01*
X5639146Y3279256D02*
X5748747Y3388857D01*
X5639146Y3279256D02*
X5644713Y3273688D01*
X5780873Y3356731D02*
X5784409Y3360267D01*
X5802393Y3342283D01*
X5798857Y3338747D02*
X5802393Y3342283D01*
X5748747Y3388857D02*
X5752283Y3392393D01*
X5770267Y3374409D01*
X5766731Y3370873D02*
X5770267Y3374409D01*
X5706627Y3310769D02*
X5720769D01*
Y3296627D02*
Y3310769D01*
X5420769D02*
X5427840Y3317840D01*
X5406627Y3310769D02*
X5420769Y3296627D01*
X5395714Y3335824D02*
X5445824Y3285714D01*
X5480873Y3356731D02*
X5498857Y3338747D01*
X5389256Y3229146D02*
X5498857Y3338747D01*
X5383688Y3234713D02*
X5389256Y3229146D01*
X5448747Y3388857D02*
X5466731Y3370873D01*
X5339146Y3279256D02*
X5448747Y3388857D01*
X5339146Y3279256D02*
X5344713Y3273688D01*
X5480873Y3356731D02*
X5484409Y3360267D01*
X5502393Y3342283D01*
X5498857Y3338747D02*
X5502393Y3342283D01*
X5448747Y3388857D02*
X5452283Y3392393D01*
X5470267Y3374409D01*
X5466731Y3370873D02*
X5470267Y3374409D01*
X5406627Y3310769D02*
X5420769D01*
Y3296627D02*
Y3310769D01*
X5120769D02*
X5127840Y3317840D01*
X5106627Y3310769D02*
X5120769Y3296627D01*
X5095714Y3335824D02*
X5145824Y3285714D01*
X5180873Y3356731D02*
X5198857Y3338747D01*
X5089256Y3229146D02*
X5198857Y3338747D01*
X5083688Y3234713D02*
X5089256Y3229146D01*
X5148747Y3388857D02*
X5166731Y3370873D01*
X5039146Y3279256D02*
X5148747Y3388857D01*
X5039146Y3279256D02*
X5044713Y3273688D01*
X5180873Y3356731D02*
X5184409Y3360267D01*
X5202393Y3342283D01*
X5198857Y3338747D02*
X5202393Y3342283D01*
X5148747Y3388857D02*
X5152283Y3392393D01*
X5170267Y3374409D01*
X5166731Y3370873D02*
X5170267Y3374409D01*
X5106627Y3310769D02*
X5120769D01*
Y3296627D02*
Y3310769D01*
X4820769D02*
X4827840Y3317840D01*
X4806627Y3310769D02*
X4820769Y3296627D01*
X4795714Y3335824D02*
X4845824Y3285714D01*
X4880873Y3356731D02*
X4898857Y3338747D01*
X4789256Y3229146D02*
X4898857Y3338747D01*
X4783688Y3234713D02*
X4789256Y3229146D01*
X4848747Y3388857D02*
X4866731Y3370873D01*
X4739146Y3279256D02*
X4848747Y3388857D01*
X4739146Y3279256D02*
X4744713Y3273688D01*
X4880873Y3356731D02*
X4884409Y3360267D01*
X4902393Y3342283D01*
X4898857Y3338747D02*
X4902393Y3342283D01*
X4848747Y3388857D02*
X4852283Y3392393D01*
X4870267Y3374409D01*
X4866731Y3370873D02*
X4870267Y3374409D01*
X4806627Y3310769D02*
X4820769D01*
Y3296627D02*
Y3310769D01*
X4520769D02*
X4527840Y3317840D01*
X4506627Y3310769D02*
X4520769Y3296627D01*
X4495714Y3335824D02*
X4545824Y3285714D01*
X4580873Y3356731D02*
X4598857Y3338747D01*
X4489256Y3229146D02*
X4598857Y3338747D01*
X4483688Y3234713D02*
X4489256Y3229146D01*
X4548747Y3388857D02*
X4566731Y3370873D01*
X4439146Y3279256D02*
X4548747Y3388857D01*
X4439146Y3279256D02*
X4444713Y3273688D01*
X4580873Y3356731D02*
X4584409Y3360267D01*
X4602393Y3342283D01*
X4598857Y3338747D02*
X4602393Y3342283D01*
X4548747Y3388857D02*
X4552283Y3392393D01*
X4570267Y3374409D01*
X4566731Y3370873D02*
X4570267Y3374409D01*
X4506627Y3310769D02*
X4520769D01*
Y3296627D02*
Y3310769D01*
X8720769Y3110769D02*
X8727840Y3117840D01*
X8706627Y3110769D02*
X8720769Y3096627D01*
X8695714Y3135824D02*
X8745824Y3085714D01*
X8780873Y3156731D02*
X8798857Y3138747D01*
X8689256Y3029146D02*
X8798857Y3138747D01*
X8683688Y3034713D02*
X8689256Y3029146D01*
X8748747Y3188857D02*
X8766731Y3170873D01*
X8639146Y3079256D02*
X8748747Y3188857D01*
X8639146Y3079256D02*
X8644713Y3073688D01*
X8780873Y3156731D02*
X8784409Y3160267D01*
X8802393Y3142283D01*
X8798857Y3138747D02*
X8802393Y3142283D01*
X8748747Y3188857D02*
X8752283Y3192393D01*
X8770267Y3174409D01*
X8766731Y3170873D02*
X8770267Y3174409D01*
X8706627Y3110769D02*
X8720769D01*
Y3096627D02*
Y3110769D01*
X8420769D02*
X8427840Y3117840D01*
X8406627Y3110769D02*
X8420769Y3096627D01*
X8395714Y3135824D02*
X8445824Y3085714D01*
X8480873Y3156731D02*
X8498857Y3138747D01*
X8389256Y3029146D02*
X8498857Y3138747D01*
X8383688Y3034713D02*
X8389256Y3029146D01*
X8448747Y3188857D02*
X8466731Y3170873D01*
X8339146Y3079256D02*
X8448747Y3188857D01*
X8339146Y3079256D02*
X8344713Y3073688D01*
X8480873Y3156731D02*
X8484409Y3160267D01*
X8502393Y3142283D01*
X8498857Y3138747D02*
X8502393Y3142283D01*
X8448747Y3188857D02*
X8452283Y3192393D01*
X8470267Y3174409D01*
X8466731Y3170873D02*
X8470267Y3174409D01*
X8406627Y3110769D02*
X8420769D01*
Y3096627D02*
Y3110769D01*
X8120769D02*
X8127840Y3117840D01*
X8106627Y3110769D02*
X8120769Y3096627D01*
X8095714Y3135824D02*
X8145824Y3085714D01*
X8180873Y3156731D02*
X8198857Y3138747D01*
X8089256Y3029146D02*
X8198857Y3138747D01*
X8083688Y3034713D02*
X8089256Y3029146D01*
X8148747Y3188857D02*
X8166731Y3170873D01*
X8039146Y3079256D02*
X8148747Y3188857D01*
X8039146Y3079256D02*
X8044713Y3073688D01*
X8180873Y3156731D02*
X8184409Y3160267D01*
X8202393Y3142283D01*
X8198857Y3138747D02*
X8202393Y3142283D01*
X8148747Y3188857D02*
X8152283Y3192393D01*
X8170267Y3174409D01*
X8166731Y3170873D02*
X8170267Y3174409D01*
X8106627Y3110769D02*
X8120769D01*
Y3096627D02*
Y3110769D01*
X7820769D02*
X7827840Y3117840D01*
X7806627Y3110769D02*
X7820769Y3096627D01*
X7795714Y3135824D02*
X7845824Y3085714D01*
X7880873Y3156731D02*
X7898857Y3138747D01*
X7789256Y3029146D02*
X7898857Y3138747D01*
X7783688Y3034713D02*
X7789256Y3029146D01*
X7848747Y3188857D02*
X7866731Y3170873D01*
X7739146Y3079256D02*
X7848747Y3188857D01*
X7739146Y3079256D02*
X7744713Y3073688D01*
X7880873Y3156731D02*
X7884409Y3160267D01*
X7902393Y3142283D01*
X7898857Y3138747D02*
X7902393Y3142283D01*
X7848747Y3188857D02*
X7852283Y3192393D01*
X7870267Y3174409D01*
X7866731Y3170873D02*
X7870267Y3174409D01*
X7806627Y3110769D02*
X7820769D01*
Y3096627D02*
Y3110769D01*
X7520769D02*
X7527840Y3117840D01*
X7506627Y3110769D02*
X7520769Y3096627D01*
X7495714Y3135824D02*
X7545824Y3085714D01*
X7580873Y3156731D02*
X7598857Y3138747D01*
X7489256Y3029146D02*
X7598857Y3138747D01*
X7483688Y3034713D02*
X7489256Y3029146D01*
X7548747Y3188857D02*
X7566731Y3170873D01*
X7439146Y3079256D02*
X7548747Y3188857D01*
X7439146Y3079256D02*
X7444713Y3073688D01*
X7580873Y3156731D02*
X7584409Y3160267D01*
X7602393Y3142283D01*
X7598857Y3138747D02*
X7602393Y3142283D01*
X7548747Y3188857D02*
X7552283Y3192393D01*
X7570267Y3174409D01*
X7566731Y3170873D02*
X7570267Y3174409D01*
X7506627Y3110769D02*
X7520769D01*
Y3096627D02*
Y3110769D01*
X7220769D02*
X7227840Y3117840D01*
X7206627Y3110769D02*
X7220769Y3096627D01*
X7195714Y3135824D02*
X7245824Y3085714D01*
X7280873Y3156731D02*
X7298857Y3138747D01*
X7189256Y3029146D02*
X7298857Y3138747D01*
X7183688Y3034713D02*
X7189256Y3029146D01*
X7248747Y3188857D02*
X7266731Y3170873D01*
X7139146Y3079256D02*
X7248747Y3188857D01*
X7139146Y3079256D02*
X7144713Y3073688D01*
X7280873Y3156731D02*
X7284409Y3160267D01*
X7302393Y3142283D01*
X7298857Y3138747D02*
X7302393Y3142283D01*
X7248747Y3188857D02*
X7252283Y3192393D01*
X7270267Y3174409D01*
X7266731Y3170873D02*
X7270267Y3174409D01*
X7206627Y3110769D02*
X7220769D01*
Y3096627D02*
Y3110769D01*
X6920769D02*
X6927840Y3117840D01*
X6906627Y3110769D02*
X6920769Y3096627D01*
X6895714Y3135824D02*
X6945824Y3085714D01*
X6980873Y3156731D02*
X6998857Y3138747D01*
X6889256Y3029146D02*
X6998857Y3138747D01*
X6883688Y3034713D02*
X6889256Y3029146D01*
X6948747Y3188857D02*
X6966731Y3170873D01*
X6839146Y3079256D02*
X6948747Y3188857D01*
X6839146Y3079256D02*
X6844713Y3073688D01*
X6980873Y3156731D02*
X6984409Y3160267D01*
X7002393Y3142283D01*
X6998857Y3138747D02*
X7002393Y3142283D01*
X6948747Y3188857D02*
X6952283Y3192393D01*
X6970267Y3174409D01*
X6966731Y3170873D02*
X6970267Y3174409D01*
X6906627Y3110769D02*
X6920769D01*
Y3096627D02*
Y3110769D01*
X6620769D02*
X6627840Y3117840D01*
X6606627Y3110769D02*
X6620769Y3096627D01*
X6595714Y3135824D02*
X6645824Y3085714D01*
X6680873Y3156731D02*
X6698857Y3138747D01*
X6589256Y3029146D02*
X6698857Y3138747D01*
X6583688Y3034713D02*
X6589256Y3029146D01*
X6648747Y3188857D02*
X6666731Y3170873D01*
X6539146Y3079256D02*
X6648747Y3188857D01*
X6539146Y3079256D02*
X6544713Y3073688D01*
X6680873Y3156731D02*
X6684409Y3160267D01*
X6702393Y3142283D01*
X6698857Y3138747D02*
X6702393Y3142283D01*
X6648747Y3188857D02*
X6652283Y3192393D01*
X6670267Y3174409D01*
X6666731Y3170873D02*
X6670267Y3174409D01*
X6606627Y3110769D02*
X6620769D01*
Y3096627D02*
Y3110769D01*
X6320769D02*
X6327840Y3117840D01*
X6306627Y3110769D02*
X6320769Y3096627D01*
X6295714Y3135824D02*
X6345824Y3085714D01*
X6380873Y3156731D02*
X6398857Y3138747D01*
X6289256Y3029146D02*
X6398857Y3138747D01*
X6283688Y3034713D02*
X6289256Y3029146D01*
X6348747Y3188857D02*
X6366731Y3170873D01*
X6239146Y3079256D02*
X6348747Y3188857D01*
X6239146Y3079256D02*
X6244713Y3073688D01*
X6380873Y3156731D02*
X6384409Y3160267D01*
X6402393Y3142283D01*
X6398857Y3138747D02*
X6402393Y3142283D01*
X6348747Y3188857D02*
X6352283Y3192393D01*
X6370267Y3174409D01*
X6366731Y3170873D02*
X6370267Y3174409D01*
X6306627Y3110769D02*
X6320769D01*
Y3096627D02*
Y3110769D01*
X6020769D02*
X6027840Y3117840D01*
X6006627Y3110769D02*
X6020769Y3096627D01*
X5995714Y3135824D02*
X6045824Y3085714D01*
X6080873Y3156731D02*
X6098857Y3138747D01*
X5989256Y3029146D02*
X6098857Y3138747D01*
X5983688Y3034713D02*
X5989256Y3029146D01*
X6048747Y3188857D02*
X6066731Y3170873D01*
X5939146Y3079256D02*
X6048747Y3188857D01*
X5939146Y3079256D02*
X5944713Y3073688D01*
X6080873Y3156731D02*
X6084409Y3160267D01*
X6102393Y3142283D01*
X6098857Y3138747D02*
X6102393Y3142283D01*
X6048747Y3188857D02*
X6052283Y3192393D01*
X6070267Y3174409D01*
X6066731Y3170873D02*
X6070267Y3174409D01*
X6006627Y3110769D02*
X6020769D01*
Y3096627D02*
Y3110769D01*
X5720769D02*
X5727840Y3117840D01*
X5706627Y3110769D02*
X5720769Y3096627D01*
X5695714Y3135824D02*
X5745824Y3085714D01*
X5780873Y3156731D02*
X5798857Y3138747D01*
X5689256Y3029146D02*
X5798857Y3138747D01*
X5683688Y3034713D02*
X5689256Y3029146D01*
X5748747Y3188857D02*
X5766731Y3170873D01*
X5639146Y3079256D02*
X5748747Y3188857D01*
X5639146Y3079256D02*
X5644713Y3073688D01*
X5780873Y3156731D02*
X5784409Y3160267D01*
X5802393Y3142283D01*
X5798857Y3138747D02*
X5802393Y3142283D01*
X5748747Y3188857D02*
X5752283Y3192393D01*
X5770267Y3174409D01*
X5766731Y3170873D02*
X5770267Y3174409D01*
X5706627Y3110769D02*
X5720769D01*
Y3096627D02*
Y3110769D01*
X5420769D02*
X5427840Y3117840D01*
X5406627Y3110769D02*
X5420769Y3096627D01*
X5395714Y3135824D02*
X5445824Y3085714D01*
X5480873Y3156731D02*
X5498857Y3138747D01*
X5389256Y3029146D02*
X5498857Y3138747D01*
X5383688Y3034713D02*
X5389256Y3029146D01*
X5448747Y3188857D02*
X5466731Y3170873D01*
X5339146Y3079256D02*
X5448747Y3188857D01*
X5339146Y3079256D02*
X5344713Y3073688D01*
X5480873Y3156731D02*
X5484409Y3160267D01*
X5502393Y3142283D01*
X5498857Y3138747D02*
X5502393Y3142283D01*
X5448747Y3188857D02*
X5452283Y3192393D01*
X5470267Y3174409D01*
X5466731Y3170873D02*
X5470267Y3174409D01*
X5406627Y3110769D02*
X5420769D01*
Y3096627D02*
Y3110769D01*
X5120769D02*
X5127840Y3117840D01*
X5106627Y3110769D02*
X5120769Y3096627D01*
X5095714Y3135824D02*
X5145824Y3085714D01*
X5180873Y3156731D02*
X5198857Y3138747D01*
X5089256Y3029146D02*
X5198857Y3138747D01*
X5083688Y3034713D02*
X5089256Y3029146D01*
X5148747Y3188857D02*
X5166731Y3170873D01*
X5039146Y3079256D02*
X5148747Y3188857D01*
X5039146Y3079256D02*
X5044713Y3073688D01*
X5180873Y3156731D02*
X5184409Y3160267D01*
X5202393Y3142283D01*
X5198857Y3138747D02*
X5202393Y3142283D01*
X5148747Y3188857D02*
X5152283Y3192393D01*
X5170267Y3174409D01*
X5166731Y3170873D02*
X5170267Y3174409D01*
X5106627Y3110769D02*
X5120769D01*
Y3096627D02*
Y3110769D01*
X4820769D02*
X4827840Y3117840D01*
X4806627Y3110769D02*
X4820769Y3096627D01*
X4795714Y3135824D02*
X4845824Y3085714D01*
X4880873Y3156731D02*
X4898857Y3138747D01*
X4789256Y3029146D02*
X4898857Y3138747D01*
X4783688Y3034713D02*
X4789256Y3029146D01*
X4848747Y3188857D02*
X4866731Y3170873D01*
X4739146Y3079256D02*
X4848747Y3188857D01*
X4739146Y3079256D02*
X4744713Y3073688D01*
X4880873Y3156731D02*
X4884409Y3160267D01*
X4902393Y3142283D01*
X4898857Y3138747D02*
X4902393Y3142283D01*
X4848747Y3188857D02*
X4852283Y3192393D01*
X4870267Y3174409D01*
X4866731Y3170873D02*
X4870267Y3174409D01*
X4806627Y3110769D02*
X4820769D01*
Y3096627D02*
Y3110769D01*
X4520769D02*
X4527840Y3117840D01*
X4506627Y3110769D02*
X4520769Y3096627D01*
X4495714Y3135824D02*
X4545824Y3085714D01*
X4580873Y3156731D02*
X4598857Y3138747D01*
X4489256Y3029146D02*
X4598857Y3138747D01*
X4483688Y3034713D02*
X4489256Y3029146D01*
X4548747Y3188857D02*
X4566731Y3170873D01*
X4439146Y3079256D02*
X4548747Y3188857D01*
X4439146Y3079256D02*
X4444713Y3073688D01*
X4580873Y3156731D02*
X4584409Y3160267D01*
X4602393Y3142283D01*
X4598857Y3138747D02*
X4602393Y3142283D01*
X4548747Y3188857D02*
X4552283Y3192393D01*
X4570267Y3174409D01*
X4566731Y3170873D02*
X4570267Y3174409D01*
X4506627Y3110769D02*
X4520769D01*
Y3096627D02*
Y3110769D01*
X8720769Y2910769D02*
X8727840Y2917840D01*
X8706627Y2910769D02*
X8720769Y2896627D01*
X8695714Y2935824D02*
X8745824Y2885714D01*
X8780873Y2956731D02*
X8798857Y2938747D01*
X8689256Y2829146D02*
X8798857Y2938747D01*
X8683688Y2834713D02*
X8689256Y2829146D01*
X8748747Y2988857D02*
X8766731Y2970873D01*
X8639146Y2879256D02*
X8748747Y2988857D01*
X8639146Y2879256D02*
X8644713Y2873688D01*
X8780873Y2956731D02*
X8784409Y2960267D01*
X8802393Y2942283D01*
X8798857Y2938747D02*
X8802393Y2942283D01*
X8748747Y2988857D02*
X8752283Y2992393D01*
X8770267Y2974409D01*
X8766731Y2970873D02*
X8770267Y2974409D01*
X8706627Y2910769D02*
X8720769D01*
Y2896627D02*
Y2910769D01*
X8420769D02*
X8427840Y2917840D01*
X8406627Y2910769D02*
X8420769Y2896627D01*
X8395714Y2935824D02*
X8445824Y2885714D01*
X8480873Y2956731D02*
X8498857Y2938747D01*
X8389256Y2829146D02*
X8498857Y2938747D01*
X8383688Y2834713D02*
X8389256Y2829146D01*
X8448747Y2988857D02*
X8466731Y2970873D01*
X8339146Y2879256D02*
X8448747Y2988857D01*
X8339146Y2879256D02*
X8344713Y2873688D01*
X8480873Y2956731D02*
X8484409Y2960267D01*
X8502393Y2942283D01*
X8498857Y2938747D02*
X8502393Y2942283D01*
X8448747Y2988857D02*
X8452283Y2992393D01*
X8470267Y2974409D01*
X8466731Y2970873D02*
X8470267Y2974409D01*
X8406627Y2910769D02*
X8420769D01*
Y2896627D02*
Y2910769D01*
X8120769D02*
X8127840Y2917840D01*
X8106627Y2910769D02*
X8120769Y2896627D01*
X8095714Y2935824D02*
X8145824Y2885714D01*
X8180873Y2956731D02*
X8198857Y2938747D01*
X8089256Y2829146D02*
X8198857Y2938747D01*
X8083688Y2834713D02*
X8089256Y2829146D01*
X8148747Y2988857D02*
X8166731Y2970873D01*
X8039146Y2879256D02*
X8148747Y2988857D01*
X8039146Y2879256D02*
X8044713Y2873688D01*
X8180873Y2956731D02*
X8184409Y2960267D01*
X8202393Y2942283D01*
X8198857Y2938747D02*
X8202393Y2942283D01*
X8148747Y2988857D02*
X8152283Y2992393D01*
X8170267Y2974409D01*
X8166731Y2970873D02*
X8170267Y2974409D01*
X8106627Y2910769D02*
X8120769D01*
Y2896627D02*
Y2910769D01*
X7820769D02*
X7827840Y2917840D01*
X7806627Y2910769D02*
X7820769Y2896627D01*
X7795714Y2935824D02*
X7845824Y2885714D01*
X7880873Y2956731D02*
X7898857Y2938747D01*
X7789256Y2829146D02*
X7898857Y2938747D01*
X7783688Y2834713D02*
X7789256Y2829146D01*
X7848747Y2988857D02*
X7866731Y2970873D01*
X7739146Y2879256D02*
X7848747Y2988857D01*
X7739146Y2879256D02*
X7744713Y2873688D01*
X7880873Y2956731D02*
X7884409Y2960267D01*
X7902393Y2942283D01*
X7898857Y2938747D02*
X7902393Y2942283D01*
X7848747Y2988857D02*
X7852283Y2992393D01*
X7870267Y2974409D01*
X7866731Y2970873D02*
X7870267Y2974409D01*
X7806627Y2910769D02*
X7820769D01*
Y2896627D02*
Y2910769D01*
X7520769D02*
X7527840Y2917840D01*
X7506627Y2910769D02*
X7520769Y2896627D01*
X7495714Y2935824D02*
X7545824Y2885714D01*
X7580873Y2956731D02*
X7598857Y2938747D01*
X7489256Y2829146D02*
X7598857Y2938747D01*
X7483688Y2834713D02*
X7489256Y2829146D01*
X7548747Y2988857D02*
X7566731Y2970873D01*
X7439146Y2879256D02*
X7548747Y2988857D01*
X7439146Y2879256D02*
X7444713Y2873688D01*
X7580873Y2956731D02*
X7584409Y2960267D01*
X7602393Y2942283D01*
X7598857Y2938747D02*
X7602393Y2942283D01*
X7548747Y2988857D02*
X7552283Y2992393D01*
X7570267Y2974409D01*
X7566731Y2970873D02*
X7570267Y2974409D01*
X7506627Y2910769D02*
X7520769D01*
Y2896627D02*
Y2910769D01*
X7220769D02*
X7227840Y2917840D01*
X7206627Y2910769D02*
X7220769Y2896627D01*
X7195714Y2935824D02*
X7245824Y2885714D01*
X7280873Y2956731D02*
X7298857Y2938747D01*
X7189256Y2829146D02*
X7298857Y2938747D01*
X7183688Y2834713D02*
X7189256Y2829146D01*
X7248747Y2988857D02*
X7266731Y2970873D01*
X7139146Y2879256D02*
X7248747Y2988857D01*
X7139146Y2879256D02*
X7144713Y2873688D01*
X7280873Y2956731D02*
X7284409Y2960267D01*
X7302393Y2942283D01*
X7298857Y2938747D02*
X7302393Y2942283D01*
X7248747Y2988857D02*
X7252283Y2992393D01*
X7270267Y2974409D01*
X7266731Y2970873D02*
X7270267Y2974409D01*
X7206627Y2910769D02*
X7220769D01*
Y2896627D02*
Y2910769D01*
X6920769D02*
X6927840Y2917840D01*
X6906627Y2910769D02*
X6920769Y2896627D01*
X6895714Y2935824D02*
X6945824Y2885714D01*
X6980873Y2956731D02*
X6998857Y2938747D01*
X6889256Y2829146D02*
X6998857Y2938747D01*
X6883688Y2834713D02*
X6889256Y2829146D01*
X6948747Y2988857D02*
X6966731Y2970873D01*
X6839146Y2879256D02*
X6948747Y2988857D01*
X6839146Y2879256D02*
X6844713Y2873688D01*
X6980873Y2956731D02*
X6984409Y2960267D01*
X7002393Y2942283D01*
X6998857Y2938747D02*
X7002393Y2942283D01*
X6948747Y2988857D02*
X6952283Y2992393D01*
X6970267Y2974409D01*
X6966731Y2970873D02*
X6970267Y2974409D01*
X6906627Y2910769D02*
X6920769D01*
Y2896627D02*
Y2910769D01*
X6620769D02*
X6627840Y2917840D01*
X6606627Y2910769D02*
X6620769Y2896627D01*
X6595714Y2935824D02*
X6645824Y2885714D01*
X6680873Y2956731D02*
X6698857Y2938747D01*
X6589256Y2829146D02*
X6698857Y2938747D01*
X6583688Y2834713D02*
X6589256Y2829146D01*
X6648747Y2988857D02*
X6666731Y2970873D01*
X6539146Y2879256D02*
X6648747Y2988857D01*
X6539146Y2879256D02*
X6544713Y2873688D01*
X6680873Y2956731D02*
X6684409Y2960267D01*
X6702393Y2942283D01*
X6698857Y2938747D02*
X6702393Y2942283D01*
X6648747Y2988857D02*
X6652283Y2992393D01*
X6670267Y2974409D01*
X6666731Y2970873D02*
X6670267Y2974409D01*
X6606627Y2910769D02*
X6620769D01*
Y2896627D02*
Y2910769D01*
X6320769D02*
X6327840Y2917840D01*
X6306627Y2910769D02*
X6320769Y2896627D01*
X6295714Y2935824D02*
X6345824Y2885714D01*
X6380873Y2956731D02*
X6398857Y2938747D01*
X6289256Y2829146D02*
X6398857Y2938747D01*
X6283688Y2834713D02*
X6289256Y2829146D01*
X6348747Y2988857D02*
X6366731Y2970873D01*
X6239146Y2879256D02*
X6348747Y2988857D01*
X6239146Y2879256D02*
X6244713Y2873688D01*
X6380873Y2956731D02*
X6384409Y2960267D01*
X6402393Y2942283D01*
X6398857Y2938747D02*
X6402393Y2942283D01*
X6348747Y2988857D02*
X6352283Y2992393D01*
X6370267Y2974409D01*
X6366731Y2970873D02*
X6370267Y2974409D01*
X6306627Y2910769D02*
X6320769D01*
Y2896627D02*
Y2910769D01*
X6020769D02*
X6027840Y2917840D01*
X6006627Y2910769D02*
X6020769Y2896627D01*
X5995714Y2935824D02*
X6045824Y2885714D01*
X6080873Y2956731D02*
X6098857Y2938747D01*
X5989256Y2829146D02*
X6098857Y2938747D01*
X5983688Y2834713D02*
X5989256Y2829146D01*
X6048747Y2988857D02*
X6066731Y2970873D01*
X5939146Y2879256D02*
X6048747Y2988857D01*
X5939146Y2879256D02*
X5944713Y2873688D01*
X6080873Y2956731D02*
X6084409Y2960267D01*
X6102393Y2942283D01*
X6098857Y2938747D02*
X6102393Y2942283D01*
X6048747Y2988857D02*
X6052283Y2992393D01*
X6070267Y2974409D01*
X6066731Y2970873D02*
X6070267Y2974409D01*
X6006627Y2910769D02*
X6020769D01*
Y2896627D02*
Y2910769D01*
X5720769D02*
X5727840Y2917840D01*
X5706627Y2910769D02*
X5720769Y2896627D01*
X5695714Y2935824D02*
X5745824Y2885714D01*
X5780873Y2956731D02*
X5798857Y2938747D01*
X5689256Y2829146D02*
X5798857Y2938747D01*
X5683688Y2834713D02*
X5689256Y2829146D01*
X5748747Y2988857D02*
X5766731Y2970873D01*
X5639146Y2879256D02*
X5748747Y2988857D01*
X5639146Y2879256D02*
X5644713Y2873688D01*
X5780873Y2956731D02*
X5784409Y2960267D01*
X5802393Y2942283D01*
X5798857Y2938747D02*
X5802393Y2942283D01*
X5748747Y2988857D02*
X5752283Y2992393D01*
X5770267Y2974409D01*
X5766731Y2970873D02*
X5770267Y2974409D01*
X5706627Y2910769D02*
X5720769D01*
Y2896627D02*
Y2910769D01*
X5420769D02*
X5427840Y2917840D01*
X5406627Y2910769D02*
X5420769Y2896627D01*
X5395714Y2935824D02*
X5445824Y2885714D01*
X5480873Y2956731D02*
X5498857Y2938747D01*
X5389256Y2829146D02*
X5498857Y2938747D01*
X5383688Y2834713D02*
X5389256Y2829146D01*
X5448747Y2988857D02*
X5466731Y2970873D01*
X5339146Y2879256D02*
X5448747Y2988857D01*
X5339146Y2879256D02*
X5344713Y2873688D01*
X5480873Y2956731D02*
X5484409Y2960267D01*
X5502393Y2942283D01*
X5498857Y2938747D02*
X5502393Y2942283D01*
X5448747Y2988857D02*
X5452283Y2992393D01*
X5470267Y2974409D01*
X5466731Y2970873D02*
X5470267Y2974409D01*
X5406627Y2910769D02*
X5420769D01*
Y2896627D02*
Y2910769D01*
X5120769D02*
X5127840Y2917840D01*
X5106627Y2910769D02*
X5120769Y2896627D01*
X5095714Y2935824D02*
X5145824Y2885714D01*
X5180873Y2956731D02*
X5198857Y2938747D01*
X5089256Y2829146D02*
X5198857Y2938747D01*
X5083688Y2834713D02*
X5089256Y2829146D01*
X5148747Y2988857D02*
X5166731Y2970873D01*
X5039146Y2879256D02*
X5148747Y2988857D01*
X5039146Y2879256D02*
X5044713Y2873688D01*
X5180873Y2956731D02*
X5184409Y2960267D01*
X5202393Y2942283D01*
X5198857Y2938747D02*
X5202393Y2942283D01*
X5148747Y2988857D02*
X5152283Y2992393D01*
X5170267Y2974409D01*
X5166731Y2970873D02*
X5170267Y2974409D01*
X5106627Y2910769D02*
X5120769D01*
Y2896627D02*
Y2910769D01*
X4820769D02*
X4827840Y2917840D01*
X4806627Y2910769D02*
X4820769Y2896627D01*
X4795714Y2935824D02*
X4845824Y2885714D01*
X4880873Y2956731D02*
X4898857Y2938747D01*
X4789256Y2829146D02*
X4898857Y2938747D01*
X4783688Y2834713D02*
X4789256Y2829146D01*
X4848747Y2988857D02*
X4866731Y2970873D01*
X4739146Y2879256D02*
X4848747Y2988857D01*
X4739146Y2879256D02*
X4744713Y2873688D01*
X4880873Y2956731D02*
X4884409Y2960267D01*
X4902393Y2942283D01*
X4898857Y2938747D02*
X4902393Y2942283D01*
X4848747Y2988857D02*
X4852283Y2992393D01*
X4870267Y2974409D01*
X4866731Y2970873D02*
X4870267Y2974409D01*
X4806627Y2910769D02*
X4820769D01*
Y2896627D02*
Y2910769D01*
X4520769D02*
X4527840Y2917840D01*
X4506627Y2910769D02*
X4520769Y2896627D01*
X4495714Y2935824D02*
X4545824Y2885714D01*
X4580873Y2956731D02*
X4598857Y2938747D01*
X4489256Y2829146D02*
X4598857Y2938747D01*
X4483688Y2834713D02*
X4489256Y2829146D01*
X4548747Y2988857D02*
X4566731Y2970873D01*
X4439146Y2879256D02*
X4548747Y2988857D01*
X4439146Y2879256D02*
X4444713Y2873688D01*
X4580873Y2956731D02*
X4584409Y2960267D01*
X4602393Y2942283D01*
X4598857Y2938747D02*
X4602393Y2942283D01*
X4548747Y2988857D02*
X4552283Y2992393D01*
X4570267Y2974409D01*
X4566731Y2970873D02*
X4570267Y2974409D01*
X4506627Y2910769D02*
X4520769D01*
Y2896627D02*
Y2910769D01*
X8720769Y2710769D02*
X8727840Y2717840D01*
X8706627Y2710769D02*
X8720769Y2696627D01*
X8695714Y2735824D02*
X8745824Y2685714D01*
X8780873Y2756731D02*
X8798857Y2738747D01*
X8689256Y2629146D02*
X8798857Y2738747D01*
X8683688Y2634713D02*
X8689256Y2629146D01*
X8748747Y2788857D02*
X8766731Y2770873D01*
X8639146Y2679256D02*
X8748747Y2788857D01*
X8639146Y2679256D02*
X8644713Y2673688D01*
X8780873Y2756731D02*
X8784409Y2760267D01*
X8802393Y2742283D01*
X8798857Y2738747D02*
X8802393Y2742283D01*
X8748747Y2788857D02*
X8752283Y2792393D01*
X8770267Y2774409D01*
X8766731Y2770873D02*
X8770267Y2774409D01*
X8706627Y2710769D02*
X8720769D01*
Y2696627D02*
Y2710769D01*
X8420769D02*
X8427840Y2717840D01*
X8406627Y2710769D02*
X8420769Y2696627D01*
X8395714Y2735824D02*
X8445824Y2685714D01*
X8480873Y2756731D02*
X8498857Y2738747D01*
X8389256Y2629146D02*
X8498857Y2738747D01*
X8383688Y2634713D02*
X8389256Y2629146D01*
X8448747Y2788857D02*
X8466731Y2770873D01*
X8339146Y2679256D02*
X8448747Y2788857D01*
X8339146Y2679256D02*
X8344713Y2673688D01*
X8480873Y2756731D02*
X8484409Y2760267D01*
X8502393Y2742283D01*
X8498857Y2738747D02*
X8502393Y2742283D01*
X8448747Y2788857D02*
X8452283Y2792393D01*
X8470267Y2774409D01*
X8466731Y2770873D02*
X8470267Y2774409D01*
X8406627Y2710769D02*
X8420769D01*
Y2696627D02*
Y2710769D01*
X8120769D02*
X8127840Y2717840D01*
X8106627Y2710769D02*
X8120769Y2696627D01*
X8095714Y2735824D02*
X8145824Y2685714D01*
X8180873Y2756731D02*
X8198857Y2738747D01*
X8089256Y2629146D02*
X8198857Y2738747D01*
X8083688Y2634713D02*
X8089256Y2629146D01*
X8148747Y2788857D02*
X8166731Y2770873D01*
X8039146Y2679256D02*
X8148747Y2788857D01*
X8039146Y2679256D02*
X8044713Y2673688D01*
X8180873Y2756731D02*
X8184409Y2760267D01*
X8202393Y2742283D01*
X8198857Y2738747D02*
X8202393Y2742283D01*
X8148747Y2788857D02*
X8152283Y2792393D01*
X8170267Y2774409D01*
X8166731Y2770873D02*
X8170267Y2774409D01*
X8106627Y2710769D02*
X8120769D01*
Y2696627D02*
Y2710769D01*
X7820769D02*
X7827840Y2717840D01*
X7806627Y2710769D02*
X7820769Y2696627D01*
X7795714Y2735824D02*
X7845824Y2685714D01*
X7880873Y2756731D02*
X7898857Y2738747D01*
X7789256Y2629146D02*
X7898857Y2738747D01*
X7783688Y2634713D02*
X7789256Y2629146D01*
X7848747Y2788857D02*
X7866731Y2770873D01*
X7739146Y2679256D02*
X7848747Y2788857D01*
X7739146Y2679256D02*
X7744713Y2673688D01*
X7880873Y2756731D02*
X7884409Y2760267D01*
X7902393Y2742283D01*
X7898857Y2738747D02*
X7902393Y2742283D01*
X7848747Y2788857D02*
X7852283Y2792393D01*
X7870267Y2774409D01*
X7866731Y2770873D02*
X7870267Y2774409D01*
X7806627Y2710769D02*
X7820769D01*
Y2696627D02*
Y2710769D01*
X7520769D02*
X7527840Y2717840D01*
X7506627Y2710769D02*
X7520769Y2696627D01*
X7495714Y2735824D02*
X7545824Y2685714D01*
X7580873Y2756731D02*
X7598857Y2738747D01*
X7489256Y2629146D02*
X7598857Y2738747D01*
X7483688Y2634713D02*
X7489256Y2629146D01*
X7548747Y2788857D02*
X7566731Y2770873D01*
X7439146Y2679256D02*
X7548747Y2788857D01*
X7439146Y2679256D02*
X7444713Y2673688D01*
X7580873Y2756731D02*
X7584409Y2760267D01*
X7602393Y2742283D01*
X7598857Y2738747D02*
X7602393Y2742283D01*
X7548747Y2788857D02*
X7552283Y2792393D01*
X7570267Y2774409D01*
X7566731Y2770873D02*
X7570267Y2774409D01*
X7506627Y2710769D02*
X7520769D01*
Y2696627D02*
Y2710769D01*
X7220769D02*
X7227840Y2717840D01*
X7206627Y2710769D02*
X7220769Y2696627D01*
X7195714Y2735824D02*
X7245824Y2685714D01*
X7280873Y2756731D02*
X7298857Y2738747D01*
X7189256Y2629146D02*
X7298857Y2738747D01*
X7183688Y2634713D02*
X7189256Y2629146D01*
X7248747Y2788857D02*
X7266731Y2770873D01*
X7139146Y2679256D02*
X7248747Y2788857D01*
X7139146Y2679256D02*
X7144713Y2673688D01*
X7280873Y2756731D02*
X7284409Y2760267D01*
X7302393Y2742283D01*
X7298857Y2738747D02*
X7302393Y2742283D01*
X7248747Y2788857D02*
X7252283Y2792393D01*
X7270267Y2774409D01*
X7266731Y2770873D02*
X7270267Y2774409D01*
X7206627Y2710769D02*
X7220769D01*
Y2696627D02*
Y2710769D01*
X6920769D02*
X6927840Y2717840D01*
X6906627Y2710769D02*
X6920769Y2696627D01*
X6895714Y2735824D02*
X6945824Y2685714D01*
X6980873Y2756731D02*
X6998857Y2738747D01*
X6889256Y2629146D02*
X6998857Y2738747D01*
X6883688Y2634713D02*
X6889256Y2629146D01*
X6948747Y2788857D02*
X6966731Y2770873D01*
X6839146Y2679256D02*
X6948747Y2788857D01*
X6839146Y2679256D02*
X6844713Y2673688D01*
X6980873Y2756731D02*
X6984409Y2760267D01*
X7002393Y2742283D01*
X6998857Y2738747D02*
X7002393Y2742283D01*
X6948747Y2788857D02*
X6952283Y2792393D01*
X6970267Y2774409D01*
X6966731Y2770873D02*
X6970267Y2774409D01*
X6906627Y2710769D02*
X6920769D01*
Y2696627D02*
Y2710769D01*
X6620769D02*
X6627840Y2717840D01*
X6606627Y2710769D02*
X6620769Y2696627D01*
X6595714Y2735824D02*
X6645824Y2685714D01*
X6680873Y2756731D02*
X6698857Y2738747D01*
X6589256Y2629146D02*
X6698857Y2738747D01*
X6583688Y2634713D02*
X6589256Y2629146D01*
X6648747Y2788857D02*
X6666731Y2770873D01*
X6539146Y2679256D02*
X6648747Y2788857D01*
X6539146Y2679256D02*
X6544713Y2673688D01*
X6680873Y2756731D02*
X6684409Y2760267D01*
X6702393Y2742283D01*
X6698857Y2738747D02*
X6702393Y2742283D01*
X6648747Y2788857D02*
X6652283Y2792393D01*
X6670267Y2774409D01*
X6666731Y2770873D02*
X6670267Y2774409D01*
X6606627Y2710769D02*
X6620769D01*
Y2696627D02*
Y2710769D01*
X6320769D02*
X6327840Y2717840D01*
X6306627Y2710769D02*
X6320769Y2696627D01*
X6295714Y2735824D02*
X6345824Y2685714D01*
X6380873Y2756731D02*
X6398857Y2738747D01*
X6289256Y2629146D02*
X6398857Y2738747D01*
X6283688Y2634713D02*
X6289256Y2629146D01*
X6348747Y2788857D02*
X6366731Y2770873D01*
X6239146Y2679256D02*
X6348747Y2788857D01*
X6239146Y2679256D02*
X6244713Y2673688D01*
X6380873Y2756731D02*
X6384409Y2760267D01*
X6402393Y2742283D01*
X6398857Y2738747D02*
X6402393Y2742283D01*
X6348747Y2788857D02*
X6352283Y2792393D01*
X6370267Y2774409D01*
X6366731Y2770873D02*
X6370267Y2774409D01*
X6306627Y2710769D02*
X6320769D01*
Y2696627D02*
Y2710769D01*
X6020769D02*
X6027840Y2717840D01*
X6006627Y2710769D02*
X6020769Y2696627D01*
X5995714Y2735824D02*
X6045824Y2685714D01*
X6080873Y2756731D02*
X6098857Y2738747D01*
X5989256Y2629146D02*
X6098857Y2738747D01*
X5983688Y2634713D02*
X5989256Y2629146D01*
X6048747Y2788857D02*
X6066731Y2770873D01*
X5939146Y2679256D02*
X6048747Y2788857D01*
X5939146Y2679256D02*
X5944713Y2673688D01*
X6080873Y2756731D02*
X6084409Y2760267D01*
X6102393Y2742283D01*
X6098857Y2738747D02*
X6102393Y2742283D01*
X6048747Y2788857D02*
X6052283Y2792393D01*
X6070267Y2774409D01*
X6066731Y2770873D02*
X6070267Y2774409D01*
X6006627Y2710769D02*
X6020769D01*
Y2696627D02*
Y2710769D01*
X5720769D02*
X5727840Y2717840D01*
X5706627Y2710769D02*
X5720769Y2696627D01*
X5695714Y2735824D02*
X5745824Y2685714D01*
X5780873Y2756731D02*
X5798857Y2738747D01*
X5689256Y2629146D02*
X5798857Y2738747D01*
X5683688Y2634713D02*
X5689256Y2629146D01*
X5748747Y2788857D02*
X5766731Y2770873D01*
X5639146Y2679256D02*
X5748747Y2788857D01*
X5639146Y2679256D02*
X5644713Y2673688D01*
X5780873Y2756731D02*
X5784409Y2760267D01*
X5802393Y2742283D01*
X5798857Y2738747D02*
X5802393Y2742283D01*
X5748747Y2788857D02*
X5752283Y2792393D01*
X5770267Y2774409D01*
X5766731Y2770873D02*
X5770267Y2774409D01*
X5706627Y2710769D02*
X5720769D01*
Y2696627D02*
Y2710769D01*
X5420769D02*
X5427840Y2717840D01*
X5406627Y2710769D02*
X5420769Y2696627D01*
X5395714Y2735824D02*
X5445824Y2685714D01*
X5480873Y2756731D02*
X5498857Y2738747D01*
X5389256Y2629146D02*
X5498857Y2738747D01*
X5383688Y2634713D02*
X5389256Y2629146D01*
X5448747Y2788857D02*
X5466731Y2770873D01*
X5339146Y2679256D02*
X5448747Y2788857D01*
X5339146Y2679256D02*
X5344713Y2673688D01*
X5480873Y2756731D02*
X5484409Y2760267D01*
X5502393Y2742283D01*
X5498857Y2738747D02*
X5502393Y2742283D01*
X5448747Y2788857D02*
X5452283Y2792393D01*
X5470267Y2774409D01*
X5466731Y2770873D02*
X5470267Y2774409D01*
X5406627Y2710769D02*
X5420769D01*
Y2696627D02*
Y2710769D01*
X5120769D02*
X5127840Y2717840D01*
X5106627Y2710769D02*
X5120769Y2696627D01*
X5095714Y2735824D02*
X5145824Y2685714D01*
X5180873Y2756731D02*
X5198857Y2738747D01*
X5089256Y2629146D02*
X5198857Y2738747D01*
X5083688Y2634713D02*
X5089256Y2629146D01*
X5148747Y2788857D02*
X5166731Y2770873D01*
X5039146Y2679256D02*
X5148747Y2788857D01*
X5039146Y2679256D02*
X5044713Y2673688D01*
X5180873Y2756731D02*
X5184409Y2760267D01*
X5202393Y2742283D01*
X5198857Y2738747D02*
X5202393Y2742283D01*
X5148747Y2788857D02*
X5152283Y2792393D01*
X5170267Y2774409D01*
X5166731Y2770873D02*
X5170267Y2774409D01*
X5106627Y2710769D02*
X5120769D01*
Y2696627D02*
Y2710769D01*
X4820769D02*
X4827840Y2717840D01*
X4806627Y2710769D02*
X4820769Y2696627D01*
X4795714Y2735824D02*
X4845824Y2685714D01*
X4880873Y2756731D02*
X4898857Y2738747D01*
X4789256Y2629146D02*
X4898857Y2738747D01*
X4783688Y2634713D02*
X4789256Y2629146D01*
X4848747Y2788857D02*
X4866731Y2770873D01*
X4739146Y2679256D02*
X4848747Y2788857D01*
X4739146Y2679256D02*
X4744713Y2673688D01*
X4880873Y2756731D02*
X4884409Y2760267D01*
X4902393Y2742283D01*
X4898857Y2738747D02*
X4902393Y2742283D01*
X4848747Y2788857D02*
X4852283Y2792393D01*
X4870267Y2774409D01*
X4866731Y2770873D02*
X4870267Y2774409D01*
X4806627Y2710769D02*
X4820769D01*
Y2696627D02*
Y2710769D01*
X4520769D02*
X4527840Y2717840D01*
X4506627Y2710769D02*
X4520769Y2696627D01*
X4495714Y2735824D02*
X4545824Y2685714D01*
X4580873Y2756731D02*
X4598857Y2738747D01*
X4489256Y2629146D02*
X4598857Y2738747D01*
X4483688Y2634713D02*
X4489256Y2629146D01*
X4548747Y2788857D02*
X4566731Y2770873D01*
X4439146Y2679256D02*
X4548747Y2788857D01*
X4439146Y2679256D02*
X4444713Y2673688D01*
X4580873Y2756731D02*
X4584409Y2760267D01*
X4602393Y2742283D01*
X4598857Y2738747D02*
X4602393Y2742283D01*
X4548747Y2788857D02*
X4552283Y2792393D01*
X4570267Y2774409D01*
X4566731Y2770873D02*
X4570267Y2774409D01*
X4506627Y2710769D02*
X4520769D01*
Y2696627D02*
Y2710769D01*
X8720769Y2510769D02*
X8727840Y2517840D01*
X8706627Y2510769D02*
X8720769Y2496627D01*
X8695714Y2535824D02*
X8745824Y2485714D01*
X8780873Y2556731D02*
X8798857Y2538747D01*
X8689256Y2429146D02*
X8798857Y2538747D01*
X8683688Y2434713D02*
X8689256Y2429146D01*
X8748747Y2588857D02*
X8766731Y2570873D01*
X8639146Y2479256D02*
X8748747Y2588857D01*
X8639146Y2479256D02*
X8644713Y2473688D01*
X8780873Y2556731D02*
X8784409Y2560267D01*
X8802393Y2542283D01*
X8798857Y2538747D02*
X8802393Y2542283D01*
X8748747Y2588857D02*
X8752283Y2592393D01*
X8770267Y2574409D01*
X8766731Y2570873D02*
X8770267Y2574409D01*
X8706627Y2510769D02*
X8720769D01*
Y2496627D02*
Y2510769D01*
X8420769D02*
X8427840Y2517840D01*
X8406627Y2510769D02*
X8420769Y2496627D01*
X8395714Y2535824D02*
X8445824Y2485714D01*
X8480873Y2556731D02*
X8498857Y2538747D01*
X8389256Y2429146D02*
X8498857Y2538747D01*
X8383688Y2434713D02*
X8389256Y2429146D01*
X8448747Y2588857D02*
X8466731Y2570873D01*
X8339146Y2479256D02*
X8448747Y2588857D01*
X8339146Y2479256D02*
X8344713Y2473688D01*
X8480873Y2556731D02*
X8484409Y2560267D01*
X8502393Y2542283D01*
X8498857Y2538747D02*
X8502393Y2542283D01*
X8448747Y2588857D02*
X8452283Y2592393D01*
X8470267Y2574409D01*
X8466731Y2570873D02*
X8470267Y2574409D01*
X8406627Y2510769D02*
X8420769D01*
Y2496627D02*
Y2510769D01*
X8120769D02*
X8127840Y2517840D01*
X8106627Y2510769D02*
X8120769Y2496627D01*
X8095714Y2535824D02*
X8145824Y2485714D01*
X8180873Y2556731D02*
X8198857Y2538747D01*
X8089256Y2429146D02*
X8198857Y2538747D01*
X8083688Y2434713D02*
X8089256Y2429146D01*
X8148747Y2588857D02*
X8166731Y2570873D01*
X8039146Y2479256D02*
X8148747Y2588857D01*
X8039146Y2479256D02*
X8044713Y2473688D01*
X8180873Y2556731D02*
X8184409Y2560267D01*
X8202393Y2542283D01*
X8198857Y2538747D02*
X8202393Y2542283D01*
X8148747Y2588857D02*
X8152283Y2592393D01*
X8170267Y2574409D01*
X8166731Y2570873D02*
X8170267Y2574409D01*
X8106627Y2510769D02*
X8120769D01*
Y2496627D02*
Y2510769D01*
X7820769D02*
X7827840Y2517840D01*
X7806627Y2510769D02*
X7820769Y2496627D01*
X7795714Y2535824D02*
X7845824Y2485714D01*
X7880873Y2556731D02*
X7898857Y2538747D01*
X7789256Y2429146D02*
X7898857Y2538747D01*
X7783688Y2434713D02*
X7789256Y2429146D01*
X7848747Y2588857D02*
X7866731Y2570873D01*
X7739146Y2479256D02*
X7848747Y2588857D01*
X7739146Y2479256D02*
X7744713Y2473688D01*
X7880873Y2556731D02*
X7884409Y2560267D01*
X7902393Y2542283D01*
X7898857Y2538747D02*
X7902393Y2542283D01*
X7848747Y2588857D02*
X7852283Y2592393D01*
X7870267Y2574409D01*
X7866731Y2570873D02*
X7870267Y2574409D01*
X7806627Y2510769D02*
X7820769D01*
Y2496627D02*
Y2510769D01*
X7520769D02*
X7527840Y2517840D01*
X7506627Y2510769D02*
X7520769Y2496627D01*
X7495714Y2535824D02*
X7545824Y2485714D01*
X7580873Y2556731D02*
X7598857Y2538747D01*
X7489256Y2429146D02*
X7598857Y2538747D01*
X7483688Y2434713D02*
X7489256Y2429146D01*
X7548747Y2588857D02*
X7566731Y2570873D01*
X7439146Y2479256D02*
X7548747Y2588857D01*
X7439146Y2479256D02*
X7444713Y2473688D01*
X7580873Y2556731D02*
X7584409Y2560267D01*
X7602393Y2542283D01*
X7598857Y2538747D02*
X7602393Y2542283D01*
X7548747Y2588857D02*
X7552283Y2592393D01*
X7570267Y2574409D01*
X7566731Y2570873D02*
X7570267Y2574409D01*
X7506627Y2510769D02*
X7520769D01*
Y2496627D02*
Y2510769D01*
X7220769D02*
X7227840Y2517840D01*
X7206627Y2510769D02*
X7220769Y2496627D01*
X7195714Y2535824D02*
X7245824Y2485714D01*
X7280873Y2556731D02*
X7298857Y2538747D01*
X7189256Y2429146D02*
X7298857Y2538747D01*
X7183688Y2434713D02*
X7189256Y2429146D01*
X7248747Y2588857D02*
X7266731Y2570873D01*
X7139146Y2479256D02*
X7248747Y2588857D01*
X7139146Y2479256D02*
X7144713Y2473688D01*
X7280873Y2556731D02*
X7284409Y2560267D01*
X7302393Y2542283D01*
X7298857Y2538747D02*
X7302393Y2542283D01*
X7248747Y2588857D02*
X7252283Y2592393D01*
X7270267Y2574409D01*
X7266731Y2570873D02*
X7270267Y2574409D01*
X7206627Y2510769D02*
X7220769D01*
Y2496627D02*
Y2510769D01*
X6920769D02*
X6927840Y2517840D01*
X6906627Y2510769D02*
X6920769Y2496627D01*
X6895714Y2535824D02*
X6945824Y2485714D01*
X6980873Y2556731D02*
X6998857Y2538747D01*
X6889256Y2429146D02*
X6998857Y2538747D01*
X6883688Y2434713D02*
X6889256Y2429146D01*
X6948747Y2588857D02*
X6966731Y2570873D01*
X6839146Y2479256D02*
X6948747Y2588857D01*
X6839146Y2479256D02*
X6844713Y2473688D01*
X6980873Y2556731D02*
X6984409Y2560267D01*
X7002393Y2542283D01*
X6998857Y2538747D02*
X7002393Y2542283D01*
X6948747Y2588857D02*
X6952283Y2592393D01*
X6970267Y2574409D01*
X6966731Y2570873D02*
X6970267Y2574409D01*
X6906627Y2510769D02*
X6920769D01*
Y2496627D02*
Y2510769D01*
X6620769D02*
X6627840Y2517840D01*
X6606627Y2510769D02*
X6620769Y2496627D01*
X6595714Y2535824D02*
X6645824Y2485714D01*
X6680873Y2556731D02*
X6698857Y2538747D01*
X6589256Y2429146D02*
X6698857Y2538747D01*
X6583688Y2434713D02*
X6589256Y2429146D01*
X6648747Y2588857D02*
X6666731Y2570873D01*
X6539146Y2479256D02*
X6648747Y2588857D01*
X6539146Y2479256D02*
X6544713Y2473688D01*
X6680873Y2556731D02*
X6684409Y2560267D01*
X6702393Y2542283D01*
X6698857Y2538747D02*
X6702393Y2542283D01*
X6648747Y2588857D02*
X6652283Y2592393D01*
X6670267Y2574409D01*
X6666731Y2570873D02*
X6670267Y2574409D01*
X6606627Y2510769D02*
X6620769D01*
Y2496627D02*
Y2510769D01*
X6320769D02*
X6327840Y2517840D01*
X6306627Y2510769D02*
X6320769Y2496627D01*
X6295714Y2535824D02*
X6345824Y2485714D01*
X6380873Y2556731D02*
X6398857Y2538747D01*
X6289256Y2429146D02*
X6398857Y2538747D01*
X6283688Y2434713D02*
X6289256Y2429146D01*
X6348747Y2588857D02*
X6366731Y2570873D01*
X6239146Y2479256D02*
X6348747Y2588857D01*
X6239146Y2479256D02*
X6244713Y2473688D01*
X6380873Y2556731D02*
X6384409Y2560267D01*
X6402393Y2542283D01*
X6398857Y2538747D02*
X6402393Y2542283D01*
X6348747Y2588857D02*
X6352283Y2592393D01*
X6370267Y2574409D01*
X6366731Y2570873D02*
X6370267Y2574409D01*
X6306627Y2510769D02*
X6320769D01*
Y2496627D02*
Y2510769D01*
X6020769D02*
X6027840Y2517840D01*
X6006627Y2510769D02*
X6020769Y2496627D01*
X5995714Y2535824D02*
X6045824Y2485714D01*
X6080873Y2556731D02*
X6098857Y2538747D01*
X5989256Y2429146D02*
X6098857Y2538747D01*
X5983688Y2434713D02*
X5989256Y2429146D01*
X6048747Y2588857D02*
X6066731Y2570873D01*
X5939146Y2479256D02*
X6048747Y2588857D01*
X5939146Y2479256D02*
X5944713Y2473688D01*
X6080873Y2556731D02*
X6084409Y2560267D01*
X6102393Y2542283D01*
X6098857Y2538747D02*
X6102393Y2542283D01*
X6048747Y2588857D02*
X6052283Y2592393D01*
X6070267Y2574409D01*
X6066731Y2570873D02*
X6070267Y2574409D01*
X6006627Y2510769D02*
X6020769D01*
Y2496627D02*
Y2510769D01*
X5720769D02*
X5727840Y2517840D01*
X5706627Y2510769D02*
X5720769Y2496627D01*
X5695714Y2535824D02*
X5745824Y2485714D01*
X5780873Y2556731D02*
X5798857Y2538747D01*
X5689256Y2429146D02*
X5798857Y2538747D01*
X5683688Y2434713D02*
X5689256Y2429146D01*
X5748747Y2588857D02*
X5766731Y2570873D01*
X5639146Y2479256D02*
X5748747Y2588857D01*
X5639146Y2479256D02*
X5644713Y2473688D01*
X5780873Y2556731D02*
X5784409Y2560267D01*
X5802393Y2542283D01*
X5798857Y2538747D02*
X5802393Y2542283D01*
X5748747Y2588857D02*
X5752283Y2592393D01*
X5770267Y2574409D01*
X5766731Y2570873D02*
X5770267Y2574409D01*
X5706627Y2510769D02*
X5720769D01*
Y2496627D02*
Y2510769D01*
X5420769D02*
X5427840Y2517840D01*
X5406627Y2510769D02*
X5420769Y2496627D01*
X5395714Y2535824D02*
X5445824Y2485714D01*
X5480873Y2556731D02*
X5498857Y2538747D01*
X5389256Y2429146D02*
X5498857Y2538747D01*
X5383688Y2434713D02*
X5389256Y2429146D01*
X5448747Y2588857D02*
X5466731Y2570873D01*
X5339146Y2479256D02*
X5448747Y2588857D01*
X5339146Y2479256D02*
X5344713Y2473688D01*
X5480873Y2556731D02*
X5484409Y2560267D01*
X5502393Y2542283D01*
X5498857Y2538747D02*
X5502393Y2542283D01*
X5448747Y2588857D02*
X5452283Y2592393D01*
X5470267Y2574409D01*
X5466731Y2570873D02*
X5470267Y2574409D01*
X5406627Y2510769D02*
X5420769D01*
Y2496627D02*
Y2510769D01*
X5120769D02*
X5127840Y2517840D01*
X5106627Y2510769D02*
X5120769Y2496627D01*
X5095714Y2535824D02*
X5145824Y2485714D01*
X5180873Y2556731D02*
X5198857Y2538747D01*
X5089256Y2429146D02*
X5198857Y2538747D01*
X5083688Y2434713D02*
X5089256Y2429146D01*
X5148747Y2588857D02*
X5166731Y2570873D01*
X5039146Y2479256D02*
X5148747Y2588857D01*
X5039146Y2479256D02*
X5044713Y2473688D01*
X5180873Y2556731D02*
X5184409Y2560267D01*
X5202393Y2542283D01*
X5198857Y2538747D02*
X5202393Y2542283D01*
X5148747Y2588857D02*
X5152283Y2592393D01*
X5170267Y2574409D01*
X5166731Y2570873D02*
X5170267Y2574409D01*
X5106627Y2510769D02*
X5120769D01*
Y2496627D02*
Y2510769D01*
X4820769D02*
X4827840Y2517840D01*
X4806627Y2510769D02*
X4820769Y2496627D01*
X4795714Y2535824D02*
X4845824Y2485714D01*
X4880873Y2556731D02*
X4898857Y2538747D01*
X4789256Y2429146D02*
X4898857Y2538747D01*
X4783688Y2434713D02*
X4789256Y2429146D01*
X4848747Y2588857D02*
X4866731Y2570873D01*
X4739146Y2479256D02*
X4848747Y2588857D01*
X4739146Y2479256D02*
X4744713Y2473688D01*
X4880873Y2556731D02*
X4884409Y2560267D01*
X4902393Y2542283D01*
X4898857Y2538747D02*
X4902393Y2542283D01*
X4848747Y2588857D02*
X4852283Y2592393D01*
X4870267Y2574409D01*
X4866731Y2570873D02*
X4870267Y2574409D01*
X4806627Y2510769D02*
X4820769D01*
Y2496627D02*
Y2510769D01*
X4520769D02*
X4527840Y2517840D01*
X4506627Y2510769D02*
X4520769Y2496627D01*
X4495714Y2535824D02*
X4545824Y2485714D01*
X4580873Y2556731D02*
X4598857Y2538747D01*
X4489256Y2429146D02*
X4598857Y2538747D01*
X4483688Y2434713D02*
X4489256Y2429146D01*
X4548747Y2588857D02*
X4566731Y2570873D01*
X4439146Y2479256D02*
X4548747Y2588857D01*
X4439146Y2479256D02*
X4444713Y2473688D01*
X4580873Y2556731D02*
X4584409Y2560267D01*
X4602393Y2542283D01*
X4598857Y2538747D02*
X4602393Y2542283D01*
X4548747Y2588857D02*
X4552283Y2592393D01*
X4570267Y2574409D01*
X4566731Y2570873D02*
X4570267Y2574409D01*
X4506627Y2510769D02*
X4520769D01*
Y2496627D02*
Y2510769D01*
X3090000Y2639567D02*
Y2710433D01*
X3023071Y2639567D02*
Y2655315D01*
Y2639567D02*
X3156929D01*
Y2655315D01*
Y2694685D02*
Y2710433D01*
X3023071D02*
X3156929D01*
X3023071Y2694685D02*
Y2710433D01*
X3589567Y3650000D02*
X3660433D01*
X3589567Y3716929D02*
X3605315D01*
X3589567Y3583071D02*
Y3716929D01*
Y3583071D02*
X3605315D01*
X3644685D02*
X3660433D01*
Y3716929D01*
X3644685D02*
X3660433D01*
X3394567Y3650000D02*
X3465433D01*
X3449685Y3583071D02*
X3465433D01*
Y3716929D01*
X3449685D02*
X3465433D01*
X3394567D02*
X3410315D01*
X3394567Y3583071D02*
Y3716929D01*
Y3583071D02*
X3410315D01*
X4095000Y3239567D02*
Y3310433D01*
X4028071Y3239567D02*
Y3255315D01*
Y3239567D02*
X4161929D01*
Y3255315D01*
Y3294685D02*
Y3310433D01*
X4028071D02*
X4161929D01*
X4028071Y3294685D02*
Y3310433D01*
X4105000Y3034567D02*
Y3105433D01*
X4038071Y3034567D02*
Y3050315D01*
Y3034567D02*
X4171929D01*
Y3050315D01*
Y3089685D02*
Y3105433D01*
X4038071D02*
X4171929D01*
X4038071Y3089685D02*
Y3105433D01*
X3354567Y2520000D02*
X3425433D01*
X3354567Y2586929D02*
X3370315D01*
X3354567Y2453071D02*
Y2586929D01*
Y2453071D02*
X3370315D01*
X3409685D02*
X3425433D01*
Y2586929D01*
X3409685D02*
X3425433D01*
X3569567Y2525000D02*
X3640433D01*
X3569567Y2591929D02*
X3585315D01*
X3569567Y2458071D02*
Y2591929D01*
Y2458071D02*
X3585315D01*
X3624685D02*
X3640433D01*
Y2591929D01*
X3624685D02*
X3640433D01*
X3869567Y2520000D02*
X3940433D01*
X3869567Y2586929D02*
X3885315D01*
X3869567Y2453071D02*
Y2586929D01*
Y2453071D02*
X3885315D01*
X3924685D02*
X3940433D01*
Y2586929D01*
X3924685D02*
X3940433D01*
X1850837Y3804567D02*
Y3875433D01*
X1917766Y3859685D02*
Y3875433D01*
X1783908D02*
X1917766D01*
X1783908Y3859685D02*
Y3875433D01*
Y3804567D02*
Y3820315D01*
Y3804567D02*
X1917766D01*
Y3820315D01*
X1850837Y3899567D02*
Y3970433D01*
X1783908Y3899567D02*
Y3915315D01*
Y3899567D02*
X1917766D01*
Y3915315D01*
Y3954685D02*
Y3970433D01*
X1783908D02*
X1917766D01*
X1783908Y3954685D02*
Y3970433D01*
X2047333Y3799567D02*
Y3870433D01*
X2114262Y3854685D02*
Y3870433D01*
X1980404D02*
X2114262D01*
X1980404Y3854685D02*
Y3870433D01*
Y3799567D02*
Y3815315D01*
Y3799567D02*
X2114262D01*
Y3815315D01*
X2210404Y3545000D02*
X2281270D01*
X2265522Y3478071D02*
X2281270D01*
Y3611929D01*
X2265522D02*
X2281270D01*
X2210404D02*
X2226152D01*
X2210404Y3478071D02*
Y3611929D01*
Y3478071D02*
X2226152D01*
X1990404Y3985000D02*
X2061270D01*
X2045522Y3918071D02*
X2061270D01*
Y4051929D01*
X2045522D02*
X2061270D01*
X1990404D02*
X2006152D01*
X1990404Y3918071D02*
Y4051929D01*
Y3918071D02*
X2006152D01*
X2442333Y4144567D02*
Y4215433D01*
X2509262Y4199685D02*
Y4215433D01*
X2375404D02*
X2509262D01*
X2375404Y4199685D02*
Y4215433D01*
Y4144567D02*
Y4160315D01*
Y4144567D02*
X2509262D01*
Y4160315D01*
X2442333Y3904567D02*
Y3975433D01*
X2375404Y3904567D02*
Y3920315D01*
Y3904567D02*
X2509262D01*
Y3920315D01*
Y3959685D02*
Y3975433D01*
X2375404D02*
X2509262D01*
X2375404Y3959685D02*
Y3975433D01*
X2442333Y4064567D02*
Y4135433D01*
X2375404Y4064567D02*
Y4080315D01*
Y4064567D02*
X2509262D01*
Y4080315D01*
Y4119685D02*
Y4135433D01*
X2375404D02*
X2509262D01*
X2375404Y4119685D02*
Y4135433D01*
X2442333Y3984567D02*
Y4055433D01*
X2375404Y3984567D02*
Y4000315D01*
Y3984567D02*
X2509262D01*
Y4000315D01*
Y4039685D02*
Y4055433D01*
X2375404D02*
X2509262D01*
X2375404Y4039685D02*
Y4055433D01*
X2290404Y4181496D02*
X2361270D01*
X2345522Y4114567D02*
X2361270D01*
Y4248425D01*
X2345522D02*
X2361270D01*
X2290404D02*
X2306152D01*
X2290404Y4114567D02*
Y4248425D01*
Y4114567D02*
X2306152D01*
X2205404Y4180000D02*
X2276270D01*
X2205404Y4246929D02*
X2221152D01*
X2205404Y4113071D02*
Y4246929D01*
Y4113071D02*
X2221152D01*
X2260522D02*
X2276270D01*
Y4246929D01*
X2260522D02*
X2276270D01*
X2120404Y4181496D02*
X2191270D01*
X2120404Y4248425D02*
X2136152D01*
X2120404Y4114567D02*
Y4248425D01*
Y4114567D02*
X2136152D01*
X2175522D02*
X2191270D01*
Y4248425D01*
X2175522D02*
X2191270D01*
X2035404Y4180000D02*
X2106270D01*
X2035404Y4246929D02*
X2051152D01*
X2035404Y4113071D02*
Y4246929D01*
Y4113071D02*
X2051152D01*
X2090522D02*
X2106270D01*
Y4246929D01*
X2090522D02*
X2106270D01*
X1950404Y4180000D02*
X2021270D01*
X1950404Y4246929D02*
X1966152D01*
X1950404Y4113071D02*
Y4246929D01*
Y4113071D02*
X1966152D01*
X2005522D02*
X2021270D01*
Y4246929D01*
X2005522D02*
X2021270D01*
X1865404Y4180000D02*
X1936270D01*
X1865404Y4246929D02*
X1881152D01*
X1865404Y4113071D02*
Y4246929D01*
Y4113071D02*
X1881152D01*
X1920522D02*
X1936270D01*
Y4246929D01*
X1920522D02*
X1936270D01*
D43*
X2717050Y3705000D02*
G03*
X2717050Y3705000I-21213J0D01*
G01*
X3045013Y2609994D02*
X3035016Y2619990D01*
X3015023D01*
X3005026Y2609994D01*
Y2570006D01*
X3015023Y2560010D01*
X3035016D01*
X3045013Y2570006D01*
X3065006Y2609994D02*
X3075003Y2619990D01*
X3094997D01*
X3104994Y2609994D01*
Y2599997D01*
X3094997Y2590000D01*
X3085000D01*
X3094997D01*
X3104994Y2580003D01*
Y2570006D01*
X3094997Y2560010D01*
X3075003D01*
X3065006Y2570006D01*
X3154977Y2560010D02*
Y2619990D01*
X3124987Y2590000D01*
X3164974D01*
X2730827Y2430024D02*
X2670847D01*
Y2460015D01*
X2680844Y2470011D01*
X2700837D01*
X2710834Y2460015D01*
Y2430024D01*
Y2450018D02*
X2730827Y2470011D01*
Y2490005D02*
Y2509998D01*
Y2500002D01*
X2670847D01*
X2680844Y2490005D01*
X2730827Y2569979D02*
X2670847D01*
X2700837Y2539989D01*
Y2579976D01*
X3058450Y3545862D02*
X3093794Y3510519D01*
X3107931D01*
X3122069Y3524656D01*
Y3538794D01*
X3086725Y3574137D01*
X3164481Y3567069D02*
X3122069Y3609481D01*
Y3567069D01*
X3150344Y3595344D01*
X2815844Y3784994D02*
X2855831Y3745006D01*
X2815844D02*
X2855831Y3784994D01*
X2815844Y3765000D02*
X2855831D01*
X2835837Y3745006D02*
Y3784994D01*
X1880844Y4305000D02*
X1870847Y4295003D01*
Y4275010D01*
X1880844Y4265013D01*
X1920831D01*
X1930828Y4275010D01*
Y4295003D01*
X1920831Y4305000D01*
X1930828Y4324994D02*
Y4344987D01*
Y4334990D01*
X1870847D01*
X1880844Y4324994D01*
X1970844Y4305003D02*
X1960847Y4295007D01*
Y4275013D01*
X1970844Y4265016D01*
X2010831D01*
X2020828Y4275013D01*
Y4295007D01*
X2010831Y4305003D01*
X2020828Y4364984D02*
Y4324997D01*
X1980840Y4364984D01*
X1970844D01*
X1960847Y4354987D01*
Y4334994D01*
X1970844Y4324997D01*
X2050844Y4305003D02*
X2040847Y4295007D01*
Y4275013D01*
X2050844Y4265016D01*
X2090831D01*
X2100827Y4275013D01*
Y4295007D01*
X2090831Y4305003D01*
X2050844Y4324997D02*
X2040847Y4334994D01*
Y4354987D01*
X2050844Y4364984D01*
X2060840D01*
X2070837Y4354987D01*
Y4344990D01*
Y4354987D01*
X2080834Y4364984D01*
X2090831D01*
X2100827Y4354987D01*
Y4334994D01*
X2090831Y4324997D01*
X2135844Y4305003D02*
X2125847Y4295007D01*
Y4275013D01*
X2135844Y4265016D01*
X2175831D01*
X2185827Y4275013D01*
Y4295007D01*
X2175831Y4305003D01*
X2185827Y4354987D02*
X2125847D01*
X2155837Y4324997D01*
Y4364984D01*
X2220844Y4305003D02*
X2210847Y4295007D01*
Y4275013D01*
X2220844Y4265016D01*
X2260831D01*
X2270827Y4275013D01*
Y4295007D01*
X2260831Y4305003D01*
X2210847Y4364984D02*
Y4324997D01*
X2240837D01*
X2230840Y4344990D01*
Y4354987D01*
X2240837Y4364984D01*
X2260831D01*
X2270827Y4354987D01*
Y4334994D01*
X2260831Y4324997D01*
X2305844Y4305003D02*
X2295847Y4295007D01*
Y4275013D01*
X2305844Y4265016D01*
X2345831D01*
X2355827Y4275013D01*
Y4295007D01*
X2345831Y4305003D01*
X2295847Y4364984D02*
X2305844Y4344990D01*
X2325837Y4324997D01*
X2345831D01*
X2355827Y4334994D01*
Y4354987D01*
X2345831Y4364984D01*
X2335834D01*
X2325837Y4354987D01*
Y4324997D01*
X2565840Y4074994D02*
X2555844Y4084990D01*
X2535850D01*
X2525853Y4074994D01*
Y4035006D01*
X2535850Y4025010D01*
X2555844D01*
X2565840Y4035006D01*
X2585834Y4084990D02*
X2625821D01*
Y4074994D01*
X2585834Y4035006D01*
Y4025010D01*
X2565840Y4149993D02*
X2555844Y4159990D01*
X2535850D01*
X2525853Y4149993D01*
Y4110007D01*
X2535850Y4100010D01*
X2555844D01*
X2565840Y4110007D01*
X2585834Y4149993D02*
X2595831Y4159990D01*
X2615824D01*
X2625821Y4149993D01*
Y4139997D01*
X2615824Y4130000D01*
X2625821Y4120003D01*
Y4110007D01*
X2615824Y4100010D01*
X2595831D01*
X2585834Y4110007D01*
Y4120003D01*
X2595831Y4130000D01*
X2585834Y4139997D01*
Y4149993D01*
X2595831Y4130000D02*
X2615824D01*
X2560840Y3919994D02*
X2550844Y3929990D01*
X2530850D01*
X2520853Y3919994D01*
Y3880006D01*
X2530850Y3870010D01*
X2550844D01*
X2560840Y3880006D01*
X2580834D02*
X2590831Y3870010D01*
X2610824D01*
X2620821Y3880006D01*
Y3919994D01*
X2610824Y3929990D01*
X2590831D01*
X2580834Y3919994D01*
Y3909997D01*
X2590831Y3900000D01*
X2620821D01*
X2565849Y4234993D02*
X2555852Y4244990D01*
X2535858D01*
X2525861Y4234993D01*
Y4195007D01*
X2535858Y4185010D01*
X2555852D01*
X2565849Y4195007D01*
X2585842Y4185010D02*
X2605836D01*
X2595839D01*
Y4244990D01*
X2585842Y4234993D01*
X2635826D02*
X2645823Y4244990D01*
X2665816D01*
X2675813Y4234993D01*
Y4195007D01*
X2665816Y4185010D01*
X2645823D01*
X2635826Y4195007D01*
Y4234993D01*
X2310844Y3510011D02*
X2300847Y3500015D01*
Y3480021D01*
X2310844Y3470024D01*
X2350831D01*
X2360827Y3480021D01*
Y3500015D01*
X2350831Y3510011D01*
X2360827Y3530005D02*
Y3549998D01*
Y3540002D01*
X2300847D01*
X2310844Y3530005D01*
X2360827Y3619976D02*
Y3579989D01*
X2320840Y3619976D01*
X2310844D01*
X2300847Y3609979D01*
Y3589985D01*
X2310844Y3579989D01*
X4005013Y2484994D02*
X3995016Y2494990D01*
X3975023D01*
X3965026Y2484994D01*
Y2445006D01*
X3975023Y2435010D01*
X3995016D01*
X4005013Y2445006D01*
X4064994Y2435010D02*
X4025006D01*
X4064994Y2474997D01*
Y2484994D01*
X4054997Y2494990D01*
X4035003D01*
X4025006Y2484994D01*
X4124974Y2494990D02*
X4084987D01*
Y2465000D01*
X4104981Y2474997D01*
X4114977D01*
X4124974Y2465000D01*
Y2445006D01*
X4114977Y2435010D01*
X4094984D01*
X4084987Y2445006D01*
X3505006Y2350013D02*
X3495010Y2340016D01*
Y2320023D01*
X3505006Y2310026D01*
X3544994D01*
X3554990Y2320023D01*
Y2340016D01*
X3544994Y2350013D01*
X3554990Y2409994D02*
Y2370006D01*
X3515003Y2409994D01*
X3505006D01*
X3495010Y2399997D01*
Y2380003D01*
X3505006Y2370006D01*
X3495010Y2429987D02*
Y2469974D01*
X3505006D01*
X3544994Y2429987D01*
X3554990D01*
X3290006Y2480013D02*
X3280010Y2470016D01*
Y2450023D01*
X3290006Y2440026D01*
X3329994D01*
X3339990Y2450023D01*
Y2470016D01*
X3329994Y2480013D01*
X3339990Y2539994D02*
Y2500006D01*
X3300003Y2539994D01*
X3290006D01*
X3280010Y2529997D01*
Y2510003D01*
X3290006Y2500006D01*
Y2559987D02*
X3280010Y2569984D01*
Y2589977D01*
X3290006Y2599974D01*
X3300003D01*
X3310000Y2589977D01*
X3319997Y2599974D01*
X3329994D01*
X3339990Y2589977D01*
Y2569984D01*
X3329994Y2559987D01*
X3319997D01*
X3310000Y2569984D01*
X3300003Y2559987D01*
X3290006D01*
X3310000Y2569984D02*
Y2589977D01*
X4155013Y2994994D02*
X4145016Y3004990D01*
X4125023D01*
X4115026Y2994994D01*
Y2955006D01*
X4125023Y2945010D01*
X4145016D01*
X4155013Y2955006D01*
X4214994Y2945010D02*
X4175007D01*
X4214994Y2984997D01*
Y2994994D01*
X4204997Y3004990D01*
X4185003D01*
X4175007Y2994994D01*
X4234987Y2955006D02*
X4244984Y2945010D01*
X4264977D01*
X4274974Y2955006D01*
Y2994994D01*
X4264977Y3004990D01*
X4244984D01*
X4234987Y2994994D01*
Y2984997D01*
X4244984Y2975000D01*
X4274974D01*
X4255006Y3240013D02*
X4245010Y3230016D01*
Y3210023D01*
X4255006Y3200026D01*
X4294993D01*
X4304990Y3210023D01*
Y3230016D01*
X4294993Y3240013D01*
X4255006Y3260006D02*
X4245010Y3270003D01*
Y3289997D01*
X4255006Y3299994D01*
X4265003D01*
X4275000Y3289997D01*
Y3280000D01*
Y3289997D01*
X4284997Y3299994D01*
X4294993D01*
X4304990Y3289997D01*
Y3270003D01*
X4294993Y3260006D01*
X4255006Y3319987D02*
X4245010Y3329984D01*
Y3349977D01*
X4255006Y3359974D01*
X4294993D01*
X4304990Y3349977D01*
Y3329984D01*
X4294993Y3319987D01*
X4255006D01*
X3375013Y3779994D02*
X3365016Y3789990D01*
X3345023D01*
X3335026Y3779994D01*
Y3740006D01*
X3345023Y3730010D01*
X3365016D01*
X3375013Y3740006D01*
X3395006Y3779994D02*
X3405003Y3789990D01*
X3424997D01*
X3434994Y3779994D01*
Y3769997D01*
X3424997Y3760000D01*
X3415000D01*
X3424997D01*
X3434994Y3750003D01*
Y3740006D01*
X3424997Y3730010D01*
X3405003D01*
X3395006Y3740006D01*
X3494974Y3730010D02*
X3454987D01*
X3494974Y3769997D01*
Y3779994D01*
X3484977Y3789990D01*
X3464984D01*
X3454987Y3779994D01*
X3630013D02*
X3620016Y3789990D01*
X3600023D01*
X3590026Y3779994D01*
Y3740006D01*
X3600023Y3730010D01*
X3620016D01*
X3630013Y3740006D01*
X3650006Y3779994D02*
X3660003Y3789990D01*
X3679997D01*
X3689994Y3779994D01*
Y3769997D01*
X3679997Y3760000D01*
X3670000D01*
X3679997D01*
X3689994Y3750003D01*
Y3740006D01*
X3679997Y3730010D01*
X3660003D01*
X3650006Y3740006D01*
X3709987Y3779994D02*
X3719984Y3789990D01*
X3739977D01*
X3749974Y3779994D01*
Y3769997D01*
X3739977Y3760000D01*
X3729981D01*
X3739977D01*
X3749974Y3750003D01*
Y3740006D01*
X3739977Y3730010D01*
X3719984D01*
X3709987Y3740006D01*
X4050013Y3619990D02*
Y3560010D01*
X4080003D01*
X4090000Y3570006D01*
Y3609994D01*
X4080003Y3619990D01*
X4050013D01*
X4109994Y3560010D02*
X4129987D01*
X4119990D01*
Y3619990D01*
X4109994Y3609994D01*
X1775837Y3409990D02*
X1755844D01*
X1765841D01*
Y3360006D01*
X1755844Y3350010D01*
X1745847D01*
X1735850Y3360006D01*
X1795831Y3350010D02*
X1815824D01*
X1805828D01*
Y3409990D01*
X1795831Y3399994D01*
X2230850Y4030010D02*
Y4089990D01*
X2260840D01*
X2270837Y4079994D01*
Y4060000D01*
X2260840Y4050003D01*
X2230850D01*
X2250844D02*
X2270837Y4030010D01*
X2290831D02*
X2310824D01*
X2300828D01*
Y4089990D01*
X2290831Y4079994D01*
X2145853Y3725010D02*
Y3784990D01*
X2175844D01*
X2185840Y3774994D01*
Y3755000D01*
X2175844Y3745003D01*
X2145853D01*
X2165847D02*
X2185840Y3725010D01*
X2245821D02*
X2205834D01*
X2245821Y3764997D01*
Y3774994D01*
X2235824Y3784990D01*
X2215831D01*
X2205834Y3774994D01*
X2325853Y3825010D02*
Y3884990D01*
X2355844D01*
X2365840Y3874994D01*
Y3855000D01*
X2355844Y3845003D01*
X2325853D01*
X2345847D02*
X2365840Y3825010D01*
X2415824D02*
Y3884990D01*
X2385834Y3855000D01*
X2425821D01*
X1820828Y3635016D02*
X1760847D01*
Y3665006D01*
X1770844Y3675003D01*
X1790837D01*
X1800834Y3665006D01*
Y3635016D01*
Y3655010D02*
X1820828Y3675003D01*
X1760847Y3734984D02*
Y3694997D01*
X1790837D01*
X1780840Y3714990D01*
Y3724987D01*
X1790837Y3734984D01*
X1810831D01*
X1820828Y3724987D01*
Y3704994D01*
X1810831Y3694997D01*
X2120853Y3625010D02*
Y3684990D01*
X2150844D01*
X2160840Y3674994D01*
Y3655000D01*
X2150844Y3645003D01*
X2120853D01*
X2140847D02*
X2160840Y3625010D01*
X2220821Y3684990D02*
X2200827Y3674994D01*
X2180834Y3655000D01*
Y3635006D01*
X2190831Y3625010D01*
X2210824D01*
X2220821Y3635006D01*
Y3645003D01*
X2210824Y3655000D01*
X2180834D01*
X1845828Y4215016D02*
X1785847D01*
Y4245007D01*
X1795844Y4255003D01*
X1815837D01*
X1825834Y4245007D01*
Y4215016D01*
Y4235010D02*
X1845828Y4255003D01*
X1785847Y4274997D02*
Y4314984D01*
X1795844D01*
X1835831Y4274997D01*
X1845828D01*
X2110853Y2765010D02*
Y2824990D01*
X2140844D01*
X2150840Y2814994D01*
Y2795000D01*
X2140844Y2785003D01*
X2110853D01*
X2130847D02*
X2150840Y2765010D01*
X2170834Y2775006D02*
X2180831Y2765010D01*
X2200824D01*
X2210821Y2775006D01*
Y2814994D01*
X2200824Y2824990D01*
X2180831D01*
X2170834Y2814994D01*
Y2804997D01*
X2180831Y2795000D01*
X2210821D01*
X2384990Y2380024D02*
X2325010D01*
Y2410015D01*
X2335006Y2420011D01*
X2355000D01*
X2364997Y2410015D01*
Y2380024D01*
Y2400018D02*
X2384990Y2420011D01*
Y2440005D02*
Y2459998D01*
Y2450002D01*
X2325010D01*
X2335006Y2440005D01*
Y2489989D02*
X2325010Y2499985D01*
Y2519979D01*
X2335006Y2529976D01*
X2374993D01*
X2384990Y2519979D01*
Y2499985D01*
X2374993Y2489989D01*
X2335006D01*
X2464990Y2395021D02*
X2405010D01*
Y2425011D01*
X2415006Y2435008D01*
X2435000D01*
X2444997Y2425011D01*
Y2395021D01*
Y2415015D02*
X2464990Y2435008D01*
Y2455002D02*
Y2474995D01*
Y2464998D01*
X2405010D01*
X2415006Y2455002D01*
X2464990Y2504985D02*
Y2524979D01*
Y2514982D01*
X2405010D01*
X2415006Y2504985D01*
X2554990Y2430024D02*
X2495010D01*
Y2460015D01*
X2505006Y2470011D01*
X2525000D01*
X2534997Y2460015D01*
Y2430024D01*
Y2450018D02*
X2554990Y2470011D01*
Y2490005D02*
Y2509998D01*
Y2500002D01*
X2495010D01*
X2505006Y2490005D01*
X2554990Y2579976D02*
Y2539989D01*
X2515003Y2579976D01*
X2505006D01*
X2495010Y2569979D01*
Y2549985D01*
X2505006Y2539989D01*
X2644990Y2425024D02*
X2585010D01*
Y2455015D01*
X2595006Y2465011D01*
X2615000D01*
X2624997Y2455015D01*
Y2425024D01*
Y2445018D02*
X2644990Y2465011D01*
Y2485005D02*
Y2504998D01*
Y2495002D01*
X2585010D01*
X2595006Y2485005D01*
Y2534989D02*
X2585010Y2544985D01*
Y2564979D01*
X2595006Y2574976D01*
X2605003D01*
X2615000Y2564979D01*
Y2554982D01*
Y2564979D01*
X2624997Y2574976D01*
X2634993D01*
X2644990Y2564979D01*
Y2544985D01*
X2634993Y2534989D01*
X2140827Y3105024D02*
X2080847D01*
Y3135015D01*
X2090844Y3145011D01*
X2110837D01*
X2120834Y3135015D01*
Y3105024D01*
Y3125018D02*
X2140827Y3145011D01*
Y3165005D02*
Y3184998D01*
Y3175002D01*
X2080847D01*
X2090844Y3165005D01*
X2080847Y3254976D02*
Y3214989D01*
X2110837D01*
X2100840Y3234982D01*
Y3244979D01*
X2110837Y3254976D01*
X2130831D01*
X2140827Y3244979D01*
Y3224985D01*
X2130831Y3214989D01*
X2065861Y3375010D02*
Y3434990D01*
X2095852D01*
X2105849Y3424994D01*
Y3405000D01*
X2095852Y3395003D01*
X2065861D01*
X2085855D02*
X2105849Y3375010D01*
X2125842D02*
X2145836D01*
X2135839D01*
Y3434990D01*
X2125842Y3424994D01*
X2215813Y3434990D02*
X2195819Y3424994D01*
X2175826Y3405000D01*
Y3385006D01*
X2185823Y3375010D01*
X2205816D01*
X2215813Y3385006D01*
Y3395003D01*
X2205816Y3405000D01*
X2175826D01*
X3620026Y2300010D02*
Y2359990D01*
X3650016D01*
X3660013Y2349994D01*
Y2330000D01*
X3650016Y2320003D01*
X3620026D01*
X3640019D02*
X3660013Y2300010D01*
X3719994D02*
X3680006D01*
X3719994Y2339997D01*
Y2349994D01*
X3709997Y2359990D01*
X3690003D01*
X3680006Y2349994D01*
X3739987Y2310006D02*
X3749984Y2300010D01*
X3769977D01*
X3779974Y2310006D01*
Y2349994D01*
X3769977Y2359990D01*
X3749984D01*
X3739987Y2349994D01*
Y2339997D01*
X3749984Y2330000D01*
X3779974D01*
X3810026Y2300010D02*
Y2359990D01*
X3840016D01*
X3850013Y2349994D01*
Y2330000D01*
X3840016Y2320003D01*
X3810026D01*
X3830019D02*
X3850013Y2300010D01*
X3870006Y2349994D02*
X3880003Y2359990D01*
X3899997D01*
X3909994Y2349994D01*
Y2339997D01*
X3899997Y2330000D01*
X3890000D01*
X3899997D01*
X3909994Y2320003D01*
Y2310006D01*
X3899997Y2300010D01*
X3880003D01*
X3870006Y2310006D01*
X3929987Y2349994D02*
X3939984Y2359990D01*
X3959977D01*
X3969974Y2349994D01*
Y2310006D01*
X3959977Y2300010D01*
X3939984D01*
X3929987Y2310006D01*
Y2349994D01*
X1930850Y3439990D02*
Y3390006D01*
X1940847Y3380010D01*
X1960841D01*
X1970837Y3390006D01*
Y3439990D01*
X1990831Y3380010D02*
X2010824D01*
X2000828D01*
Y3439990D01*
X1990831Y3429994D01*
X2585853Y3429990D02*
Y3380006D01*
X2595850Y3370010D01*
X2615844D01*
X2625840Y3380006D01*
Y3429990D01*
X2685821Y3370010D02*
X2645834D01*
X2685821Y3409997D01*
Y3419994D01*
X2675824Y3429990D01*
X2655831D01*
X2645834Y3419994D01*
D56*
X3235433Y3432323D02*
G03*
X3235433Y3432323I-11811J0D01*
G01*
X2403633Y3214016D02*
G03*
X2403633Y3214016I-11811J0D01*
G01*
D57*
X1647569Y2965434D02*
X2051113D01*
Y3221340D01*
X1647569D02*
X2051113D01*
X1647569Y2965434D02*
Y3221340D01*
D58*
X2024176Y4093329D02*
X2017511Y4099994D01*
X2004182D01*
X1997518Y4093329D01*
Y4066671D01*
X2004182Y4060006D01*
X2017511D01*
X2024176Y4066671D01*
X2037505Y4060006D02*
X2050834D01*
X2044169D01*
Y4099994D01*
X2037505Y4093329D01*
X2070828Y4060006D02*
X2084157D01*
X2077492D01*
Y4099994D01*
X2070828Y4093329D01*
X2032511Y3908329D02*
X2025847Y3914994D01*
X2012518D01*
X2005853Y3908329D01*
Y3881671D01*
X2012518Y3875006D01*
X2025847D01*
X2032511Y3881671D01*
X2045841Y3875006D02*
X2059169D01*
X2052505D01*
Y3914994D01*
X2045841Y3908329D01*
X2079163D02*
X2085828Y3914994D01*
X2099157D01*
X2105821Y3908329D01*
Y3901664D01*
X2099157Y3895000D01*
X2092492D01*
X2099157D01*
X2105821Y3888336D01*
Y3881671D01*
X2099157Y3875006D01*
X2085828D01*
X2079163Y3881671D01*
X1737508Y3911674D02*
X1730844Y3905010D01*
Y3891681D01*
X1737508Y3885016D01*
X1764166D01*
X1770831Y3891681D01*
Y3905010D01*
X1764166Y3911674D01*
X1770831Y3925003D02*
Y3938332D01*
Y3931668D01*
X1730844D01*
X1737508Y3925003D01*
X1770831Y3978319D02*
X1730844D01*
X1750837Y3958326D01*
Y3984984D01*
X1932508Y3831674D02*
X1925844Y3825010D01*
Y3811681D01*
X1932508Y3805016D01*
X1959166D01*
X1965831Y3811681D01*
Y3825010D01*
X1959166Y3831674D01*
X1965831Y3845003D02*
Y3858332D01*
Y3851668D01*
X1925844D01*
X1932508Y3845003D01*
X1925844Y3904984D02*
Y3878326D01*
X1945837D01*
X1939173Y3891655D01*
Y3898319D01*
X1945837Y3904984D01*
X1959166D01*
X1965831Y3898319D01*
Y3884990D01*
X1959166Y3878326D01*
X2112515Y4060006D02*
Y4099994D01*
X2132508D01*
X2139173Y4093329D01*
Y4080000D01*
X2132508Y4073336D01*
X2112515D01*
X2125844D02*
X2139173Y4060006D01*
X2152502Y4093329D02*
X2159166Y4099994D01*
X2172495D01*
X2179160Y4093329D01*
Y4086664D01*
X2172495Y4080000D01*
X2165831D01*
X2172495D01*
X2179160Y4073336D01*
Y4066671D01*
X2172495Y4060006D01*
X2159166D01*
X2152502Y4066671D01*
X1970831Y3961677D02*
X1930844D01*
Y3981671D01*
X1937508Y3988336D01*
X1950837D01*
X1957502Y3981671D01*
Y3961677D01*
Y3975006D02*
X1970831Y3988336D01*
X1937508Y4001665D02*
X1930844Y4008329D01*
Y4021658D01*
X1937508Y4028323D01*
X1944173D01*
X1950837Y4021658D01*
X1957502Y4028323D01*
X1964166D01*
X1970831Y4021658D01*
Y4008329D01*
X1964166Y4001665D01*
X1957502D01*
X1950837Y4008329D01*
X1944173Y4001665D01*
X1937508D01*
X1950837Y4008329D02*
Y4021658D01*
X2876684Y2770006D02*
Y2809994D01*
X2896677D01*
X2903342Y2803329D01*
Y2790000D01*
X2896677Y2783336D01*
X2876684D01*
X2890013D02*
X2903342Y2770006D01*
X2943329D02*
X2916671D01*
X2943329Y2796664D01*
Y2803329D01*
X2936664Y2809994D01*
X2923336D01*
X2916671Y2803329D01*
X2956658D02*
X2963323Y2809994D01*
X2976652D01*
X2983316Y2803329D01*
Y2776671D01*
X2976652Y2770006D01*
X2963323D01*
X2956658Y2776671D01*
Y2803329D01*
X2845831Y2873349D02*
X2805843D01*
Y2893342D01*
X2812508Y2900006D01*
X2825837D01*
X2832502Y2893342D01*
Y2873349D01*
Y2886677D02*
X2845831Y2900006D01*
Y2939994D02*
Y2913336D01*
X2819173Y2939994D01*
X2812508D01*
X2805843Y2933329D01*
Y2920000D01*
X2812508Y2913336D01*
X2845831Y2953323D02*
Y2966652D01*
Y2959987D01*
X2805843D01*
X2812508Y2953323D01*
X3001684Y3000006D02*
Y3039994D01*
X3021677D01*
X3028342Y3033329D01*
Y3020000D01*
X3021677Y3013336D01*
X3001684D01*
X3015013D02*
X3028342Y3000006D01*
X3068329D02*
X3041671D01*
X3068329Y3026664D01*
Y3033329D01*
X3061664Y3039994D01*
X3048336D01*
X3041671Y3033329D01*
X3108316Y3000006D02*
X3081658D01*
X3108316Y3026664D01*
Y3033329D01*
X3101652Y3039994D01*
X3088323D01*
X3081658Y3033329D01*
X2845831Y2986684D02*
X2805844D01*
Y3006677D01*
X2812508Y3013342D01*
X2825837D01*
X2832502Y3006677D01*
Y2986684D01*
Y3000013D02*
X2845831Y3013342D01*
Y3053329D02*
Y3026671D01*
X2819173Y3053329D01*
X2812508D01*
X2805844Y3046664D01*
Y3033336D01*
X2812508Y3026671D01*
Y3066658D02*
X2805844Y3073323D01*
Y3086652D01*
X2812508Y3093316D01*
X2819173D01*
X2825837Y3086652D01*
Y3079987D01*
Y3086652D01*
X2832502Y3093316D01*
X2839166D01*
X2845831Y3086652D01*
Y3073323D01*
X2839166Y3066658D01*
X2840831Y3166684D02*
X2800844D01*
Y3186677D01*
X2807508Y3193342D01*
X2820837D01*
X2827502Y3186677D01*
Y3166684D01*
Y3180013D02*
X2840831Y3193342D01*
Y3233329D02*
Y3206671D01*
X2814173Y3233329D01*
X2807508D01*
X2800844Y3226664D01*
Y3213336D01*
X2807508Y3206671D01*
X2840831Y3266652D02*
X2800844D01*
X2820837Y3246658D01*
Y3273316D01*
X3049993Y3206684D02*
X3010006D01*
Y3226677D01*
X3016671Y3233342D01*
X3030000D01*
X3036664Y3226677D01*
Y3206684D01*
Y3220013D02*
X3049993Y3233342D01*
Y3273329D02*
Y3246671D01*
X3023335Y3273329D01*
X3016671D01*
X3010006Y3266665D01*
Y3253336D01*
X3016671Y3246671D01*
X3010006Y3313316D02*
Y3286658D01*
X3030000D01*
X3023335Y3299987D01*
Y3306652D01*
X3030000Y3313316D01*
X3043329D01*
X3049993Y3306652D01*
Y3293323D01*
X3043329Y3286658D01*
X2840831Y3306684D02*
X2800843D01*
Y3326677D01*
X2807508Y3333342D01*
X2820837D01*
X2827502Y3326677D01*
Y3306684D01*
Y3320013D02*
X2840831Y3333342D01*
Y3373329D02*
Y3346671D01*
X2814173Y3373329D01*
X2807508D01*
X2800843Y3366665D01*
Y3353336D01*
X2807508Y3346671D01*
X2800843Y3413316D02*
X2807508Y3399987D01*
X2820837Y3386658D01*
X2834166D01*
X2840831Y3393323D01*
Y3406652D01*
X2834166Y3413316D01*
X2827502D01*
X2820837Y3406652D01*
Y3386658D01*
X2872521Y3470006D02*
Y3509994D01*
X2892515D01*
X2899179Y3503329D01*
Y3490000D01*
X2892515Y3483336D01*
X2872521D01*
X2885850D02*
X2899179Y3470006D01*
X2939166D02*
X2912508D01*
X2939166Y3496664D01*
Y3503329D01*
X2932502Y3509994D01*
X2919173D01*
X2912508Y3503329D01*
X2952495D02*
X2959160Y3509994D01*
X2972489D01*
X2979153Y3503329D01*
Y3496664D01*
X2972489Y3490000D01*
X2979153Y3483336D01*
Y3476671D01*
X2972489Y3470006D01*
X2959160D01*
X2952495Y3476671D01*
Y3483336D01*
X2959160Y3490000D01*
X2952495Y3496664D01*
Y3503329D01*
X2959160Y3490000D02*
X2972489D01*
%TF.MD5,f61b00861f170b0e32bdb1152f87b441*%
M02*
